%TF.GenerationSoftware,KiCad,Pcbnew,9.0.2*%
%TF.CreationDate,2026-04-14T09:57:45-07:00*%
%TF.ProjectId,ANTS-Power-board,414e5453-2d50-46f7-9765-722d626f6172,rev?*%
%TF.SameCoordinates,Original*%
%TF.FileFunction,Copper,L2,Bot*%
%TF.FilePolarity,Positive*%
%FSLAX46Y46*%
G04 Gerber Fmt 4.6, Leading zero omitted, Abs format (unit mm)*
G04 Created by KiCad (PCBNEW 9.0.2) date 2026-04-14 09:57:45*
%MOMM*%
%LPD*%
G01*
G04 APERTURE LIST*
G04 Aperture macros list*
%AMRoundRect*
0 Rectangle with rounded corners*
0 $1 Rounding radius*
0 $2 $3 $4 $5 $6 $7 $8 $9 X,Y pos of 4 corners*
0 Add a 4 corners polygon primitive as box body*
4,1,4,$2,$3,$4,$5,$6,$7,$8,$9,$2,$3,0*
0 Add four circle primitives for the rounded corners*
1,1,$1+$1,$2,$3*
1,1,$1+$1,$4,$5*
1,1,$1+$1,$6,$7*
1,1,$1+$1,$8,$9*
0 Add four rect primitives between the rounded corners*
20,1,$1+$1,$2,$3,$4,$5,0*
20,1,$1+$1,$4,$5,$6,$7,0*
20,1,$1+$1,$6,$7,$8,$9,0*
20,1,$1+$1,$8,$9,$2,$3,0*%
G04 Aperture macros list end*
%TA.AperFunction,ComponentPad*%
%ADD10C,0.800000*%
%TD*%
%TA.AperFunction,ComponentPad*%
%ADD11C,6.400000*%
%TD*%
%TA.AperFunction,ComponentPad*%
%ADD12RoundRect,0.250000X0.575000X-0.350000X0.575000X0.350000X-0.575000X0.350000X-0.575000X-0.350000X0*%
%TD*%
%TA.AperFunction,ComponentPad*%
%ADD13O,1.650000X1.200000*%
%TD*%
%TA.AperFunction,ComponentPad*%
%ADD14C,1.000000*%
%TD*%
%TA.AperFunction,ComponentPad*%
%ADD15C,2.200000*%
%TD*%
%TA.AperFunction,ViaPad*%
%ADD16C,0.700000*%
%TD*%
%TA.AperFunction,ViaPad*%
%ADD17C,0.600000*%
%TD*%
%TA.AperFunction,Conductor*%
%ADD18C,0.200000*%
%TD*%
G04 APERTURE END LIST*
D10*
%TO.P,MH3,1,1*%
%TO.N,VBAT-*%
X2600000Y5000000D03*
X3302944Y6697056D03*
X3302944Y3302944D03*
X5000000Y7400000D03*
D11*
X5000000Y5000000D03*
D10*
X5000000Y2600000D03*
X6697056Y6697056D03*
X6697056Y3302944D03*
X7400000Y5000000D03*
%TD*%
D12*
%TO.P,J1,1,Pin_1*%
%TO.N,VBAT-*%
X7000000Y44000000D03*
D13*
%TO.P,J1,2,Pin_2*%
%TO.N,VBAT+*%
X9000000Y44000000D03*
%TO.P,J1,3,Pin_3*%
%TO.N,VBAT-*%
X7000000Y46000000D03*
%TO.P,J1,4,Pin_4*%
%TO.N,VBAT+*%
X9000000Y46000000D03*
%TO.P,J1,5,Pin_5*%
%TO.N,VBAT-*%
X7000000Y48000000D03*
%TO.P,J1,6,Pin_6*%
%TO.N,VBAT+*%
X9000000Y48000000D03*
%TO.P,J1,7,Pin_7*%
%TO.N,VBAT-*%
X7000000Y50000000D03*
%TO.P,J1,8,Pin_8*%
%TO.N,VBAT+*%
X9000000Y50000000D03*
%TO.P,J1,9,Pin_9*%
%TO.N,VBAT-*%
X7000000Y52000000D03*
%TO.P,J1,10,Pin_10*%
%TO.N,VBAT+*%
X9000000Y52000000D03*
%TO.P,J1,11,Pin_11*%
%TO.N,VBAT-*%
X7000000Y54000000D03*
%TO.P,J1,12,Pin_12*%
%TO.N,VBAT+*%
X9000000Y54000000D03*
%TD*%
D10*
%TO.P,MH4,1,1*%
%TO.N,VBAT-*%
X72600000Y5000000D03*
X73302944Y6697056D03*
X73302944Y3302944D03*
X75000000Y7400000D03*
D11*
X75000000Y5000000D03*
D10*
X75000000Y2600000D03*
X76697056Y6697056D03*
X76697056Y3302944D03*
X77400000Y5000000D03*
%TD*%
D14*
%TO.P,TP2,1,1*%
%TO.N,/3.3v_LDO/ON{slash}~{OFF}*%
X52575000Y13550000D03*
%TD*%
%TO.P,TP1,1,1*%
%TO.N,5V_OUTPUT*%
X52500000Y22250000D03*
%TD*%
D12*
%TO.P,J2,1,Pin_1*%
%TO.N,VBAT-*%
X7000000Y26000000D03*
D13*
%TO.P,J2,2,Pin_2*%
%TO.N,VBAT+*%
X9000000Y26000000D03*
%TO.P,J2,3,Pin_3*%
%TO.N,VBAT-*%
X7000000Y28000000D03*
%TO.P,J2,4,Pin_4*%
%TO.N,VBAT+*%
X9000000Y28000000D03*
%TO.P,J2,5,Pin_5*%
%TO.N,VBAT-*%
X7000000Y30000000D03*
%TO.P,J2,6,Pin_6*%
%TO.N,VBAT+*%
X9000000Y30000000D03*
%TO.P,J2,7,Pin_7*%
%TO.N,VBAT-*%
X7000000Y32000000D03*
%TO.P,J2,8,Pin_8*%
%TO.N,VBAT+*%
X9000000Y32000000D03*
%TO.P,J2,9,Pin_9*%
%TO.N,VBAT-*%
X7000000Y34000000D03*
%TO.P,J2,10,Pin_10*%
%TO.N,VBAT+*%
X9000000Y34000000D03*
%TO.P,J2,11,Pin_11*%
%TO.N,VBAT-*%
X7000000Y36000000D03*
%TO.P,J2,12,Pin_12*%
%TO.N,VBAT+*%
X9000000Y36000000D03*
%TD*%
D10*
%TO.P,MH2,1,1*%
%TO.N,VBAT-*%
X72600000Y75000000D03*
X73302944Y76697056D03*
X73302944Y73302944D03*
X75000000Y77400000D03*
D11*
X75000000Y75000000D03*
D10*
X75000000Y72600000D03*
X76697056Y76697056D03*
X76697056Y73302944D03*
X77400000Y75000000D03*
%TD*%
D15*
%TO.P,J3,1,Pin_1*%
%TO.N,5V_OUTPUT*%
X68150000Y58250000D03*
%TO.P,J3,2,Pin_2*%
%TO.N,VBAT-*%
X68150000Y61750000D03*
%TD*%
D10*
%TO.P,MH1,1,1*%
%TO.N,VBAT-*%
X2600000Y75000000D03*
X3302944Y76697056D03*
X3302944Y73302944D03*
X5000000Y77400000D03*
D11*
X5000000Y75000000D03*
D10*
X5000000Y72600000D03*
X6697056Y76697056D03*
X6697056Y73302944D03*
X7400000Y75000000D03*
%TD*%
D15*
%TO.P,J4,1,Pin_1*%
%TO.N,3V3_OUTPUT*%
X68250000Y22450000D03*
%TO.P,J4,2,Pin_2*%
%TO.N,VBAT-*%
X68250000Y25950000D03*
%TD*%
D16*
%TO.N,VBAT-*%
X37250000Y53250000D03*
X15000000Y40000000D03*
X65000000Y40000000D03*
X50000000Y55000000D03*
X50000000Y35000000D03*
X45000000Y30000000D03*
X25000000Y10000000D03*
X59550000Y62750000D03*
X5000000Y60000000D03*
X75000000Y20000000D03*
X69250000Y63250000D03*
X60000000Y45000000D03*
X15000000Y20000000D03*
X24500000Y54000000D03*
X25750000Y66250000D03*
X45000000Y70000000D03*
X20000000Y25000000D03*
X70000000Y61750000D03*
X40000000Y65000000D03*
X69250000Y27500000D03*
X66500000Y26000000D03*
X55000000Y40000000D03*
X34750000Y53250000D03*
X45000000Y40000000D03*
X15000000Y70000000D03*
X60000000Y5000000D03*
X20000000Y15000000D03*
X36500000Y53250000D03*
X30000000Y25000000D03*
X50000000Y45000000D03*
X45000000Y20000000D03*
X75000000Y60000000D03*
X10000000Y15000000D03*
X25000000Y70000000D03*
X31250000Y50000000D03*
X29750000Y52000000D03*
X45000000Y10000000D03*
X39750000Y62975000D03*
X24250000Y60500000D03*
X39750000Y53250000D03*
X20000000Y75000000D03*
X70000000Y45000000D03*
X55000000Y10000000D03*
X22955000Y59700000D03*
X58800000Y62750000D03*
X16500000Y60750000D03*
X16500000Y56000000D03*
X70000000Y15000000D03*
X66250000Y61750000D03*
X24500000Y53250000D03*
X61300000Y62750000D03*
X35000000Y20000000D03*
X60000000Y65000000D03*
X24500000Y64000000D03*
X65000000Y70000000D03*
X75000000Y70000000D03*
X5000000Y10000000D03*
X17500000Y56000000D03*
X35000000Y70000000D03*
X35000000Y40000000D03*
X30000000Y5000000D03*
X62050000Y62750000D03*
X27250000Y52000000D03*
X39000000Y62975000D03*
X70000000Y5000000D03*
X17500000Y60750000D03*
X50000000Y75000000D03*
X24250000Y56000000D03*
X25000000Y20000000D03*
X60000000Y15000000D03*
X39000000Y53250000D03*
X24500000Y52500000D03*
X37250000Y62975000D03*
X20000000Y5000000D03*
X40000000Y15000000D03*
X31500000Y66250000D03*
X35000000Y10000000D03*
X36500000Y62975000D03*
X24500000Y62500000D03*
X75000000Y40000000D03*
X75000000Y10000000D03*
X23500000Y55500000D03*
X18500000Y60750000D03*
X55000000Y30000000D03*
X40000000Y75000000D03*
X5000000Y70000000D03*
X60000000Y75000000D03*
X24500000Y63250000D03*
X40000000Y35000000D03*
X33750000Y62975000D03*
X22955000Y56600000D03*
X70000000Y35000000D03*
X40000000Y5000000D03*
X5000000Y50000000D03*
X30000000Y15000000D03*
X20000000Y35000000D03*
X15000000Y50000000D03*
X65000000Y20000000D03*
X60000000Y55000000D03*
X27500000Y64250000D03*
X25000000Y30000000D03*
X28750000Y66250000D03*
X50000000Y65000000D03*
X10000000Y75000000D03*
X24250000Y61500000D03*
X65000000Y30000000D03*
X40000000Y45000000D03*
X75000000Y50000000D03*
X30000000Y35000000D03*
X10000000Y5000000D03*
X40000000Y25000000D03*
X20000000Y45000000D03*
X70000000Y75000000D03*
X60000000Y35000000D03*
X5000000Y20000000D03*
X30000000Y45000000D03*
X67250000Y27500000D03*
X65000000Y10000000D03*
X23500000Y61000000D03*
X10000000Y65000000D03*
X35000000Y50000000D03*
X25000000Y40000000D03*
X65000000Y50000000D03*
X75000000Y30000000D03*
X70000000Y26000000D03*
X25500000Y50000000D03*
X45000000Y50000000D03*
X34500000Y62975000D03*
X28500000Y50000000D03*
X5000000Y40000000D03*
X34000000Y53250000D03*
X15000000Y30000000D03*
X55000000Y50000000D03*
X70000000Y55000000D03*
X5000000Y30000000D03*
X30000000Y75000000D03*
X67000000Y63250000D03*
X35000000Y30000000D03*
X55000000Y70000000D03*
X70000000Y65000000D03*
X15000000Y10000000D03*
X24250000Y55000000D03*
X50000000Y5000000D03*
X19250000Y60000000D03*
X30000000Y64250000D03*
%TO.N,VBAT+*%
X16875000Y53125000D03*
X20100000Y55600000D03*
%TO.N,/5V SMPS/VO*%
X32250000Y56750000D03*
X18750000Y57500000D03*
%TO.N,5V_OUTPUT*%
X14750000Y59750000D03*
D17*
X49775000Y16150000D03*
X49775000Y19750000D03*
D16*
X60500000Y58000000D03*
%TD*%
D18*
%TO.N,VBAT+*%
X20000000Y55600000D02*
X20100000Y55600000D01*
X20100000Y55600000D02*
X17625000Y53125000D01*
X17625000Y53125000D02*
X16875000Y53125000D01*
%TO.N,/5V SMPS/VO*%
X31500000Y57500000D02*
X32250000Y56750000D01*
X18750000Y57500000D02*
X31500000Y57500000D01*
%TO.N,5V_OUTPUT*%
X14750000Y58750000D02*
X14750000Y59750000D01*
X15250000Y58250000D02*
X14750000Y58750000D01*
X49775000Y16150000D02*
X49775000Y19750000D01*
X60250000Y58250000D02*
X15250000Y58250000D01*
X60500000Y58000000D02*
X60250000Y58250000D01*
%TD*%
%TA.AperFunction,Conductor*%
%TO.N,VBAT-*%
G36*
X75002152Y79499407D02*
G01*
X75387853Y79482566D01*
X75396432Y79481816D01*
X75777053Y79431705D01*
X75785544Y79430208D01*
X76160338Y79347119D01*
X76168673Y79344885D01*
X76534797Y79229447D01*
X76542913Y79226493D01*
X76897587Y79079582D01*
X76905398Y79075940D01*
X77245910Y78898680D01*
X77253390Y78894362D01*
X77577167Y78688094D01*
X77584241Y78683140D01*
X77888797Y78449446D01*
X77895398Y78443907D01*
X78178459Y78184530D01*
X78184529Y78178460D01*
X78443905Y77895401D01*
X78449445Y77888798D01*
X78683139Y77584242D01*
X78688093Y77577168D01*
X78894361Y77253391D01*
X78898679Y77245911D01*
X79075935Y76905407D01*
X79079585Y76897580D01*
X79226492Y76542914D01*
X79229446Y76534798D01*
X79344884Y76168674D01*
X79347119Y76160332D01*
X79430205Y75785555D01*
X79431705Y75777049D01*
X79481813Y75396446D01*
X79482566Y75387842D01*
X79499406Y75002153D01*
X79499500Y74997835D01*
X79499500Y68248322D01*
X79480593Y68190131D01*
X79470504Y68178318D01*
X76692686Y65400500D01*
X76692685Y65400501D01*
X76599500Y65307315D01*
X76599496Y65307310D01*
X76533609Y65193191D01*
X76533608Y65193186D01*
X76499500Y65065892D01*
X76499500Y15065893D01*
X76499500Y15065892D01*
X76499500Y14934108D01*
X76529579Y14821849D01*
X76533609Y14806810D01*
X76599496Y14692691D01*
X76599498Y14692689D01*
X76599500Y14692686D01*
X79470505Y11821681D01*
X79498281Y11767166D01*
X79499500Y11751679D01*
X79499500Y5002166D01*
X79499406Y4997848D01*
X79482566Y4612159D01*
X79481813Y4603555D01*
X79431705Y4222952D01*
X79430205Y4214446D01*
X79347119Y3839669D01*
X79344884Y3831327D01*
X79229446Y3465203D01*
X79226492Y3457087D01*
X79079585Y3102421D01*
X79075935Y3094594D01*
X78898679Y2754090D01*
X78894361Y2746610D01*
X78688093Y2422833D01*
X78683139Y2415759D01*
X78449445Y2111203D01*
X78443895Y2104589D01*
X78184540Y1821553D01*
X78178447Y1815460D01*
X78162727Y1801054D01*
X77895413Y1556106D01*
X77888797Y1550555D01*
X77584241Y1316861D01*
X77577167Y1311907D01*
X77253390Y1105639D01*
X77245910Y1101321D01*
X76905406Y924065D01*
X76897579Y920415D01*
X76542913Y773508D01*
X76534797Y770554D01*
X76168673Y655116D01*
X76160331Y652881D01*
X75785554Y569795D01*
X75777048Y568295D01*
X75396445Y518187D01*
X75387841Y517434D01*
X75002153Y500594D01*
X74997835Y500500D01*
X5002165Y500500D01*
X4997847Y500594D01*
X4612158Y517434D01*
X4603554Y518187D01*
X4222951Y568295D01*
X4214445Y569795D01*
X3839668Y652881D01*
X3831326Y655116D01*
X3465202Y770554D01*
X3457086Y773508D01*
X3102420Y920415D01*
X3094593Y924065D01*
X2754089Y1101321D01*
X2746609Y1105639D01*
X2422832Y1311907D01*
X2415758Y1316861D01*
X2111202Y1550555D01*
X2104599Y1556095D01*
X1821540Y1815471D01*
X1815470Y1821541D01*
X1556093Y2104602D01*
X1550554Y2111203D01*
X1316860Y2415759D01*
X1311906Y2422833D01*
X1105638Y2746610D01*
X1101320Y2754090D01*
X924064Y3094594D01*
X920414Y3102421D01*
X773507Y3457087D01*
X770553Y3465203D01*
X655115Y3831327D01*
X652880Y3839669D01*
X569794Y4214446D01*
X568294Y4222952D01*
X555643Y4319047D01*
X518184Y4603568D01*
X517434Y4612147D01*
X500594Y4997848D01*
X500500Y5002166D01*
X500500Y11751679D01*
X519407Y11809870D01*
X529490Y11821677D01*
X2336659Y13628845D01*
X51774500Y13628845D01*
X51774500Y13471156D01*
X51805263Y13316504D01*
X51805263Y13316502D01*
X51865603Y13170826D01*
X51865609Y13170815D01*
X51918312Y13091941D01*
X51953211Y13039711D01*
X52064711Y12928211D01*
X52142876Y12875983D01*
X52195814Y12840610D01*
X52195825Y12840604D01*
X52249638Y12818315D01*
X52341503Y12780263D01*
X52496158Y12749500D01*
X52496159Y12749500D01*
X52653841Y12749500D01*
X52653842Y12749500D01*
X52808497Y12780263D01*
X52954179Y12840606D01*
X53085289Y12928211D01*
X53196789Y13039711D01*
X53284394Y13170821D01*
X53344737Y13316503D01*
X53375500Y13471158D01*
X53375500Y13628842D01*
X53344737Y13783497D01*
X53284394Y13929179D01*
X53284393Y13929181D01*
X53284390Y13929186D01*
X53249017Y13982124D01*
X53196789Y14060289D01*
X53085289Y14171789D01*
X53033059Y14206688D01*
X52954185Y14259391D01*
X52954174Y14259397D01*
X52808497Y14319737D01*
X52653844Y14350500D01*
X52653842Y14350500D01*
X52496158Y14350500D01*
X52496155Y14350500D01*
X52341503Y14319737D01*
X52341501Y14319737D01*
X52195825Y14259397D01*
X52195814Y14259391D01*
X52064711Y14171789D01*
X52064707Y14171786D01*
X51953214Y14060293D01*
X51953211Y14060289D01*
X51865609Y13929186D01*
X51865603Y13929175D01*
X51805263Y13783499D01*
X51805263Y13783497D01*
X51774500Y13628845D01*
X2336659Y13628845D01*
X3400500Y14692686D01*
X3466392Y14806814D01*
X3500500Y14934108D01*
X3500500Y15065893D01*
X3500500Y19829057D01*
X49174500Y19829057D01*
X49174500Y19670943D01*
X49215423Y19518216D01*
X49294480Y19381284D01*
X49345505Y19330259D01*
X49373281Y19275744D01*
X49374500Y19260257D01*
X49374500Y16639744D01*
X49355593Y16581553D01*
X49345504Y16569741D01*
X49294482Y16518719D01*
X49294480Y16518717D01*
X49294480Y16518716D01*
X49215423Y16381784D01*
X49174500Y16229057D01*
X49174500Y16070943D01*
X49215423Y15918216D01*
X49294480Y15781284D01*
X49406284Y15669480D01*
X49543216Y15590423D01*
X49695943Y15549500D01*
X49695945Y15549500D01*
X49854055Y15549500D01*
X49854057Y15549500D01*
X50006784Y15590423D01*
X50143716Y15669480D01*
X50255520Y15781284D01*
X50334577Y15918216D01*
X50375500Y16070943D01*
X50375500Y16229057D01*
X50334577Y16381784D01*
X50255520Y16518716D01*
X50255517Y16518719D01*
X50204496Y16569741D01*
X50176719Y16624258D01*
X50175500Y16639744D01*
X50175500Y19260257D01*
X50194407Y19318448D01*
X50204490Y19330255D01*
X50255520Y19381284D01*
X50334577Y19518216D01*
X50375500Y19670943D01*
X50375500Y19829057D01*
X50334577Y19981784D01*
X50255520Y20118716D01*
X50143716Y20230520D01*
X50006784Y20309577D01*
X49854057Y20350500D01*
X49695943Y20350500D01*
X49543216Y20309577D01*
X49406284Y20230520D01*
X49294480Y20118716D01*
X49215423Y19981784D01*
X49174500Y19829057D01*
X3500500Y19829057D01*
X3500500Y22328845D01*
X51699500Y22328845D01*
X51699500Y22171156D01*
X51730263Y22016504D01*
X51730263Y22016502D01*
X51790603Y21870826D01*
X51790609Y21870815D01*
X51843312Y21791941D01*
X51878211Y21739711D01*
X51989711Y21628211D01*
X52067876Y21575983D01*
X52120814Y21540610D01*
X52120825Y21540604D01*
X52174638Y21518315D01*
X52266503Y21480263D01*
X52421158Y21449500D01*
X52421159Y21449500D01*
X52578841Y21449500D01*
X52578842Y21449500D01*
X52733497Y21480263D01*
X52879179Y21540606D01*
X53010289Y21628211D01*
X53121789Y21739711D01*
X53209394Y21870821D01*
X53269737Y22016503D01*
X53300500Y22171158D01*
X53300500Y22328842D01*
X53269737Y22483497D01*
X53237955Y22560226D01*
X66849500Y22560226D01*
X66849500Y22339775D01*
X66883984Y22122052D01*
X66952102Y21912401D01*
X66952104Y21912398D01*
X66952105Y21912394D01*
X66973288Y21870821D01*
X67040093Y21739708D01*
X67052185Y21715978D01*
X67181758Y21537635D01*
X67337635Y21381758D01*
X67515978Y21252185D01*
X67712394Y21152105D01*
X67922049Y21083985D01*
X68009140Y21070191D01*
X68139775Y21049500D01*
X68139778Y21049500D01*
X68360225Y21049500D01*
X68469086Y21066743D01*
X68577951Y21083985D01*
X68787606Y21152105D01*
X68984022Y21252185D01*
X69162365Y21381758D01*
X69318242Y21537635D01*
X69447815Y21715978D01*
X69547895Y21912394D01*
X69616015Y22122049D01*
X69648768Y22328842D01*
X69650500Y22339775D01*
X69650500Y22560226D01*
X69616015Y22777949D01*
X69616015Y22777951D01*
X69547895Y22987606D01*
X69447815Y23184022D01*
X69318242Y23362365D01*
X69162365Y23518242D01*
X68984022Y23647815D01*
X68984021Y23647816D01*
X68984019Y23647817D01*
X68894825Y23693264D01*
X68787606Y23747895D01*
X68787602Y23747896D01*
X68787599Y23747898D01*
X68577948Y23816016D01*
X68360225Y23850500D01*
X68360222Y23850500D01*
X68139778Y23850500D01*
X68139775Y23850500D01*
X67922051Y23816016D01*
X67712400Y23747898D01*
X67515980Y23647817D01*
X67426806Y23583029D01*
X67337635Y23518242D01*
X67181758Y23362365D01*
X67116971Y23273194D01*
X67052183Y23184020D01*
X66952102Y22987600D01*
X66883984Y22777949D01*
X66849500Y22560226D01*
X53237955Y22560226D01*
X53209394Y22629179D01*
X53209393Y22629181D01*
X53209390Y22629186D01*
X53174017Y22682124D01*
X53121789Y22760289D01*
X53010289Y22871789D01*
X52958059Y22906688D01*
X52879185Y22959391D01*
X52879174Y22959397D01*
X52733497Y23019737D01*
X52578844Y23050500D01*
X52578842Y23050500D01*
X52421158Y23050500D01*
X52421155Y23050500D01*
X52266503Y23019737D01*
X52266501Y23019737D01*
X52120825Y22959397D01*
X52120814Y22959391D01*
X51989711Y22871789D01*
X51989707Y22871786D01*
X51878214Y22760293D01*
X51878211Y22760289D01*
X51790609Y22629186D01*
X51790603Y22629175D01*
X51730263Y22483499D01*
X51730263Y22483497D01*
X51699500Y22328845D01*
X3500500Y22328845D01*
X3500500Y26088694D01*
X7874500Y26088694D01*
X7874500Y25911307D01*
X7909106Y25737335D01*
X7909106Y25737333D01*
X7976985Y25573456D01*
X7976985Y25573455D01*
X8075535Y25425966D01*
X8075536Y25425965D01*
X8200965Y25300536D01*
X8348453Y25201987D01*
X8512334Y25134106D01*
X8686309Y25099500D01*
X8686310Y25099500D01*
X9313690Y25099500D01*
X9313691Y25099500D01*
X9487666Y25134106D01*
X9651547Y25201987D01*
X9799035Y25300536D01*
X9924464Y25425965D01*
X10023013Y25573453D01*
X10090894Y25737334D01*
X10125500Y25911309D01*
X10125500Y26088691D01*
X10090894Y26262666D01*
X10023014Y26426545D01*
X10023014Y26426546D01*
X9924464Y26574035D01*
X9799034Y26699465D01*
X9651544Y26798015D01*
X9487666Y26865894D01*
X9313693Y26900500D01*
X9313691Y26900500D01*
X8686309Y26900500D01*
X8686306Y26900500D01*
X8512334Y26865894D01*
X8512332Y26865894D01*
X8348455Y26798015D01*
X8348454Y26798015D01*
X8200965Y26699465D01*
X8075535Y26574035D01*
X7976985Y26426546D01*
X7976985Y26426545D01*
X7909106Y26262668D01*
X7909106Y26262666D01*
X7874500Y26088694D01*
X3500500Y26088694D01*
X3500500Y28088694D01*
X7874500Y28088694D01*
X7874500Y27911307D01*
X7909106Y27737335D01*
X7909106Y27737333D01*
X7976985Y27573456D01*
X7976985Y27573455D01*
X8075535Y27425966D01*
X8075536Y27425965D01*
X8200965Y27300536D01*
X8348453Y27201987D01*
X8512334Y27134106D01*
X8686309Y27099500D01*
X8686310Y27099500D01*
X9313690Y27099500D01*
X9313691Y27099500D01*
X9487666Y27134106D01*
X9651547Y27201987D01*
X9799035Y27300536D01*
X9924464Y27425965D01*
X10023013Y27573453D01*
X10090894Y27737334D01*
X10125500Y27911309D01*
X10125500Y28088691D01*
X10090894Y28262666D01*
X10023014Y28426545D01*
X10023014Y28426546D01*
X9924464Y28574035D01*
X9799034Y28699465D01*
X9651544Y28798015D01*
X9487666Y28865894D01*
X9313693Y28900500D01*
X9313691Y28900500D01*
X8686309Y28900500D01*
X8686306Y28900500D01*
X8512334Y28865894D01*
X8512332Y28865894D01*
X8348455Y28798015D01*
X8348454Y28798015D01*
X8200965Y28699465D01*
X8075535Y28574035D01*
X7976985Y28426546D01*
X7976985Y28426545D01*
X7909106Y28262668D01*
X7909106Y28262666D01*
X7874500Y28088694D01*
X3500500Y28088694D01*
X3500500Y30088694D01*
X7874500Y30088694D01*
X7874500Y29911307D01*
X7909106Y29737335D01*
X7909106Y29737333D01*
X7976985Y29573456D01*
X7976985Y29573455D01*
X8075535Y29425966D01*
X8075536Y29425965D01*
X8200965Y29300536D01*
X8348453Y29201987D01*
X8512334Y29134106D01*
X8686309Y29099500D01*
X8686310Y29099500D01*
X9313690Y29099500D01*
X9313691Y29099500D01*
X9487666Y29134106D01*
X9651547Y29201987D01*
X9799035Y29300536D01*
X9924464Y29425965D01*
X10023013Y29573453D01*
X10090894Y29737334D01*
X10125500Y29911309D01*
X10125500Y30088691D01*
X10090894Y30262666D01*
X10023014Y30426545D01*
X10023014Y30426546D01*
X9924464Y30574035D01*
X9799034Y30699465D01*
X9651544Y30798015D01*
X9487666Y30865894D01*
X9313693Y30900500D01*
X9313691Y30900500D01*
X8686309Y30900500D01*
X8686306Y30900500D01*
X8512334Y30865894D01*
X8512332Y30865894D01*
X8348455Y30798015D01*
X8348454Y30798015D01*
X8200965Y30699465D01*
X8075535Y30574035D01*
X7976985Y30426546D01*
X7976985Y30426545D01*
X7909106Y30262668D01*
X7909106Y30262666D01*
X7874500Y30088694D01*
X3500500Y30088694D01*
X3500500Y32088694D01*
X7874500Y32088694D01*
X7874500Y31911307D01*
X7909106Y31737335D01*
X7909106Y31737333D01*
X7976985Y31573456D01*
X7976985Y31573455D01*
X8075535Y31425966D01*
X8075536Y31425965D01*
X8200965Y31300536D01*
X8348453Y31201987D01*
X8512334Y31134106D01*
X8686309Y31099500D01*
X8686310Y31099500D01*
X9313690Y31099500D01*
X9313691Y31099500D01*
X9487666Y31134106D01*
X9651547Y31201987D01*
X9799035Y31300536D01*
X9924464Y31425965D01*
X10023013Y31573453D01*
X10090894Y31737334D01*
X10125500Y31911309D01*
X10125500Y32088691D01*
X10090894Y32262666D01*
X10023014Y32426545D01*
X10023014Y32426546D01*
X9924464Y32574035D01*
X9799034Y32699465D01*
X9651544Y32798015D01*
X9487666Y32865894D01*
X9313693Y32900500D01*
X9313691Y32900500D01*
X8686309Y32900500D01*
X8686306Y32900500D01*
X8512334Y32865894D01*
X8512332Y32865894D01*
X8348455Y32798015D01*
X8348454Y32798015D01*
X8200965Y32699465D01*
X8075535Y32574035D01*
X7976985Y32426546D01*
X7976985Y32426545D01*
X7909106Y32262668D01*
X7909106Y32262666D01*
X7874500Y32088694D01*
X3500500Y32088694D01*
X3500500Y34088694D01*
X7874500Y34088694D01*
X7874500Y33911307D01*
X7909106Y33737335D01*
X7909106Y33737333D01*
X7976985Y33573456D01*
X7976985Y33573455D01*
X8075535Y33425966D01*
X8075536Y33425965D01*
X8200965Y33300536D01*
X8348453Y33201987D01*
X8512334Y33134106D01*
X8686309Y33099500D01*
X8686310Y33099500D01*
X9313690Y33099500D01*
X9313691Y33099500D01*
X9487666Y33134106D01*
X9651547Y33201987D01*
X9799035Y33300536D01*
X9924464Y33425965D01*
X10023013Y33573453D01*
X10090894Y33737334D01*
X10125500Y33911309D01*
X10125500Y34088691D01*
X10090894Y34262666D01*
X10023014Y34426545D01*
X10023014Y34426546D01*
X9924464Y34574035D01*
X9799034Y34699465D01*
X9651544Y34798015D01*
X9487666Y34865894D01*
X9313693Y34900500D01*
X9313691Y34900500D01*
X8686309Y34900500D01*
X8686306Y34900500D01*
X8512334Y34865894D01*
X8512332Y34865894D01*
X8348455Y34798015D01*
X8348454Y34798015D01*
X8200965Y34699465D01*
X8075535Y34574035D01*
X7976985Y34426546D01*
X7976985Y34426545D01*
X7909106Y34262668D01*
X7909106Y34262666D01*
X7874500Y34088694D01*
X3500500Y34088694D01*
X3500500Y36088694D01*
X7874500Y36088694D01*
X7874500Y35911307D01*
X7909106Y35737335D01*
X7909106Y35737333D01*
X7976985Y35573456D01*
X7976985Y35573455D01*
X8075535Y35425966D01*
X8075536Y35425965D01*
X8200965Y35300536D01*
X8348453Y35201987D01*
X8512334Y35134106D01*
X8686309Y35099500D01*
X8686310Y35099500D01*
X9313690Y35099500D01*
X9313691Y35099500D01*
X9487666Y35134106D01*
X9651547Y35201987D01*
X9799035Y35300536D01*
X9924464Y35425965D01*
X10023013Y35573453D01*
X10090894Y35737334D01*
X10125500Y35911309D01*
X10125500Y36088691D01*
X10090894Y36262666D01*
X10023014Y36426545D01*
X10023014Y36426546D01*
X9924464Y36574035D01*
X9799034Y36699465D01*
X9651544Y36798015D01*
X9487666Y36865894D01*
X9313693Y36900500D01*
X9313691Y36900500D01*
X8686309Y36900500D01*
X8686306Y36900500D01*
X8512334Y36865894D01*
X8512332Y36865894D01*
X8348455Y36798015D01*
X8348454Y36798015D01*
X8200965Y36699465D01*
X8075535Y36574035D01*
X7976985Y36426546D01*
X7976985Y36426545D01*
X7909106Y36262668D01*
X7909106Y36262666D01*
X7874500Y36088694D01*
X3500500Y36088694D01*
X3500500Y44088694D01*
X7874500Y44088694D01*
X7874500Y43911307D01*
X7909106Y43737335D01*
X7909106Y43737333D01*
X7976985Y43573456D01*
X7976985Y43573455D01*
X8075535Y43425966D01*
X8075536Y43425965D01*
X8200965Y43300536D01*
X8348453Y43201987D01*
X8512334Y43134106D01*
X8686309Y43099500D01*
X8686310Y43099500D01*
X9313690Y43099500D01*
X9313691Y43099500D01*
X9487666Y43134106D01*
X9651547Y43201987D01*
X9799035Y43300536D01*
X9924464Y43425965D01*
X10023013Y43573453D01*
X10090894Y43737334D01*
X10125500Y43911309D01*
X10125500Y44088691D01*
X10090894Y44262666D01*
X10023014Y44426545D01*
X10023014Y44426546D01*
X9924464Y44574035D01*
X9799034Y44699465D01*
X9651544Y44798015D01*
X9487666Y44865894D01*
X9313693Y44900500D01*
X9313691Y44900500D01*
X8686309Y44900500D01*
X8686306Y44900500D01*
X8512334Y44865894D01*
X8512332Y44865894D01*
X8348455Y44798015D01*
X8348454Y44798015D01*
X8200965Y44699465D01*
X8075535Y44574035D01*
X7976985Y44426546D01*
X7976985Y44426545D01*
X7909106Y44262668D01*
X7909106Y44262666D01*
X7874500Y44088694D01*
X3500500Y44088694D01*
X3500500Y46088694D01*
X7874500Y46088694D01*
X7874500Y45911307D01*
X7909106Y45737335D01*
X7909106Y45737333D01*
X7976985Y45573456D01*
X7976985Y45573455D01*
X8075535Y45425966D01*
X8075536Y45425965D01*
X8200965Y45300536D01*
X8348453Y45201987D01*
X8512334Y45134106D01*
X8686309Y45099500D01*
X8686310Y45099500D01*
X9313690Y45099500D01*
X9313691Y45099500D01*
X9487666Y45134106D01*
X9651547Y45201987D01*
X9799035Y45300536D01*
X9924464Y45425965D01*
X10023013Y45573453D01*
X10090894Y45737334D01*
X10125500Y45911309D01*
X10125500Y46088691D01*
X10090894Y46262666D01*
X10023014Y46426545D01*
X10023014Y46426546D01*
X9924464Y46574035D01*
X9799034Y46699465D01*
X9651544Y46798015D01*
X9487666Y46865894D01*
X9313693Y46900500D01*
X9313691Y46900500D01*
X8686309Y46900500D01*
X8686306Y46900500D01*
X8512334Y46865894D01*
X8512332Y46865894D01*
X8348455Y46798015D01*
X8348454Y46798015D01*
X8200965Y46699465D01*
X8075535Y46574035D01*
X7976985Y46426546D01*
X7976985Y46426545D01*
X7909106Y46262668D01*
X7909106Y46262666D01*
X7874500Y46088694D01*
X3500500Y46088694D01*
X3500500Y48088694D01*
X7874500Y48088694D01*
X7874500Y47911307D01*
X7909106Y47737335D01*
X7909106Y47737333D01*
X7976985Y47573456D01*
X7976985Y47573455D01*
X8075535Y47425966D01*
X8075536Y47425965D01*
X8200965Y47300536D01*
X8348453Y47201987D01*
X8512334Y47134106D01*
X8686309Y47099500D01*
X8686310Y47099500D01*
X9313690Y47099500D01*
X9313691Y47099500D01*
X9487666Y47134106D01*
X9651547Y47201987D01*
X9799035Y47300536D01*
X9924464Y47425965D01*
X10023013Y47573453D01*
X10090894Y47737334D01*
X10125500Y47911309D01*
X10125500Y48088691D01*
X10090894Y48262666D01*
X10023014Y48426545D01*
X10023014Y48426546D01*
X9924464Y48574035D01*
X9799034Y48699465D01*
X9651544Y48798015D01*
X9487666Y48865894D01*
X9313693Y48900500D01*
X9313691Y48900500D01*
X8686309Y48900500D01*
X8686306Y48900500D01*
X8512334Y48865894D01*
X8512332Y48865894D01*
X8348455Y48798015D01*
X8348454Y48798015D01*
X8200965Y48699465D01*
X8075535Y48574035D01*
X7976985Y48426546D01*
X7976985Y48426545D01*
X7909106Y48262668D01*
X7909106Y48262666D01*
X7874500Y48088694D01*
X3500500Y48088694D01*
X3500500Y50088694D01*
X7874500Y50088694D01*
X7874500Y49911307D01*
X7909106Y49737335D01*
X7909106Y49737333D01*
X7976985Y49573456D01*
X7976985Y49573455D01*
X8075535Y49425966D01*
X8075536Y49425965D01*
X8200965Y49300536D01*
X8348453Y49201987D01*
X8512334Y49134106D01*
X8686309Y49099500D01*
X8686310Y49099500D01*
X9313690Y49099500D01*
X9313691Y49099500D01*
X9487666Y49134106D01*
X9651547Y49201987D01*
X9799035Y49300536D01*
X9924464Y49425965D01*
X10023013Y49573453D01*
X10090894Y49737334D01*
X10125500Y49911309D01*
X10125500Y50088691D01*
X10090894Y50262666D01*
X10023014Y50426545D01*
X10023014Y50426546D01*
X9924464Y50574035D01*
X9799034Y50699465D01*
X9651544Y50798015D01*
X9487666Y50865894D01*
X9313693Y50900500D01*
X9313691Y50900500D01*
X8686309Y50900500D01*
X8686306Y50900500D01*
X8512334Y50865894D01*
X8512332Y50865894D01*
X8348455Y50798015D01*
X8348454Y50798015D01*
X8200965Y50699465D01*
X8075535Y50574035D01*
X7976985Y50426546D01*
X7976985Y50426545D01*
X7909106Y50262668D01*
X7909106Y50262666D01*
X7874500Y50088694D01*
X3500500Y50088694D01*
X3500500Y52088694D01*
X7874500Y52088694D01*
X7874500Y51911307D01*
X7909106Y51737335D01*
X7909106Y51737333D01*
X7976985Y51573456D01*
X7976985Y51573455D01*
X8075535Y51425966D01*
X8075536Y51425965D01*
X8200965Y51300536D01*
X8348453Y51201987D01*
X8512334Y51134106D01*
X8686309Y51099500D01*
X8686310Y51099500D01*
X9313690Y51099500D01*
X9313691Y51099500D01*
X9487666Y51134106D01*
X9651547Y51201987D01*
X9799035Y51300536D01*
X9924464Y51425965D01*
X10023013Y51573453D01*
X10090894Y51737334D01*
X10125500Y51911309D01*
X10125500Y52088691D01*
X10090894Y52262666D01*
X10023014Y52426545D01*
X10023014Y52426546D01*
X9924464Y52574035D01*
X9799034Y52699465D01*
X9651544Y52798015D01*
X9487666Y52865894D01*
X9313693Y52900500D01*
X9313691Y52900500D01*
X8686309Y52900500D01*
X8686306Y52900500D01*
X8512334Y52865894D01*
X8512332Y52865894D01*
X8348455Y52798015D01*
X8348454Y52798015D01*
X8200965Y52699465D01*
X8075535Y52574035D01*
X7976985Y52426546D01*
X7976985Y52426545D01*
X7909106Y52262668D01*
X7909106Y52262666D01*
X7874500Y52088694D01*
X3500500Y52088694D01*
X3500500Y54088694D01*
X7874500Y54088694D01*
X7874500Y53911307D01*
X7909106Y53737335D01*
X7909106Y53737333D01*
X7976985Y53573456D01*
X7976985Y53573455D01*
X8070750Y53433127D01*
X8075536Y53425965D01*
X8200965Y53300536D01*
X8348453Y53201987D01*
X8512334Y53134106D01*
X8686309Y53099500D01*
X8686310Y53099500D01*
X9313690Y53099500D01*
X9313691Y53099500D01*
X9487666Y53134106D01*
X9620362Y53189070D01*
X16224500Y53189070D01*
X16224500Y53060931D01*
X16249499Y52935258D01*
X16249500Y52935253D01*
X16298534Y52816875D01*
X16298538Y52816867D01*
X16341365Y52752774D01*
X16369724Y52710331D01*
X16460331Y52619724D01*
X16523848Y52577283D01*
X16566866Y52548539D01*
X16566870Y52548537D01*
X16566873Y52548535D01*
X16685256Y52499499D01*
X16810931Y52474500D01*
X16810932Y52474500D01*
X16939068Y52474500D01*
X16939069Y52474500D01*
X17064744Y52499499D01*
X17183127Y52548535D01*
X17289669Y52619724D01*
X17365448Y52695503D01*
X17419964Y52723281D01*
X17435452Y52724500D01*
X17677725Y52724500D01*
X17677727Y52724500D01*
X17779588Y52751793D01*
X17779590Y52751795D01*
X17779592Y52751795D01*
X17870908Y52804517D01*
X17870908Y52804518D01*
X17870913Y52804520D01*
X19986895Y54920505D01*
X20041412Y54948281D01*
X20056899Y54949500D01*
X20164068Y54949500D01*
X20164069Y54949500D01*
X20289744Y54974499D01*
X20408127Y55023535D01*
X20514669Y55094724D01*
X20605276Y55185331D01*
X20676465Y55291873D01*
X20725501Y55410256D01*
X20750500Y55535931D01*
X20750500Y55664069D01*
X20725501Y55789744D01*
X20676465Y55908127D01*
X20676463Y55908130D01*
X20676461Y55908134D01*
X20647717Y55951152D01*
X20605276Y56014669D01*
X20514669Y56105276D01*
X20472226Y56133635D01*
X20408133Y56176462D01*
X20408125Y56176466D01*
X20289747Y56225500D01*
X20289745Y56225501D01*
X20289744Y56225501D01*
X20164069Y56250500D01*
X20035931Y56250500D01*
X20035930Y56250500D01*
X19973093Y56238001D01*
X19910256Y56225501D01*
X19910255Y56225501D01*
X19910252Y56225500D01*
X19791874Y56176466D01*
X19791866Y56176462D01*
X19685331Y56105276D01*
X19685327Y56105273D01*
X19594727Y56014673D01*
X19594724Y56014669D01*
X19523538Y55908134D01*
X19523534Y55908126D01*
X19474500Y55789748D01*
X19474499Y55789743D01*
X19449500Y55664070D01*
X19449500Y55556901D01*
X19430593Y55498710D01*
X19420504Y55486897D01*
X17496779Y53563173D01*
X17442262Y53535396D01*
X17381830Y53544967D01*
X17356771Y53563174D01*
X17289677Y53630269D01*
X17289672Y53630273D01*
X17289669Y53630276D01*
X17247226Y53658635D01*
X17183133Y53701462D01*
X17183125Y53701466D01*
X17064747Y53750500D01*
X17064745Y53750501D01*
X17064744Y53750501D01*
X16939069Y53775500D01*
X16810931Y53775500D01*
X16810930Y53775500D01*
X16748093Y53763001D01*
X16685256Y53750501D01*
X16685255Y53750501D01*
X16685252Y53750500D01*
X16566874Y53701466D01*
X16566866Y53701462D01*
X16460331Y53630276D01*
X16460327Y53630273D01*
X16369727Y53539673D01*
X16369724Y53539669D01*
X16298538Y53433134D01*
X16298534Y53433126D01*
X16249500Y53314748D01*
X16249499Y53314745D01*
X16249499Y53314744D01*
X16236999Y53251907D01*
X16224500Y53189070D01*
X9620362Y53189070D01*
X9651547Y53201987D01*
X9799035Y53300536D01*
X9924464Y53425965D01*
X10023013Y53573453D01*
X10090894Y53737334D01*
X10125500Y53911309D01*
X10125500Y54088691D01*
X10090894Y54262666D01*
X10023014Y54426545D01*
X10023014Y54426546D01*
X9924464Y54574035D01*
X9799034Y54699465D01*
X9651544Y54798015D01*
X9487666Y54865894D01*
X9313693Y54900500D01*
X9313691Y54900500D01*
X8686309Y54900500D01*
X8686306Y54900500D01*
X8512334Y54865894D01*
X8512332Y54865894D01*
X8348455Y54798015D01*
X8348454Y54798015D01*
X8200965Y54699465D01*
X8075535Y54574035D01*
X7976985Y54426546D01*
X7976985Y54426545D01*
X7909106Y54262668D01*
X7909106Y54262666D01*
X7874500Y54088694D01*
X3500500Y54088694D01*
X3500500Y59814069D01*
X14099500Y59814069D01*
X14099500Y59685931D01*
X14113407Y59616016D01*
X14124499Y59560258D01*
X14124500Y59560253D01*
X14173534Y59441875D01*
X14173538Y59441867D01*
X14216365Y59377774D01*
X14244724Y59335331D01*
X14244727Y59335328D01*
X14244731Y59335323D01*
X14320503Y59259552D01*
X14348281Y59205036D01*
X14349500Y59189548D01*
X14349500Y58802727D01*
X14349500Y58697273D01*
X14366107Y58635293D01*
X14376794Y58595408D01*
X14429516Y58504092D01*
X14429518Y58504090D01*
X14429520Y58504087D01*
X14929518Y58004090D01*
X14929520Y58004087D01*
X15004087Y57929520D01*
X15029810Y57914669D01*
X15095412Y57876793D01*
X15197273Y57849500D01*
X18042508Y57849500D01*
X18100699Y57830593D01*
X18136663Y57781093D01*
X18136663Y57719907D01*
X18133972Y57712615D01*
X18124501Y57689752D01*
X18124499Y57689746D01*
X18124499Y57689744D01*
X18111999Y57626907D01*
X18103730Y57585332D01*
X18099500Y57564069D01*
X18099500Y57435931D01*
X18121275Y57326462D01*
X18124499Y57310258D01*
X18124500Y57310253D01*
X18173534Y57191875D01*
X18173538Y57191867D01*
X18191709Y57164673D01*
X18244724Y57085331D01*
X18335331Y56994724D01*
X18398848Y56952283D01*
X18441866Y56923539D01*
X18441870Y56923537D01*
X18441873Y56923535D01*
X18560256Y56874499D01*
X18685931Y56849500D01*
X18685932Y56849500D01*
X18814068Y56849500D01*
X18814069Y56849500D01*
X18939744Y56874499D01*
X19058127Y56923535D01*
X19164669Y56994724D01*
X19240448Y57070503D01*
X19294964Y57098281D01*
X19310452Y57099500D01*
X31293099Y57099500D01*
X31351290Y57080593D01*
X31363103Y57070504D01*
X31570504Y56863103D01*
X31598281Y56808586D01*
X31599500Y56793099D01*
X31599500Y56685931D01*
X31624499Y56560258D01*
X31624500Y56560253D01*
X31673534Y56441875D01*
X31673538Y56441867D01*
X31716365Y56377774D01*
X31744724Y56335331D01*
X31835331Y56244724D01*
X31898848Y56202283D01*
X31941866Y56173539D01*
X31941870Y56173537D01*
X31941873Y56173535D01*
X32060256Y56124499D01*
X32185931Y56099500D01*
X32185932Y56099500D01*
X32314068Y56099500D01*
X32314069Y56099500D01*
X32439744Y56124499D01*
X32558127Y56173535D01*
X32664669Y56244724D01*
X32755276Y56335331D01*
X32826465Y56441873D01*
X32875501Y56560256D01*
X32900500Y56685931D01*
X32900500Y56814069D01*
X32875501Y56939744D01*
X32826465Y57058127D01*
X32826463Y57058130D01*
X32826461Y57058134D01*
X32797717Y57101152D01*
X32755276Y57164669D01*
X32664669Y57255276D01*
X32622226Y57283635D01*
X32558133Y57326462D01*
X32558125Y57326466D01*
X32439747Y57375500D01*
X32439745Y57375501D01*
X32439744Y57375501D01*
X32314069Y57400500D01*
X32206901Y57400500D01*
X32148710Y57419407D01*
X32136898Y57429496D01*
X31885897Y57680496D01*
X31858119Y57735013D01*
X31867690Y57795445D01*
X31910955Y57838710D01*
X31955900Y57849500D01*
X59792094Y57849500D01*
X59850285Y57830593D01*
X59883558Y57788386D01*
X59923534Y57691875D01*
X59923538Y57691867D01*
X59966365Y57627774D01*
X59994724Y57585331D01*
X60085331Y57494724D01*
X60148848Y57452283D01*
X60191866Y57423539D01*
X60191870Y57423537D01*
X60191873Y57423535D01*
X60310256Y57374499D01*
X60435931Y57349500D01*
X60435932Y57349500D01*
X60564068Y57349500D01*
X60564069Y57349500D01*
X60689744Y57374499D01*
X60808127Y57423535D01*
X60914669Y57494724D01*
X61005276Y57585331D01*
X61076465Y57691873D01*
X61125501Y57810256D01*
X61150500Y57935931D01*
X61150500Y58064069D01*
X61125501Y58189744D01*
X61076465Y58308127D01*
X61076463Y58308130D01*
X61076461Y58308134D01*
X61075809Y58309110D01*
X61041654Y58360226D01*
X66749500Y58360226D01*
X66749500Y58139775D01*
X66783984Y57922052D01*
X66852102Y57712401D01*
X66852104Y57712398D01*
X66852105Y57712394D01*
X66868358Y57680496D01*
X66927680Y57564070D01*
X66952185Y57515978D01*
X67081758Y57337635D01*
X67237635Y57181758D01*
X67415978Y57052185D01*
X67612394Y56952105D01*
X67822049Y56883985D01*
X67909140Y56870191D01*
X68039775Y56849500D01*
X68039778Y56849500D01*
X68260225Y56849500D01*
X68369086Y56866743D01*
X68477951Y56883985D01*
X68687606Y56952105D01*
X68884022Y57052185D01*
X69062365Y57181758D01*
X69218242Y57337635D01*
X69347815Y57515978D01*
X69447895Y57712394D01*
X69516015Y57922049D01*
X69550500Y58139778D01*
X69550500Y58360222D01*
X69550500Y58360226D01*
X69516015Y58577949D01*
X69516015Y58577951D01*
X69447895Y58787606D01*
X69347815Y58984022D01*
X69218242Y59162365D01*
X69062365Y59318242D01*
X68884022Y59447815D01*
X68884021Y59447816D01*
X68884019Y59447817D01*
X68794825Y59493264D01*
X68687606Y59547895D01*
X68687602Y59547896D01*
X68687599Y59547898D01*
X68477948Y59616016D01*
X68260225Y59650500D01*
X68260222Y59650500D01*
X68039778Y59650500D01*
X68039775Y59650500D01*
X67822051Y59616016D01*
X67612400Y59547898D01*
X67415980Y59447817D01*
X67407802Y59441875D01*
X67237635Y59318242D01*
X67081758Y59162365D01*
X67016971Y59073194D01*
X66952183Y58984020D01*
X66852102Y58787600D01*
X66783984Y58577949D01*
X66749500Y58360226D01*
X61041654Y58360226D01*
X61005276Y58414669D01*
X60914669Y58505276D01*
X60872226Y58533635D01*
X60808133Y58576462D01*
X60808125Y58576466D01*
X60689747Y58625500D01*
X60689745Y58625501D01*
X60689744Y58625501D01*
X60564069Y58650500D01*
X60435931Y58650500D01*
X60435925Y58650500D01*
X60382119Y58639797D01*
X60337185Y58641268D01*
X60302729Y58650500D01*
X60302727Y58650500D01*
X15456899Y58650500D01*
X15398708Y58669407D01*
X15386895Y58679497D01*
X15179496Y58886897D01*
X15151719Y58941413D01*
X15150500Y58956900D01*
X15150500Y59189548D01*
X15169407Y59247739D01*
X15179497Y59259552D01*
X15255268Y59335323D01*
X15255276Y59335331D01*
X15326465Y59441873D01*
X15375501Y59560256D01*
X15400500Y59685931D01*
X15400500Y59814069D01*
X15375501Y59939744D01*
X15326465Y60058127D01*
X15326463Y60058130D01*
X15326461Y60058134D01*
X15297717Y60101152D01*
X15255276Y60164669D01*
X15164669Y60255276D01*
X15122226Y60283635D01*
X15058133Y60326462D01*
X15058125Y60326466D01*
X14939747Y60375500D01*
X14939745Y60375501D01*
X14939744Y60375501D01*
X14814069Y60400500D01*
X14685931Y60400500D01*
X14685930Y60400500D01*
X14623093Y60388001D01*
X14560256Y60375501D01*
X14560255Y60375501D01*
X14560252Y60375500D01*
X14441874Y60326466D01*
X14441866Y60326462D01*
X14335331Y60255276D01*
X14335327Y60255273D01*
X14244727Y60164673D01*
X14244724Y60164669D01*
X14173538Y60058134D01*
X14173534Y60058126D01*
X14124500Y59939748D01*
X14124499Y59939745D01*
X14124499Y59939744D01*
X14099500Y59814069D01*
X3500500Y59814069D01*
X3500500Y65065892D01*
X3466392Y65193186D01*
X3466390Y65193189D01*
X3466390Y65193191D01*
X3400503Y65307310D01*
X3400499Y65307315D01*
X3307314Y65400501D01*
X3307314Y65400500D01*
X529496Y68178318D01*
X501719Y68232835D01*
X500500Y68248322D01*
X500500Y74997835D01*
X500594Y75002153D01*
X510433Y75227502D01*
X517434Y75387856D01*
X518184Y75396432D01*
X568295Y75777058D01*
X569791Y75785541D01*
X652883Y76160345D01*
X655115Y76168674D01*
X770553Y76534798D01*
X773507Y76542914D01*
X785072Y76570834D01*
X920421Y76897597D01*
X924056Y76905391D01*
X1101325Y77245921D01*
X1105632Y77253382D01*
X1311913Y77577180D01*
X1316851Y77584231D01*
X1550564Y77888811D01*
X1556083Y77895388D01*
X1815481Y78178472D01*
X1821528Y78184519D01*
X2104612Y78443917D01*
X2111189Y78449436D01*
X2415769Y78683149D01*
X2422820Y78688087D01*
X2746618Y78894368D01*
X2754079Y78898675D01*
X3094609Y79075944D01*
X3102403Y79079579D01*
X3457093Y79226496D01*
X3465194Y79229445D01*
X3831334Y79344888D01*
X3839655Y79347117D01*
X4214459Y79430209D01*
X4222942Y79431705D01*
X4603568Y79481816D01*
X4612144Y79482566D01*
X4997847Y79499407D01*
X5002165Y79499500D01*
X5065892Y79499500D01*
X74934108Y79499500D01*
X74997835Y79499500D01*
X75002152Y79499407D01*
G37*
%TD.AperFunction*%
%TD*%
M02*
