M48
; DRILL file {KiCad 9.0.2} date 2026-04-14T22:24:35-0700
; FORMAT={-:-/ absolute / inch / decimal}
; #@! TF.CreationDate,2026-04-14T22:24:35-07:00
; #@! TF.GenerationSoftware,Kicad,Pcbnew,9.0.2
; #@! TF.FileFunction,Plated,1,2,PTH
FMAT,2
INCH
; #@! TA.AperFunction,Plated,PTH,ViaDrill
T1C0.0118
; #@! TA.AperFunction,Plated,PTH,ComponentDrill
T2C0.0197
; #@! TA.AperFunction,Plated,PTH,ComponentDrill
T3C0.0335
; #@! TA.AperFunction,Plated,PTH,ComponentDrill
T4C0.0394
; #@! TA.AperFunction,Plated,PTH,ComponentDrill
T5C0.0551
; #@! TA.AperFunction,Plated,PTH,ComponentDrill
T6C0.1260
%
G90
G05
T1
X0.1969Y2.7559
X0.1969Y2.3622
X0.1969Y1.9685
X0.1969Y1.1811
X0.1969Y0.7874
X0.1969Y0.3937
X0.2559Y1.5748
X0.3937Y2.9528
X0.3937Y2.5591
X0.3937Y0.5906
X0.3937Y0.1969
X0.5807Y2.3524
X0.5906Y2.7559
X0.5906Y0.7874
X0.5906Y0.3937
X0.6496Y2.3917
X0.6496Y2.2047
X0.6644Y2.0915
X0.689Y2.3917
X0.689Y2.2047
X0.7283Y2.3917
X0.7382Y2.2638
X0.7579Y2.3622
X0.7874Y2.9528
X0.7874Y1.7323
X0.7874Y1.378
X0.7874Y1.063
X0.7874Y0.5906
X0.7874Y0.1969
X0.7913Y2.189
X0.9037Y2.3504
X0.9037Y2.2283
X0.9252Y2.4016
X0.9252Y2.185
X0.9547Y2.4213
X0.9547Y2.3819
X0.9547Y2.2047
X0.9547Y2.1654
X0.9646Y2.5197
X0.9646Y2.4902
X0.9646Y2.4606
X0.9646Y2.126
X0.9646Y2.0965
X0.9646Y2.0669
X0.9843Y2.7559
X0.9843Y1.5748
X0.9843Y1.1811
X0.9843Y0.7874
X0.9843Y0.3937
X1.0039Y1.9685
X1.0138Y2.6083
X1.0728Y2.0472
X1.0827Y2.5295
X1.122Y1.9685
X1.1319Y2.6083
X1.1713Y2.0472
X1.1811Y2.9528
X1.1811Y2.5295
X1.1811Y1.7717
X1.1811Y1.378
X1.1811Y0.9843
X1.1811Y0.5906
X1.1811Y0.1969
X1.2303Y1.9685
X1.2402Y2.6083
X1.2697Y2.2343
X1.3287Y2.4793
X1.3386Y2.0965
X1.3583Y2.4793
X1.3681Y2.0965
X1.378Y2.7559
X1.378Y1.9685
X1.378Y1.5748
X1.378Y1.1811
X1.378Y0.7874
X1.378Y0.3937
X1.437Y2.4793
X1.437Y2.0965
X1.4665Y2.4793
X1.4665Y2.0965
X1.5354Y2.4793
X1.5354Y2.0965
X1.565Y2.4793
X1.565Y2.0965
X1.5748Y2.9528
X1.5748Y2.5591
X1.5748Y1.7717
X1.5748Y1.378
X1.5748Y0.9843
X1.5748Y0.5906
X1.5748Y0.1969
X1.7717Y2.7559
X1.7717Y1.9685
X1.7717Y1.5748
X1.7717Y1.1811
X1.7717Y0.7874
X1.7717Y0.3937
X1.9596Y0.7776
X1.9596Y0.6358
X1.9685Y2.9528
X1.9685Y2.5591
X1.9685Y2.126
X1.9685Y1.7717
X1.9685Y1.378
X1.9685Y0.1969
X2.1654Y2.7559
X2.1654Y1.9685
X2.1654Y1.5748
X2.1654Y1.1811
X2.1654Y0.3937
X2.3031Y2.126
X2.315Y2.4823
X2.3445Y2.4823
X2.3622Y2.9528
X2.3622Y2.5591
X2.3622Y1.7717
X2.3622Y1.378
X2.3622Y0.5906
X2.3622Y0.1969
X2.3819Y2.2835
X2.4134Y2.4823
X2.4429Y2.4823
X2.5591Y2.7559
X2.5591Y1.5748
X2.5591Y1.1811
X2.5591Y0.7874
X2.5591Y0.3937
X2.5984Y2.0531
X2.6024Y2.4291
X2.6063Y1.0236
X2.6339Y2.4921
X2.6339Y2.1161
X2.6398Y1.0827
X2.7185Y1.0827
X2.7264Y2.4902
X2.7264Y2.1142
X2.748Y1.0236
X2.7559Y2.9528
X2.7559Y2.5591
X2.7559Y2.4311
X2.7559Y2.1654
X2.7559Y2.0551
X2.7559Y1.7717
X2.7559Y1.378
X2.7559Y0.5906
X2.7559Y0.1969
X2.9528Y2.7559
X2.9528Y2.3622
X2.9528Y1.9685
X2.9528Y1.5748
X2.9528Y1.1811
X2.9528Y0.7874
X2.9528Y0.3937
T2
X0.1024Y2.9528
X0.1024Y0.1969
X0.13Y3.0196
X0.13Y2.8859
X0.13Y0.2637
X0.13Y0.13
X0.1969Y3.0472
X0.1969Y2.8583
X0.1969Y0.2913
X0.1969Y0.1024
X0.2637Y3.0196
X0.2637Y2.8859
X0.2637Y0.2637
X0.2637Y0.13
X0.2913Y2.9528
X0.2913Y0.1969
X2.0669Y0.876
X2.0699Y0.5335
X2.8583Y2.9528
X2.8583Y0.1969
X2.8859Y3.0196
X2.8859Y2.8859
X2.8859Y0.2637
X2.8859Y0.13
X2.9528Y3.0472
X2.9528Y2.8583
X2.9528Y0.2913
X2.9528Y0.1024
X3.0196Y3.0196
X3.0196Y2.8859
X3.0196Y0.2637
X3.0196Y0.13
X3.0472Y2.9528
X3.0472Y0.1969
T3
X0.2756Y2.126
X0.2756Y2.0472
X0.2756Y1.9685
X0.2756Y1.8898
X0.2756Y1.811
X0.2756Y1.7323
X0.2756Y1.4173
X0.2756Y1.3386
X0.2756Y1.2598
X0.2756Y1.1811
X0.2756Y1.1024
X0.2756Y1.0236
X0.3543Y2.126
X0.3543Y2.0472
X0.3543Y1.9685
X0.3543Y1.8898
X0.3543Y1.811
X0.3543Y1.7323
X0.3543Y1.4173
X0.3543Y1.3386
X0.3543Y1.2598
X0.3543Y1.1811
X0.3543Y1.1024
X0.3543Y1.0236
T4
X0.6102Y1.9016
X0.6102Y1.8016
X0.6102Y1.7016
X0.6102Y1.6016
X0.6112Y1.2126
X0.6112Y1.1126
X0.6112Y1.0126
X0.6112Y0.9126
T5
X2.6772Y2.4311
X2.6772Y2.2933
X2.6772Y2.0571
X2.6772Y1.9193
X2.6772Y1.0217
X2.6772Y0.8839
T6
X0.1969Y2.9528
X0.1969Y0.1969
X2.9528Y2.9528
X2.9528Y0.1969
M30
