%TF.GenerationSoftware,KiCad,Pcbnew,9.0.2*%
%TF.CreationDate,2026-04-14T22:24:35-07:00*%
%TF.ProjectId,ANTS-Power-board,414e5453-2d50-46f7-9765-722d626f6172,rev?*%
%TF.SameCoordinates,Original*%
%TF.FileFunction,Copper,L1,Top*%
%TF.FilePolarity,Positive*%
%FSLAX46Y46*%
G04 Gerber Fmt 4.6, Leading zero omitted, Abs format (unit mm)*
G04 Created by KiCad (PCBNEW 9.0.2) date 2026-04-14 22:24:35*
%MOMM*%
%LPD*%
G01*
G04 APERTURE LIST*
G04 Aperture macros list*
%AMRoundRect*
0 Rectangle with rounded corners*
0 $1 Rounding radius*
0 $2 $3 $4 $5 $6 $7 $8 $9 X,Y pos of 4 corners*
0 Add a 4 corners polygon primitive as box body*
4,1,4,$2,$3,$4,$5,$6,$7,$8,$9,$2,$3,0*
0 Add four circle primitives for the rounded corners*
1,1,$1+$1,$2,$3*
1,1,$1+$1,$4,$5*
1,1,$1+$1,$6,$7*
1,1,$1+$1,$8,$9*
0 Add four rect primitives between the rounded corners*
20,1,$1+$1,$2,$3,$4,$5,0*
20,1,$1+$1,$4,$5,$6,$7,0*
20,1,$1+$1,$6,$7,$8,$9,0*
20,1,$1+$1,$8,$9,$2,$3,0*%
%AMFreePoly0*
4,1,17,0.345355,0.325355,0.360000,0.290000,0.360000,-0.290000,0.345355,-0.325355,0.310000,-0.340000,-0.310000,-0.340000,-0.345355,-0.325355,-0.360000,-0.290000,-0.360000,-0.060000,-0.345355,-0.024645,-0.310000,-0.010000,-0.010000,-0.010000,-0.010000,0.290000,0.004645,0.325355,0.040000,0.340000,0.310000,0.340000,0.345355,0.325355,0.345355,0.325355,$1*%
%AMFreePoly1*
4,1,17,0.345355,0.325355,0.360000,0.290000,0.360000,-0.290000,0.345355,-0.325355,0.310000,-0.340000,0.030000,-0.340000,-0.005355,-0.325355,-0.020000,-0.290000,-0.020000,0.010000,-0.320000,0.010000,-0.355355,0.024645,-0.370000,0.060000,-0.370000,0.290000,-0.355355,0.325355,-0.320000,0.340000,0.310000,0.340000,0.345355,0.325355,0.345355,0.325355,$1*%
%AMFreePoly2*
4,1,17,0.495355,0.455355,0.510000,0.420000,0.510000,0.020000,0.495355,-0.015355,0.460000,-0.030000,-0.010000,-0.030000,-0.010000,-0.430000,-0.024645,-0.465355,-0.060000,-0.480000,-0.470000,-0.480000,-0.505355,-0.465355,-0.520000,-0.430000,-0.520000,0.420000,-0.505355,0.455355,-0.470000,0.470000,0.460000,0.470000,0.495355,0.455355,0.495355,0.455355,$1*%
%AMFreePoly3*
4,1,23,0.825355,0.395355,0.840000,0.360000,0.840000,0.140000,0.825355,0.104645,0.790000,0.090000,0.490000,0.090000,0.490000,-0.060000,0.790000,-0.060000,0.825355,-0.074645,0.840000,-0.110000,0.840000,-0.340000,0.825355,-0.375355,0.791219,-0.389985,0.381219,-0.399985,0.379573,-0.399998,-0.790427,-0.389998,-0.825656,-0.375052,-0.840000,-0.340000,-0.840000,0.360000,-0.825355,0.395355,
-0.790000,0.410000,0.790000,0.410000,0.825355,0.395355,0.825355,0.395355,$1*%
%AMFreePoly4*
4,1,17,-0.014645,0.465355,0.000000,0.430000,0.000000,0.030000,0.460000,0.030000,0.495355,0.015355,0.510000,-0.020000,0.510000,-0.420000,0.495355,-0.455355,0.460000,-0.470000,-0.460000,-0.470000,-0.495355,-0.455355,-0.510000,-0.420000,-0.510000,0.430000,-0.495355,0.465355,-0.460000,0.480000,-0.050000,0.480000,-0.014645,0.465355,-0.014645,0.465355,$1*%
G04 Aperture macros list end*
%TA.AperFunction,SMDPad,CuDef*%
%ADD10RoundRect,0.250000X-0.475000X0.250000X-0.475000X-0.250000X0.475000X-0.250000X0.475000X0.250000X0*%
%TD*%
%TA.AperFunction,SMDPad,CuDef*%
%ADD11RoundRect,0.140000X0.170000X-0.140000X0.170000X0.140000X-0.170000X0.140000X-0.170000X-0.140000X0*%
%TD*%
%TA.AperFunction,SMDPad,CuDef*%
%ADD12FreePoly0,0.000000*%
%TD*%
%TA.AperFunction,SMDPad,CuDef*%
%ADD13R,0.580000X0.250000*%
%TD*%
%TA.AperFunction,SMDPad,CuDef*%
%ADD14FreePoly1,0.000000*%
%TD*%
%TA.AperFunction,SMDPad,CuDef*%
%ADD15R,0.250000X0.580000*%
%TD*%
%TA.AperFunction,SMDPad,CuDef*%
%ADD16R,0.350000X0.850000*%
%TD*%
%TA.AperFunction,SMDPad,CuDef*%
%ADD17FreePoly2,0.000000*%
%TD*%
%TA.AperFunction,SMDPad,CuDef*%
%ADD18FreePoly3,0.000000*%
%TD*%
%TA.AperFunction,SMDPad,CuDef*%
%ADD19FreePoly4,0.000000*%
%TD*%
%TA.AperFunction,SMDPad,CuDef*%
%ADD20RoundRect,0.250000X-0.340000X-2.100000X0.340000X-2.100000X0.340000X2.100000X-0.340000X2.100000X0*%
%TD*%
%TA.AperFunction,SMDPad,CuDef*%
%ADD21RoundRect,0.150000X-0.512500X-0.150000X0.512500X-0.150000X0.512500X0.150000X-0.512500X0.150000X0*%
%TD*%
%TA.AperFunction,ComponentPad*%
%ADD22C,0.800000*%
%TD*%
%TA.AperFunction,ComponentPad*%
%ADD23C,6.400000*%
%TD*%
%TA.AperFunction,SMDPad,CuDef*%
%ADD24RoundRect,0.140000X0.140000X0.170000X-0.140000X0.170000X-0.140000X-0.170000X0.140000X-0.170000X0*%
%TD*%
%TA.AperFunction,SMDPad,CuDef*%
%ADD25RoundRect,0.135000X-0.185000X0.135000X-0.185000X-0.135000X0.185000X-0.135000X0.185000X0.135000X0*%
%TD*%
%TA.AperFunction,ComponentPad*%
%ADD26RoundRect,0.250000X-0.575000X0.350000X-0.575000X-0.350000X0.575000X-0.350000X0.575000X0.350000X0*%
%TD*%
%TA.AperFunction,ComponentPad*%
%ADD27O,1.650000X1.200000*%
%TD*%
%TA.AperFunction,ComponentPad*%
%ADD28C,1.000000*%
%TD*%
%TA.AperFunction,SMDPad,CuDef*%
%ADD29RoundRect,0.250000X0.475000X-0.250000X0.475000X0.250000X-0.475000X0.250000X-0.475000X-0.250000X0*%
%TD*%
%TA.AperFunction,SMDPad,CuDef*%
%ADD30RoundRect,0.135000X0.185000X-0.135000X0.185000X0.135000X-0.185000X0.135000X-0.185000X-0.135000X0*%
%TD*%
%TA.AperFunction,SMDPad,CuDef*%
%ADD31RoundRect,0.250000X-0.250000X-0.475000X0.250000X-0.475000X0.250000X0.475000X-0.250000X0.475000X0*%
%TD*%
%TA.AperFunction,ComponentPad*%
%ADD32R,1.700000X1.700000*%
%TD*%
%TA.AperFunction,ComponentPad*%
%ADD33C,1.700000*%
%TD*%
%TA.AperFunction,SMDPad,CuDef*%
%ADD34RoundRect,0.225000X-0.225000X-0.250000X0.225000X-0.250000X0.225000X0.250000X-0.225000X0.250000X0*%
%TD*%
%TA.AperFunction,ComponentPad*%
%ADD35C,2.200000*%
%TD*%
%TA.AperFunction,SMDPad,CuDef*%
%ADD36RoundRect,0.225000X-0.250000X0.225000X-0.250000X-0.225000X0.250000X-0.225000X0.250000X0.225000X0*%
%TD*%
%TA.AperFunction,SMDPad,CuDef*%
%ADD37RoundRect,0.140000X-0.140000X-0.170000X0.140000X-0.170000X0.140000X0.170000X-0.140000X0.170000X0*%
%TD*%
%TA.AperFunction,SMDPad,CuDef*%
%ADD38RoundRect,0.135000X0.135000X0.185000X-0.135000X0.185000X-0.135000X-0.185000X0.135000X-0.185000X0*%
%TD*%
%TA.AperFunction,SMDPad,CuDef*%
%ADD39RoundRect,0.200000X0.200000X0.275000X-0.200000X0.275000X-0.200000X-0.275000X0.200000X-0.275000X0*%
%TD*%
%TA.AperFunction,SMDPad,CuDef*%
%ADD40RoundRect,0.250000X-0.375000X-1.075000X0.375000X-1.075000X0.375000X1.075000X-0.375000X1.075000X0*%
%TD*%
%TA.AperFunction,ViaPad*%
%ADD41C,0.700000*%
%TD*%
%TA.AperFunction,ViaPad*%
%ADD42C,0.600000*%
%TD*%
%TA.AperFunction,Conductor*%
%ADD43C,0.600000*%
%TD*%
%TA.AperFunction,Conductor*%
%ADD44C,0.200000*%
%TD*%
%TA.AperFunction,Conductor*%
%ADD45C,0.250000*%
%TD*%
%TA.AperFunction,Conductor*%
%ADD46C,0.750000*%
%TD*%
G04 APERTURE END LIST*
D10*
%TO.P,C12,1*%
%TO.N,/5V SMPS/VO*%
X39250000Y56400000D03*
%TO.P,C12,2*%
%TO.N,VBAT-*%
X39250000Y54500000D03*
%TD*%
D11*
%TO.P,C16,1*%
%TO.N,/3.3v_LDO/BP*%
X58375000Y17570000D03*
%TO.P,C16,2*%
%TO.N,VBAT-*%
X58375000Y18530000D03*
%TD*%
D12*
%TO.P,U1,1,PSNS*%
%TO.N,VBAT-*%
X19855000Y59310000D03*
D13*
%TO.P,U1,2,NR/SS*%
%TO.N,/5V SMPS/NR{slash}SS*%
X19825000Y58650000D03*
%TO.P,U1,3,FB*%
%TO.N,/5V SMPS/FB*%
X19825000Y58150000D03*
%TO.P,U1,4,VO*%
%TO.N,/5V SMPS/VO*%
X19825000Y57650000D03*
D14*
%TO.P,U1,5,PG*%
%TO.N,unconnected-(U1-PG-Pad5)*%
X19855000Y56990000D03*
D15*
%TO.P,U1,6,S-CONF*%
%TO.N,/5V SMPS/S-CONF*%
X20545000Y56990000D03*
%TO.P,U1,7,EN\u005CSYNC*%
%TO.N,VBAT+*%
X21045000Y56990000D03*
D16*
%TO.P,U1,8,VIN*%
X21595000Y57130000D03*
D17*
%TO.P,U1,9,PGND*%
%TO.N,VBAT-*%
X22485000Y57130000D03*
D18*
%TO.P,U1,10,SW*%
%TO.N,/5V SMPS/SW*%
X22155000Y58150000D03*
D19*
%TO.P,U1,11,PGND*%
%TO.N,VBAT-*%
X22475000Y59170000D03*
D16*
%TO.P,U1,12,VIN*%
%TO.N,VBAT+*%
X21595000Y59170000D03*
D15*
%TO.P,U1,13,SW*%
%TO.N,/5V SMPS/SW*%
X21045000Y59310000D03*
%TO.P,U1,14,BOOT*%
%TO.N,/5V SMPS/BOOT*%
X20545000Y59310000D03*
%TD*%
D20*
%TO.P,L1,1,1*%
%TO.N,/5V SMPS/SW*%
X26845000Y58150000D03*
%TO.P,L1,2,2*%
%TO.N,/5V SMPS/VO*%
X30155000Y58150000D03*
%TD*%
D21*
%TO.P,U2,1,VIN*%
%TO.N,5V_OUTPUT*%
X54500000Y19450000D03*
%TO.P,U2,2,GND*%
%TO.N,VBAT-*%
X54500000Y18500000D03*
%TO.P,U2,3,ON/~{OFF}*%
%TO.N,/3.3v_LDO/ON{slash}~{OFF}*%
X54500000Y17550000D03*
%TO.P,U2,4,BP*%
%TO.N,/3.3v_LDO/BP*%
X56775000Y17550000D03*
%TO.P,U2,5,VOUT*%
%TO.N,3V3_OUTPUT*%
X56775000Y19450000D03*
%TD*%
D22*
%TO.P,MH3,1,1*%
%TO.N,VBAT-*%
X2600000Y5000000D03*
X3302944Y6697056D03*
X3302944Y3302944D03*
X5000000Y7400000D03*
D23*
X5000000Y5000000D03*
D22*
X5000000Y2600000D03*
X6697056Y6697056D03*
X6697056Y3302944D03*
X7400000Y5000000D03*
%TD*%
D24*
%TO.P,C5,1*%
%TO.N,/5V SMPS/SW*%
X20730000Y61000000D03*
%TO.P,C5,2*%
%TO.N,/5V SMPS/BOOT*%
X19770000Y61000000D03*
%TD*%
D25*
%TO.P,R2,1*%
%TO.N,5V_OUTPUT*%
X15750000Y59750000D03*
%TO.P,R2,2*%
%TO.N,/5V SMPS/FB*%
X15750000Y58730000D03*
%TD*%
D26*
%TO.P,J1,1,Pin_1*%
%TO.N,VBAT+*%
X9000000Y54000000D03*
D27*
%TO.P,J1,2,Pin_2*%
%TO.N,VBAT-*%
X7000000Y54000000D03*
%TO.P,J1,3,Pin_3*%
%TO.N,VBAT+*%
X9000000Y52000000D03*
%TO.P,J1,4,Pin_4*%
%TO.N,VBAT-*%
X7000000Y52000000D03*
%TO.P,J1,5,Pin_5*%
%TO.N,VBAT+*%
X9000000Y50000000D03*
%TO.P,J1,6,Pin_6*%
%TO.N,VBAT-*%
X7000000Y50000000D03*
%TO.P,J1,7,Pin_7*%
%TO.N,VBAT+*%
X9000000Y48000000D03*
%TO.P,J1,8,Pin_8*%
%TO.N,VBAT-*%
X7000000Y48000000D03*
%TO.P,J1,9,Pin_9*%
%TO.N,VBAT+*%
X9000000Y46000000D03*
%TO.P,J1,10,Pin_10*%
%TO.N,/SDA_IN1*%
X7000000Y46000000D03*
%TO.P,J1,11,Pin_11*%
%TO.N,+3V3*%
X9000000Y44000000D03*
%TO.P,J1,12,Pin_12*%
%TO.N,/SCL_IN1*%
X7000000Y44000000D03*
%TD*%
D22*
%TO.P,MH4,1,1*%
%TO.N,VBAT-*%
X72600000Y5000000D03*
X73302944Y6697056D03*
X73302944Y3302944D03*
X75000000Y7400000D03*
D23*
X75000000Y5000000D03*
D22*
X75000000Y2600000D03*
X76697056Y6697056D03*
X76697056Y3302944D03*
X77400000Y5000000D03*
%TD*%
D28*
%TO.P,TP2,1,1*%
%TO.N,/3.3v_LDO/ON{slash}~{OFF}*%
X52575000Y13550000D03*
%TD*%
D29*
%TO.P,C13,1*%
%TO.N,5V_OUTPUT*%
X59200000Y60000000D03*
%TO.P,C13,2*%
%TO.N,VBAT-*%
X59200000Y61900000D03*
%TD*%
D30*
%TO.P,R3,1*%
%TO.N,/5V SMPS/FB*%
X17000000Y58730000D03*
%TO.P,R3,2*%
%TO.N,VBAT-*%
X17000000Y59750000D03*
%TD*%
D31*
%TO.P,C2,1*%
%TO.N,VBAT+*%
X21450000Y53500000D03*
%TO.P,C2,2*%
%TO.N,VBAT-*%
X23350000Y53500000D03*
%TD*%
D10*
%TO.P,C10,1*%
%TO.N,/5V SMPS/VO*%
X36750000Y56400000D03*
%TO.P,C10,2*%
%TO.N,VBAT-*%
X36750000Y54500000D03*
%TD*%
D32*
%TO.P,J4,1,Pin_1*%
%TO.N,VBAT-*%
X15525000Y30800000D03*
D33*
%TO.P,J4,2,Pin_2*%
%TO.N,/SDA_IN2*%
X15525000Y28260000D03*
%TO.P,J4,3,Pin_3*%
%TO.N,/SCL_IN2*%
X15525000Y25720000D03*
%TO.P,J4,4,Pin_4*%
%TO.N,+3V3*%
X15525000Y23180000D03*
%TD*%
D29*
%TO.P,C14,1*%
%TO.N,5V_OUTPUT*%
X61700000Y60000000D03*
%TO.P,C14,2*%
%TO.N,VBAT-*%
X61700000Y61900000D03*
%TD*%
D28*
%TO.P,TP1,1,1*%
%TO.N,5V_OUTPUT*%
X52500000Y22250000D03*
%TD*%
D34*
%TO.P,C17,1*%
%TO.N,3V3_OUTPUT*%
X59000000Y19950000D03*
%TO.P,C17,2*%
%TO.N,VBAT-*%
X60550000Y19950000D03*
%TD*%
D10*
%TO.P,C8,1*%
%TO.N,/5V SMPS/VO*%
X34250000Y56400000D03*
%TO.P,C8,2*%
%TO.N,VBAT-*%
X34250000Y54500000D03*
%TD*%
D26*
%TO.P,J2,1,Pin_1*%
%TO.N,VBAT+*%
X9000000Y36000000D03*
D27*
%TO.P,J2,2,Pin_2*%
%TO.N,VBAT-*%
X7000000Y36000000D03*
%TO.P,J2,3,Pin_3*%
%TO.N,VBAT+*%
X9000000Y34000000D03*
%TO.P,J2,4,Pin_4*%
%TO.N,VBAT-*%
X7000000Y34000000D03*
%TO.P,J2,5,Pin_5*%
%TO.N,VBAT+*%
X9000000Y32000000D03*
%TO.P,J2,6,Pin_6*%
%TO.N,VBAT-*%
X7000000Y32000000D03*
%TO.P,J2,7,Pin_7*%
%TO.N,VBAT+*%
X9000000Y30000000D03*
%TO.P,J2,8,Pin_8*%
%TO.N,VBAT-*%
X7000000Y30000000D03*
%TO.P,J2,9,Pin_9*%
%TO.N,VBAT+*%
X9000000Y28000000D03*
%TO.P,J2,10,Pin_10*%
%TO.N,/SDA_IN2*%
X7000000Y28000000D03*
%TO.P,J2,11,Pin_11*%
%TO.N,+3V3*%
X9000000Y26000000D03*
%TO.P,J2,12,Pin_12*%
%TO.N,/SCL_IN2*%
X7000000Y26000000D03*
%TD*%
D11*
%TO.P,C6,1*%
%TO.N,/5V SMPS/NR{slash}SS*%
X18250000Y58770000D03*
%TO.P,C6,2*%
%TO.N,VBAT-*%
X18250000Y59730000D03*
%TD*%
D22*
%TO.P,MH2,1,1*%
%TO.N,VBAT-*%
X72600000Y75000000D03*
X73302944Y76697056D03*
X73302944Y73302944D03*
X75000000Y77400000D03*
D23*
X75000000Y75000000D03*
D22*
X75000000Y72600000D03*
X76697056Y76697056D03*
X76697056Y73302944D03*
X77400000Y75000000D03*
%TD*%
D35*
%TO.P,J5,1,Pin_1*%
%TO.N,5V_OUTPUT*%
X68000000Y58250000D03*
%TO.P,J5,2,Pin_2*%
%TO.N,VBAT-*%
X68000000Y61750000D03*
%TD*%
D29*
%TO.P,C7,1*%
%TO.N,/5V SMPS/VO*%
X34250000Y59750000D03*
%TO.P,C7,2*%
%TO.N,VBAT-*%
X34250000Y61650000D03*
%TD*%
D31*
%TO.P,C1,1*%
%TO.N,VBAT+*%
X21450000Y63000000D03*
%TO.P,C1,2*%
%TO.N,VBAT-*%
X23350000Y63000000D03*
%TD*%
D32*
%TO.P,J3,1,Pin_1*%
%TO.N,VBAT-*%
X15500000Y48300000D03*
D33*
%TO.P,J3,2,Pin_2*%
%TO.N,/SDA_IN1*%
X15500000Y45760000D03*
%TO.P,J3,3,Pin_3*%
%TO.N,/SCL_IN1*%
X15500000Y43220000D03*
%TO.P,J3,4,Pin_4*%
%TO.N,+3V3*%
X15500000Y40680000D03*
%TD*%
D36*
%TO.P,C15,1*%
%TO.N,5V_OUTPUT*%
X52575000Y19925000D03*
%TO.P,C15,2*%
%TO.N,VBAT-*%
X52575000Y18375000D03*
%TD*%
D35*
%TO.P,J6,1,Pin_1*%
%TO.N,5V_OUTPUT*%
X68000000Y48750000D03*
%TO.P,J6,2,Pin_2*%
%TO.N,VBAT-*%
X68000000Y52250000D03*
%TD*%
D22*
%TO.P,MH1,1,1*%
%TO.N,VBAT-*%
X2600000Y75000000D03*
X3302944Y76697056D03*
X3302944Y73302944D03*
X5000000Y77400000D03*
D23*
X5000000Y75000000D03*
D22*
X5000000Y72600000D03*
X6697056Y76697056D03*
X6697056Y73302944D03*
X7400000Y75000000D03*
%TD*%
D37*
%TO.P,C3,1*%
%TO.N,VBAT+*%
X21720000Y60600000D03*
%TO.P,C3,2*%
%TO.N,VBAT-*%
X22680000Y60600000D03*
%TD*%
D38*
%TO.P,R1,1*%
%TO.N,/5V SMPS/S-CONF*%
X16760000Y57250000D03*
%TO.P,R1,2*%
%TO.N,VBAT-*%
X15740000Y57250000D03*
%TD*%
D35*
%TO.P,J7,1,Pin_1*%
%TO.N,3V3_OUTPUT*%
X68000000Y22450000D03*
%TO.P,J7,2,Pin_2*%
%TO.N,VBAT-*%
X68000000Y25950000D03*
%TD*%
D39*
%TO.P,R4,1*%
%TO.N,/3.3v_LDO/ON{slash}~{OFF}*%
X52600000Y15550000D03*
%TO.P,R4,2*%
%TO.N,5V_OUTPUT*%
X50950000Y15550000D03*
%TD*%
D40*
%TO.P,FB1,1*%
%TO.N,/5V SMPS/VO*%
X51550000Y58100000D03*
%TO.P,FB1,2*%
%TO.N,5V_OUTPUT*%
X54350000Y58100000D03*
%TD*%
D37*
%TO.P,C4,1*%
%TO.N,VBAT+*%
X21620000Y55700000D03*
%TO.P,C4,2*%
%TO.N,VBAT-*%
X22580000Y55700000D03*
%TD*%
D29*
%TO.P,C11,1*%
%TO.N,/5V SMPS/VO*%
X39250000Y59750000D03*
%TO.P,C11,2*%
%TO.N,VBAT-*%
X39250000Y61650000D03*
%TD*%
%TO.P,C9,1*%
%TO.N,/5V SMPS/VO*%
X36750000Y59775000D03*
%TO.P,C9,2*%
%TO.N,VBAT-*%
X36750000Y61675000D03*
%TD*%
D41*
%TO.N,VBAT-*%
X66900000Y53750000D03*
X66000000Y52150000D03*
X70000000Y52200000D03*
X69250000Y53700000D03*
X37250000Y53250000D03*
X65000000Y40000000D03*
X50000000Y54000000D03*
X50000000Y35000000D03*
X45000000Y30000000D03*
X25000000Y10000000D03*
X59550000Y63050000D03*
X5000000Y60000000D03*
X75000000Y20000000D03*
X69250000Y63250000D03*
X60000000Y45000000D03*
X15000000Y20000000D03*
X24500000Y54000000D03*
X25750000Y66250000D03*
X45000000Y70000000D03*
X20000000Y27000000D03*
X70000000Y61750000D03*
X40000000Y65000000D03*
X69050000Y27500000D03*
X66200000Y26000000D03*
X55000000Y40000000D03*
X34750000Y53250000D03*
X45000000Y40000000D03*
X15000000Y70000000D03*
X60000000Y5000000D03*
X20000000Y15000000D03*
X36500000Y53250000D03*
X30000000Y25000000D03*
X50000000Y45000000D03*
X45000000Y20000000D03*
X75000000Y60000000D03*
X10000000Y15000000D03*
X25000000Y70000000D03*
X31250000Y50000000D03*
X29750000Y52000000D03*
X45000000Y10000000D03*
X39750000Y62975000D03*
X24250000Y60500000D03*
X39750000Y53250000D03*
X20000000Y75000000D03*
X70000000Y45000000D03*
X55000000Y10000000D03*
X22955000Y59700000D03*
X58800000Y63050000D03*
X16500000Y60750000D03*
X16500000Y56000000D03*
X70000000Y15000000D03*
X66100000Y61700000D03*
X24500000Y53250000D03*
X61300000Y63050000D03*
X35000000Y20000000D03*
X60000000Y65000000D03*
X24500000Y64000000D03*
X65000000Y70000000D03*
X75000000Y70000000D03*
X5000000Y10000000D03*
X17500000Y56000000D03*
X35000000Y70000000D03*
X35000000Y40000000D03*
X30000000Y5000000D03*
X62050000Y63050000D03*
X27250000Y52000000D03*
X39000000Y62975000D03*
X70000000Y5000000D03*
X17500000Y60750000D03*
X50000000Y75000000D03*
X24250000Y56000000D03*
X25000000Y20000000D03*
X60000000Y15000000D03*
X39000000Y53250000D03*
X24500000Y52500000D03*
X37250000Y62975000D03*
X20000000Y5000000D03*
X40000000Y15000000D03*
X31500000Y66250000D03*
X35000000Y10000000D03*
X36500000Y62975000D03*
X24500000Y62500000D03*
X75000000Y40000000D03*
X75000000Y10000000D03*
X23500000Y55500000D03*
X18500000Y60750000D03*
X55000000Y30000000D03*
X40000000Y75000000D03*
X5000000Y70000000D03*
X60000000Y75000000D03*
X24500000Y63250000D03*
X40000000Y35000000D03*
X33750000Y62975000D03*
X22955000Y56600000D03*
X70000000Y35000000D03*
X40000000Y5000000D03*
X5000000Y50000000D03*
X30000000Y15000000D03*
X20000000Y35000000D03*
X65000000Y20000000D03*
X58500000Y54000000D03*
X27500000Y64250000D03*
X25000000Y30000000D03*
X28750000Y66250000D03*
X50000000Y65000000D03*
X10000000Y75000000D03*
X24250000Y61500000D03*
X65000000Y30000000D03*
X40000000Y45000000D03*
X75000000Y50000000D03*
X30000000Y35000000D03*
X10000000Y5000000D03*
X40000000Y25000000D03*
X20000000Y44000000D03*
X70000000Y75000000D03*
X60000000Y35000000D03*
X5000000Y20000000D03*
X30000000Y45000000D03*
X67050000Y27500000D03*
X65000000Y10000000D03*
X23500000Y61000000D03*
X10000000Y65000000D03*
X35000000Y50000000D03*
X25000000Y40000000D03*
X75000000Y30000000D03*
X69800000Y26000000D03*
X25500000Y50000000D03*
X45000000Y50000000D03*
X34500000Y62975000D03*
X28500000Y50000000D03*
X6500000Y40000000D03*
X34000000Y53250000D03*
X55000000Y50000000D03*
X70000000Y55000000D03*
X5000000Y30000000D03*
X30000000Y75000000D03*
X66900000Y63300000D03*
X35000000Y30000000D03*
X55000000Y70000000D03*
X70000000Y65000000D03*
X15000000Y10000000D03*
X24250000Y55000000D03*
X50000000Y5000000D03*
X19250000Y60000000D03*
X30000000Y64250000D03*
%TO.N,VBAT+*%
X16875000Y53125000D03*
X20100000Y55600000D03*
%TO.N,/5V SMPS/VO*%
X32250000Y56750000D03*
X18750000Y57500000D03*
%TO.N,5V_OUTPUT*%
X14750000Y59750000D03*
D42*
X49775000Y16150000D03*
X49775000Y19750000D03*
D41*
X60500000Y58000000D03*
%TD*%
D43*
%TO.N,VBAT-*%
X52730000Y18530000D02*
X52575000Y18375000D01*
X58375000Y18530000D02*
X60055000Y18530000D01*
D44*
X15740000Y56760000D02*
X16500000Y56000000D01*
X15740000Y57250000D02*
X15740000Y56760000D01*
D43*
X58375000Y18530000D02*
X52730000Y18530000D01*
X60055000Y18530000D02*
X60550000Y19025000D01*
X60550000Y19025000D02*
X60550000Y19950000D01*
D44*
%TO.N,VBAT+*%
X20145000Y55600000D02*
X20100000Y55600000D01*
X16875000Y53125000D02*
X16750000Y53250000D01*
X21595000Y60475000D02*
X21720000Y60600000D01*
X21720000Y62530000D02*
X21450000Y62800000D01*
X21045000Y56990000D02*
X21045000Y56500000D01*
X16750000Y53250000D02*
X9750000Y53250000D01*
X21595000Y59170000D02*
X21595000Y60475000D01*
X21620000Y55700000D02*
X21620000Y57105000D01*
X21045000Y56500000D02*
X20145000Y55600000D01*
X21620000Y57105000D02*
X21595000Y57130000D01*
X9750000Y53250000D02*
X9000000Y54000000D01*
%TO.N,/3.3v_LDO/BP*%
X56775000Y17550000D02*
X58355000Y17550000D01*
X58355000Y17550000D02*
X58375000Y17570000D01*
X56855000Y17470000D02*
X56775000Y17550000D01*
%TO.N,/3.3v_LDO/ON{slash}~{OFF}*%
X52600000Y15550000D02*
X52600000Y13775000D01*
X54500000Y17550000D02*
X52600000Y15650000D01*
X52600000Y15650000D02*
X52600000Y15550000D01*
X52600000Y13775000D02*
X52575000Y13750000D01*
%TO.N,/5V SMPS/VO*%
X18900000Y57650000D02*
X19825000Y57650000D01*
X31555000Y56750000D02*
X32250000Y56750000D01*
X30155000Y58150000D02*
X31555000Y56750000D01*
X18750000Y57500000D02*
X18900000Y57650000D01*
D45*
%TO.N,/5V SMPS/SW*%
X21045000Y60685000D02*
X20730000Y61000000D01*
X21045000Y59310000D02*
X21045000Y60685000D01*
X21045000Y58260000D02*
X21155000Y58150000D01*
X21045000Y59310000D02*
X21045000Y58260000D01*
X21155000Y58150000D02*
X22155000Y58150000D01*
D44*
%TO.N,/5V SMPS/BOOT*%
X20545000Y59310000D02*
X20545000Y60225000D01*
X20545000Y60225000D02*
X19770000Y61000000D01*
%TO.N,/5V SMPS/NR{slash}SS*%
X18370000Y58650000D02*
X18250000Y58770000D01*
X19825000Y58650000D02*
X18370000Y58650000D01*
%TO.N,/5V SMPS/S-CONF*%
X20545000Y56570008D02*
X20313992Y56339000D01*
X20545000Y56990000D02*
X20545000Y56570008D01*
X18661000Y56339000D02*
X17750000Y57250000D01*
X17750000Y57250000D02*
X16760000Y57250000D01*
X20313992Y56339000D02*
X18661000Y56339000D01*
%TO.N,/5V SMPS/FB*%
X17590000Y58150000D02*
X17000000Y58740000D01*
X17000000Y58740000D02*
X15760000Y58740000D01*
X15760000Y58740000D02*
X15750000Y58730000D01*
X19825000Y58150000D02*
X17590000Y58150000D01*
D46*
%TO.N,5V_OUTPUT*%
X62000000Y39400000D02*
X62000000Y54000000D01*
X62000000Y54000000D02*
X57900000Y58100000D01*
D44*
X50375000Y15550000D02*
X50950000Y15550000D01*
D46*
X52575000Y19925000D02*
X52075000Y19925000D01*
X57900000Y58100000D02*
X54350000Y58100000D01*
X50750000Y28150000D02*
X62000000Y39400000D01*
D43*
X52500000Y22250000D02*
X52500000Y20000000D01*
D44*
X49775000Y16150000D02*
X50375000Y15550000D01*
X60500000Y58000000D02*
X54450000Y58000000D01*
D43*
X54025000Y19925000D02*
X54500000Y19450000D01*
X52575000Y19925000D02*
X54025000Y19925000D01*
D44*
X14750000Y59750000D02*
X15750000Y59750000D01*
X54450000Y58000000D02*
X54350000Y58100000D01*
D46*
X52075000Y19925000D02*
X50750000Y21250000D01*
D43*
X52500000Y20000000D02*
X52575000Y19925000D01*
D46*
X50750000Y21250000D02*
X50750000Y28150000D01*
D44*
%TO.N,+3V3*%
X17900000Y25555000D02*
X15525000Y23180000D01*
X15500000Y40680000D02*
X17900000Y38280000D01*
X17900000Y38280000D02*
X17900000Y25555000D01*
%TD*%
%TA.AperFunction,Conductor*%
%TO.N,3V3_OUTPUT*%
G36*
X68193039Y23480315D02*
G01*
X68238794Y23427511D01*
X68250000Y23376000D01*
X68250000Y21624000D01*
X68230315Y21556961D01*
X68177511Y21511206D01*
X68126000Y21500000D01*
X60499999Y21500000D01*
X59750000Y20750001D01*
X59750000Y19276362D01*
X59741355Y19246922D01*
X59734832Y19216935D01*
X59731077Y19211920D01*
X59730315Y19209323D01*
X59713681Y19188681D01*
X59591819Y19066819D01*
X59530496Y19033334D01*
X59504138Y19030500D01*
X56270862Y19030500D01*
X56203823Y19050185D01*
X56183181Y19066819D01*
X56036319Y19213681D01*
X56002834Y19275004D01*
X56000000Y19301362D01*
X56000000Y20198638D01*
X56019685Y20265677D01*
X56036319Y20286319D01*
X59213681Y23463681D01*
X59275004Y23497166D01*
X59301362Y23500000D01*
X68126000Y23500000D01*
X68193039Y23480315D01*
G37*
%TD.AperFunction*%
%TD*%
%TA.AperFunction,Conductor*%
%TO.N,/5V SMPS/SW*%
G36*
X27610217Y60531093D02*
G01*
X27646181Y60481593D01*
X27651020Y60452035D01*
X27679147Y57751902D01*
X27698958Y55850031D01*
X27680657Y55791647D01*
X27631535Y55755169D01*
X27599963Y55750000D01*
X25585276Y55750000D01*
X25527085Y55768907D01*
X25522671Y55772309D01*
X23100002Y57749999D01*
X23100000Y57750000D01*
X23099999Y57750000D01*
X23017591Y57750000D01*
X22998282Y57751902D01*
X22945000Y57762500D01*
X22015000Y57762500D01*
X22014999Y57762500D01*
X22001878Y57759890D01*
X21961717Y57751902D01*
X21942409Y57750000D01*
X21399000Y57750000D01*
X21340809Y57768907D01*
X21304845Y57818407D01*
X21300000Y57849000D01*
X21300000Y58493610D01*
X21318907Y58551801D01*
X21368407Y58587765D01*
X21400114Y58591199D01*
X21400114Y58592500D01*
X21785021Y58592500D01*
X21785022Y58592500D01*
X21813165Y58598099D01*
X21832478Y58600000D01*
X21837398Y58600000D01*
X21895589Y58581093D01*
X21897651Y58579552D01*
X21915837Y58565598D01*
X21954728Y58549489D01*
X22015000Y58537500D01*
X22015001Y58537500D01*
X22934999Y58537500D01*
X22935000Y58537500D01*
X22995272Y58549489D01*
X23034163Y58565598D01*
X23061002Y58581093D01*
X23070778Y58586737D01*
X23120277Y58600000D01*
X23150000Y58600000D01*
X25422297Y60526514D01*
X25478910Y60549722D01*
X25486319Y60550000D01*
X27552026Y60550000D01*
X27610217Y60531093D01*
G37*
%TD.AperFunction*%
%TD*%
%TA.AperFunction,Conductor*%
%TO.N,VBAT+*%
G36*
X20800164Y64747793D02*
G01*
X20834898Y64743138D01*
X20882295Y64736785D01*
X20946118Y64719362D01*
X21007009Y64693637D01*
X21063991Y64660022D01*
X21129140Y64608806D01*
X21153776Y64586631D01*
X21966950Y63750224D01*
X21987692Y63725952D01*
X22035559Y63662063D01*
X22066928Y63606597D01*
X22090936Y63547586D01*
X22107200Y63485972D01*
X22117531Y63406806D01*
X22119624Y63374944D01*
X22123653Y60584244D01*
X22120638Y60545253D01*
X22112116Y60490990D01*
X22088106Y60416803D01*
X22072214Y60385535D01*
X22026436Y60322412D01*
X22001656Y60297596D01*
X21938598Y60251726D01*
X21907355Y60235790D01*
X21833209Y60211674D01*
X21798552Y60206179D01*
X21720607Y60206173D01*
X21685850Y60211678D01*
X21611757Y60235752D01*
X21611682Y60235790D01*
X21582163Y60250831D01*
X21580391Y60251734D01*
X21517366Y60297524D01*
X21492469Y60322421D01*
X21446678Y60385449D01*
X21430695Y60416818D01*
X21406623Y60490904D01*
X21398010Y60545284D01*
X21394946Y60584225D01*
X21394946Y61449999D01*
X21394946Y61450000D01*
X21394945Y61450000D01*
X21130433Y61450000D01*
X21035145Y61468954D01*
X21025200Y61473330D01*
X20959491Y61503971D01*
X20959489Y61503972D01*
X20934694Y61507236D01*
X20909901Y61510500D01*
X20909899Y61510500D01*
X20550104Y61510500D01*
X20500511Y61503972D01*
X20434799Y61473329D01*
X20429441Y61472019D01*
X20424856Y61468954D01*
X20382439Y61460517D01*
X20340429Y61450237D01*
X20329568Y61450000D01*
X20170433Y61450000D01*
X20075145Y61468954D01*
X20065200Y61473330D01*
X19999491Y61503971D01*
X19999489Y61503972D01*
X19974694Y61507236D01*
X19949901Y61510500D01*
X19949899Y61510500D01*
X19590104Y61510500D01*
X19540511Y61503972D01*
X19474799Y61473329D01*
X19380429Y61450237D01*
X19369568Y61450000D01*
X15775990Y61450000D01*
X15775989Y61450000D01*
X15630879Y61310691D01*
X15630877Y61310689D01*
X15378365Y61068270D01*
X14736389Y60451955D01*
X14736388Y60451954D01*
X14564403Y60286846D01*
X14516463Y60250831D01*
X14411988Y60190512D01*
X14411982Y60190508D01*
X14309492Y60088018D01*
X14309488Y60088013D01*
X14267722Y60015675D01*
X14267723Y60015674D01*
X14250040Y59985048D01*
X14244946Y59980156D01*
X14244946Y59976223D01*
X14237017Y59962489D01*
X14237013Y59962481D01*
X14236463Y59960424D01*
X14236462Y59960418D01*
X14199500Y59822475D01*
X14199500Y59677525D01*
X14233644Y59550100D01*
X14236461Y59539587D01*
X14244946Y59475140D01*
X14244946Y56918347D01*
X16122728Y55100000D01*
X20200339Y55100000D01*
X20407445Y55100000D01*
X20407446Y55100000D01*
X21194946Y55887500D01*
X21194946Y55887502D01*
X21198586Y55896288D01*
X21207044Y55908946D01*
X21252562Y55977070D01*
X21307446Y56013742D01*
X21333343Y56031046D01*
X21428632Y56050000D01*
X21550351Y56050000D01*
X21589292Y56046936D01*
X21646880Y56037815D01*
X21720962Y56013744D01*
X21755227Y55996285D01*
X21818249Y55950497D01*
X21845442Y55923304D01*
X21891232Y55860279D01*
X21908687Y55826022D01*
X21932761Y55751931D01*
X21941880Y55694359D01*
X21944946Y55655405D01*
X21944946Y52766322D01*
X21942816Y52733819D01*
X21932187Y52653088D01*
X21915363Y52590303D01*
X21890504Y52530288D01*
X21858003Y52473994D01*
X21818455Y52422454D01*
X21772492Y52376491D01*
X21720952Y52336943D01*
X21664658Y52304442D01*
X21604643Y52279583D01*
X21541858Y52262759D01*
X21491953Y52256189D01*
X21461123Y52252130D01*
X21428624Y52250000D01*
X14346979Y52250000D01*
X13444946Y51451251D01*
X13444946Y27516322D01*
X13442816Y27483822D01*
X13442816Y27483819D01*
X13432187Y27403088D01*
X13415363Y27340303D01*
X13390504Y27280288D01*
X13358003Y27223994D01*
X13318455Y27172454D01*
X13272492Y27126491D01*
X13220952Y27086943D01*
X13164658Y27054442D01*
X13104643Y27029583D01*
X13041858Y27012759D01*
X12991953Y27006189D01*
X12961123Y27002130D01*
X12928624Y27000000D01*
X10503996Y27000000D01*
X8516322Y27000000D01*
X8483821Y27002130D01*
X8465531Y27004538D01*
X8403088Y27012759D01*
X8340302Y27029583D01*
X8280287Y27054442D01*
X8223993Y27086943D01*
X8172450Y27126494D01*
X8126493Y27172451D01*
X8086940Y27223996D01*
X8054441Y27280288D01*
X8029582Y27340303D01*
X8012758Y27403091D01*
X8002130Y27483822D01*
X8000000Y27516322D01*
X8000000Y27768440D01*
X8004785Y27817019D01*
X8025500Y27921158D01*
X8025500Y28078842D01*
X8004784Y28182989D01*
X8000000Y28231566D01*
X8000000Y29792962D01*
X8025500Y29921158D01*
X8025500Y30078842D01*
X8000000Y30207039D01*
X8000000Y31768440D01*
X8004785Y31817019D01*
X8011445Y31850500D01*
X8025500Y31921158D01*
X8025500Y32078842D01*
X8004784Y32182989D01*
X8000000Y32231566D01*
X8000000Y33792962D01*
X8025500Y33921158D01*
X8025500Y34078842D01*
X8000000Y34207039D01*
X8000000Y35768440D01*
X8004785Y35817019D01*
X8025500Y35921158D01*
X8025500Y36078842D01*
X8004784Y36182989D01*
X8000000Y36231566D01*
X8000000Y36483679D01*
X8002130Y36516179D01*
X8012758Y36596910D01*
X8029580Y36659694D01*
X8054443Y36719718D01*
X8086938Y36776002D01*
X8126497Y36827555D01*
X8172445Y36873503D01*
X8223998Y36913062D01*
X8280282Y36945557D01*
X8340306Y36970420D01*
X8403089Y36987242D01*
X8436971Y36991703D01*
X8483823Y36997870D01*
X8516322Y37000000D01*
X9875000Y37000000D01*
X10500147Y37625000D01*
X10501733Y44374530D01*
X10501585Y44374678D01*
X9876411Y45000000D01*
X9876410Y45000000D01*
X9669269Y45000000D01*
X8516322Y45000000D01*
X8483821Y45002130D01*
X8465531Y45004538D01*
X8403088Y45012759D01*
X8340302Y45029583D01*
X8280287Y45054442D01*
X8223993Y45086943D01*
X8172450Y45126494D01*
X8126493Y45172451D01*
X8086940Y45223996D01*
X8054441Y45280288D01*
X8029582Y45340303D01*
X8012758Y45403091D01*
X8002130Y45483822D01*
X8000000Y45516322D01*
X8000000Y45768440D01*
X8004785Y45817019D01*
X8014024Y45863465D01*
X8025500Y45921158D01*
X8025500Y46078842D01*
X8004784Y46182989D01*
X8000000Y46231566D01*
X8000000Y47792962D01*
X8025500Y47921158D01*
X8025500Y48078842D01*
X8000000Y48207039D01*
X8000000Y49768440D01*
X8004785Y49817019D01*
X8025500Y49921158D01*
X8025500Y50078842D01*
X8004784Y50182989D01*
X8000000Y50231566D01*
X8000000Y51792962D01*
X8025500Y51921158D01*
X8025500Y52078842D01*
X8000000Y52207039D01*
X8000000Y53768440D01*
X8004785Y53817019D01*
X8025500Y53921158D01*
X8025500Y54078842D01*
X8004784Y54182989D01*
X8000000Y54231566D01*
X8000000Y54483679D01*
X8002130Y54516179D01*
X8012758Y54596910D01*
X8029580Y54659694D01*
X8054443Y54719718D01*
X8086938Y54776002D01*
X8126497Y54827555D01*
X8172445Y54873503D01*
X8223998Y54913062D01*
X8280282Y54945557D01*
X8340306Y54970420D01*
X8403089Y54987242D01*
X8436971Y54991703D01*
X8483823Y54997870D01*
X8516322Y55000000D01*
X9874999Y55000000D01*
X9875000Y55000000D01*
X10500000Y55625000D01*
X10500000Y60787630D01*
X10501942Y60818670D01*
X10511640Y60895860D01*
X10526998Y60956013D01*
X10549738Y61013790D01*
X10579492Y61068265D01*
X10625021Y61131378D01*
X10644731Y61155386D01*
X13832953Y64578312D01*
X13857790Y64601565D01*
X13923705Y64655314D01*
X13981705Y64690655D01*
X14043901Y64717720D01*
X14109294Y64736074D01*
X14163314Y64743511D01*
X14193547Y64747673D01*
X14227507Y64750000D01*
X20767086Y64750000D01*
X20800164Y64747793D01*
G37*
%TD.AperFunction*%
%TD*%
%TA.AperFunction,Conductor*%
%TO.N,5V_OUTPUT*%
G36*
X64500000Y55500000D02*
G01*
X63500000Y54500000D01*
X63500000Y51960937D01*
X64960937Y50500000D01*
X68871920Y50500000D01*
X68920490Y50495217D01*
X68936981Y50491938D01*
X68943534Y50490634D01*
X69033290Y50453459D01*
X69052831Y50440402D01*
X69090560Y50409440D01*
X69909439Y49590561D01*
X69940404Y49552829D01*
X69953451Y49533303D01*
X69990631Y49443544D01*
X69990631Y49443543D01*
X69995215Y49420498D01*
X70000000Y49371920D01*
X70000000Y48128081D01*
X69995215Y48079503D01*
X69990631Y48056458D01*
X69953453Y47966702D01*
X69953450Y47966697D01*
X69953448Y47966695D01*
X69940404Y47947172D01*
X69909439Y47909440D01*
X69090560Y47090561D01*
X69052828Y47059596D01*
X69033302Y47046549D01*
X68943544Y47009369D01*
X68920500Y47004785D01*
X68871920Y47000000D01*
X62128080Y47000000D01*
X62079502Y47004785D01*
X62056457Y47009369D01*
X61966702Y47046546D01*
X61947169Y47059598D01*
X61909439Y47090561D01*
X60090560Y48909440D01*
X60059598Y48947169D01*
X60046546Y48966702D01*
X60009368Y49056457D01*
X60009366Y49056468D01*
X60004783Y49079513D01*
X60000000Y49128081D01*
X60000000Y54499999D01*
X60000000Y54500000D01*
X59000000Y55500000D01*
X59500000Y55500000D01*
X59500000Y56000000D01*
X64500000Y56000000D01*
X64500000Y55500000D01*
G37*
%TD.AperFunction*%
%TD*%
%TA.AperFunction,Conductor*%
%TO.N,/5V SMPS/VO*%
G36*
X52409045Y60471836D02*
G01*
X52445099Y60422402D01*
X52450000Y60391638D01*
X52450000Y55849000D01*
X52431093Y55790809D01*
X52381593Y55754845D01*
X52351000Y55750000D01*
X30099000Y55750000D01*
X30040809Y55768907D01*
X30004845Y55818407D01*
X30000000Y55849000D01*
X30000000Y60351180D01*
X30018907Y60409371D01*
X30068407Y60445335D01*
X30098817Y60450180D01*
X52350821Y60490638D01*
X52409045Y60471836D01*
G37*
%TD.AperFunction*%
%TD*%
%TA.AperFunction,Conductor*%
%TO.N,5V_OUTPUT*%
G36*
X53440677Y21380315D02*
G01*
X53461319Y21363681D01*
X55138681Y19686319D01*
X55172166Y19624996D01*
X55175000Y19598638D01*
X55175000Y19274000D01*
X55155315Y19206961D01*
X55102511Y19161206D01*
X55051000Y19150000D01*
X49124000Y19150000D01*
X49056961Y19169685D01*
X49011206Y19222489D01*
X49000000Y19274000D01*
X49000000Y19786138D01*
X49019685Y19853177D01*
X49036319Y19873819D01*
X50526181Y21363681D01*
X50587504Y21397166D01*
X50613862Y21400000D01*
X53373638Y21400000D01*
X53440677Y21380315D01*
G37*
%TD.AperFunction*%
%TD*%
%TA.AperFunction,Conductor*%
%TO.N,VBAT-*%
G36*
X15146342Y59136033D02*
G01*
X15169757Y59079505D01*
X15164507Y59039040D01*
X15132259Y58946879D01*
X15132258Y58946875D01*
X15129500Y58917468D01*
X15129500Y58542543D01*
X15132258Y58513125D01*
X15132259Y58513120D01*
X15175619Y58389205D01*
X15253572Y58283582D01*
X15253581Y58283573D01*
X15359204Y58205620D01*
X15359205Y58205620D01*
X15359206Y58205619D01*
X15483121Y58162259D01*
X15512543Y58159500D01*
X15987456Y58159501D01*
X15987457Y58159501D01*
X15993340Y58160053D01*
X16016879Y58162259D01*
X16140794Y58205619D01*
X16246420Y58283575D01*
X16246421Y58283575D01*
X16246421Y58283577D01*
X16246423Y58283577D01*
X16258018Y58299288D01*
X16270476Y58308198D01*
X16279482Y58320593D01*
X16294738Y58325551D01*
X16307784Y58334880D01*
X16337673Y58339500D01*
X16412327Y58339500D01*
X16470518Y58320593D01*
X16491983Y58299287D01*
X16503578Y58283575D01*
X16609204Y58205620D01*
X16609205Y58205620D01*
X16609206Y58205619D01*
X16733121Y58162259D01*
X16762543Y58159500D01*
X16973098Y58159501D01*
X16980695Y58157033D01*
X16988585Y58158282D01*
X17009240Y58147758D01*
X17031288Y58140594D01*
X17043101Y58130505D01*
X17176240Y57997367D01*
X17204018Y57942850D01*
X17194447Y57882418D01*
X17151182Y57839154D01*
X17090750Y57829582D01*
X17073540Y57833918D01*
X17024901Y57850938D01*
X16976879Y57867741D01*
X16976877Y57867742D01*
X16976874Y57867742D01*
X16947465Y57870500D01*
X16572542Y57870500D01*
X16543124Y57867742D01*
X16543119Y57867741D01*
X16419204Y57824381D01*
X16313581Y57746428D01*
X16313572Y57746419D01*
X16235619Y57640796D01*
X16192260Y57516884D01*
X16192258Y57516875D01*
X16189500Y57487468D01*
X16189500Y57012543D01*
X16192258Y56983125D01*
X16192259Y56983120D01*
X16235619Y56859205D01*
X16313572Y56753582D01*
X16313581Y56753573D01*
X16419204Y56675620D01*
X16419205Y56675620D01*
X16419206Y56675619D01*
X16543121Y56632259D01*
X16572543Y56629500D01*
X16947456Y56629501D01*
X16947457Y56629501D01*
X16953340Y56630053D01*
X16976879Y56632259D01*
X17100794Y56675619D01*
X17206423Y56753577D01*
X17247540Y56809288D01*
X17297308Y56844881D01*
X17327195Y56849500D01*
X17543099Y56849500D01*
X17601290Y56830593D01*
X17613103Y56820504D01*
X18340518Y56093090D01*
X18340520Y56093087D01*
X18415087Y56018520D01*
X18446299Y56000500D01*
X18506413Y55965793D01*
X18608270Y55938500D01*
X18608272Y55938499D01*
X18608273Y55938499D01*
X18719790Y55938499D01*
X18719806Y55938500D01*
X19387952Y55938500D01*
X19446143Y55919593D01*
X19482107Y55870093D01*
X19482107Y55808907D01*
X19479421Y55801629D01*
X19475661Y55792550D01*
X19474499Y55789744D01*
X19474499Y55789743D01*
X19449500Y55664070D01*
X19449500Y55535928D01*
X19451910Y55523814D01*
X19444718Y55463053D01*
X19403185Y55418123D01*
X19354812Y55405500D01*
X16286480Y55405500D01*
X16228289Y55424407D01*
X16217611Y55433380D01*
X14580577Y57018599D01*
X14551926Y57072662D01*
X14550446Y57089719D01*
X14550446Y59005818D01*
X14569353Y59064009D01*
X14618853Y59099973D01*
X14668763Y59102915D01*
X14685925Y59099501D01*
X14685928Y59099501D01*
X14685931Y59099500D01*
X14685932Y59099500D01*
X14814068Y59099500D01*
X14814069Y59099500D01*
X14939744Y59124499D01*
X15033179Y59163202D01*
X15094172Y59168002D01*
X15146342Y59136033D01*
G37*
%TD.AperFunction*%
%TA.AperFunction,Conductor*%
G36*
X19148691Y61125593D02*
G01*
X19184655Y61076093D01*
X19189500Y61045500D01*
X19189500Y60776924D01*
X19192289Y60747186D01*
X19192291Y60747177D01*
X19236148Y60621842D01*
X19314997Y60515005D01*
X19315004Y60514998D01*
X19421841Y60436149D01*
X19421842Y60436149D01*
X19421843Y60436148D01*
X19547181Y60392290D01*
X19574619Y60389718D01*
X19576923Y60389501D01*
X19576928Y60389500D01*
X19576934Y60389500D01*
X19773100Y60389500D01*
X19831291Y60370593D01*
X19843103Y60360504D01*
X20115503Y60088105D01*
X20143281Y60033588D01*
X20144500Y60018101D01*
X20144500Y59257273D01*
X20170723Y59159407D01*
X20171794Y59155411D01*
X20197653Y59110622D01*
X20210375Y59050774D01*
X20185489Y58994878D01*
X20132501Y58964285D01*
X20071650Y58970681D01*
X20062417Y58975385D01*
X20052174Y58981299D01*
X19979587Y59023207D01*
X19877727Y59050500D01*
X19877725Y59050500D01*
X18907770Y59050500D01*
X18849579Y59069407D01*
X18817947Y59111935D01*
X18817317Y59111601D01*
X18815160Y59115682D01*
X18814325Y59116805D01*
X18814161Y59117273D01*
X18813852Y59118157D01*
X18813851Y59118159D01*
X18735002Y59224996D01*
X18734995Y59225003D01*
X18628158Y59303852D01*
X18502823Y59347709D01*
X18502814Y59347711D01*
X18473076Y59350500D01*
X18473066Y59350500D01*
X18026934Y59350500D01*
X18026923Y59350500D01*
X17997185Y59347711D01*
X17997176Y59347709D01*
X17871841Y59303852D01*
X17765004Y59225003D01*
X17764999Y59224998D01*
X17692441Y59126685D01*
X17642673Y59091093D01*
X17581490Y59091551D01*
X17533131Y59126685D01*
X17496423Y59176423D01*
X17496422Y59176424D01*
X17496418Y59176428D01*
X17390795Y59254381D01*
X17266883Y59297740D01*
X17266874Y59297742D01*
X17237465Y59300500D01*
X16762542Y59300500D01*
X16733124Y59297742D01*
X16733119Y59297741D01*
X16609206Y59254382D01*
X16503578Y59176424D01*
X16498331Y59171176D01*
X16496278Y59173229D01*
X16494282Y59171801D01*
X16485278Y59159407D01*
X16470019Y59154450D01*
X16456971Y59145118D01*
X16427087Y59140500D01*
X16322913Y59140500D01*
X16264722Y59159407D01*
X16243257Y59180714D01*
X16242888Y59181214D01*
X16237814Y59196443D01*
X16228758Y59208907D01*
X16228758Y59223623D01*
X16223547Y59239262D01*
X16228758Y59255717D01*
X16228758Y59270093D01*
X16236829Y59281203D01*
X16242020Y59297592D01*
X16242889Y59298788D01*
X16324380Y59409205D01*
X16324379Y59409205D01*
X16324381Y59409206D01*
X16367741Y59533121D01*
X16370500Y59562543D01*
X16370499Y59937456D01*
X16367741Y59966879D01*
X16324381Y60090794D01*
X16312761Y60106539D01*
X16246427Y60196419D01*
X16246418Y60196428D01*
X16140795Y60274381D01*
X16016883Y60317740D01*
X16016874Y60317742D01*
X15987465Y60320500D01*
X15512542Y60320500D01*
X15483124Y60317742D01*
X15483119Y60317741D01*
X15359204Y60274381D01*
X15304833Y60234253D01*
X15301287Y60233072D01*
X15298898Y60230197D01*
X15272560Y60223500D01*
X15246785Y60214911D01*
X15243222Y60216040D01*
X15239600Y60215118D01*
X15224416Y60221995D01*
X15188455Y60233383D01*
X15182764Y60237773D01*
X15179257Y60240688D01*
X15164669Y60255276D01*
X15149559Y60265372D01*
X15145583Y60268677D01*
X15131878Y60290384D01*
X15115982Y60310549D01*
X15115772Y60315894D01*
X15112918Y60320414D01*
X15114589Y60346031D01*
X15113582Y60371687D01*
X15116589Y60376702D01*
X15116901Y60381469D01*
X15126062Y60392492D01*
X15140300Y60416226D01*
X15870165Y61116917D01*
X15925237Y61143577D01*
X15938727Y61144500D01*
X19090500Y61144500D01*
X19148691Y61125593D01*
G37*
%TD.AperFunction*%
%TA.AperFunction,Conductor*%
G36*
X75002152Y79499407D02*
G01*
X75387853Y79482566D01*
X75396432Y79481816D01*
X75777053Y79431705D01*
X75785544Y79430208D01*
X76160338Y79347119D01*
X76168673Y79344885D01*
X76534797Y79229447D01*
X76542913Y79226493D01*
X76897587Y79079582D01*
X76905398Y79075940D01*
X77245910Y78898680D01*
X77253390Y78894362D01*
X77577167Y78688094D01*
X77584241Y78683140D01*
X77888797Y78449446D01*
X77895398Y78443907D01*
X78178459Y78184530D01*
X78184529Y78178460D01*
X78443905Y77895401D01*
X78449445Y77888798D01*
X78683139Y77584242D01*
X78688093Y77577168D01*
X78894361Y77253391D01*
X78898679Y77245911D01*
X79075935Y76905407D01*
X79079585Y76897580D01*
X79226492Y76542914D01*
X79229446Y76534798D01*
X79344884Y76168674D01*
X79347119Y76160332D01*
X79430205Y75785555D01*
X79431705Y75777049D01*
X79481813Y75396446D01*
X79482566Y75387842D01*
X79499406Y75002153D01*
X79499500Y74997835D01*
X79499500Y68248322D01*
X79480593Y68190131D01*
X79470504Y68178318D01*
X76692686Y65400500D01*
X76692685Y65400501D01*
X76599500Y65307315D01*
X76599496Y65307310D01*
X76533609Y65193191D01*
X76533608Y65193186D01*
X76499500Y65065892D01*
X76499500Y15065893D01*
X76499500Y15065892D01*
X76499500Y14934108D01*
X76527073Y14831204D01*
X76533609Y14806810D01*
X76599496Y14692691D01*
X76599498Y14692689D01*
X76599500Y14692686D01*
X79470505Y11821681D01*
X79498281Y11767166D01*
X79499500Y11751679D01*
X79499500Y5002166D01*
X79499406Y4997848D01*
X79482566Y4612159D01*
X79481813Y4603555D01*
X79431705Y4222952D01*
X79430205Y4214446D01*
X79347119Y3839669D01*
X79344884Y3831327D01*
X79229446Y3465203D01*
X79226492Y3457087D01*
X79079585Y3102421D01*
X79075935Y3094594D01*
X78898679Y2754090D01*
X78894361Y2746610D01*
X78688093Y2422833D01*
X78683139Y2415759D01*
X78449445Y2111203D01*
X78443895Y2104589D01*
X78184540Y1821553D01*
X78178447Y1815460D01*
X78162727Y1801054D01*
X77895413Y1556106D01*
X77888797Y1550555D01*
X77584241Y1316861D01*
X77577167Y1311907D01*
X77253390Y1105639D01*
X77245910Y1101321D01*
X76905406Y924065D01*
X76897579Y920415D01*
X76542913Y773508D01*
X76534797Y770554D01*
X76168673Y655116D01*
X76160331Y652881D01*
X75785554Y569795D01*
X75777048Y568295D01*
X75396445Y518187D01*
X75387841Y517434D01*
X75002153Y500594D01*
X74997835Y500500D01*
X5002165Y500500D01*
X4997847Y500594D01*
X4612158Y517434D01*
X4603554Y518187D01*
X4222951Y568295D01*
X4214445Y569795D01*
X3839668Y652881D01*
X3831326Y655116D01*
X3465202Y770554D01*
X3457086Y773508D01*
X3102420Y920415D01*
X3094593Y924065D01*
X2754089Y1101321D01*
X2746609Y1105639D01*
X2422832Y1311907D01*
X2415758Y1316861D01*
X2111202Y1550555D01*
X2104599Y1556095D01*
X1821540Y1815471D01*
X1815470Y1821541D01*
X1556093Y2104602D01*
X1550554Y2111203D01*
X1316860Y2415759D01*
X1311906Y2422833D01*
X1105638Y2746610D01*
X1101320Y2754090D01*
X924064Y3094594D01*
X920414Y3102421D01*
X773507Y3457087D01*
X770553Y3465203D01*
X655115Y3831327D01*
X652880Y3839669D01*
X569794Y4214446D01*
X568294Y4222952D01*
X555643Y4319047D01*
X518184Y4603568D01*
X517434Y4612147D01*
X500594Y4997848D01*
X500500Y5002166D01*
X500500Y11751679D01*
X519407Y11809870D01*
X529490Y11821677D01*
X2336659Y13628845D01*
X51774500Y13628845D01*
X51774500Y13471156D01*
X51805263Y13316504D01*
X51805263Y13316502D01*
X51865603Y13170826D01*
X51865609Y13170815D01*
X51918312Y13091941D01*
X51953211Y13039711D01*
X52064711Y12928211D01*
X52142876Y12875983D01*
X52195814Y12840610D01*
X52195825Y12840604D01*
X52249638Y12818315D01*
X52341503Y12780263D01*
X52496158Y12749500D01*
X52496159Y12749500D01*
X52653841Y12749500D01*
X52653842Y12749500D01*
X52808497Y12780263D01*
X52954179Y12840606D01*
X53085289Y12928211D01*
X53196789Y13039711D01*
X53284394Y13170821D01*
X53344737Y13316503D01*
X53375500Y13471158D01*
X53375500Y13628842D01*
X53344737Y13783497D01*
X53284394Y13929179D01*
X53284393Y13929181D01*
X53284390Y13929186D01*
X53249017Y13982124D01*
X53196789Y14060289D01*
X53085289Y14171789D01*
X53085287Y14171791D01*
X53044497Y14199047D01*
X53006618Y14247097D01*
X53000500Y14281361D01*
X53000500Y14750334D01*
X53019407Y14808525D01*
X53040171Y14829587D01*
X53043701Y14832231D01*
X53157546Y14917454D01*
X53243796Y15032669D01*
X53256188Y15065892D01*
X53276638Y15120723D01*
X53294091Y15167517D01*
X53300500Y15227127D01*
X53300499Y15743101D01*
X53319406Y15801291D01*
X53329489Y15813098D01*
X54436896Y16920504D01*
X54491413Y16948281D01*
X54506900Y16949500D01*
X55066773Y16949500D01*
X55066773Y16949501D01*
X55097199Y16952354D01*
X55225382Y16997207D01*
X55334650Y17077850D01*
X55415293Y17187118D01*
X55460146Y17315301D01*
X55462999Y17345727D01*
X55463000Y17345727D01*
X55463000Y17754273D01*
X55462999Y17754275D01*
X55812000Y17754275D01*
X55812000Y17345726D01*
X55814853Y17315306D01*
X55814855Y17315297D01*
X55859707Y17187117D01*
X55940345Y17077856D01*
X55940347Y17077854D01*
X55940350Y17077850D01*
X55940353Y17077848D01*
X55940355Y17077846D01*
X56049616Y16997208D01*
X56049617Y16997208D01*
X56049618Y16997207D01*
X56177801Y16952354D01*
X56208225Y16949501D01*
X56208227Y16949500D01*
X56208234Y16949500D01*
X57341773Y16949500D01*
X57341773Y16949501D01*
X57372199Y16952354D01*
X57500382Y16997207D01*
X57609650Y17077850D01*
X57632852Y17109289D01*
X57645312Y17118200D01*
X57654317Y17130593D01*
X57669572Y17135550D01*
X57682620Y17144881D01*
X57712508Y17149500D01*
X57814562Y17149500D01*
X57872753Y17130593D01*
X57883969Y17119463D01*
X57884755Y17120248D01*
X57889998Y17115005D01*
X57890001Y17115001D01*
X57890004Y17114999D01*
X57890005Y17114998D01*
X57996841Y17036149D01*
X57996842Y17036149D01*
X57996843Y17036148D01*
X58122181Y16992290D01*
X58149619Y16989718D01*
X58151923Y16989501D01*
X58151928Y16989500D01*
X58151934Y16989500D01*
X58598072Y16989500D01*
X58598075Y16989501D01*
X58627819Y16992290D01*
X58753157Y17036148D01*
X58859999Y17115001D01*
X58938852Y17221843D01*
X58982710Y17347181D01*
X58985500Y17376934D01*
X58985500Y17763066D01*
X58985500Y17763072D01*
X58985499Y17763077D01*
X58982710Y17792815D01*
X58982710Y17792819D01*
X58938852Y17918157D01*
X58911573Y17955119D01*
X58860002Y18024996D01*
X58859995Y18025003D01*
X58753158Y18103852D01*
X58627823Y18147709D01*
X58627814Y18147711D01*
X58598076Y18150500D01*
X58598066Y18150500D01*
X58151934Y18150500D01*
X58151923Y18150500D01*
X58122185Y18147711D01*
X58122176Y18147709D01*
X57996841Y18103852D01*
X57890000Y18024999D01*
X57889998Y18024997D01*
X57864695Y17990712D01*
X57852236Y17981802D01*
X57843231Y17969407D01*
X57827975Y17964451D01*
X57814928Y17955119D01*
X57785040Y17950500D01*
X57712508Y17950500D01*
X57654317Y17969407D01*
X57632852Y17990712D01*
X57609650Y18022150D01*
X57609649Y18022151D01*
X57500383Y18102793D01*
X57372203Y18147645D01*
X57372194Y18147647D01*
X57341774Y18150500D01*
X57341766Y18150500D01*
X56208234Y18150500D01*
X56208225Y18150500D01*
X56177805Y18147647D01*
X56177796Y18147645D01*
X56049616Y18102793D01*
X55940355Y18022155D01*
X55940345Y18022145D01*
X55859707Y17912884D01*
X55814855Y17784704D01*
X55814853Y17784695D01*
X55812000Y17754275D01*
X55462999Y17754275D01*
X55462174Y17763072D01*
X55460146Y17784699D01*
X55415293Y17912882D01*
X55411398Y17918159D01*
X55334654Y18022145D01*
X55334652Y18022147D01*
X55334650Y18022150D01*
X55334646Y18022153D01*
X55334644Y18022155D01*
X55225383Y18102793D01*
X55097203Y18147645D01*
X55097194Y18147647D01*
X55066774Y18150500D01*
X55066766Y18150500D01*
X53933234Y18150500D01*
X53933225Y18150500D01*
X53902805Y18147647D01*
X53902796Y18147645D01*
X53774616Y18102793D01*
X53665355Y18022155D01*
X53665345Y18022145D01*
X53584707Y17912884D01*
X53539855Y17784704D01*
X53539853Y17784695D01*
X53537000Y17754275D01*
X53537000Y17345726D01*
X53539853Y17315305D01*
X53539853Y17315303D01*
X53539854Y17315301D01*
X53560537Y17256192D01*
X53561909Y17195022D01*
X53537096Y17153491D01*
X52738101Y16354496D01*
X52683584Y16326719D01*
X52668097Y16325500D01*
X52352133Y16325500D01*
X52352129Y16325500D01*
X52352128Y16325499D01*
X52344949Y16324728D01*
X52292519Y16319092D01*
X52292514Y16319091D01*
X52157670Y16268798D01*
X52042458Y16182550D01*
X52042450Y16182542D01*
X51956202Y16067330D01*
X51905910Y15932489D01*
X51905908Y15932478D01*
X51899500Y15872871D01*
X51899500Y15227134D01*
X51899501Y15227130D01*
X51905908Y15167520D01*
X51905909Y15167515D01*
X51956202Y15032671D01*
X52029985Y14934110D01*
X52042454Y14917454D01*
X52042457Y14917452D01*
X52042458Y14917451D01*
X52159829Y14829587D01*
X52195082Y14779579D01*
X52199500Y14750334D01*
X52199500Y14314769D01*
X52180593Y14256578D01*
X52155502Y14232454D01*
X52064711Y14171789D01*
X52064707Y14171786D01*
X51953214Y14060293D01*
X51953211Y14060289D01*
X51865609Y13929186D01*
X51865603Y13929175D01*
X51805263Y13783499D01*
X51805263Y13783497D01*
X51774500Y13628845D01*
X2336659Y13628845D01*
X3400500Y14692686D01*
X3433783Y14750334D01*
X3466390Y14806810D01*
X3466390Y14806812D01*
X3466392Y14806814D01*
X3500500Y14934108D01*
X3500500Y15065893D01*
X3500500Y16229057D01*
X49174500Y16229057D01*
X49174500Y16070943D01*
X49215423Y15918216D01*
X49294480Y15781284D01*
X49406284Y15669480D01*
X49543216Y15590423D01*
X49695943Y15549500D01*
X49768099Y15549500D01*
X49826290Y15530593D01*
X49838102Y15520504D01*
X50129086Y15229521D01*
X50129091Y15229517D01*
X50226031Y15173548D01*
X50225101Y15171938D01*
X50265007Y15137865D01*
X50273361Y15120723D01*
X50306204Y15032668D01*
X50392450Y14917459D01*
X50392454Y14917454D01*
X50392457Y14917452D01*
X50392458Y14917451D01*
X50507670Y14831203D01*
X50642511Y14780911D01*
X50642512Y14780911D01*
X50642517Y14780909D01*
X50702127Y14774500D01*
X51197872Y14774501D01*
X51257483Y14780909D01*
X51387996Y14829587D01*
X51392329Y14831203D01*
X51392329Y14831204D01*
X51392331Y14831204D01*
X51507546Y14917454D01*
X51593796Y15032669D01*
X51606188Y15065892D01*
X51626638Y15120723D01*
X51644091Y15167517D01*
X51650500Y15227127D01*
X51650499Y15872872D01*
X51644091Y15932483D01*
X51644089Y15932489D01*
X51593797Y16067330D01*
X51507549Y16182542D01*
X51507548Y16182543D01*
X51507546Y16182546D01*
X51445417Y16229056D01*
X51392329Y16268798D01*
X51257488Y16319090D01*
X51257483Y16319091D01*
X51257481Y16319092D01*
X51257477Y16319092D01*
X51226249Y16322450D01*
X51197873Y16325500D01*
X51197870Y16325500D01*
X50702133Y16325500D01*
X50702129Y16325500D01*
X50702128Y16325499D01*
X50694949Y16324728D01*
X50642519Y16319092D01*
X50642514Y16319091D01*
X50507671Y16268798D01*
X50505807Y16267402D01*
X50503966Y16266775D01*
X50501456Y16265404D01*
X50501218Y16265839D01*
X50447891Y16247668D01*
X50389437Y16265744D01*
X50352772Y16314727D01*
X50350859Y16321018D01*
X50334577Y16381784D01*
X50255520Y16518716D01*
X50143716Y16630520D01*
X50006784Y16709577D01*
X49854057Y16750500D01*
X49695943Y16750500D01*
X49543216Y16709577D01*
X49406284Y16630520D01*
X49294480Y16518716D01*
X49215423Y16381784D01*
X49174500Y16229057D01*
X3500500Y16229057D01*
X3500500Y19786138D01*
X48694500Y19786138D01*
X48694500Y19274000D01*
X48698657Y19235334D01*
X48701483Y19209049D01*
X48712681Y19157575D01*
X48712685Y19157559D01*
X48712688Y19157548D01*
X48723646Y19119342D01*
X48780325Y19022429D01*
X48784461Y19017656D01*
X48826075Y18969630D01*
X48826080Y18969625D01*
X48870813Y18927447D01*
X48970889Y18876561D01*
X48970891Y18876561D01*
X48970892Y18876560D01*
X49018155Y18862682D01*
X49037928Y18856876D01*
X49124000Y18844500D01*
X49124001Y18844500D01*
X55050996Y18844500D01*
X55051000Y18844500D01*
X55115941Y18851482D01*
X55115949Y18851484D01*
X55115951Y18851484D01*
X55167425Y18862682D01*
X55167426Y18862683D01*
X55167452Y18862688D01*
X55205658Y18873646D01*
X55302571Y18930325D01*
X55355375Y18976080D01*
X55397553Y19020813D01*
X55448439Y19120889D01*
X55468124Y19187928D01*
X55480500Y19274000D01*
X55480500Y19598638D01*
X55478749Y19631297D01*
X55475915Y19657655D01*
X55475080Y19664660D01*
X55440297Y19771407D01*
X55432253Y19786138D01*
X55406816Y19832723D01*
X55406815Y19832726D01*
X55406234Y19833502D01*
X55354702Y19902340D01*
X55058404Y20198638D01*
X55694500Y20198638D01*
X55694500Y19301362D01*
X55696250Y19268717D01*
X55696251Y19268702D01*
X55699088Y19242312D01*
X55699918Y19235349D01*
X55699919Y19235343D01*
X55699920Y19235340D01*
X55729140Y19145664D01*
X55734703Y19128594D01*
X55734706Y19128586D01*
X55768183Y19067278D01*
X55768184Y19067275D01*
X55768188Y19067270D01*
X55820298Y18997660D01*
X55967160Y18850798D01*
X55967169Y18850790D01*
X55967182Y18850777D01*
X55991482Y18828950D01*
X55991492Y18828942D01*
X56012134Y18812308D01*
X56017675Y18807947D01*
X56117751Y18757061D01*
X56184790Y18737376D01*
X56270862Y18725000D01*
X56270863Y18725000D01*
X59504138Y18725000D01*
X59536797Y18726751D01*
X59563155Y18729585D01*
X59570160Y18730420D01*
X59676907Y18765203D01*
X59738230Y18798688D01*
X59807840Y18850798D01*
X59929702Y18972660D01*
X59951558Y18996992D01*
X59968192Y19017634D01*
X59972590Y19023224D01*
X59972592Y19023227D01*
X59975212Y19027328D01*
X59975410Y19027201D01*
X59978726Y19032507D01*
X59978539Y19032638D01*
X59979378Y19033830D01*
X59989735Y19048546D01*
X60010544Y19097904D01*
X60023457Y19123311D01*
X60024219Y19125908D01*
X60022556Y19126396D01*
X60033351Y19151999D01*
X60036806Y19167884D01*
X60038542Y19174690D01*
X60043123Y19190287D01*
X60055500Y19276362D01*
X60055500Y20582451D01*
X60074407Y20640642D01*
X60084496Y20652455D01*
X60597545Y21165504D01*
X60652062Y21193281D01*
X60667549Y21194500D01*
X67355423Y21194500D01*
X67400364Y21183711D01*
X67462394Y21152105D01*
X67672049Y21083985D01*
X67759140Y21070191D01*
X67889775Y21049500D01*
X67889778Y21049500D01*
X68110225Y21049500D01*
X68219086Y21066743D01*
X68327951Y21083985D01*
X68537606Y21152105D01*
X68734022Y21252185D01*
X68912365Y21381758D01*
X69068242Y21537635D01*
X69197815Y21715978D01*
X69297895Y21912394D01*
X69366015Y22122049D01*
X69383257Y22230914D01*
X69400500Y22339775D01*
X69400500Y22560226D01*
X69366015Y22777949D01*
X69366015Y22777951D01*
X69297895Y22987606D01*
X69197815Y23184022D01*
X69068242Y23362365D01*
X68912365Y23518242D01*
X68734022Y23647815D01*
X68734021Y23647816D01*
X68734019Y23647817D01*
X68569162Y23731816D01*
X68537606Y23747895D01*
X68537602Y23747896D01*
X68537599Y23747898D01*
X68327948Y23816016D01*
X68110225Y23850500D01*
X68110222Y23850500D01*
X67889778Y23850500D01*
X67889775Y23850500D01*
X67672051Y23816016D01*
X67654598Y23810345D01*
X67624006Y23805500D01*
X59301362Y23805500D01*
X59268716Y23803750D01*
X59268701Y23803749D01*
X59242311Y23800912D01*
X59235348Y23800082D01*
X59235340Y23800081D01*
X59235340Y23800080D01*
X59235337Y23800080D01*
X59235333Y23800078D01*
X59128593Y23765297D01*
X59128585Y23765294D01*
X59067277Y23731817D01*
X59067274Y23731816D01*
X58997662Y23679704D01*
X58997660Y23679703D01*
X58997660Y23679702D01*
X55820298Y20502340D01*
X55820291Y20502332D01*
X55820276Y20502318D01*
X55798449Y20478018D01*
X55781804Y20457361D01*
X55777448Y20451827D01*
X55726562Y20351753D01*
X55726559Y20351746D01*
X55706877Y20284717D01*
X55706875Y20284707D01*
X55694500Y20198638D01*
X55058404Y20198638D01*
X53677340Y21579702D01*
X53677330Y21579711D01*
X53677317Y21579724D01*
X53653017Y21601551D01*
X53648220Y21605416D01*
X53632366Y21618192D01*
X53626825Y21622553D01*
X53578456Y21647147D01*
X53526752Y21673438D01*
X53526745Y21673441D01*
X53459716Y21693123D01*
X53459706Y21693125D01*
X53395400Y21702371D01*
X53373638Y21705500D01*
X53373637Y21705500D01*
X53284147Y21705500D01*
X53225956Y21724407D01*
X53189992Y21773907D01*
X53189992Y21835093D01*
X53201831Y21859501D01*
X53209391Y21870816D01*
X53209392Y21870819D01*
X53209394Y21870821D01*
X53269737Y22016503D01*
X53300500Y22171158D01*
X53300500Y22328842D01*
X53269737Y22483497D01*
X53231005Y22577006D01*
X53209396Y22629175D01*
X53209390Y22629186D01*
X53174017Y22682124D01*
X53121789Y22760289D01*
X53010289Y22871789D01*
X52952213Y22910594D01*
X52879185Y22959391D01*
X52879174Y22959397D01*
X52733497Y23019737D01*
X52578844Y23050500D01*
X52578842Y23050500D01*
X52421158Y23050500D01*
X52421155Y23050500D01*
X52266503Y23019737D01*
X52266501Y23019737D01*
X52120825Y22959397D01*
X52120814Y22959391D01*
X51989711Y22871789D01*
X51989707Y22871786D01*
X51878214Y22760293D01*
X51878211Y22760289D01*
X51790609Y22629186D01*
X51790603Y22629175D01*
X51730263Y22483499D01*
X51730263Y22483497D01*
X51699500Y22328845D01*
X51699500Y22171156D01*
X51730263Y22016504D01*
X51730263Y22016502D01*
X51790603Y21870826D01*
X51790608Y21870816D01*
X51798169Y21859501D01*
X51814777Y21800612D01*
X51793599Y21743209D01*
X51742725Y21709217D01*
X51715853Y21705500D01*
X51524500Y21705500D01*
X51466309Y21724407D01*
X51430345Y21773907D01*
X51425500Y21804500D01*
X51425500Y27829192D01*
X51444407Y27887383D01*
X51454490Y27899190D01*
X62524695Y38969394D01*
X62598620Y39080031D01*
X62613534Y39116038D01*
X62649541Y39202964D01*
X62675500Y39333469D01*
X62675500Y39466531D01*
X62675500Y46595500D01*
X62694407Y46653691D01*
X62743907Y46689655D01*
X62774500Y46694500D01*
X68871904Y46694500D01*
X68871920Y46694500D01*
X68901866Y46695971D01*
X68950446Y46700756D01*
X68962129Y46702490D01*
X68980091Y46705154D01*
X68980093Y46705155D01*
X68980103Y46705156D01*
X69003147Y46709740D01*
X69060457Y46727125D01*
X69150215Y46764305D01*
X69203030Y46792536D01*
X69222556Y46805583D01*
X69246632Y46823439D01*
X69284364Y46854404D01*
X69306581Y46874540D01*
X70125460Y47693419D01*
X70145596Y47715636D01*
X70176561Y47753368D01*
X70194421Y47777450D01*
X70207470Y47796980D01*
X70235698Y47849793D01*
X70272876Y47939549D01*
X70290261Y47996857D01*
X70294845Y48019902D01*
X70299244Y48049556D01*
X70304029Y48098134D01*
X70305500Y48128081D01*
X70305500Y49371920D01*
X70304029Y49401867D01*
X70299244Y49450445D01*
X70294845Y49480099D01*
X70290261Y49503144D01*
X70272876Y49560453D01*
X70235696Y49650213D01*
X70207464Y49703031D01*
X70194417Y49722557D01*
X70176561Y49746633D01*
X70145596Y49784365D01*
X70125460Y49806582D01*
X69306581Y50625461D01*
X69295471Y50635530D01*
X69284363Y50645599D01*
X69246638Y50676557D01*
X69246616Y50676575D01*
X69222577Y50694403D01*
X69203019Y50707471D01*
X69203018Y50707472D01*
X69150191Y50735708D01*
X69150189Y50735709D01*
X69150185Y50735711D01*
X69060446Y50772879D01*
X69060432Y50772884D01*
X69003167Y50790257D01*
X69003157Y50790259D01*
X68996604Y50791563D01*
X68996559Y50791572D01*
X68980068Y50794851D01*
X68980058Y50794853D01*
X68950457Y50799242D01*
X68950456Y50799243D01*
X68950430Y50799246D01*
X68950406Y50799249D01*
X68950401Y50799249D01*
X68901875Y50804028D01*
X68901862Y50804029D01*
X68896870Y50804275D01*
X68871920Y50805500D01*
X68871910Y50805500D01*
X65128487Y50805500D01*
X65070296Y50824407D01*
X65058483Y50834496D01*
X63834496Y52058483D01*
X63806719Y52113000D01*
X63805500Y52128487D01*
X63805500Y54332450D01*
X63824407Y54390641D01*
X63834496Y54402454D01*
X64716021Y55283979D01*
X65155741Y55723699D01*
X65597545Y56165505D01*
X65652062Y56193281D01*
X65667549Y56194500D01*
X68948638Y56194500D01*
X68981297Y56196251D01*
X69007655Y56199085D01*
X69014660Y56199920D01*
X69121407Y56234703D01*
X69182730Y56268188D01*
X69252340Y56320298D01*
X70179702Y57247660D01*
X70190416Y57259587D01*
X70201550Y57271983D01*
X70201550Y57271984D01*
X70201558Y57271992D01*
X70218192Y57292634D01*
X70222553Y57298175D01*
X70273439Y57398251D01*
X70293124Y57465290D01*
X70305500Y57551362D01*
X70305500Y58948638D01*
X70303749Y58981297D01*
X70300915Y59007655D01*
X70300080Y59014660D01*
X70265297Y59121407D01*
X70262414Y59126686D01*
X70231816Y59182723D01*
X70231815Y59182726D01*
X70212216Y59208907D01*
X70179702Y59252340D01*
X69252340Y60179702D01*
X69252330Y60179711D01*
X69252317Y60179724D01*
X69228017Y60201551D01*
X69223220Y60205416D01*
X69207366Y60218192D01*
X69201825Y60222553D01*
X69137470Y60255276D01*
X69101752Y60273438D01*
X69101745Y60273441D01*
X69034716Y60293123D01*
X69034706Y60293125D01*
X68970400Y60302371D01*
X68948638Y60305500D01*
X68948637Y60305500D01*
X65667550Y60305500D01*
X65609359Y60324407D01*
X65597546Y60334496D01*
X65306042Y60626000D01*
X65002340Y60929702D01*
X65002330Y60929711D01*
X65002317Y60929724D01*
X64978017Y60951551D01*
X64973220Y60955416D01*
X64957366Y60968192D01*
X64951825Y60972553D01*
X64903456Y60997147D01*
X64851752Y61023438D01*
X64851745Y61023441D01*
X64784716Y61043123D01*
X64784706Y61043125D01*
X64720400Y61052371D01*
X64698638Y61055500D01*
X53624000Y61055500D01*
X53578411Y61050599D01*
X53559048Y61048517D01*
X53507574Y61037319D01*
X53507554Y61037314D01*
X53507548Y61037312D01*
X53469342Y61026354D01*
X53375439Y60971435D01*
X53372426Y60969673D01*
X53319625Y60923921D01*
X53319624Y60923920D01*
X53277446Y60879186D01*
X53226562Y60779115D01*
X53226559Y60779108D01*
X53206877Y60712079D01*
X53206875Y60712069D01*
X53196933Y60642922D01*
X53194500Y60626000D01*
X53194500Y55624000D01*
X53200444Y55568709D01*
X53201483Y55559049D01*
X53212681Y55507575D01*
X53212685Y55507559D01*
X53212688Y55507548D01*
X53223646Y55469342D01*
X53280325Y55372429D01*
X53326080Y55319625D01*
X53370813Y55277447D01*
X53470889Y55226561D01*
X53470891Y55226561D01*
X53470892Y55226560D01*
X53537921Y55206878D01*
X53537928Y55206876D01*
X53624000Y55194500D01*
X58832450Y55194500D01*
X58890641Y55175593D01*
X58902454Y55165504D01*
X59665504Y54402454D01*
X59693281Y54347937D01*
X59694500Y54332450D01*
X59694500Y49128090D01*
X59695971Y49098140D01*
X59695972Y49098129D01*
X59700751Y49049597D01*
X59700758Y49049544D01*
X59705150Y49019925D01*
X59709733Y48996882D01*
X59709736Y48996867D01*
X59727122Y48939550D01*
X59727123Y48939547D01*
X59764304Y48849784D01*
X59792533Y48796973D01*
X59805573Y48777458D01*
X59805574Y48777457D01*
X59805587Y48777438D01*
X59823439Y48753367D01*
X59823441Y48753365D01*
X59823463Y48753337D01*
X59854401Y48715637D01*
X59864470Y48704529D01*
X59874539Y48693419D01*
X61295505Y47272453D01*
X61323281Y47217938D01*
X61324500Y47202451D01*
X61324500Y39720809D01*
X61305593Y39662618D01*
X61295504Y39650805D01*
X50225301Y28580602D01*
X50151383Y28469977D01*
X50151379Y28469968D01*
X50100458Y28347035D01*
X50083677Y28262666D01*
X50083677Y28262665D01*
X50074500Y28216532D01*
X50074500Y21385050D01*
X50055593Y21326859D01*
X50045504Y21315046D01*
X48820276Y20089818D01*
X48798449Y20065518D01*
X48781804Y20044861D01*
X48777448Y20039327D01*
X48726562Y19939253D01*
X48726559Y19939246D01*
X48706877Y19872217D01*
X48706875Y19872207D01*
X48701198Y19832723D01*
X48694500Y19786138D01*
X3500500Y19786138D01*
X3500500Y46088694D01*
X5874500Y46088694D01*
X5874500Y45911307D01*
X5909106Y45737335D01*
X5909106Y45737333D01*
X5976985Y45573456D01*
X5976985Y45573455D01*
X6032352Y45490594D01*
X6075536Y45425965D01*
X6200965Y45300536D01*
X6348453Y45201987D01*
X6512334Y45134106D01*
X6686309Y45099500D01*
X6686310Y45099500D01*
X7313690Y45099500D01*
X7313691Y45099500D01*
X7487666Y45134106D01*
X7650258Y45201454D01*
X7711252Y45206254D01*
X7763421Y45174284D01*
X7776930Y45153778D01*
X7789868Y45127542D01*
X7822367Y45071250D01*
X7844573Y45038016D01*
X7884126Y44986471D01*
X7910472Y44956430D01*
X7956429Y44910473D01*
X7986471Y44884126D01*
X7986488Y44884113D01*
X8038006Y44844581D01*
X8038031Y44844563D01*
X8071230Y44822381D01*
X8071233Y44822379D01*
X8071244Y44822372D01*
X8119670Y44794414D01*
X8138391Y44773622D01*
X8158233Y44753908D01*
X8158690Y44751077D01*
X8160611Y44748944D01*
X8163535Y44721118D01*
X8168001Y44693507D01*
X8166706Y44690956D01*
X8167007Y44688094D01*
X8140400Y44638901D01*
X8140174Y44638675D01*
X8140174Y44638673D01*
X8140092Y44638592D01*
X8139938Y44638438D01*
X8075536Y44574035D01*
X8074678Y44572752D01*
X8070230Y44568274D01*
X8046997Y44556342D01*
X8024991Y44542256D01*
X8020131Y44542543D01*
X8015804Y44540320D01*
X7989991Y44544323D01*
X7963912Y44545862D01*
X7959530Y44549046D01*
X7955341Y44549695D01*
X7946374Y44558604D01*
X7928729Y44571423D01*
X7927903Y44570596D01*
X7799034Y44699465D01*
X7651544Y44798015D01*
X7487666Y44865894D01*
X7313693Y44900500D01*
X7313691Y44900500D01*
X6686309Y44900500D01*
X6686306Y44900500D01*
X6512334Y44865894D01*
X6512332Y44865894D01*
X6348455Y44798015D01*
X6348454Y44798015D01*
X6200965Y44699465D01*
X6075535Y44574035D01*
X5976985Y44426546D01*
X5976985Y44426545D01*
X5909106Y44262668D01*
X5909106Y44262666D01*
X5874500Y44088694D01*
X5874500Y43911307D01*
X5909106Y43737335D01*
X5909106Y43737333D01*
X5976985Y43573456D01*
X5976985Y43573455D01*
X6033145Y43489407D01*
X6075536Y43425965D01*
X6200965Y43300536D01*
X6348453Y43201987D01*
X6512334Y43134106D01*
X6686309Y43099500D01*
X6686310Y43099500D01*
X7313690Y43099500D01*
X7313691Y43099500D01*
X7487666Y43134106D01*
X7651547Y43201987D01*
X7799035Y43300536D01*
X7924464Y43425965D01*
X7924464Y43425966D01*
X7927903Y43429404D01*
X7929009Y43428298D01*
X7974991Y43457740D01*
X8036071Y43454146D01*
X8071267Y43428575D01*
X8072097Y43429404D01*
X8075535Y43425966D01*
X8075536Y43425965D01*
X8200965Y43300536D01*
X8348453Y43201987D01*
X8512334Y43134106D01*
X8686309Y43099500D01*
X8686310Y43099500D01*
X9313690Y43099500D01*
X9313691Y43099500D01*
X9487666Y43134106D01*
X9651547Y43201987D01*
X9799035Y43300536D01*
X9924464Y43425965D01*
X10014715Y43561035D01*
X10062762Y43598912D01*
X10123900Y43601314D01*
X10174774Y43567322D01*
X10195952Y43509918D01*
X10196028Y43506008D01*
X10194685Y37792595D01*
X10175764Y37734408D01*
X10165681Y37722606D01*
X9777471Y37334487D01*
X9722954Y37306717D01*
X9707478Y37305500D01*
X8516322Y37305500D01*
X8496341Y37304846D01*
X8463853Y37302717D01*
X8443932Y37300756D01*
X8363229Y37290132D01*
X8363220Y37290130D01*
X8324024Y37282334D01*
X8261256Y37265516D01*
X8261241Y37265512D01*
X8223400Y37252668D01*
X8163366Y37227801D01*
X8127533Y37210130D01*
X8071266Y37177645D01*
X8071240Y37177628D01*
X8038011Y37155425D01*
X8038006Y37155422D01*
X7986494Y37115894D01*
X7986472Y37115876D01*
X7956425Y37089525D01*
X7910475Y37043575D01*
X7884124Y37013528D01*
X7884106Y37013506D01*
X7844578Y36961994D01*
X7844575Y36961989D01*
X7822372Y36928760D01*
X7822355Y36928734D01*
X7789870Y36872467D01*
X7772199Y36836634D01*
X7747335Y36776607D01*
X7747330Y36776593D01*
X7734491Y36738767D01*
X7734484Y36738742D01*
X7717667Y36675976D01*
X7709870Y36636782D01*
X7709868Y36636768D01*
X7699244Y36556067D01*
X7697283Y36536151D01*
X7695154Y36503659D01*
X7694500Y36483680D01*
X7694500Y36231575D01*
X7695971Y36201624D01*
X7695972Y36201613D01*
X7700755Y36153043D01*
X7700756Y36153032D01*
X7705153Y36123395D01*
X7718098Y36058316D01*
X7720000Y36039002D01*
X7720000Y35961003D01*
X7718098Y35941689D01*
X7705154Y35876619D01*
X7700756Y35846974D01*
X7695971Y35798393D01*
X7694500Y35768435D01*
X7694500Y34207032D01*
X7700369Y34147443D01*
X7718098Y34058316D01*
X7720000Y34039002D01*
X7720000Y33961001D01*
X7718098Y33941687D01*
X7700369Y33852560D01*
X7694500Y33792970D01*
X7694500Y32231575D01*
X7695971Y32201624D01*
X7695972Y32201613D01*
X7700755Y32153043D01*
X7700756Y32153032D01*
X7705153Y32123395D01*
X7718098Y32058316D01*
X7720000Y32039002D01*
X7720000Y31961003D01*
X7718098Y31941689D01*
X7705154Y31876619D01*
X7700756Y31846974D01*
X7695971Y31798393D01*
X7694500Y31768435D01*
X7694500Y30207032D01*
X7700369Y30147443D01*
X7718098Y30058316D01*
X7720000Y30039002D01*
X7720000Y29961001D01*
X7718098Y29941687D01*
X7700369Y29852560D01*
X7694500Y29792970D01*
X7694500Y28928385D01*
X7675593Y28870194D01*
X7626093Y28834230D01*
X7564907Y28834230D01*
X7557615Y28836921D01*
X7487666Y28865894D01*
X7313693Y28900500D01*
X7313691Y28900500D01*
X6686309Y28900500D01*
X6686306Y28900500D01*
X6512334Y28865894D01*
X6512332Y28865894D01*
X6348455Y28798015D01*
X6348454Y28798015D01*
X6200965Y28699465D01*
X6075535Y28574035D01*
X5976985Y28426546D01*
X5976985Y28426545D01*
X5909106Y28262668D01*
X5909106Y28262666D01*
X5874500Y28088694D01*
X5874500Y27911307D01*
X5909106Y27737335D01*
X5909106Y27737333D01*
X5976985Y27573456D01*
X5976985Y27573455D01*
X6075535Y27425966D01*
X6075536Y27425965D01*
X6200965Y27300536D01*
X6348453Y27201987D01*
X6512334Y27134106D01*
X6686309Y27099500D01*
X6686310Y27099500D01*
X7313690Y27099500D01*
X7313691Y27099500D01*
X7487666Y27134106D01*
X7650258Y27201454D01*
X7711252Y27206254D01*
X7763421Y27174284D01*
X7776930Y27153778D01*
X7789868Y27127542D01*
X7822367Y27071250D01*
X7844573Y27038016D01*
X7884126Y26986471D01*
X7910472Y26956430D01*
X7956429Y26910473D01*
X7986471Y26884126D01*
X7999059Y26874467D01*
X8038006Y26844581D01*
X8038031Y26844563D01*
X8071230Y26822381D01*
X8071233Y26822379D01*
X8071244Y26822372D01*
X8119670Y26794414D01*
X8138391Y26773622D01*
X8158233Y26753908D01*
X8158690Y26751077D01*
X8160611Y26748944D01*
X8163535Y26721118D01*
X8168001Y26693507D01*
X8166706Y26690956D01*
X8167007Y26688094D01*
X8140400Y26638901D01*
X8140174Y26638675D01*
X8140174Y26638673D01*
X8140092Y26638592D01*
X8139938Y26638438D01*
X8075536Y26574035D01*
X8074678Y26572752D01*
X8070230Y26568274D01*
X8046997Y26556342D01*
X8024991Y26542256D01*
X8020131Y26542543D01*
X8015804Y26540320D01*
X7989991Y26544323D01*
X7963912Y26545862D01*
X7959530Y26549046D01*
X7955341Y26549695D01*
X7946374Y26558604D01*
X7928729Y26571423D01*
X7927903Y26570596D01*
X7799034Y26699465D01*
X7651544Y26798015D01*
X7487666Y26865894D01*
X7313693Y26900500D01*
X7313691Y26900500D01*
X6686309Y26900500D01*
X6686306Y26900500D01*
X6512334Y26865894D01*
X6512332Y26865894D01*
X6348455Y26798015D01*
X6348454Y26798015D01*
X6200965Y26699465D01*
X6075535Y26574035D01*
X5976985Y26426546D01*
X5976985Y26426545D01*
X5909106Y26262668D01*
X5909106Y26262666D01*
X5874500Y26088694D01*
X5874500Y25911307D01*
X5909106Y25737335D01*
X5909106Y25737333D01*
X5976985Y25573456D01*
X5976985Y25573455D01*
X6024548Y25502273D01*
X6075536Y25425965D01*
X6200965Y25300536D01*
X6348453Y25201987D01*
X6512334Y25134106D01*
X6686309Y25099500D01*
X6686310Y25099500D01*
X7313690Y25099500D01*
X7313691Y25099500D01*
X7487666Y25134106D01*
X7651547Y25201987D01*
X7799035Y25300536D01*
X7924464Y25425965D01*
X7924464Y25425966D01*
X7927903Y25429404D01*
X7929009Y25428298D01*
X7974991Y25457740D01*
X8036071Y25454146D01*
X8071267Y25428575D01*
X8072097Y25429404D01*
X8075535Y25425966D01*
X8075536Y25425965D01*
X8200965Y25300536D01*
X8348453Y25201987D01*
X8512334Y25134106D01*
X8686309Y25099500D01*
X8686310Y25099500D01*
X9313690Y25099500D01*
X9313691Y25099500D01*
X9487666Y25134106D01*
X9651547Y25201987D01*
X9799035Y25300536D01*
X9924464Y25425965D01*
X10023013Y25573453D01*
X10090894Y25737334D01*
X10105458Y25810550D01*
X14374500Y25810550D01*
X14374500Y25629451D01*
X14402828Y25450594D01*
X14458788Y25278363D01*
X14532290Y25134107D01*
X14541004Y25117006D01*
X14647447Y24970499D01*
X14775499Y24842447D01*
X14922006Y24736004D01*
X15083361Y24653789D01*
X15255591Y24597829D01*
X15327136Y24586498D01*
X15434451Y24569500D01*
X15434454Y24569500D01*
X15615549Y24569500D01*
X15704977Y24583665D01*
X15794409Y24597829D01*
X15966639Y24653789D01*
X16127994Y24736004D01*
X16274501Y24842447D01*
X16402553Y24970499D01*
X16508996Y25117006D01*
X16591211Y25278361D01*
X16647171Y25450591D01*
X16661335Y25540023D01*
X16675500Y25629451D01*
X16675500Y25810550D01*
X16647171Y25989407D01*
X16647171Y25989409D01*
X16591211Y26161639D01*
X16508996Y26322994D01*
X16402553Y26469501D01*
X16274501Y26597553D01*
X16127994Y26703996D01*
X16127993Y26703997D01*
X16127991Y26703998D01*
X15966637Y26786212D01*
X15794406Y26842172D01*
X15615549Y26870500D01*
X15615546Y26870500D01*
X15434454Y26870500D01*
X15434451Y26870500D01*
X15255593Y26842172D01*
X15083362Y26786212D01*
X14922008Y26703998D01*
X14857032Y26656790D01*
X14775499Y26597553D01*
X14647447Y26469501D01*
X14641263Y26460989D01*
X14541002Y26322992D01*
X14458788Y26161638D01*
X14402828Y25989407D01*
X14374500Y25810550D01*
X10105458Y25810550D01*
X10125500Y25911309D01*
X10125500Y26088691D01*
X10090894Y26262666D01*
X10023014Y26426545D01*
X10023014Y26426546D01*
X9946873Y26540498D01*
X9930264Y26599387D01*
X9951442Y26656790D01*
X10002315Y26690783D01*
X10029188Y26694500D01*
X12928624Y26694500D01*
X12948604Y26695154D01*
X12981103Y26697284D01*
X13000999Y26699244D01*
X13072457Y26708652D01*
X13081720Y26709871D01*
X13081721Y26709872D01*
X13081734Y26709873D01*
X13120931Y26717670D01*
X13183716Y26734494D01*
X13221553Y26747338D01*
X13281568Y26772197D01*
X13301794Y26782172D01*
X13317412Y26789873D01*
X13373699Y26822371D01*
X13373707Y26822376D01*
X13374138Y26822665D01*
X13406929Y26844573D01*
X13458469Y26884121D01*
X13488513Y26910470D01*
X13534476Y26956433D01*
X13560825Y26986477D01*
X13600373Y27038017D01*
X13622574Y27071245D01*
X13638887Y27099500D01*
X13655073Y27127534D01*
X13668013Y27153775D01*
X13672749Y27163378D01*
X13697608Y27223393D01*
X13710452Y27261230D01*
X13727276Y27324015D01*
X13735073Y27363210D01*
X13745702Y27443941D01*
X13747662Y27463842D01*
X13749792Y27496345D01*
X13750446Y27516322D01*
X13750446Y28350550D01*
X14374500Y28350550D01*
X14374500Y28169451D01*
X14402828Y27990594D01*
X14458788Y27818363D01*
X14500074Y27737334D01*
X14541004Y27657006D01*
X14647447Y27510499D01*
X14775499Y27382447D01*
X14922006Y27276004D01*
X15083361Y27193789D01*
X15255591Y27137829D01*
X15327136Y27126498D01*
X15434451Y27109500D01*
X15434454Y27109500D01*
X15615549Y27109500D01*
X15704977Y27123665D01*
X15794409Y27137829D01*
X15966639Y27193789D01*
X16127994Y27276004D01*
X16274501Y27382447D01*
X16402553Y27510499D01*
X16508996Y27657006D01*
X16591211Y27818361D01*
X16647171Y27990591D01*
X16675500Y28169454D01*
X16675500Y28350546D01*
X16675500Y28350550D01*
X16647171Y28529407D01*
X16647171Y28529409D01*
X16591211Y28701639D01*
X16508996Y28862994D01*
X16402553Y29009501D01*
X16274501Y29137553D01*
X16127994Y29243996D01*
X16127993Y29243997D01*
X16127991Y29243998D01*
X15966637Y29326212D01*
X15794406Y29382172D01*
X15615549Y29410500D01*
X15615546Y29410500D01*
X15434454Y29410500D01*
X15434451Y29410500D01*
X15255593Y29382172D01*
X15083362Y29326212D01*
X14922008Y29243998D01*
X14848752Y29190775D01*
X14775499Y29137553D01*
X14647447Y29009501D01*
X14594225Y28936248D01*
X14541002Y28862992D01*
X14458788Y28701638D01*
X14402828Y28529407D01*
X14374500Y28350550D01*
X13750446Y28350550D01*
X13750446Y40770550D01*
X14349500Y40770550D01*
X14349500Y40589451D01*
X14377828Y40410594D01*
X14433788Y40238363D01*
X14478020Y40151552D01*
X14516004Y40077006D01*
X14622447Y39930499D01*
X14750499Y39802447D01*
X14897006Y39696004D01*
X15058361Y39613789D01*
X15230591Y39557829D01*
X15302136Y39546498D01*
X15409451Y39529500D01*
X15409454Y39529500D01*
X15590549Y39529500D01*
X15769404Y39557828D01*
X15769405Y39557829D01*
X15769409Y39557829D01*
X15927854Y39609310D01*
X15989037Y39609310D01*
X16028448Y39585159D01*
X17470504Y38143104D01*
X17498281Y38088587D01*
X17499500Y38073100D01*
X17499500Y25761902D01*
X17480593Y25703711D01*
X17470504Y25691898D01*
X16053447Y24274842D01*
X15998930Y24247065D01*
X15952851Y24250691D01*
X15794406Y24302172D01*
X15615549Y24330500D01*
X15615546Y24330500D01*
X15434454Y24330500D01*
X15434451Y24330500D01*
X15255593Y24302172D01*
X15083362Y24246212D01*
X14922008Y24163998D01*
X14848752Y24110775D01*
X14775499Y24057553D01*
X14647447Y23929501D01*
X14594225Y23856248D01*
X14541002Y23782992D01*
X14458788Y23621638D01*
X14402828Y23449407D01*
X14374500Y23270550D01*
X14374500Y23089451D01*
X14402828Y22910594D01*
X14458788Y22738363D01*
X14514416Y22629186D01*
X14541004Y22577006D01*
X14647447Y22430499D01*
X14775499Y22302447D01*
X14922006Y22196004D01*
X15083361Y22113789D01*
X15255591Y22057829D01*
X15327136Y22046498D01*
X15434451Y22029500D01*
X15434454Y22029500D01*
X15615549Y22029500D01*
X15704977Y22043665D01*
X15794409Y22057829D01*
X15966639Y22113789D01*
X16127994Y22196004D01*
X16274501Y22302447D01*
X16402553Y22430499D01*
X16508996Y22577006D01*
X16591211Y22738361D01*
X16647171Y22910591D01*
X16664458Y23019737D01*
X16675500Y23089451D01*
X16675500Y23270550D01*
X16647171Y23449407D01*
X16647171Y23449409D01*
X16595690Y23607854D01*
X16595691Y23669039D01*
X16619839Y23708448D01*
X18220480Y25309087D01*
X18273207Y25400412D01*
X18300500Y25502273D01*
X18300500Y25607727D01*
X18300500Y38219286D01*
X18300501Y38219299D01*
X18300501Y38332728D01*
X18300500Y38332730D01*
X18273207Y38434587D01*
X18273205Y38434591D01*
X18220481Y38525911D01*
X18220480Y38525913D01*
X18145913Y38600480D01*
X18145910Y38600482D01*
X16594841Y40151552D01*
X16567064Y40206069D01*
X16570689Y40252146D01*
X16622171Y40410591D01*
X16650500Y40589454D01*
X16650500Y40770546D01*
X16650500Y40770550D01*
X16622171Y40949407D01*
X16622171Y40949409D01*
X16566211Y41121639D01*
X16483996Y41282994D01*
X16377553Y41429501D01*
X16249501Y41557553D01*
X16102994Y41663996D01*
X16102993Y41663997D01*
X16102991Y41663998D01*
X15941637Y41746212D01*
X15769406Y41802172D01*
X15590549Y41830500D01*
X15590546Y41830500D01*
X15409454Y41830500D01*
X15409451Y41830500D01*
X15230593Y41802172D01*
X15058362Y41746212D01*
X14897008Y41663998D01*
X14823752Y41610775D01*
X14750499Y41557553D01*
X14622447Y41429501D01*
X14569225Y41356248D01*
X14516002Y41282992D01*
X14433788Y41121638D01*
X14377828Y40949407D01*
X14349500Y40770550D01*
X13750446Y40770550D01*
X13750446Y43310550D01*
X14349500Y43310550D01*
X14349500Y43129451D01*
X14377828Y42950594D01*
X14377829Y42950591D01*
X14433789Y42778361D01*
X14516004Y42617006D01*
X14622447Y42470499D01*
X14750499Y42342447D01*
X14897006Y42236004D01*
X15058361Y42153789D01*
X15230591Y42097829D01*
X15302136Y42086498D01*
X15409451Y42069500D01*
X15409454Y42069500D01*
X15590549Y42069500D01*
X15679977Y42083665D01*
X15769409Y42097829D01*
X15941639Y42153789D01*
X16102994Y42236004D01*
X16249501Y42342447D01*
X16377553Y42470499D01*
X16483996Y42617006D01*
X16566211Y42778361D01*
X16622171Y42950591D01*
X16650500Y43129454D01*
X16650500Y43310546D01*
X16650500Y43310550D01*
X16622171Y43489407D01*
X16622171Y43489409D01*
X16566211Y43661639D01*
X16483996Y43822994D01*
X16377553Y43969501D01*
X16249501Y44097553D01*
X16102994Y44203996D01*
X16102993Y44203997D01*
X16102991Y44203998D01*
X15941637Y44286212D01*
X15769406Y44342172D01*
X15590549Y44370500D01*
X15590546Y44370500D01*
X15409454Y44370500D01*
X15409451Y44370500D01*
X15230593Y44342172D01*
X15058362Y44286212D01*
X14897008Y44203998D01*
X14823752Y44150775D01*
X14750499Y44097553D01*
X14622447Y43969501D01*
X14580168Y43911309D01*
X14516002Y43822992D01*
X14433788Y43661638D01*
X14377828Y43489407D01*
X14349500Y43310550D01*
X13750446Y43310550D01*
X13750446Y45850550D01*
X14349500Y45850550D01*
X14349500Y45669451D01*
X14377828Y45490594D01*
X14433788Y45318363D01*
X14490910Y45206254D01*
X14516004Y45157006D01*
X14622447Y45010499D01*
X14750499Y44882447D01*
X14897006Y44776004D01*
X15058361Y44693789D01*
X15230591Y44637829D01*
X15302136Y44626498D01*
X15409451Y44609500D01*
X15409454Y44609500D01*
X15590549Y44609500D01*
X15679977Y44623665D01*
X15769409Y44637829D01*
X15941639Y44693789D01*
X16102994Y44776004D01*
X16249501Y44882447D01*
X16377553Y45010499D01*
X16483996Y45157006D01*
X16566211Y45318361D01*
X16622171Y45490591D01*
X16650500Y45669454D01*
X16650500Y45850546D01*
X16650500Y45850550D01*
X16622171Y46029407D01*
X16622171Y46029409D01*
X16566211Y46201639D01*
X16483996Y46362994D01*
X16377553Y46509501D01*
X16249501Y46637553D01*
X16102994Y46743996D01*
X16102993Y46743997D01*
X16102991Y46743998D01*
X15941637Y46826212D01*
X15769406Y46882172D01*
X15590549Y46910500D01*
X15590546Y46910500D01*
X15409454Y46910500D01*
X15409451Y46910500D01*
X15230593Y46882172D01*
X15058362Y46826212D01*
X14897008Y46743998D01*
X14849856Y46709740D01*
X14750499Y46637553D01*
X14622447Y46509501D01*
X14569225Y46436248D01*
X14516002Y46362992D01*
X14433788Y46201638D01*
X14377828Y46029407D01*
X14349500Y45850550D01*
X13750446Y45850550D01*
X13750446Y51269144D01*
X13769353Y51327335D01*
X13783811Y51343258D01*
X14291675Y51792970D01*
X14434700Y51919618D01*
X14490800Y51944040D01*
X14500331Y51944500D01*
X21428624Y51944500D01*
X21448604Y51945154D01*
X21481103Y51947284D01*
X21500999Y51949244D01*
X21572457Y51958652D01*
X21581720Y51959871D01*
X21581721Y51959872D01*
X21581734Y51959873D01*
X21620931Y51967670D01*
X21683716Y51984494D01*
X21721553Y51997338D01*
X21781568Y52022197D01*
X21801794Y52032172D01*
X21817412Y52039873D01*
X21873699Y52072371D01*
X21873707Y52072376D01*
X21896311Y52087479D01*
X21906929Y52094573D01*
X21958469Y52134121D01*
X21988513Y52160470D01*
X22034476Y52206433D01*
X22060825Y52236477D01*
X22100373Y52288017D01*
X22122574Y52321245D01*
X22127402Y52329608D01*
X22155073Y52377534D01*
X22162774Y52393152D01*
X22172749Y52413378D01*
X22197608Y52473393D01*
X22210452Y52511230D01*
X22227276Y52574015D01*
X22235073Y52613210D01*
X22245702Y52693941D01*
X22247662Y52713842D01*
X22249792Y52746345D01*
X22250446Y52766322D01*
X22250446Y52978033D01*
X22250500Y52979838D01*
X22250500Y54020152D01*
X22250446Y54021963D01*
X22250446Y55655395D01*
X22250380Y55657083D01*
X22249504Y55679376D01*
X22246438Y55718330D01*
X22243618Y55742152D01*
X22234499Y55799724D01*
X22223308Y55846337D01*
X22204749Y55903453D01*
X22200338Y55924793D01*
X22197710Y55952819D01*
X22153852Y56078157D01*
X22142833Y56093087D01*
X22075003Y56184994D01*
X22075001Y56184996D01*
X22074999Y56184999D01*
X22060710Y56195545D01*
X22025119Y56245313D01*
X22020500Y56275199D01*
X22020500Y57157726D01*
X22020500Y57157727D01*
X21993207Y57259587D01*
X21965391Y57307765D01*
X21965249Y57308434D01*
X21964747Y57308898D01*
X21958903Y57338288D01*
X21952671Y57367612D01*
X21952949Y57368238D01*
X21952816Y57368909D01*
X21965375Y57396146D01*
X21977558Y57423507D01*
X21978150Y57423849D01*
X21978437Y57424471D01*
X22004604Y57439123D01*
X22030546Y57454100D01*
X22031723Y57454343D01*
X22035534Y57455101D01*
X22054836Y57457000D01*
X22905163Y57457000D01*
X22924474Y57455099D01*
X22938684Y57452272D01*
X22964194Y57448488D01*
X23012269Y57427251D01*
X25329441Y55535681D01*
X25336203Y55530317D01*
X25340583Y55526942D01*
X25340591Y55526936D01*
X25432682Y55478359D01*
X25432690Y55478357D01*
X25432691Y55478356D01*
X25490872Y55459452D01*
X25490869Y55459452D01*
X25585273Y55444500D01*
X25585276Y55444500D01*
X27599964Y55444500D01*
X27607014Y55445074D01*
X27649323Y55448514D01*
X27680895Y55453683D01*
X27712771Y55460668D01*
X27813671Y55509901D01*
X27862793Y55546379D01*
X27919476Y55601133D01*
X27970681Y55697467D01*
X28014689Y55739975D01*
X28058099Y55750000D01*
X29271648Y55750000D01*
X29282014Y55755283D01*
X29342447Y55745716D01*
X29376392Y55717323D01*
X29422074Y55657083D01*
X29422078Y55657078D01*
X29542658Y55565639D01*
X29542659Y55565639D01*
X29542660Y55565638D01*
X29640801Y55526936D01*
X29683436Y55510123D01*
X29705988Y55507415D01*
X29761509Y55481704D01*
X29764171Y55479141D01*
X29773970Y55469343D01*
X29802465Y55440848D01*
X29915496Y55383257D01*
X29915501Y55383255D01*
X29915505Y55383253D01*
X29973696Y55364346D01*
X30023817Y55356408D01*
X30098997Y55344500D01*
X30099000Y55344500D01*
X52350994Y55344500D01*
X52351000Y55344500D01*
X52414428Y55349491D01*
X52445021Y55354336D01*
X52445042Y55354341D01*
X52445043Y55354341D01*
X52506892Y55369190D01*
X52506892Y55369191D01*
X52506900Y55369192D01*
X52619941Y55426789D01*
X52669441Y55462753D01*
X52669442Y55462754D01*
X52759151Y55552464D01*
X52816747Y55665505D01*
X52835654Y55723696D01*
X52855077Y55846327D01*
X52855500Y55848997D01*
X52855500Y60391646D01*
X52850451Y60455420D01*
X52850450Y60455434D01*
X52845549Y60486198D01*
X52830523Y60548412D01*
X52772720Y60661348D01*
X52736666Y60710782D01*
X52646799Y60800322D01*
X52533655Y60857715D01*
X52520986Y60861807D01*
X52478636Y60875483D01*
X52476842Y60876131D01*
X52475427Y60876519D01*
X52350087Y60896137D01*
X52350084Y60896137D01*
X42813510Y60878798D01*
X30098076Y60855679D01*
X30035024Y60850630D01*
X30035014Y60850629D01*
X30004607Y60845785D01*
X29943101Y60830989D01*
X29943099Y60830988D01*
X29904441Y60811290D01*
X29859496Y60800500D01*
X29771893Y60800500D01*
X29683434Y60789877D01*
X29542660Y60734363D01*
X29542656Y60734360D01*
X29422081Y60642925D01*
X29422075Y60642919D01*
X29406093Y60621843D01*
X29343407Y60539181D01*
X29293182Y60504238D01*
X29264525Y60500000D01*
X28032472Y60500000D01*
X27974281Y60518907D01*
X27943051Y60556517D01*
X27931320Y60581208D01*
X27893335Y60661162D01*
X27857371Y60710662D01*
X27803203Y60767919D01*
X27803202Y60767920D01*
X27803201Y60767921D01*
X27704624Y60821640D01*
X27704622Y60821641D01*
X27646429Y60840549D01*
X27646432Y60840549D01*
X27552029Y60855500D01*
X27552026Y60855500D01*
X25486319Y60855500D01*
X25474864Y60855285D01*
X25474855Y60855285D01*
X25474819Y60855284D01*
X25467465Y60855008D01*
X25467457Y60855008D01*
X25467455Y60855007D01*
X25467452Y60855007D01*
X25467449Y60855006D01*
X25363035Y60832394D01*
X25306412Y60809181D01*
X25224734Y60759537D01*
X23035400Y58903360D01*
X23007833Y58886829D01*
X23002518Y58884725D01*
X22991710Y58881828D01*
X22918032Y58851310D01*
X22917770Y58851160D01*
X22914733Y58849956D01*
X22912558Y58849819D01*
X22878278Y58843000D01*
X22069400Y58843000D01*
X22023860Y58854096D01*
X22004505Y58864123D01*
X22001334Y58865766D01*
X21958363Y58909322D01*
X21949200Y58969817D01*
X21961137Y59003170D01*
X21968207Y59015413D01*
X21995500Y59117273D01*
X21995500Y59877167D01*
X22014407Y59935358D01*
X22049516Y59965357D01*
X22077409Y59979583D01*
X22118309Y60004675D01*
X22181367Y60050545D01*
X22217834Y60081732D01*
X22242614Y60106548D01*
X22273746Y60143058D01*
X22319524Y60206181D01*
X22344557Y60247116D01*
X22360449Y60278384D01*
X22378763Y60322734D01*
X22402773Y60396921D01*
X22413917Y60443592D01*
X22422439Y60497855D01*
X22425229Y60521700D01*
X22428244Y60560691D01*
X22429153Y60584685D01*
X22425124Y63375385D01*
X22424467Y63394969D01*
X22422374Y63426831D01*
X22420462Y63446338D01*
X22410131Y63525504D01*
X22402582Y63563943D01*
X22386318Y63625557D01*
X22373913Y63662712D01*
X22349905Y63721723D01*
X22332847Y63756988D01*
X22301478Y63812454D01*
X22301467Y63812471D01*
X22280063Y63845222D01*
X22280051Y63845239D01*
X22280050Y63845241D01*
X22232183Y63909130D01*
X22219940Y63924423D01*
X22199198Y63948695D01*
X22185992Y63963182D01*
X21372818Y64799589D01*
X21358158Y64813695D01*
X21333522Y64835870D01*
X21317947Y64848977D01*
X21252798Y64900193D01*
X21229384Y64916198D01*
X21219214Y64923150D01*
X21219203Y64923157D01*
X21162241Y64956759D01*
X21162233Y64956764D01*
X21162217Y64956772D01*
X21162208Y64956777D01*
X21125905Y64975052D01*
X21065012Y65000777D01*
X21065010Y65000778D01*
X21026572Y65014078D01*
X21026570Y65014079D01*
X21026566Y65014080D01*
X20962756Y65031500D01*
X20962743Y65031503D01*
X20922902Y65039573D01*
X20922868Y65039579D01*
X20840734Y65050587D01*
X20820489Y65052617D01*
X20787438Y65054822D01*
X20767087Y65055500D01*
X20767086Y65055500D01*
X14227507Y65055500D01*
X14206609Y65054785D01*
X14172672Y65052460D01*
X14151887Y65050319D01*
X14067625Y65038719D01*
X14026750Y65030211D01*
X14026749Y65030211D01*
X13961342Y65011853D01*
X13961339Y65011852D01*
X13922005Y64997849D01*
X13922004Y64997848D01*
X13859801Y64970780D01*
X13822739Y64951539D01*
X13764745Y64916201D01*
X13730636Y64892073D01*
X13664723Y64838326D01*
X13648995Y64824581D01*
X13624164Y64801333D01*
X13609404Y64786534D01*
X10421182Y61363608D01*
X10408617Y61349243D01*
X10388902Y61325229D01*
X10377260Y61310109D01*
X10331739Y61247008D01*
X10331712Y61246968D01*
X10311381Y61214715D01*
X10281623Y61160231D01*
X10281614Y61160214D01*
X10265473Y61125697D01*
X10265458Y61125663D01*
X10242729Y61067913D01*
X10242724Y61067901D01*
X10242724Y61067898D01*
X10232843Y61037312D01*
X10230993Y61031587D01*
X10230991Y61031581D01*
X10215633Y60971431D01*
X10208525Y60933958D01*
X10198825Y60856757D01*
X10197037Y60837740D01*
X10195096Y60806712D01*
X10194500Y60787619D01*
X10194500Y55792550D01*
X10175593Y55734359D01*
X10165504Y55722546D01*
X9777454Y55334496D01*
X9722937Y55306719D01*
X9707450Y55305500D01*
X8516322Y55305500D01*
X8496341Y55304846D01*
X8463853Y55302717D01*
X8443932Y55300756D01*
X8363229Y55290132D01*
X8363220Y55290130D01*
X8324024Y55282334D01*
X8261256Y55265516D01*
X8261241Y55265512D01*
X8223400Y55252668D01*
X8163366Y55227801D01*
X8127533Y55210130D01*
X8071266Y55177645D01*
X8071240Y55177628D01*
X8038011Y55155425D01*
X8038006Y55155422D01*
X7986494Y55115894D01*
X7986472Y55115876D01*
X7956425Y55089525D01*
X7910475Y55043575D01*
X7884124Y55013528D01*
X7884106Y55013506D01*
X7844578Y54961994D01*
X7844575Y54961989D01*
X7822372Y54928760D01*
X7822355Y54928734D01*
X7789870Y54872467D01*
X7772199Y54836634D01*
X7747335Y54776607D01*
X7747330Y54776593D01*
X7734491Y54738767D01*
X7734484Y54738742D01*
X7717667Y54675976D01*
X7709870Y54636782D01*
X7709868Y54636768D01*
X7699244Y54556067D01*
X7697283Y54536151D01*
X7695154Y54503659D01*
X7694500Y54483680D01*
X7694500Y54231575D01*
X7695971Y54201624D01*
X7695972Y54201613D01*
X7700755Y54153043D01*
X7700756Y54153032D01*
X7705153Y54123395D01*
X7718098Y54058316D01*
X7720000Y54039002D01*
X7720000Y53961003D01*
X7718098Y53941689D01*
X7705154Y53876619D01*
X7700756Y53846974D01*
X7695971Y53798393D01*
X7694500Y53768435D01*
X7694500Y52207032D01*
X7700369Y52147443D01*
X7718098Y52058316D01*
X7720000Y52039002D01*
X7720000Y51961001D01*
X7718098Y51941687D01*
X7700369Y51852560D01*
X7694500Y51792970D01*
X7694500Y50231575D01*
X7695971Y50201624D01*
X7695972Y50201613D01*
X7700755Y50153043D01*
X7700756Y50153032D01*
X7705153Y50123395D01*
X7718098Y50058316D01*
X7720000Y50039002D01*
X7720000Y49961003D01*
X7718098Y49941689D01*
X7705154Y49876619D01*
X7700756Y49846974D01*
X7695971Y49798393D01*
X7694500Y49768435D01*
X7694500Y48207032D01*
X7700369Y48147443D01*
X7718098Y48058316D01*
X7720000Y48039002D01*
X7720000Y47961001D01*
X7718098Y47941687D01*
X7700369Y47852560D01*
X7694500Y47792970D01*
X7694500Y46928385D01*
X7675593Y46870194D01*
X7626093Y46834230D01*
X7564907Y46834230D01*
X7557615Y46836921D01*
X7487666Y46865894D01*
X7313693Y46900500D01*
X7313691Y46900500D01*
X6686309Y46900500D01*
X6686306Y46900500D01*
X6512334Y46865894D01*
X6512332Y46865894D01*
X6348455Y46798015D01*
X6348454Y46798015D01*
X6200965Y46699465D01*
X6075535Y46574035D01*
X5976985Y46426546D01*
X5976985Y46426545D01*
X5909106Y46262668D01*
X5909106Y46262666D01*
X5874500Y46088694D01*
X3500500Y46088694D01*
X3500500Y65065892D01*
X3466392Y65193186D01*
X3466390Y65193189D01*
X3466390Y65193191D01*
X3400503Y65307310D01*
X3400499Y65307315D01*
X3307314Y65400501D01*
X3307314Y65400500D01*
X529496Y68178318D01*
X501719Y68232835D01*
X500500Y68248322D01*
X500500Y74997835D01*
X500594Y75002153D01*
X510433Y75227502D01*
X517434Y75387856D01*
X518184Y75396432D01*
X568295Y75777058D01*
X569791Y75785541D01*
X652883Y76160345D01*
X655115Y76168674D01*
X770553Y76534798D01*
X773507Y76542914D01*
X785072Y76570834D01*
X920421Y76897597D01*
X924056Y76905391D01*
X1101325Y77245921D01*
X1105632Y77253382D01*
X1311913Y77577180D01*
X1316851Y77584231D01*
X1550564Y77888811D01*
X1556083Y77895388D01*
X1815481Y78178472D01*
X1821528Y78184519D01*
X2104612Y78443917D01*
X2111189Y78449436D01*
X2415769Y78683149D01*
X2422820Y78688087D01*
X2746618Y78894368D01*
X2754079Y78898675D01*
X3094609Y79075944D01*
X3102403Y79079579D01*
X3457093Y79226496D01*
X3465194Y79229445D01*
X3831334Y79344888D01*
X3839655Y79347117D01*
X4214459Y79430209D01*
X4222942Y79431705D01*
X4603568Y79481816D01*
X4612144Y79482566D01*
X4997847Y79499407D01*
X5002165Y79499500D01*
X5065892Y79499500D01*
X74934108Y79499500D01*
X74997835Y79499500D01*
X75002152Y79499407D01*
G37*
%TD.AperFunction*%
%TD*%
%TA.AperFunction,Conductor*%
%TO.N,5V_OUTPUT*%
G36*
X64765677Y60730315D02*
G01*
X64786319Y60713681D01*
X65500000Y60000000D01*
X68948638Y60000000D01*
X69015677Y59980315D01*
X69036319Y59963681D01*
X69963681Y59036319D01*
X69997166Y58974996D01*
X70000000Y58948638D01*
X70000000Y57551362D01*
X69980315Y57484323D01*
X69963681Y57463681D01*
X69036319Y56536319D01*
X68974996Y56502834D01*
X68948638Y56500000D01*
X65499999Y56500000D01*
X64500000Y55500000D01*
X64500000Y56000000D01*
X59500000Y56000000D01*
X59500000Y55500000D01*
X53624000Y55500000D01*
X53556961Y55519685D01*
X53511206Y55572489D01*
X53500000Y55624000D01*
X53500000Y60626000D01*
X53519685Y60693039D01*
X53572489Y60738794D01*
X53624000Y60750000D01*
X64698638Y60750000D01*
X64765677Y60730315D01*
G37*
%TD.AperFunction*%
%TD*%
M02*
