%TF.GenerationSoftware,KiCad,Pcbnew,9.0.2*%
%TF.CreationDate,2026-04-14T22:24:35-07:00*%
%TF.ProjectId,ANTS-Power-board,414e5453-2d50-46f7-9765-722d626f6172,rev?*%
%TF.SameCoordinates,Original*%
%TF.FileFunction,Copper,L2,Bot*%
%TF.FilePolarity,Positive*%
%FSLAX46Y46*%
G04 Gerber Fmt 4.6, Leading zero omitted, Abs format (unit mm)*
G04 Created by KiCad (PCBNEW 9.0.2) date 2026-04-14 22:24:35*
%MOMM*%
%LPD*%
G01*
G04 APERTURE LIST*
G04 Aperture macros list*
%AMRoundRect*
0 Rectangle with rounded corners*
0 $1 Rounding radius*
0 $2 $3 $4 $5 $6 $7 $8 $9 X,Y pos of 4 corners*
0 Add a 4 corners polygon primitive as box body*
4,1,4,$2,$3,$4,$5,$6,$7,$8,$9,$2,$3,0*
0 Add four circle primitives for the rounded corners*
1,1,$1+$1,$2,$3*
1,1,$1+$1,$4,$5*
1,1,$1+$1,$6,$7*
1,1,$1+$1,$8,$9*
0 Add four rect primitives between the rounded corners*
20,1,$1+$1,$2,$3,$4,$5,0*
20,1,$1+$1,$4,$5,$6,$7,0*
20,1,$1+$1,$6,$7,$8,$9,0*
20,1,$1+$1,$8,$9,$2,$3,0*%
G04 Aperture macros list end*
%TA.AperFunction,ComponentPad*%
%ADD10C,0.800000*%
%TD*%
%TA.AperFunction,ComponentPad*%
%ADD11C,6.400000*%
%TD*%
%TA.AperFunction,ComponentPad*%
%ADD12RoundRect,0.250000X-0.575000X0.350000X-0.575000X-0.350000X0.575000X-0.350000X0.575000X0.350000X0*%
%TD*%
%TA.AperFunction,ComponentPad*%
%ADD13O,1.650000X1.200000*%
%TD*%
%TA.AperFunction,ComponentPad*%
%ADD14C,1.000000*%
%TD*%
%TA.AperFunction,ComponentPad*%
%ADD15R,1.700000X1.700000*%
%TD*%
%TA.AperFunction,ComponentPad*%
%ADD16C,1.700000*%
%TD*%
%TA.AperFunction,ComponentPad*%
%ADD17C,2.200000*%
%TD*%
%TA.AperFunction,ViaPad*%
%ADD18C,0.700000*%
%TD*%
%TA.AperFunction,ViaPad*%
%ADD19C,0.600000*%
%TD*%
%TA.AperFunction,Conductor*%
%ADD20C,0.200000*%
%TD*%
G04 APERTURE END LIST*
D10*
%TO.P,MH3,1,1*%
%TO.N,VBAT-*%
X2600000Y5000000D03*
X3302944Y6697056D03*
X3302944Y3302944D03*
X5000000Y7400000D03*
D11*
X5000000Y5000000D03*
D10*
X5000000Y2600000D03*
X6697056Y6697056D03*
X6697056Y3302944D03*
X7400000Y5000000D03*
%TD*%
D12*
%TO.P,J1,1,Pin_1*%
%TO.N,VBAT+*%
X9000000Y54000000D03*
D13*
%TO.P,J1,2,Pin_2*%
%TO.N,VBAT-*%
X7000000Y54000000D03*
%TO.P,J1,3,Pin_3*%
%TO.N,VBAT+*%
X9000000Y52000000D03*
%TO.P,J1,4,Pin_4*%
%TO.N,VBAT-*%
X7000000Y52000000D03*
%TO.P,J1,5,Pin_5*%
%TO.N,VBAT+*%
X9000000Y50000000D03*
%TO.P,J1,6,Pin_6*%
%TO.N,VBAT-*%
X7000000Y50000000D03*
%TO.P,J1,7,Pin_7*%
%TO.N,VBAT+*%
X9000000Y48000000D03*
%TO.P,J1,8,Pin_8*%
%TO.N,VBAT-*%
X7000000Y48000000D03*
%TO.P,J1,9,Pin_9*%
%TO.N,VBAT+*%
X9000000Y46000000D03*
%TO.P,J1,10,Pin_10*%
%TO.N,/SDA_IN1*%
X7000000Y46000000D03*
%TO.P,J1,11,Pin_11*%
%TO.N,+3V3*%
X9000000Y44000000D03*
%TO.P,J1,12,Pin_12*%
%TO.N,/SCL_IN1*%
X7000000Y44000000D03*
%TD*%
D10*
%TO.P,MH4,1,1*%
%TO.N,VBAT-*%
X72600000Y5000000D03*
X73302944Y6697056D03*
X73302944Y3302944D03*
X75000000Y7400000D03*
D11*
X75000000Y5000000D03*
D10*
X75000000Y2600000D03*
X76697056Y6697056D03*
X76697056Y3302944D03*
X77400000Y5000000D03*
%TD*%
D14*
%TO.P,TP2,1,1*%
%TO.N,/3.3v_LDO/ON{slash}~{OFF}*%
X52575000Y13550000D03*
%TD*%
D15*
%TO.P,J4,1,Pin_1*%
%TO.N,VBAT-*%
X15525000Y30800000D03*
D16*
%TO.P,J4,2,Pin_2*%
%TO.N,/SDA_IN2*%
X15525000Y28260000D03*
%TO.P,J4,3,Pin_3*%
%TO.N,/SCL_IN2*%
X15525000Y25720000D03*
%TO.P,J4,4,Pin_4*%
%TO.N,+3V3*%
X15525000Y23180000D03*
%TD*%
D14*
%TO.P,TP1,1,1*%
%TO.N,5V_OUTPUT*%
X52500000Y22250000D03*
%TD*%
D12*
%TO.P,J2,1,Pin_1*%
%TO.N,VBAT+*%
X9000000Y36000000D03*
D13*
%TO.P,J2,2,Pin_2*%
%TO.N,VBAT-*%
X7000000Y36000000D03*
%TO.P,J2,3,Pin_3*%
%TO.N,VBAT+*%
X9000000Y34000000D03*
%TO.P,J2,4,Pin_4*%
%TO.N,VBAT-*%
X7000000Y34000000D03*
%TO.P,J2,5,Pin_5*%
%TO.N,VBAT+*%
X9000000Y32000000D03*
%TO.P,J2,6,Pin_6*%
%TO.N,VBAT-*%
X7000000Y32000000D03*
%TO.P,J2,7,Pin_7*%
%TO.N,VBAT+*%
X9000000Y30000000D03*
%TO.P,J2,8,Pin_8*%
%TO.N,VBAT-*%
X7000000Y30000000D03*
%TO.P,J2,9,Pin_9*%
%TO.N,VBAT+*%
X9000000Y28000000D03*
%TO.P,J2,10,Pin_10*%
%TO.N,/SDA_IN2*%
X7000000Y28000000D03*
%TO.P,J2,11,Pin_11*%
%TO.N,+3V3*%
X9000000Y26000000D03*
%TO.P,J2,12,Pin_12*%
%TO.N,/SCL_IN2*%
X7000000Y26000000D03*
%TD*%
D10*
%TO.P,MH2,1,1*%
%TO.N,VBAT-*%
X72600000Y75000000D03*
X73302944Y76697056D03*
X73302944Y73302944D03*
X75000000Y77400000D03*
D11*
X75000000Y75000000D03*
D10*
X75000000Y72600000D03*
X76697056Y76697056D03*
X76697056Y73302944D03*
X77400000Y75000000D03*
%TD*%
D17*
%TO.P,J5,1,Pin_1*%
%TO.N,5V_OUTPUT*%
X68000000Y58250000D03*
%TO.P,J5,2,Pin_2*%
%TO.N,VBAT-*%
X68000000Y61750000D03*
%TD*%
D15*
%TO.P,J3,1,Pin_1*%
%TO.N,VBAT-*%
X15500000Y48300000D03*
D16*
%TO.P,J3,2,Pin_2*%
%TO.N,/SDA_IN1*%
X15500000Y45760000D03*
%TO.P,J3,3,Pin_3*%
%TO.N,/SCL_IN1*%
X15500000Y43220000D03*
%TO.P,J3,4,Pin_4*%
%TO.N,+3V3*%
X15500000Y40680000D03*
%TD*%
D17*
%TO.P,J6,1,Pin_1*%
%TO.N,5V_OUTPUT*%
X68000000Y48750000D03*
%TO.P,J6,2,Pin_2*%
%TO.N,VBAT-*%
X68000000Y52250000D03*
%TD*%
D10*
%TO.P,MH1,1,1*%
%TO.N,VBAT-*%
X2600000Y75000000D03*
X3302944Y76697056D03*
X3302944Y73302944D03*
X5000000Y77400000D03*
D11*
X5000000Y75000000D03*
D10*
X5000000Y72600000D03*
X6697056Y76697056D03*
X6697056Y73302944D03*
X7400000Y75000000D03*
%TD*%
D17*
%TO.P,J7,1,Pin_1*%
%TO.N,3V3_OUTPUT*%
X68000000Y22450000D03*
%TO.P,J7,2,Pin_2*%
%TO.N,VBAT-*%
X68000000Y25950000D03*
%TD*%
D18*
%TO.N,VBAT-*%
X66900000Y53750000D03*
X66000000Y52150000D03*
X70000000Y52200000D03*
X69250000Y53700000D03*
X37250000Y53250000D03*
X65000000Y40000000D03*
X50000000Y54000000D03*
X50000000Y35000000D03*
X45000000Y30000000D03*
X25000000Y10000000D03*
X59550000Y63050000D03*
X5000000Y60000000D03*
X75000000Y20000000D03*
X69250000Y63250000D03*
X60000000Y45000000D03*
X15000000Y20000000D03*
X24500000Y54000000D03*
X25750000Y66250000D03*
X45000000Y70000000D03*
X20000000Y27000000D03*
X70000000Y61750000D03*
X40000000Y65000000D03*
X69050000Y27500000D03*
X66200000Y26000000D03*
X55000000Y40000000D03*
X34750000Y53250000D03*
X45000000Y40000000D03*
X15000000Y70000000D03*
X60000000Y5000000D03*
X20000000Y15000000D03*
X36500000Y53250000D03*
X30000000Y25000000D03*
X50000000Y45000000D03*
X45000000Y20000000D03*
X75000000Y60000000D03*
X10000000Y15000000D03*
X25000000Y70000000D03*
X31250000Y50000000D03*
X29750000Y52000000D03*
X45000000Y10000000D03*
X39750000Y62975000D03*
X24250000Y60500000D03*
X39750000Y53250000D03*
X20000000Y75000000D03*
X70000000Y45000000D03*
X55000000Y10000000D03*
X22955000Y59700000D03*
X58800000Y63050000D03*
X16500000Y60750000D03*
X16500000Y56000000D03*
X70000000Y15000000D03*
X66100000Y61700000D03*
X24500000Y53250000D03*
X61300000Y63050000D03*
X35000000Y20000000D03*
X60000000Y65000000D03*
X24500000Y64000000D03*
X65000000Y70000000D03*
X75000000Y70000000D03*
X5000000Y10000000D03*
X17500000Y56000000D03*
X35000000Y70000000D03*
X35000000Y40000000D03*
X30000000Y5000000D03*
X62050000Y63050000D03*
X27250000Y52000000D03*
X39000000Y62975000D03*
X70000000Y5000000D03*
X17500000Y60750000D03*
X50000000Y75000000D03*
X24250000Y56000000D03*
X25000000Y20000000D03*
X60000000Y15000000D03*
X39000000Y53250000D03*
X24500000Y52500000D03*
X37250000Y62975000D03*
X20000000Y5000000D03*
X40000000Y15000000D03*
X31500000Y66250000D03*
X35000000Y10000000D03*
X36500000Y62975000D03*
X24500000Y62500000D03*
X75000000Y40000000D03*
X75000000Y10000000D03*
X23500000Y55500000D03*
X18500000Y60750000D03*
X55000000Y30000000D03*
X40000000Y75000000D03*
X5000000Y70000000D03*
X60000000Y75000000D03*
X24500000Y63250000D03*
X40000000Y35000000D03*
X33750000Y62975000D03*
X22955000Y56600000D03*
X70000000Y35000000D03*
X40000000Y5000000D03*
X5000000Y50000000D03*
X30000000Y15000000D03*
X20000000Y35000000D03*
X65000000Y20000000D03*
X58500000Y54000000D03*
X27500000Y64250000D03*
X25000000Y30000000D03*
X28750000Y66250000D03*
X50000000Y65000000D03*
X10000000Y75000000D03*
X24250000Y61500000D03*
X65000000Y30000000D03*
X40000000Y45000000D03*
X75000000Y50000000D03*
X30000000Y35000000D03*
X10000000Y5000000D03*
X40000000Y25000000D03*
X20000000Y44000000D03*
X70000000Y75000000D03*
X60000000Y35000000D03*
X5000000Y20000000D03*
X30000000Y45000000D03*
X67050000Y27500000D03*
X65000000Y10000000D03*
X23500000Y61000000D03*
X10000000Y65000000D03*
X35000000Y50000000D03*
X25000000Y40000000D03*
X75000000Y30000000D03*
X69800000Y26000000D03*
X25500000Y50000000D03*
X45000000Y50000000D03*
X34500000Y62975000D03*
X28500000Y50000000D03*
X6500000Y40000000D03*
X34000000Y53250000D03*
X55000000Y50000000D03*
X70000000Y55000000D03*
X5000000Y30000000D03*
X30000000Y75000000D03*
X66900000Y63300000D03*
X35000000Y30000000D03*
X55000000Y70000000D03*
X70000000Y65000000D03*
X15000000Y10000000D03*
X24250000Y55000000D03*
X50000000Y5000000D03*
X19250000Y60000000D03*
X30000000Y64250000D03*
%TO.N,VBAT+*%
X16875000Y53125000D03*
X20100000Y55600000D03*
%TO.N,/5V SMPS/VO*%
X32250000Y56750000D03*
X18750000Y57500000D03*
%TO.N,5V_OUTPUT*%
X14750000Y59750000D03*
D19*
X49775000Y16150000D03*
X49775000Y19750000D03*
D18*
X60500000Y58000000D03*
%TD*%
D20*
%TO.N,VBAT+*%
X20000000Y55600000D02*
X20100000Y55600000D01*
X20100000Y55600000D02*
X17625000Y53125000D01*
X17625000Y53125000D02*
X16875000Y53125000D01*
%TO.N,/5V SMPS/VO*%
X31500000Y57500000D02*
X32250000Y56750000D01*
X18750000Y57500000D02*
X31500000Y57500000D01*
%TO.N,5V_OUTPUT*%
X14750000Y58750000D02*
X14750000Y59750000D01*
X15250000Y58250000D02*
X14750000Y58750000D01*
X49775000Y16150000D02*
X49775000Y19750000D01*
X60250000Y58250000D02*
X15250000Y58250000D01*
X60500000Y58000000D02*
X60250000Y58250000D01*
%TO.N,+3V3*%
X15525000Y23180000D02*
X11820000Y23180000D01*
X12320000Y40680000D02*
X9000000Y44000000D01*
X15500000Y40680000D02*
X12320000Y40680000D01*
X11820000Y23180000D02*
X9000000Y26000000D01*
%TO.N,/SCL_IN1*%
X8000000Y45000000D02*
X13720000Y45000000D01*
X13720000Y45000000D02*
X15500000Y43220000D01*
X7000000Y44000000D02*
X8000000Y45000000D01*
%TO.N,/SDA_IN1*%
X14260000Y47000000D02*
X8000000Y47000000D01*
X15500000Y45760000D02*
X14260000Y47000000D01*
X8000000Y47000000D02*
X7000000Y46000000D01*
%TO.N,/SCL_IN2*%
X8000000Y27000000D02*
X14245000Y27000000D01*
X7000000Y26000000D02*
X8000000Y27000000D01*
X14245000Y27000000D02*
X15525000Y25720000D01*
%TO.N,/SDA_IN2*%
X14785000Y29000000D02*
X15525000Y28260000D01*
X7000000Y28000000D02*
X8000000Y29000000D01*
X8000000Y29000000D02*
X14785000Y29000000D01*
%TD*%
%TA.AperFunction,Conductor*%
%TO.N,VBAT-*%
G36*
X75002152Y79499407D02*
G01*
X75387853Y79482566D01*
X75396432Y79481816D01*
X75777053Y79431705D01*
X75785544Y79430208D01*
X76160338Y79347119D01*
X76168673Y79344885D01*
X76534797Y79229447D01*
X76542913Y79226493D01*
X76897587Y79079582D01*
X76905398Y79075940D01*
X77245910Y78898680D01*
X77253390Y78894362D01*
X77577167Y78688094D01*
X77584241Y78683140D01*
X77888797Y78449446D01*
X77895398Y78443907D01*
X78178459Y78184530D01*
X78184529Y78178460D01*
X78443905Y77895401D01*
X78449445Y77888798D01*
X78683139Y77584242D01*
X78688093Y77577168D01*
X78894361Y77253391D01*
X78898679Y77245911D01*
X79075935Y76905407D01*
X79079585Y76897580D01*
X79226492Y76542914D01*
X79229446Y76534798D01*
X79344884Y76168674D01*
X79347119Y76160332D01*
X79430205Y75785555D01*
X79431705Y75777049D01*
X79481813Y75396446D01*
X79482566Y75387842D01*
X79499406Y75002153D01*
X79499500Y74997835D01*
X79499500Y68248322D01*
X79480593Y68190131D01*
X79470504Y68178318D01*
X76692686Y65400500D01*
X76692685Y65400501D01*
X76599500Y65307315D01*
X76599496Y65307310D01*
X76533609Y65193191D01*
X76533608Y65193186D01*
X76499500Y65065892D01*
X76499500Y15065893D01*
X76499500Y15065892D01*
X76499500Y14934108D01*
X76529579Y14821849D01*
X76533609Y14806810D01*
X76599496Y14692691D01*
X76599498Y14692689D01*
X76599500Y14692686D01*
X79470505Y11821681D01*
X79498281Y11767166D01*
X79499500Y11751679D01*
X79499500Y5002166D01*
X79499406Y4997848D01*
X79482566Y4612159D01*
X79481813Y4603555D01*
X79431705Y4222952D01*
X79430205Y4214446D01*
X79347119Y3839669D01*
X79344884Y3831327D01*
X79229446Y3465203D01*
X79226492Y3457087D01*
X79079585Y3102421D01*
X79075935Y3094594D01*
X78898679Y2754090D01*
X78894361Y2746610D01*
X78688093Y2422833D01*
X78683139Y2415759D01*
X78449445Y2111203D01*
X78443895Y2104589D01*
X78184540Y1821553D01*
X78178447Y1815460D01*
X78162727Y1801054D01*
X77895413Y1556106D01*
X77888797Y1550555D01*
X77584241Y1316861D01*
X77577167Y1311907D01*
X77253390Y1105639D01*
X77245910Y1101321D01*
X76905406Y924065D01*
X76897579Y920415D01*
X76542913Y773508D01*
X76534797Y770554D01*
X76168673Y655116D01*
X76160331Y652881D01*
X75785554Y569795D01*
X75777048Y568295D01*
X75396445Y518187D01*
X75387841Y517434D01*
X75002153Y500594D01*
X74997835Y500500D01*
X5002165Y500500D01*
X4997847Y500594D01*
X4612158Y517434D01*
X4603554Y518187D01*
X4222951Y568295D01*
X4214445Y569795D01*
X3839668Y652881D01*
X3831326Y655116D01*
X3465202Y770554D01*
X3457086Y773508D01*
X3102420Y920415D01*
X3094593Y924065D01*
X2754089Y1101321D01*
X2746609Y1105639D01*
X2422832Y1311907D01*
X2415758Y1316861D01*
X2111202Y1550555D01*
X2104599Y1556095D01*
X1821540Y1815471D01*
X1815470Y1821541D01*
X1556093Y2104602D01*
X1550554Y2111203D01*
X1316860Y2415759D01*
X1311906Y2422833D01*
X1105638Y2746610D01*
X1101320Y2754090D01*
X924064Y3094594D01*
X920414Y3102421D01*
X773507Y3457087D01*
X770553Y3465203D01*
X655115Y3831327D01*
X652880Y3839669D01*
X569794Y4214446D01*
X568294Y4222952D01*
X555643Y4319047D01*
X518184Y4603568D01*
X517434Y4612147D01*
X500594Y4997848D01*
X500500Y5002166D01*
X500500Y11751679D01*
X519407Y11809870D01*
X529490Y11821677D01*
X2336659Y13628845D01*
X51774500Y13628845D01*
X51774500Y13471156D01*
X51805263Y13316504D01*
X51805263Y13316502D01*
X51865603Y13170826D01*
X51865609Y13170815D01*
X51918312Y13091941D01*
X51953211Y13039711D01*
X52064711Y12928211D01*
X52142876Y12875983D01*
X52195814Y12840610D01*
X52195825Y12840604D01*
X52249638Y12818315D01*
X52341503Y12780263D01*
X52496158Y12749500D01*
X52496159Y12749500D01*
X52653841Y12749500D01*
X52653842Y12749500D01*
X52808497Y12780263D01*
X52954179Y12840606D01*
X53085289Y12928211D01*
X53196789Y13039711D01*
X53284394Y13170821D01*
X53344737Y13316503D01*
X53375500Y13471158D01*
X53375500Y13628842D01*
X53344737Y13783497D01*
X53284394Y13929179D01*
X53284393Y13929181D01*
X53284390Y13929186D01*
X53249017Y13982124D01*
X53196789Y14060289D01*
X53085289Y14171789D01*
X53033059Y14206688D01*
X52954185Y14259391D01*
X52954174Y14259397D01*
X52808497Y14319737D01*
X52653844Y14350500D01*
X52653842Y14350500D01*
X52496158Y14350500D01*
X52496155Y14350500D01*
X52341503Y14319737D01*
X52341501Y14319737D01*
X52195825Y14259397D01*
X52195814Y14259391D01*
X52064711Y14171789D01*
X52064707Y14171786D01*
X51953214Y14060293D01*
X51953211Y14060289D01*
X51865609Y13929186D01*
X51865603Y13929175D01*
X51805263Y13783499D01*
X51805263Y13783497D01*
X51774500Y13628845D01*
X2336659Y13628845D01*
X3400500Y14692686D01*
X3466392Y14806814D01*
X3500500Y14934108D01*
X3500500Y15065893D01*
X3500500Y19829057D01*
X49174500Y19829057D01*
X49174500Y19670943D01*
X49215423Y19518216D01*
X49294480Y19381284D01*
X49345505Y19330259D01*
X49373281Y19275744D01*
X49374500Y19260257D01*
X49374500Y16639744D01*
X49355593Y16581553D01*
X49345504Y16569741D01*
X49294482Y16518719D01*
X49294480Y16518717D01*
X49294480Y16518716D01*
X49215423Y16381784D01*
X49174500Y16229057D01*
X49174500Y16070943D01*
X49215423Y15918216D01*
X49294480Y15781284D01*
X49406284Y15669480D01*
X49543216Y15590423D01*
X49695943Y15549500D01*
X49695945Y15549500D01*
X49854055Y15549500D01*
X49854057Y15549500D01*
X50006784Y15590423D01*
X50143716Y15669480D01*
X50255520Y15781284D01*
X50334577Y15918216D01*
X50375500Y16070943D01*
X50375500Y16229057D01*
X50334577Y16381784D01*
X50255520Y16518716D01*
X50255517Y16518719D01*
X50204496Y16569741D01*
X50176719Y16624258D01*
X50175500Y16639744D01*
X50175500Y19260257D01*
X50194407Y19318448D01*
X50204490Y19330255D01*
X50255520Y19381284D01*
X50334577Y19518216D01*
X50375500Y19670943D01*
X50375500Y19829057D01*
X50334577Y19981784D01*
X50255520Y20118716D01*
X50143716Y20230520D01*
X50006784Y20309577D01*
X49854057Y20350500D01*
X49695943Y20350500D01*
X49543216Y20309577D01*
X49406284Y20230520D01*
X49294480Y20118716D01*
X49215423Y19981784D01*
X49174500Y19829057D01*
X3500500Y19829057D01*
X3500500Y28088694D01*
X5874500Y28088694D01*
X5874500Y27911307D01*
X5909106Y27737335D01*
X5909106Y27737333D01*
X5976985Y27573456D01*
X5976985Y27573455D01*
X6075535Y27425966D01*
X6075536Y27425965D01*
X6200965Y27300536D01*
X6348453Y27201987D01*
X6512334Y27134106D01*
X6686309Y27099500D01*
X6686310Y27099500D01*
X7294099Y27099500D01*
X7316146Y27092337D01*
X7339044Y27088710D01*
X7344692Y27083062D01*
X7352290Y27080593D01*
X7365917Y27061837D01*
X7382309Y27045445D01*
X7383558Y27037556D01*
X7388254Y27031093D01*
X7388254Y27007908D01*
X7391880Y26985013D01*
X7388254Y26977897D01*
X7388254Y26969907D01*
X7364103Y26930496D01*
X7363103Y26929496D01*
X7308586Y26901719D01*
X7293099Y26900500D01*
X6686306Y26900500D01*
X6512334Y26865894D01*
X6512332Y26865894D01*
X6348455Y26798015D01*
X6348454Y26798015D01*
X6200965Y26699465D01*
X6075535Y26574035D01*
X5976985Y26426546D01*
X5976985Y26426545D01*
X5909106Y26262668D01*
X5909106Y26262666D01*
X5874500Y26088694D01*
X5874500Y25911307D01*
X5909106Y25737335D01*
X5909106Y25737333D01*
X5976985Y25573456D01*
X5976985Y25573455D01*
X6054304Y25457740D01*
X6075536Y25425965D01*
X6200965Y25300536D01*
X6348453Y25201987D01*
X6512334Y25134106D01*
X6686309Y25099500D01*
X6686310Y25099500D01*
X7313690Y25099500D01*
X7313691Y25099500D01*
X7487666Y25134106D01*
X7651547Y25201987D01*
X7799035Y25300536D01*
X7924464Y25425965D01*
X7924464Y25425966D01*
X7927903Y25429404D01*
X7929009Y25428298D01*
X7974991Y25457740D01*
X8036071Y25454146D01*
X8071267Y25428575D01*
X8072097Y25429404D01*
X8075535Y25425966D01*
X8075536Y25425965D01*
X8200965Y25300536D01*
X8348453Y25201987D01*
X8512334Y25134106D01*
X8686309Y25099500D01*
X8686310Y25099500D01*
X9293099Y25099500D01*
X9351290Y25080593D01*
X9363103Y25070504D01*
X11574087Y22859520D01*
X11574089Y22859519D01*
X11574090Y22859518D01*
X11574091Y22859517D01*
X11665408Y22806795D01*
X11665406Y22806795D01*
X11665410Y22806794D01*
X11665412Y22806793D01*
X11767273Y22779500D01*
X11872727Y22779500D01*
X14377161Y22779500D01*
X14435352Y22760593D01*
X14465368Y22725448D01*
X14541004Y22577006D01*
X14647447Y22430499D01*
X14775499Y22302447D01*
X14922006Y22196004D01*
X15083361Y22113789D01*
X15255591Y22057829D01*
X15327136Y22046498D01*
X15434451Y22029500D01*
X15434454Y22029500D01*
X15615549Y22029500D01*
X15704977Y22043665D01*
X15794409Y22057829D01*
X15966639Y22113789D01*
X16127994Y22196004D01*
X16274501Y22302447D01*
X16300899Y22328845D01*
X51699500Y22328845D01*
X51699500Y22171156D01*
X51730263Y22016504D01*
X51730263Y22016502D01*
X51790603Y21870826D01*
X51790609Y21870815D01*
X51843312Y21791941D01*
X51878211Y21739711D01*
X51989711Y21628211D01*
X52067876Y21575983D01*
X52120814Y21540610D01*
X52120825Y21540604D01*
X52174638Y21518315D01*
X52266503Y21480263D01*
X52421158Y21449500D01*
X52421159Y21449500D01*
X52578841Y21449500D01*
X52578842Y21449500D01*
X52733497Y21480263D01*
X52879179Y21540606D01*
X53010289Y21628211D01*
X53121789Y21739711D01*
X53209394Y21870821D01*
X53269737Y22016503D01*
X53300500Y22171158D01*
X53300500Y22328842D01*
X53269737Y22483497D01*
X53237955Y22560226D01*
X66599500Y22560226D01*
X66599500Y22339775D01*
X66633984Y22122052D01*
X66702102Y21912401D01*
X66702104Y21912398D01*
X66702105Y21912394D01*
X66723288Y21870821D01*
X66790093Y21739708D01*
X66802185Y21715978D01*
X66931758Y21537635D01*
X67087635Y21381758D01*
X67265978Y21252185D01*
X67462394Y21152105D01*
X67672049Y21083985D01*
X67759140Y21070191D01*
X67889775Y21049500D01*
X67889778Y21049500D01*
X68110225Y21049500D01*
X68219086Y21066743D01*
X68327951Y21083985D01*
X68537606Y21152105D01*
X68734022Y21252185D01*
X68912365Y21381758D01*
X69068242Y21537635D01*
X69197815Y21715978D01*
X69297895Y21912394D01*
X69366015Y22122049D01*
X69383257Y22230914D01*
X69400500Y22339775D01*
X69400500Y22560226D01*
X69366015Y22777949D01*
X69366015Y22777951D01*
X69297895Y22987606D01*
X69197815Y23184022D01*
X69068242Y23362365D01*
X68912365Y23518242D01*
X68734022Y23647815D01*
X68734021Y23647816D01*
X68734019Y23647817D01*
X68644825Y23693264D01*
X68537606Y23747895D01*
X68537602Y23747896D01*
X68537599Y23747898D01*
X68327948Y23816016D01*
X68110225Y23850500D01*
X68110222Y23850500D01*
X67889778Y23850500D01*
X67889775Y23850500D01*
X67672051Y23816016D01*
X67462400Y23747898D01*
X67265980Y23647817D01*
X67176806Y23583029D01*
X67087635Y23518242D01*
X66931758Y23362365D01*
X66866971Y23273194D01*
X66802183Y23184020D01*
X66702102Y22987600D01*
X66633984Y22777949D01*
X66599500Y22560226D01*
X53237955Y22560226D01*
X53231005Y22577006D01*
X53209396Y22629175D01*
X53209390Y22629186D01*
X53174017Y22682124D01*
X53121789Y22760289D01*
X53010289Y22871789D01*
X52952213Y22910594D01*
X52879185Y22959391D01*
X52879174Y22959397D01*
X52733497Y23019737D01*
X52578844Y23050500D01*
X52578842Y23050500D01*
X52421158Y23050500D01*
X52421155Y23050500D01*
X52266503Y23019737D01*
X52266501Y23019737D01*
X52120825Y22959397D01*
X52120814Y22959391D01*
X51989711Y22871789D01*
X51989707Y22871786D01*
X51878214Y22760293D01*
X51878211Y22760289D01*
X51790609Y22629186D01*
X51790603Y22629175D01*
X51730263Y22483499D01*
X51730263Y22483497D01*
X51699500Y22328845D01*
X16300899Y22328845D01*
X16402553Y22430499D01*
X16508996Y22577006D01*
X16591211Y22738361D01*
X16647171Y22910591D01*
X16664458Y23019737D01*
X16675500Y23089451D01*
X16675500Y23270550D01*
X16647171Y23449407D01*
X16647171Y23449409D01*
X16591211Y23621639D01*
X16508996Y23782994D01*
X16402553Y23929501D01*
X16274501Y24057553D01*
X16127994Y24163996D01*
X16127993Y24163997D01*
X16127991Y24163998D01*
X15966637Y24246212D01*
X15794406Y24302172D01*
X15615549Y24330500D01*
X15615546Y24330500D01*
X15434454Y24330500D01*
X15434451Y24330500D01*
X15255593Y24302172D01*
X15083362Y24246212D01*
X14922008Y24163998D01*
X14848752Y24110775D01*
X14775499Y24057553D01*
X14647447Y23929501D01*
X14594225Y23856248D01*
X14541002Y23782992D01*
X14523120Y23747895D01*
X14465369Y23634554D01*
X14422106Y23591290D01*
X14377161Y23580500D01*
X12026901Y23580500D01*
X11968710Y23599407D01*
X11956897Y23609496D01*
X10060979Y25505414D01*
X10033202Y25559931D01*
X10039519Y25613303D01*
X10046209Y25629454D01*
X10090894Y25737334D01*
X10125500Y25911309D01*
X10125500Y26088691D01*
X10090894Y26262666D01*
X10023013Y26426547D01*
X10010349Y26445499D01*
X9993741Y26504386D01*
X10014918Y26561790D01*
X10065792Y26595783D01*
X10092665Y26599500D01*
X14038099Y26599500D01*
X14096290Y26580593D01*
X14108103Y26570504D01*
X14430158Y26248449D01*
X14457935Y26193932D01*
X14454309Y26147853D01*
X14402828Y25989407D01*
X14374500Y25810550D01*
X14374500Y25629451D01*
X14402828Y25450594D01*
X14458788Y25278363D01*
X14532290Y25134107D01*
X14541004Y25117006D01*
X14647447Y24970499D01*
X14775499Y24842447D01*
X14922006Y24736004D01*
X15083361Y24653789D01*
X15255591Y24597829D01*
X15327136Y24586498D01*
X15434451Y24569500D01*
X15434454Y24569500D01*
X15615549Y24569500D01*
X15704977Y24583665D01*
X15794409Y24597829D01*
X15966639Y24653789D01*
X16127994Y24736004D01*
X16274501Y24842447D01*
X16402553Y24970499D01*
X16508996Y25117006D01*
X16591211Y25278361D01*
X16647171Y25450591D01*
X16664489Y25559931D01*
X16675500Y25629451D01*
X16675500Y25810550D01*
X16647171Y25989407D01*
X16647171Y25989409D01*
X16591211Y26161639D01*
X16508996Y26322994D01*
X16402553Y26469501D01*
X16274501Y26597553D01*
X16127994Y26703996D01*
X16127993Y26703997D01*
X16127991Y26703998D01*
X15966637Y26786212D01*
X15794406Y26842172D01*
X15615549Y26870500D01*
X15615546Y26870500D01*
X15434454Y26870500D01*
X15434451Y26870500D01*
X15255593Y26842172D01*
X15097147Y26790691D01*
X15035962Y26790692D01*
X14996551Y26814842D01*
X14749556Y27061837D01*
X14490913Y27320480D01*
X14490910Y27320482D01*
X14490909Y27320483D01*
X14490908Y27320484D01*
X14399591Y27373206D01*
X14399593Y27373206D01*
X14360070Y27383796D01*
X14297727Y27400500D01*
X14297725Y27400500D01*
X10092665Y27400500D01*
X10034474Y27419407D01*
X9998510Y27468907D01*
X9998510Y27530093D01*
X10010350Y27554502D01*
X10023013Y27573453D01*
X10090894Y27737334D01*
X10125500Y27911309D01*
X10125500Y28088691D01*
X10090894Y28262666D01*
X10023013Y28426547D01*
X10010349Y28445499D01*
X9993741Y28504386D01*
X10014918Y28561790D01*
X10065792Y28595783D01*
X10092665Y28599500D01*
X14298016Y28599500D01*
X14356207Y28580593D01*
X14392171Y28531093D01*
X14395797Y28485013D01*
X14374500Y28350550D01*
X14374500Y28169451D01*
X14402828Y27990594D01*
X14458788Y27818363D01*
X14500074Y27737334D01*
X14541004Y27657006D01*
X14647447Y27510499D01*
X14775499Y27382447D01*
X14922006Y27276004D01*
X15083361Y27193789D01*
X15255591Y27137829D01*
X15327136Y27126498D01*
X15434451Y27109500D01*
X15434454Y27109500D01*
X15615549Y27109500D01*
X15704977Y27123665D01*
X15794409Y27137829D01*
X15966639Y27193789D01*
X16127994Y27276004D01*
X16274501Y27382447D01*
X16402553Y27510499D01*
X16508996Y27657006D01*
X16591211Y27818361D01*
X16647171Y27990591D01*
X16675500Y28169454D01*
X16675500Y28350546D01*
X16675500Y28350550D01*
X16647171Y28529407D01*
X16647171Y28529409D01*
X16591211Y28701639D01*
X16508996Y28862994D01*
X16402553Y29009501D01*
X16274501Y29137553D01*
X16127994Y29243996D01*
X16127993Y29243997D01*
X16127991Y29243998D01*
X15966637Y29326212D01*
X15794406Y29382172D01*
X15615549Y29410500D01*
X15615546Y29410500D01*
X15434454Y29410500D01*
X15434451Y29410500D01*
X15255593Y29382172D01*
X15085368Y29326864D01*
X15024182Y29326865D01*
X15005276Y29335282D01*
X14939589Y29373207D01*
X14905634Y29382305D01*
X14837727Y29400500D01*
X14837725Y29400500D01*
X10092665Y29400500D01*
X10034474Y29419407D01*
X9998510Y29468907D01*
X9998510Y29530093D01*
X10010350Y29554502D01*
X10023013Y29573453D01*
X10090894Y29737334D01*
X10125500Y29911309D01*
X10125500Y30088691D01*
X10090894Y30262666D01*
X10023014Y30426545D01*
X10023014Y30426546D01*
X9924464Y30574035D01*
X9799034Y30699465D01*
X9651544Y30798015D01*
X9487666Y30865894D01*
X9313693Y30900500D01*
X9313691Y30900500D01*
X8686309Y30900500D01*
X8686306Y30900500D01*
X8512334Y30865894D01*
X8512332Y30865894D01*
X8348455Y30798015D01*
X8348454Y30798015D01*
X8200965Y30699465D01*
X8075535Y30574035D01*
X7976985Y30426546D01*
X7976985Y30426545D01*
X7909106Y30262668D01*
X7909106Y30262666D01*
X7874500Y30088694D01*
X7874500Y30088691D01*
X7874500Y29911309D01*
X7909106Y29737334D01*
X7976987Y29573453D01*
X7989650Y29554502D01*
X7993735Y29548388D01*
X8010343Y29489499D01*
X7989165Y29432096D01*
X7938291Y29398104D01*
X7937044Y29397761D01*
X7845411Y29373207D01*
X7845409Y29373206D01*
X7754087Y29320481D01*
X7679519Y29245914D01*
X7679520Y29245913D01*
X7363103Y28929496D01*
X7308586Y28901719D01*
X7293099Y28900500D01*
X6686306Y28900500D01*
X6512334Y28865894D01*
X6512332Y28865894D01*
X6348455Y28798015D01*
X6348454Y28798015D01*
X6200965Y28699465D01*
X6075535Y28574035D01*
X5976985Y28426546D01*
X5976985Y28426545D01*
X5909106Y28262668D01*
X5909106Y28262666D01*
X5874500Y28088694D01*
X3500500Y28088694D01*
X3500500Y32088694D01*
X7874500Y32088694D01*
X7874500Y31911307D01*
X7909106Y31737335D01*
X7909106Y31737333D01*
X7976985Y31573456D01*
X7976985Y31573455D01*
X8075535Y31425966D01*
X8075536Y31425965D01*
X8200965Y31300536D01*
X8348453Y31201987D01*
X8512334Y31134106D01*
X8686309Y31099500D01*
X8686310Y31099500D01*
X9313690Y31099500D01*
X9313691Y31099500D01*
X9487666Y31134106D01*
X9651547Y31201987D01*
X9799035Y31300536D01*
X9924464Y31425965D01*
X10023013Y31573453D01*
X10090894Y31737334D01*
X10125500Y31911309D01*
X10125500Y32088691D01*
X10090894Y32262666D01*
X10023014Y32426545D01*
X10023014Y32426546D01*
X9924464Y32574035D01*
X9799034Y32699465D01*
X9651544Y32798015D01*
X9487666Y32865894D01*
X9313693Y32900500D01*
X9313691Y32900500D01*
X8686309Y32900500D01*
X8686306Y32900500D01*
X8512334Y32865894D01*
X8512332Y32865894D01*
X8348455Y32798015D01*
X8348454Y32798015D01*
X8200965Y32699465D01*
X8075535Y32574035D01*
X7976985Y32426546D01*
X7976985Y32426545D01*
X7909106Y32262668D01*
X7909106Y32262666D01*
X7874500Y32088694D01*
X3500500Y32088694D01*
X3500500Y34088694D01*
X7874500Y34088694D01*
X7874500Y33911307D01*
X7909106Y33737335D01*
X7909106Y33737333D01*
X7976985Y33573456D01*
X7976985Y33573455D01*
X8075535Y33425966D01*
X8075536Y33425965D01*
X8200965Y33300536D01*
X8348453Y33201987D01*
X8512334Y33134106D01*
X8686309Y33099500D01*
X8686310Y33099500D01*
X9313690Y33099500D01*
X9313691Y33099500D01*
X9487666Y33134106D01*
X9651547Y33201987D01*
X9799035Y33300536D01*
X9924464Y33425965D01*
X10023013Y33573453D01*
X10090894Y33737334D01*
X10125500Y33911309D01*
X10125500Y34088691D01*
X10090894Y34262666D01*
X10023014Y34426545D01*
X10023014Y34426546D01*
X9924464Y34574035D01*
X9799034Y34699465D01*
X9651544Y34798015D01*
X9487666Y34865894D01*
X9313693Y34900500D01*
X9313691Y34900500D01*
X8686309Y34900500D01*
X8686306Y34900500D01*
X8512334Y34865894D01*
X8512332Y34865894D01*
X8348455Y34798015D01*
X8348454Y34798015D01*
X8200965Y34699465D01*
X8075535Y34574035D01*
X7976985Y34426546D01*
X7976985Y34426545D01*
X7909106Y34262668D01*
X7909106Y34262666D01*
X7874500Y34088694D01*
X3500500Y34088694D01*
X3500500Y36393107D01*
X7874500Y36393107D01*
X7874500Y35606894D01*
X7885123Y35518435D01*
X7940637Y35377661D01*
X7940638Y35377659D01*
X7940639Y35377658D01*
X8032078Y35257078D01*
X8152658Y35165639D01*
X8152659Y35165639D01*
X8152660Y35165638D01*
X8223047Y35137881D01*
X8293436Y35110123D01*
X8381898Y35099500D01*
X8381900Y35099500D01*
X9618100Y35099500D01*
X9618102Y35099500D01*
X9706564Y35110123D01*
X9847342Y35165639D01*
X9967922Y35257078D01*
X10059361Y35377658D01*
X10114877Y35518436D01*
X10125500Y35606898D01*
X10125500Y36393102D01*
X10114877Y36481564D01*
X10059361Y36622342D01*
X9967922Y36742922D01*
X9847342Y36834361D01*
X9847341Y36834362D01*
X9847339Y36834363D01*
X9706565Y36889877D01*
X9618106Y36900500D01*
X9618102Y36900500D01*
X8381898Y36900500D01*
X8381893Y36900500D01*
X8293434Y36889877D01*
X8152660Y36834363D01*
X8152656Y36834360D01*
X8032081Y36742925D01*
X8032075Y36742919D01*
X7940640Y36622344D01*
X7940637Y36622340D01*
X7885123Y36481566D01*
X7874500Y36393107D01*
X3500500Y36393107D01*
X3500500Y46088694D01*
X5874500Y46088694D01*
X5874500Y45911307D01*
X5909106Y45737335D01*
X5909106Y45737333D01*
X5976985Y45573456D01*
X5976985Y45573455D01*
X6075535Y45425966D01*
X6075536Y45425965D01*
X6200965Y45300536D01*
X6348453Y45201987D01*
X6512334Y45134106D01*
X6686309Y45099500D01*
X6686310Y45099500D01*
X7294099Y45099500D01*
X7316146Y45092337D01*
X7339044Y45088710D01*
X7344692Y45083062D01*
X7352290Y45080593D01*
X7365917Y45061837D01*
X7382309Y45045445D01*
X7383558Y45037556D01*
X7388254Y45031093D01*
X7388254Y45007908D01*
X7391880Y44985013D01*
X7388254Y44977897D01*
X7388254Y44969907D01*
X7364103Y44930496D01*
X7363103Y44929496D01*
X7308586Y44901719D01*
X7293099Y44900500D01*
X6686306Y44900500D01*
X6512334Y44865894D01*
X6512332Y44865894D01*
X6348455Y44798015D01*
X6348454Y44798015D01*
X6200965Y44699465D01*
X6075535Y44574035D01*
X5976985Y44426546D01*
X5976985Y44426545D01*
X5909106Y44262668D01*
X5909106Y44262666D01*
X5874500Y44088694D01*
X5874500Y43911307D01*
X5909106Y43737335D01*
X5909106Y43737333D01*
X5976985Y43573456D01*
X5976985Y43573455D01*
X6033145Y43489407D01*
X6075536Y43425965D01*
X6200965Y43300536D01*
X6348453Y43201987D01*
X6512334Y43134106D01*
X6686309Y43099500D01*
X6686310Y43099500D01*
X7313690Y43099500D01*
X7313691Y43099500D01*
X7487666Y43134106D01*
X7651547Y43201987D01*
X7799035Y43300536D01*
X7924464Y43425965D01*
X7924464Y43425966D01*
X7927903Y43429404D01*
X7929009Y43428298D01*
X7974991Y43457740D01*
X8036071Y43454146D01*
X8071267Y43428575D01*
X8072097Y43429404D01*
X8075535Y43425966D01*
X8075536Y43425965D01*
X8200965Y43300536D01*
X8348453Y43201987D01*
X8512334Y43134106D01*
X8686309Y43099500D01*
X8686310Y43099500D01*
X9293099Y43099500D01*
X9351290Y43080593D01*
X9363103Y43070504D01*
X12074087Y40359520D01*
X12074089Y40359519D01*
X12074090Y40359518D01*
X12074091Y40359517D01*
X12165408Y40306795D01*
X12165406Y40306795D01*
X12165410Y40306794D01*
X12165412Y40306793D01*
X12267273Y40279500D01*
X14352161Y40279500D01*
X14410352Y40260593D01*
X14440368Y40225448D01*
X14516004Y40077006D01*
X14622447Y39930499D01*
X14750499Y39802447D01*
X14897006Y39696004D01*
X15058361Y39613789D01*
X15230591Y39557829D01*
X15302136Y39546498D01*
X15409451Y39529500D01*
X15409454Y39529500D01*
X15590549Y39529500D01*
X15679977Y39543665D01*
X15769409Y39557829D01*
X15941639Y39613789D01*
X16102994Y39696004D01*
X16249501Y39802447D01*
X16377553Y39930499D01*
X16483996Y40077006D01*
X16566211Y40238361D01*
X16622171Y40410591D01*
X16650500Y40589454D01*
X16650500Y40770546D01*
X16650500Y40770550D01*
X16622171Y40949407D01*
X16622171Y40949409D01*
X16566211Y41121639D01*
X16483996Y41282994D01*
X16377553Y41429501D01*
X16249501Y41557553D01*
X16102994Y41663996D01*
X16102993Y41663997D01*
X16102991Y41663998D01*
X15941637Y41746212D01*
X15769406Y41802172D01*
X15590549Y41830500D01*
X15590546Y41830500D01*
X15409454Y41830500D01*
X15409451Y41830500D01*
X15230593Y41802172D01*
X15058362Y41746212D01*
X14897008Y41663998D01*
X14823752Y41610775D01*
X14750499Y41557553D01*
X14622447Y41429501D01*
X14569225Y41356248D01*
X14516002Y41282992D01*
X14477129Y41206699D01*
X14440369Y41134554D01*
X14397106Y41091290D01*
X14352161Y41080500D01*
X12526901Y41080500D01*
X12468710Y41099407D01*
X12456897Y41109496D01*
X10060979Y43505414D01*
X10033202Y43559931D01*
X10039519Y43613303D01*
X10072916Y43693932D01*
X10090894Y43737334D01*
X10125500Y43911309D01*
X10125500Y44088691D01*
X10090894Y44262666D01*
X10023013Y44426547D01*
X10010349Y44445499D01*
X9993741Y44504386D01*
X10014918Y44561790D01*
X10065792Y44595783D01*
X10092665Y44599500D01*
X13513099Y44599500D01*
X13571290Y44580593D01*
X13583103Y44570504D01*
X14405158Y43748449D01*
X14432935Y43693932D01*
X14429309Y43647853D01*
X14377828Y43489407D01*
X14349500Y43310550D01*
X14349500Y43129451D01*
X14377828Y42950594D01*
X14377829Y42950591D01*
X14433789Y42778361D01*
X14516004Y42617006D01*
X14622447Y42470499D01*
X14750499Y42342447D01*
X14897006Y42236004D01*
X15058361Y42153789D01*
X15230591Y42097829D01*
X15302136Y42086498D01*
X15409451Y42069500D01*
X15409454Y42069500D01*
X15590549Y42069500D01*
X15679977Y42083665D01*
X15769409Y42097829D01*
X15941639Y42153789D01*
X16102994Y42236004D01*
X16249501Y42342447D01*
X16377553Y42470499D01*
X16483996Y42617006D01*
X16566211Y42778361D01*
X16622171Y42950591D01*
X16645756Y43099501D01*
X16650500Y43129451D01*
X16650500Y43310550D01*
X16622171Y43489407D01*
X16622171Y43489409D01*
X16566211Y43661639D01*
X16483996Y43822994D01*
X16377553Y43969501D01*
X16249501Y44097553D01*
X16102994Y44203996D01*
X16102993Y44203997D01*
X16102991Y44203998D01*
X15941637Y44286212D01*
X15769406Y44342172D01*
X15590549Y44370500D01*
X15590546Y44370500D01*
X15409454Y44370500D01*
X15409451Y44370500D01*
X15230593Y44342172D01*
X15072147Y44290691D01*
X15010962Y44290692D01*
X14971551Y44314842D01*
X14488378Y44798015D01*
X13965913Y45320480D01*
X13965910Y45320482D01*
X13965909Y45320483D01*
X13965908Y45320484D01*
X13874591Y45373206D01*
X13874593Y45373206D01*
X13835070Y45383796D01*
X13772727Y45400500D01*
X13772725Y45400500D01*
X10092665Y45400500D01*
X10034474Y45419407D01*
X9998510Y45468907D01*
X9998510Y45530093D01*
X10010350Y45554502D01*
X10023013Y45573453D01*
X10090894Y45737334D01*
X10125500Y45911309D01*
X10125500Y46088691D01*
X10090894Y46262666D01*
X10023013Y46426547D01*
X10010349Y46445499D01*
X9993741Y46504386D01*
X10014918Y46561790D01*
X10065792Y46595783D01*
X10092665Y46599500D01*
X14053099Y46599500D01*
X14111290Y46580593D01*
X14123103Y46570504D01*
X14405158Y46288449D01*
X14432935Y46233932D01*
X14429309Y46187853D01*
X14377828Y46029407D01*
X14349500Y45850550D01*
X14349500Y45669451D01*
X14377828Y45490594D01*
X14433788Y45318363D01*
X14498831Y45190708D01*
X14516004Y45157006D01*
X14622447Y45010499D01*
X14750499Y44882447D01*
X14897006Y44776004D01*
X15058361Y44693789D01*
X15230591Y44637829D01*
X15302136Y44626498D01*
X15409451Y44609500D01*
X15409454Y44609500D01*
X15590549Y44609500D01*
X15679977Y44623665D01*
X15769409Y44637829D01*
X15941639Y44693789D01*
X16102994Y44776004D01*
X16249501Y44882447D01*
X16377553Y45010499D01*
X16483996Y45157006D01*
X16566211Y45318361D01*
X16622171Y45490591D01*
X16650500Y45669454D01*
X16650500Y45850546D01*
X16650500Y45850550D01*
X16622171Y46029407D01*
X16622171Y46029409D01*
X16566211Y46201639D01*
X16483996Y46362994D01*
X16377553Y46509501D01*
X16249501Y46637553D01*
X16102994Y46743996D01*
X16102993Y46743997D01*
X16102991Y46743998D01*
X15941637Y46826212D01*
X15769406Y46882172D01*
X15590549Y46910500D01*
X15590546Y46910500D01*
X15409454Y46910500D01*
X15409451Y46910500D01*
X15230593Y46882172D01*
X15072147Y46830691D01*
X15010962Y46830692D01*
X14971552Y46854842D01*
X14505913Y47320480D01*
X14505908Y47320484D01*
X14414591Y47373206D01*
X14414593Y47373206D01*
X14374363Y47383985D01*
X14312727Y47400500D01*
X14312725Y47400500D01*
X10092665Y47400500D01*
X10034474Y47419407D01*
X9998510Y47468907D01*
X9998510Y47530093D01*
X10010350Y47554502D01*
X10023013Y47573453D01*
X10090894Y47737334D01*
X10125500Y47911309D01*
X10125500Y48088691D01*
X10090894Y48262666D01*
X10023014Y48426545D01*
X10023014Y48426546D01*
X9924464Y48574035D01*
X9799034Y48699465D01*
X9675816Y48781797D01*
X9671697Y48784549D01*
X9651547Y48798013D01*
X9651544Y48798015D01*
X9651543Y48798015D01*
X9501350Y48860226D01*
X66599500Y48860226D01*
X66599500Y48639775D01*
X66633984Y48422052D01*
X66702102Y48212401D01*
X66702104Y48212398D01*
X66702105Y48212394D01*
X66802185Y48015978D01*
X66931758Y47837635D01*
X67087635Y47681758D01*
X67265978Y47552185D01*
X67462394Y47452105D01*
X67672049Y47383985D01*
X67740105Y47373206D01*
X67889775Y47349500D01*
X67889778Y47349500D01*
X68110225Y47349500D01*
X68219086Y47366743D01*
X68327951Y47383985D01*
X68537606Y47452105D01*
X68734022Y47552185D01*
X68912365Y47681758D01*
X69068242Y47837635D01*
X69197815Y48015978D01*
X69297895Y48212394D01*
X69366015Y48422049D01*
X69400500Y48639778D01*
X69400500Y48860222D01*
X69400500Y48860226D01*
X69366015Y49077949D01*
X69366015Y49077951D01*
X69297895Y49287606D01*
X69197815Y49484022D01*
X69068242Y49662365D01*
X68912365Y49818242D01*
X68734022Y49947815D01*
X68734021Y49947816D01*
X68734019Y49947817D01*
X68644825Y49993264D01*
X68537606Y50047895D01*
X68537602Y50047896D01*
X68537599Y50047898D01*
X68327948Y50116016D01*
X68110225Y50150500D01*
X68110222Y50150500D01*
X67889778Y50150500D01*
X67889775Y50150500D01*
X67672051Y50116016D01*
X67462400Y50047898D01*
X67265980Y49947817D01*
X67176806Y49883029D01*
X67087635Y49818242D01*
X66931758Y49662365D01*
X66867162Y49573456D01*
X66802183Y49484020D01*
X66702102Y49287600D01*
X66633984Y49077949D01*
X66599500Y48860226D01*
X9501350Y48860226D01*
X9487666Y48865894D01*
X9313693Y48900500D01*
X9313691Y48900500D01*
X8686309Y48900500D01*
X8686306Y48900500D01*
X8512334Y48865894D01*
X8512332Y48865894D01*
X8348455Y48798015D01*
X8348454Y48798015D01*
X8200965Y48699465D01*
X8075535Y48574035D01*
X7976985Y48426546D01*
X7976985Y48426545D01*
X7909106Y48262668D01*
X7909106Y48262666D01*
X7874500Y48088694D01*
X7874500Y47911307D01*
X7909106Y47737335D01*
X7909106Y47737333D01*
X7932126Y47681758D01*
X7976987Y47573453D01*
X7989650Y47554502D01*
X7993735Y47548388D01*
X8010343Y47489499D01*
X7989165Y47432096D01*
X7938291Y47398104D01*
X7937044Y47397761D01*
X7845411Y47373207D01*
X7845409Y47373206D01*
X7754087Y47320481D01*
X7679519Y47245914D01*
X7679520Y47245913D01*
X7363103Y46929496D01*
X7308586Y46901719D01*
X7293099Y46900500D01*
X6686306Y46900500D01*
X6512334Y46865894D01*
X6512332Y46865894D01*
X6348455Y46798015D01*
X6348454Y46798015D01*
X6200965Y46699465D01*
X6075535Y46574035D01*
X5976985Y46426546D01*
X5976985Y46426545D01*
X5909106Y46262668D01*
X5909106Y46262666D01*
X5874500Y46088694D01*
X3500500Y46088694D01*
X3500500Y50088694D01*
X7874500Y50088694D01*
X7874500Y49911307D01*
X7909106Y49737335D01*
X7909106Y49737333D01*
X7976985Y49573456D01*
X7976985Y49573455D01*
X8075535Y49425966D01*
X8075536Y49425965D01*
X8200965Y49300536D01*
X8348453Y49201987D01*
X8512334Y49134106D01*
X8686309Y49099500D01*
X8686310Y49099500D01*
X9313690Y49099500D01*
X9313691Y49099500D01*
X9487666Y49134106D01*
X9651547Y49201987D01*
X9799035Y49300536D01*
X9924464Y49425965D01*
X10023013Y49573453D01*
X10090894Y49737334D01*
X10125500Y49911309D01*
X10125500Y50088691D01*
X10090894Y50262666D01*
X10023014Y50426545D01*
X10023014Y50426546D01*
X9924464Y50574035D01*
X9799034Y50699465D01*
X9651544Y50798015D01*
X9487666Y50865894D01*
X9313693Y50900500D01*
X9313691Y50900500D01*
X8686309Y50900500D01*
X8686306Y50900500D01*
X8512334Y50865894D01*
X8512332Y50865894D01*
X8348455Y50798015D01*
X8348454Y50798015D01*
X8200965Y50699465D01*
X8075535Y50574035D01*
X7976985Y50426546D01*
X7976985Y50426545D01*
X7909106Y50262668D01*
X7909106Y50262666D01*
X7874500Y50088694D01*
X3500500Y50088694D01*
X3500500Y52088694D01*
X7874500Y52088694D01*
X7874500Y51911307D01*
X7909106Y51737335D01*
X7909106Y51737333D01*
X7976985Y51573456D01*
X7976985Y51573455D01*
X8075535Y51425966D01*
X8075536Y51425965D01*
X8200965Y51300536D01*
X8348453Y51201987D01*
X8512334Y51134106D01*
X8686309Y51099500D01*
X8686310Y51099500D01*
X9313690Y51099500D01*
X9313691Y51099500D01*
X9487666Y51134106D01*
X9651547Y51201987D01*
X9799035Y51300536D01*
X9924464Y51425965D01*
X10023013Y51573453D01*
X10090894Y51737334D01*
X10125500Y51911309D01*
X10125500Y52088691D01*
X10090894Y52262666D01*
X10023014Y52426545D01*
X10023014Y52426546D01*
X9924464Y52574035D01*
X9799034Y52699465D01*
X9651544Y52798015D01*
X9487666Y52865894D01*
X9313693Y52900500D01*
X9313691Y52900500D01*
X8686309Y52900500D01*
X8686306Y52900500D01*
X8512334Y52865894D01*
X8512332Y52865894D01*
X8348455Y52798015D01*
X8348454Y52798015D01*
X8200965Y52699465D01*
X8075535Y52574035D01*
X7976985Y52426546D01*
X7976985Y52426545D01*
X7909106Y52262668D01*
X7909106Y52262666D01*
X7874500Y52088694D01*
X3500500Y52088694D01*
X3500500Y54393107D01*
X7874500Y54393107D01*
X7874500Y53606894D01*
X7885123Y53518435D01*
X7940637Y53377661D01*
X7940638Y53377659D01*
X7940639Y53377658D01*
X8032078Y53257078D01*
X8152658Y53165639D01*
X8152659Y53165639D01*
X8152660Y53165638D01*
X8223047Y53137881D01*
X8293436Y53110123D01*
X8381898Y53099500D01*
X8381900Y53099500D01*
X9618100Y53099500D01*
X9618102Y53099500D01*
X9706564Y53110123D01*
X9847342Y53165639D01*
X9878240Y53189070D01*
X16224500Y53189070D01*
X16224500Y53060931D01*
X16249499Y52935258D01*
X16249500Y52935253D01*
X16298534Y52816875D01*
X16298538Y52816867D01*
X16341365Y52752774D01*
X16369724Y52710331D01*
X16460331Y52619724D01*
X16523848Y52577283D01*
X16566866Y52548539D01*
X16566870Y52548537D01*
X16566873Y52548535D01*
X16685256Y52499499D01*
X16810931Y52474500D01*
X16810932Y52474500D01*
X16939068Y52474500D01*
X16939069Y52474500D01*
X17064744Y52499499D01*
X17183127Y52548535D01*
X17289669Y52619724D01*
X17365448Y52695503D01*
X17419964Y52723281D01*
X17435452Y52724500D01*
X17677725Y52724500D01*
X17677727Y52724500D01*
X17779588Y52751793D01*
X17779590Y52751795D01*
X17779592Y52751795D01*
X17870908Y52804517D01*
X17870908Y52804518D01*
X17870913Y52804520D01*
X19986895Y54920505D01*
X20041412Y54948281D01*
X20056899Y54949500D01*
X20164068Y54949500D01*
X20164069Y54949500D01*
X20289744Y54974499D01*
X20408127Y55023535D01*
X20514669Y55094724D01*
X20605276Y55185331D01*
X20676465Y55291873D01*
X20725501Y55410256D01*
X20750500Y55535931D01*
X20750500Y55664069D01*
X20725501Y55789744D01*
X20676465Y55908127D01*
X20676463Y55908130D01*
X20676461Y55908134D01*
X20647717Y55951152D01*
X20605276Y56014669D01*
X20514669Y56105276D01*
X20472226Y56133635D01*
X20408133Y56176462D01*
X20408125Y56176466D01*
X20289747Y56225500D01*
X20289745Y56225501D01*
X20289744Y56225501D01*
X20164069Y56250500D01*
X20035931Y56250500D01*
X20035930Y56250500D01*
X19973093Y56238001D01*
X19910256Y56225501D01*
X19910255Y56225501D01*
X19910252Y56225500D01*
X19791874Y56176466D01*
X19791866Y56176462D01*
X19685331Y56105276D01*
X19685327Y56105273D01*
X19594727Y56014673D01*
X19594724Y56014669D01*
X19523538Y55908134D01*
X19523534Y55908126D01*
X19474500Y55789748D01*
X19474499Y55789743D01*
X19449500Y55664070D01*
X19449500Y55556901D01*
X19430593Y55498710D01*
X19420504Y55486897D01*
X17496779Y53563173D01*
X17442262Y53535396D01*
X17381830Y53544967D01*
X17356771Y53563174D01*
X17289677Y53630269D01*
X17289672Y53630273D01*
X17289669Y53630276D01*
X17247226Y53658635D01*
X17183133Y53701462D01*
X17183125Y53701466D01*
X17064747Y53750500D01*
X17064745Y53750501D01*
X17064744Y53750501D01*
X16939069Y53775500D01*
X16810931Y53775500D01*
X16810930Y53775500D01*
X16748093Y53763001D01*
X16685256Y53750501D01*
X16685255Y53750501D01*
X16685252Y53750500D01*
X16566874Y53701466D01*
X16566866Y53701462D01*
X16460331Y53630276D01*
X16460327Y53630273D01*
X16369727Y53539673D01*
X16369724Y53539669D01*
X16298538Y53433134D01*
X16298534Y53433126D01*
X16249500Y53314748D01*
X16249499Y53314743D01*
X16224500Y53189070D01*
X9878240Y53189070D01*
X9967922Y53257078D01*
X10059361Y53377658D01*
X10114877Y53518436D01*
X10125500Y53606898D01*
X10125500Y54393102D01*
X10114877Y54481564D01*
X10059361Y54622342D01*
X9967922Y54742922D01*
X9847342Y54834361D01*
X9847341Y54834362D01*
X9847339Y54834363D01*
X9706565Y54889877D01*
X9618106Y54900500D01*
X9618102Y54900500D01*
X8381898Y54900500D01*
X8381893Y54900500D01*
X8293434Y54889877D01*
X8152660Y54834363D01*
X8152656Y54834360D01*
X8032081Y54742925D01*
X8032075Y54742919D01*
X7940640Y54622344D01*
X7940637Y54622340D01*
X7885123Y54481566D01*
X7874500Y54393107D01*
X3500500Y54393107D01*
X3500500Y59814069D01*
X14099500Y59814069D01*
X14099500Y59685931D01*
X14113407Y59616016D01*
X14124499Y59560258D01*
X14124500Y59560253D01*
X14173534Y59441875D01*
X14173538Y59441867D01*
X14216365Y59377774D01*
X14244724Y59335331D01*
X14244727Y59335328D01*
X14244731Y59335323D01*
X14320503Y59259552D01*
X14348281Y59205036D01*
X14349500Y59189548D01*
X14349500Y58802727D01*
X14349500Y58697273D01*
X14366107Y58635293D01*
X14376794Y58595408D01*
X14429516Y58504092D01*
X14429518Y58504090D01*
X14429520Y58504087D01*
X14929518Y58004090D01*
X14929520Y58004087D01*
X15004087Y57929520D01*
X15029810Y57914669D01*
X15095412Y57876793D01*
X15197273Y57849500D01*
X18042508Y57849500D01*
X18100699Y57830593D01*
X18136663Y57781093D01*
X18136663Y57719907D01*
X18133972Y57712615D01*
X18124501Y57689752D01*
X18124499Y57689746D01*
X18124499Y57689744D01*
X18111999Y57626907D01*
X18103730Y57585332D01*
X18099500Y57564069D01*
X18099500Y57435931D01*
X18121275Y57326462D01*
X18124499Y57310258D01*
X18124500Y57310253D01*
X18173534Y57191875D01*
X18173538Y57191867D01*
X18191709Y57164673D01*
X18244724Y57085331D01*
X18335331Y56994724D01*
X18398848Y56952283D01*
X18441866Y56923539D01*
X18441870Y56923537D01*
X18441873Y56923535D01*
X18560256Y56874499D01*
X18685931Y56849500D01*
X18685932Y56849500D01*
X18814068Y56849500D01*
X18814069Y56849500D01*
X18939744Y56874499D01*
X19058127Y56923535D01*
X19164669Y56994724D01*
X19240448Y57070503D01*
X19294964Y57098281D01*
X19310452Y57099500D01*
X31293099Y57099500D01*
X31351290Y57080593D01*
X31363103Y57070504D01*
X31570504Y56863103D01*
X31598281Y56808586D01*
X31599500Y56793099D01*
X31599500Y56685931D01*
X31624499Y56560258D01*
X31624500Y56560253D01*
X31673534Y56441875D01*
X31673538Y56441867D01*
X31716365Y56377774D01*
X31744724Y56335331D01*
X31835331Y56244724D01*
X31898848Y56202283D01*
X31941866Y56173539D01*
X31941870Y56173537D01*
X31941873Y56173535D01*
X32060256Y56124499D01*
X32185931Y56099500D01*
X32185932Y56099500D01*
X32314068Y56099500D01*
X32314069Y56099500D01*
X32439744Y56124499D01*
X32558127Y56173535D01*
X32664669Y56244724D01*
X32755276Y56335331D01*
X32826465Y56441873D01*
X32875501Y56560256D01*
X32900500Y56685931D01*
X32900500Y56814069D01*
X32875501Y56939744D01*
X32826465Y57058127D01*
X32826463Y57058130D01*
X32826461Y57058134D01*
X32797717Y57101152D01*
X32755276Y57164669D01*
X32664669Y57255276D01*
X32622226Y57283635D01*
X32558133Y57326462D01*
X32558125Y57326466D01*
X32439747Y57375500D01*
X32439745Y57375501D01*
X32439744Y57375501D01*
X32314069Y57400500D01*
X32206901Y57400500D01*
X32148710Y57419407D01*
X32136898Y57429496D01*
X31885897Y57680496D01*
X31858119Y57735013D01*
X31867690Y57795445D01*
X31910955Y57838710D01*
X31955900Y57849500D01*
X59792094Y57849500D01*
X59850285Y57830593D01*
X59883558Y57788386D01*
X59923534Y57691875D01*
X59923538Y57691867D01*
X59966365Y57627774D01*
X59994724Y57585331D01*
X60085331Y57494724D01*
X60148848Y57452283D01*
X60191866Y57423539D01*
X60191870Y57423537D01*
X60191873Y57423535D01*
X60310256Y57374499D01*
X60435931Y57349500D01*
X60435932Y57349500D01*
X60564068Y57349500D01*
X60564069Y57349500D01*
X60689744Y57374499D01*
X60808127Y57423535D01*
X60914669Y57494724D01*
X61005276Y57585331D01*
X61076465Y57691873D01*
X61125501Y57810256D01*
X61150500Y57935931D01*
X61150500Y58064069D01*
X61125501Y58189744D01*
X61076465Y58308127D01*
X61076463Y58308130D01*
X61076461Y58308134D01*
X61075809Y58309110D01*
X61041654Y58360226D01*
X66599500Y58360226D01*
X66599500Y58139775D01*
X66633984Y57922052D01*
X66702102Y57712401D01*
X66702104Y57712398D01*
X66702105Y57712394D01*
X66718358Y57680496D01*
X66777680Y57564070D01*
X66802185Y57515978D01*
X66931758Y57337635D01*
X67087635Y57181758D01*
X67265978Y57052185D01*
X67462394Y56952105D01*
X67672049Y56883985D01*
X67759140Y56870191D01*
X67889775Y56849500D01*
X67889778Y56849500D01*
X68110225Y56849500D01*
X68219086Y56866743D01*
X68327951Y56883985D01*
X68537606Y56952105D01*
X68734022Y57052185D01*
X68912365Y57181758D01*
X69068242Y57337635D01*
X69197815Y57515978D01*
X69297895Y57712394D01*
X69366015Y57922049D01*
X69400500Y58139778D01*
X69400500Y58360222D01*
X69400500Y58360226D01*
X69366015Y58577949D01*
X69366015Y58577951D01*
X69297895Y58787606D01*
X69197815Y58984022D01*
X69068242Y59162365D01*
X68912365Y59318242D01*
X68734022Y59447815D01*
X68734021Y59447816D01*
X68734019Y59447817D01*
X68644825Y59493264D01*
X68537606Y59547895D01*
X68537602Y59547896D01*
X68537599Y59547898D01*
X68327948Y59616016D01*
X68110225Y59650500D01*
X68110222Y59650500D01*
X67889778Y59650500D01*
X67889775Y59650500D01*
X67672051Y59616016D01*
X67462400Y59547898D01*
X67265980Y59447817D01*
X67257802Y59441875D01*
X67087635Y59318242D01*
X66931758Y59162365D01*
X66866971Y59073194D01*
X66802183Y58984020D01*
X66702102Y58787600D01*
X66633984Y58577949D01*
X66599500Y58360226D01*
X61041654Y58360226D01*
X61005276Y58414669D01*
X60914669Y58505276D01*
X60872226Y58533635D01*
X60808133Y58576462D01*
X60808125Y58576466D01*
X60689747Y58625500D01*
X60689745Y58625501D01*
X60689744Y58625501D01*
X60564069Y58650500D01*
X60435931Y58650500D01*
X60435925Y58650500D01*
X60382119Y58639797D01*
X60337185Y58641268D01*
X60302729Y58650500D01*
X60302727Y58650500D01*
X15456899Y58650500D01*
X15398708Y58669407D01*
X15386895Y58679497D01*
X15179496Y58886897D01*
X15151719Y58941413D01*
X15150500Y58956900D01*
X15150500Y59189548D01*
X15169407Y59247739D01*
X15179497Y59259552D01*
X15255268Y59335323D01*
X15255276Y59335331D01*
X15326465Y59441873D01*
X15375501Y59560256D01*
X15400500Y59685931D01*
X15400500Y59814069D01*
X15375501Y59939744D01*
X15326465Y60058127D01*
X15326463Y60058130D01*
X15326461Y60058134D01*
X15297717Y60101152D01*
X15255276Y60164669D01*
X15164669Y60255276D01*
X15122226Y60283635D01*
X15058133Y60326462D01*
X15058125Y60326466D01*
X14939747Y60375500D01*
X14939745Y60375501D01*
X14939744Y60375501D01*
X14814069Y60400500D01*
X14685931Y60400500D01*
X14685930Y60400500D01*
X14623093Y60388001D01*
X14560256Y60375501D01*
X14560255Y60375501D01*
X14560252Y60375500D01*
X14441874Y60326466D01*
X14441866Y60326462D01*
X14335331Y60255276D01*
X14335327Y60255273D01*
X14244727Y60164673D01*
X14244724Y60164669D01*
X14173538Y60058134D01*
X14173534Y60058126D01*
X14124500Y59939748D01*
X14124499Y59939745D01*
X14124499Y59939744D01*
X14099500Y59814069D01*
X3500500Y59814069D01*
X3500500Y65065892D01*
X3466392Y65193186D01*
X3466390Y65193189D01*
X3466390Y65193191D01*
X3400503Y65307310D01*
X3400499Y65307315D01*
X3307314Y65400501D01*
X3307314Y65400500D01*
X529496Y68178318D01*
X501719Y68232835D01*
X500500Y68248322D01*
X500500Y74997835D01*
X500594Y75002153D01*
X510433Y75227502D01*
X517434Y75387856D01*
X518184Y75396432D01*
X568295Y75777058D01*
X569791Y75785541D01*
X652883Y76160345D01*
X655115Y76168674D01*
X770553Y76534798D01*
X773507Y76542914D01*
X785072Y76570834D01*
X920421Y76897597D01*
X924056Y76905391D01*
X1101325Y77245921D01*
X1105632Y77253382D01*
X1311913Y77577180D01*
X1316851Y77584231D01*
X1550564Y77888811D01*
X1556083Y77895388D01*
X1815481Y78178472D01*
X1821528Y78184519D01*
X2104612Y78443917D01*
X2111189Y78449436D01*
X2415769Y78683149D01*
X2422820Y78688087D01*
X2746618Y78894368D01*
X2754079Y78898675D01*
X3094609Y79075944D01*
X3102403Y79079579D01*
X3457093Y79226496D01*
X3465194Y79229445D01*
X3831334Y79344888D01*
X3839655Y79347117D01*
X4214459Y79430209D01*
X4222942Y79431705D01*
X4603568Y79481816D01*
X4612144Y79482566D01*
X4997847Y79499407D01*
X5002165Y79499500D01*
X5065892Y79499500D01*
X74934108Y79499500D01*
X74997835Y79499500D01*
X75002152Y79499407D01*
G37*
%TD.AperFunction*%
%TD*%
M02*
