%TF.GenerationSoftware,KiCad,Pcbnew,9.0.2*%
%TF.CreationDate,2026-04-14T09:57:45-07:00*%
%TF.ProjectId,ANTS-Power-board,414e5453-2d50-46f7-9765-722d626f6172,rev?*%
%TF.SameCoordinates,Original*%
%TF.FileFunction,Legend,Top*%
%TF.FilePolarity,Positive*%
%FSLAX46Y46*%
G04 Gerber Fmt 4.6, Leading zero omitted, Abs format (unit mm)*
G04 Created by KiCad (PCBNEW 9.0.2) date 2026-04-14 09:57:45*
%MOMM*%
%LPD*%
G01*
G04 APERTURE LIST*
%ADD10C,0.100000*%
%ADD11C,0.200000*%
%ADD12C,0.300000*%
%ADD13C,0.150000*%
%ADD14C,0.120000*%
%ADD15C,0.250000*%
%ADD16C,0.060000*%
G04 APERTURE END LIST*
D10*
X7372419Y44089599D02*
X8086704Y44089599D01*
X8086704Y44089599D02*
X8229561Y44041980D01*
X8229561Y44041980D02*
X8324800Y43946742D01*
X8324800Y43946742D02*
X8372419Y43803885D01*
X8372419Y43803885D02*
X8372419Y43708647D01*
X8372419Y45041980D02*
X8372419Y44565790D01*
X8372419Y44565790D02*
X7372419Y44565790D01*
X8277180Y45946742D02*
X8324800Y45899123D01*
X8324800Y45899123D02*
X8372419Y45756266D01*
X8372419Y45756266D02*
X8372419Y45661028D01*
X8372419Y45661028D02*
X8324800Y45518171D01*
X8324800Y45518171D02*
X8229561Y45422933D01*
X8229561Y45422933D02*
X8134323Y45375314D01*
X8134323Y45375314D02*
X7943847Y45327695D01*
X7943847Y45327695D02*
X7800990Y45327695D01*
X7800990Y45327695D02*
X7610514Y45375314D01*
X7610514Y45375314D02*
X7515276Y45422933D01*
X7515276Y45422933D02*
X7420038Y45518171D01*
X7420038Y45518171D02*
X7372419Y45661028D01*
X7372419Y45661028D02*
X7372419Y45756266D01*
X7372419Y45756266D02*
X7420038Y45899123D01*
X7420038Y45899123D02*
X7467657Y45946742D01*
X7372419Y46661028D02*
X8086704Y46661028D01*
X8086704Y46661028D02*
X8229561Y46613409D01*
X8229561Y46613409D02*
X8324800Y46518171D01*
X8324800Y46518171D02*
X8372419Y46375314D01*
X8372419Y46375314D02*
X8372419Y46280076D01*
X8372419Y47613409D02*
X8372419Y47137219D01*
X8372419Y47137219D02*
X7372419Y47137219D01*
X8277180Y48518171D02*
X8324800Y48470552D01*
X8324800Y48470552D02*
X8372419Y48327695D01*
X8372419Y48327695D02*
X8372419Y48232457D01*
X8372419Y48232457D02*
X8324800Y48089600D01*
X8324800Y48089600D02*
X8229561Y47994362D01*
X8229561Y47994362D02*
X8134323Y47946743D01*
X8134323Y47946743D02*
X7943847Y47899124D01*
X7943847Y47899124D02*
X7800990Y47899124D01*
X7800990Y47899124D02*
X7610514Y47946743D01*
X7610514Y47946743D02*
X7515276Y47994362D01*
X7515276Y47994362D02*
X7420038Y48089600D01*
X7420038Y48089600D02*
X7372419Y48232457D01*
X7372419Y48232457D02*
X7372419Y48327695D01*
X7372419Y48327695D02*
X7420038Y48470552D01*
X7420038Y48470552D02*
X7467657Y48518171D01*
X7372419Y49232457D02*
X8086704Y49232457D01*
X8086704Y49232457D02*
X8229561Y49184838D01*
X8229561Y49184838D02*
X8324800Y49089600D01*
X8324800Y49089600D02*
X8372419Y48946743D01*
X8372419Y48946743D02*
X8372419Y48851505D01*
X8372419Y50184838D02*
X8372419Y49708648D01*
X8372419Y49708648D02*
X7372419Y49708648D01*
X8277180Y51089600D02*
X8324800Y51041981D01*
X8324800Y51041981D02*
X8372419Y50899124D01*
X8372419Y50899124D02*
X8372419Y50803886D01*
X8372419Y50803886D02*
X8324800Y50661029D01*
X8324800Y50661029D02*
X8229561Y50565791D01*
X8229561Y50565791D02*
X8134323Y50518172D01*
X8134323Y50518172D02*
X7943847Y50470553D01*
X7943847Y50470553D02*
X7800990Y50470553D01*
X7800990Y50470553D02*
X7610514Y50518172D01*
X7610514Y50518172D02*
X7515276Y50565791D01*
X7515276Y50565791D02*
X7420038Y50661029D01*
X7420038Y50661029D02*
X7372419Y50803886D01*
X7372419Y50803886D02*
X7372419Y50899124D01*
X7372419Y50899124D02*
X7420038Y51041981D01*
X7420038Y51041981D02*
X7467657Y51089600D01*
X7372419Y51803886D02*
X8086704Y51803886D01*
X8086704Y51803886D02*
X8229561Y51756267D01*
X8229561Y51756267D02*
X8324800Y51661029D01*
X8324800Y51661029D02*
X8372419Y51518172D01*
X8372419Y51518172D02*
X8372419Y51422934D01*
X8372419Y52756267D02*
X8372419Y52280077D01*
X8372419Y52280077D02*
X7372419Y52280077D01*
X8277180Y53661029D02*
X8324800Y53613410D01*
X8324800Y53613410D02*
X8372419Y53470553D01*
X8372419Y53470553D02*
X8372419Y53375315D01*
X8372419Y53375315D02*
X8324800Y53232458D01*
X8324800Y53232458D02*
X8229561Y53137220D01*
X8229561Y53137220D02*
X8134323Y53089601D01*
X8134323Y53089601D02*
X7943847Y53041982D01*
X7943847Y53041982D02*
X7800990Y53041982D01*
X7800990Y53041982D02*
X7610514Y53089601D01*
X7610514Y53089601D02*
X7515276Y53137220D01*
X7515276Y53137220D02*
X7420038Y53232458D01*
X7420038Y53232458D02*
X7372419Y53375315D01*
X7372419Y53375315D02*
X7372419Y53470553D01*
X7372419Y53470553D02*
X7420038Y53613410D01*
X7420038Y53613410D02*
X7467657Y53661029D01*
X8000000Y58000000D02*
X8000000Y57000000D01*
X8000000Y41000000D02*
X8000000Y39000000D01*
X15000000Y39500000D02*
X65000000Y39500000D01*
X8000000Y23000000D02*
X8000000Y22000000D01*
X27030074Y37877581D02*
X26553884Y37877581D01*
X26553884Y37877581D02*
X26553884Y38877581D01*
X27363408Y38401391D02*
X27696741Y38401391D01*
X27839598Y37877581D02*
X27363408Y37877581D01*
X27363408Y37877581D02*
X27363408Y38877581D01*
X27363408Y38877581D02*
X27839598Y38877581D01*
X28220551Y38163296D02*
X28696741Y38163296D01*
X28125313Y37877581D02*
X28458646Y38877581D01*
X28458646Y38877581D02*
X28791979Y37877581D01*
X28982456Y38877581D02*
X29315789Y37877581D01*
X29315789Y37877581D02*
X29649122Y38877581D01*
X29982456Y38401391D02*
X30315789Y38401391D01*
X30458646Y37877581D02*
X29982456Y37877581D01*
X29982456Y37877581D02*
X29982456Y38877581D01*
X29982456Y38877581D02*
X30458646Y38877581D01*
X32220551Y37972820D02*
X32172932Y37925200D01*
X32172932Y37925200D02*
X32030075Y37877581D01*
X32030075Y37877581D02*
X31934837Y37877581D01*
X31934837Y37877581D02*
X31791980Y37925200D01*
X31791980Y37925200D02*
X31696742Y38020439D01*
X31696742Y38020439D02*
X31649123Y38115677D01*
X31649123Y38115677D02*
X31601504Y38306153D01*
X31601504Y38306153D02*
X31601504Y38449010D01*
X31601504Y38449010D02*
X31649123Y38639486D01*
X31649123Y38639486D02*
X31696742Y38734724D01*
X31696742Y38734724D02*
X31791980Y38829962D01*
X31791980Y38829962D02*
X31934837Y38877581D01*
X31934837Y38877581D02*
X32030075Y38877581D01*
X32030075Y38877581D02*
X32172932Y38829962D01*
X32172932Y38829962D02*
X32220551Y38782343D01*
X33125313Y37877581D02*
X32649123Y37877581D01*
X32649123Y37877581D02*
X32649123Y38877581D01*
X33458647Y38401391D02*
X33791980Y38401391D01*
X33934837Y37877581D02*
X33458647Y37877581D01*
X33458647Y37877581D02*
X33458647Y38877581D01*
X33458647Y38877581D02*
X33934837Y38877581D01*
X34315790Y38163296D02*
X34791980Y38163296D01*
X34220552Y37877581D02*
X34553885Y38877581D01*
X34553885Y38877581D02*
X34887218Y37877581D01*
X35791980Y37877581D02*
X35458647Y38353772D01*
X35220552Y37877581D02*
X35220552Y38877581D01*
X35220552Y38877581D02*
X35601504Y38877581D01*
X35601504Y38877581D02*
X35696742Y38829962D01*
X35696742Y38829962D02*
X35744361Y38782343D01*
X35744361Y38782343D02*
X35791980Y38687105D01*
X35791980Y38687105D02*
X35791980Y38544248D01*
X35791980Y38544248D02*
X35744361Y38449010D01*
X35744361Y38449010D02*
X35696742Y38401391D01*
X35696742Y38401391D02*
X35601504Y38353772D01*
X35601504Y38353772D02*
X35220552Y38353772D01*
X36172933Y38163296D02*
X36649123Y38163296D01*
X36077695Y37877581D02*
X36411028Y38877581D01*
X36411028Y38877581D02*
X36744361Y37877581D01*
X37077695Y37877581D02*
X37077695Y38877581D01*
X37077695Y38877581D02*
X37649123Y37877581D01*
X37649123Y37877581D02*
X37649123Y38877581D01*
X38696742Y37972820D02*
X38649123Y37925200D01*
X38649123Y37925200D02*
X38506266Y37877581D01*
X38506266Y37877581D02*
X38411028Y37877581D01*
X38411028Y37877581D02*
X38268171Y37925200D01*
X38268171Y37925200D02*
X38172933Y38020439D01*
X38172933Y38020439D02*
X38125314Y38115677D01*
X38125314Y38115677D02*
X38077695Y38306153D01*
X38077695Y38306153D02*
X38077695Y38449010D01*
X38077695Y38449010D02*
X38125314Y38639486D01*
X38125314Y38639486D02*
X38172933Y38734724D01*
X38172933Y38734724D02*
X38268171Y38829962D01*
X38268171Y38829962D02*
X38411028Y38877581D01*
X38411028Y38877581D02*
X38506266Y38877581D01*
X38506266Y38877581D02*
X38649123Y38829962D01*
X38649123Y38829962D02*
X38696742Y38782343D01*
X39125314Y38401391D02*
X39458647Y38401391D01*
X39601504Y37877581D02*
X39125314Y37877581D01*
X39125314Y37877581D02*
X39125314Y38877581D01*
X39125314Y38877581D02*
X39601504Y38877581D01*
X41125314Y38401391D02*
X40791981Y38401391D01*
X40791981Y37877581D02*
X40791981Y38877581D01*
X40791981Y38877581D02*
X41268171Y38877581D01*
X41839600Y38877581D02*
X42030076Y38877581D01*
X42030076Y38877581D02*
X42125314Y38829962D01*
X42125314Y38829962D02*
X42220552Y38734724D01*
X42220552Y38734724D02*
X42268171Y38544248D01*
X42268171Y38544248D02*
X42268171Y38210915D01*
X42268171Y38210915D02*
X42220552Y38020439D01*
X42220552Y38020439D02*
X42125314Y37925200D01*
X42125314Y37925200D02*
X42030076Y37877581D01*
X42030076Y37877581D02*
X41839600Y37877581D01*
X41839600Y37877581D02*
X41744362Y37925200D01*
X41744362Y37925200D02*
X41649124Y38020439D01*
X41649124Y38020439D02*
X41601505Y38210915D01*
X41601505Y38210915D02*
X41601505Y38544248D01*
X41601505Y38544248D02*
X41649124Y38734724D01*
X41649124Y38734724D02*
X41744362Y38829962D01*
X41744362Y38829962D02*
X41839600Y38877581D01*
X43268171Y37877581D02*
X42934838Y38353772D01*
X42696743Y37877581D02*
X42696743Y38877581D01*
X42696743Y38877581D02*
X43077695Y38877581D01*
X43077695Y38877581D02*
X43172933Y38829962D01*
X43172933Y38829962D02*
X43220552Y38782343D01*
X43220552Y38782343D02*
X43268171Y38687105D01*
X43268171Y38687105D02*
X43268171Y38544248D01*
X43268171Y38544248D02*
X43220552Y38449010D01*
X43220552Y38449010D02*
X43172933Y38401391D01*
X43172933Y38401391D02*
X43077695Y38353772D01*
X43077695Y38353772D02*
X42696743Y38353772D01*
X45030076Y37972820D02*
X44982457Y37925200D01*
X44982457Y37925200D02*
X44839600Y37877581D01*
X44839600Y37877581D02*
X44744362Y37877581D01*
X44744362Y37877581D02*
X44601505Y37925200D01*
X44601505Y37925200D02*
X44506267Y38020439D01*
X44506267Y38020439D02*
X44458648Y38115677D01*
X44458648Y38115677D02*
X44411029Y38306153D01*
X44411029Y38306153D02*
X44411029Y38449010D01*
X44411029Y38449010D02*
X44458648Y38639486D01*
X44458648Y38639486D02*
X44506267Y38734724D01*
X44506267Y38734724D02*
X44601505Y38829962D01*
X44601505Y38829962D02*
X44744362Y38877581D01*
X44744362Y38877581D02*
X44839600Y38877581D01*
X44839600Y38877581D02*
X44982457Y38829962D01*
X44982457Y38829962D02*
X45030076Y38782343D01*
X45411029Y38163296D02*
X45887219Y38163296D01*
X45315791Y37877581D02*
X45649124Y38877581D01*
X45649124Y38877581D02*
X45982457Y37877581D01*
X46649124Y38401391D02*
X46791981Y38353772D01*
X46791981Y38353772D02*
X46839600Y38306153D01*
X46839600Y38306153D02*
X46887219Y38210915D01*
X46887219Y38210915D02*
X46887219Y38068058D01*
X46887219Y38068058D02*
X46839600Y37972820D01*
X46839600Y37972820D02*
X46791981Y37925200D01*
X46791981Y37925200D02*
X46696743Y37877581D01*
X46696743Y37877581D02*
X46315791Y37877581D01*
X46315791Y37877581D02*
X46315791Y38877581D01*
X46315791Y38877581D02*
X46649124Y38877581D01*
X46649124Y38877581D02*
X46744362Y38829962D01*
X46744362Y38829962D02*
X46791981Y38782343D01*
X46791981Y38782343D02*
X46839600Y38687105D01*
X46839600Y38687105D02*
X46839600Y38591867D01*
X46839600Y38591867D02*
X46791981Y38496629D01*
X46791981Y38496629D02*
X46744362Y38449010D01*
X46744362Y38449010D02*
X46649124Y38401391D01*
X46649124Y38401391D02*
X46315791Y38401391D01*
X47791981Y37877581D02*
X47315791Y37877581D01*
X47315791Y37877581D02*
X47315791Y38877581D01*
X48125315Y38401391D02*
X48458648Y38401391D01*
X48601505Y37877581D02*
X48125315Y37877581D01*
X48125315Y37877581D02*
X48125315Y38877581D01*
X48125315Y38877581D02*
X48601505Y38877581D01*
X50125315Y38401391D02*
X50268172Y38353772D01*
X50268172Y38353772D02*
X50315791Y38306153D01*
X50315791Y38306153D02*
X50363410Y38210915D01*
X50363410Y38210915D02*
X50363410Y38068058D01*
X50363410Y38068058D02*
X50315791Y37972820D01*
X50315791Y37972820D02*
X50268172Y37925200D01*
X50268172Y37925200D02*
X50172934Y37877581D01*
X50172934Y37877581D02*
X49791982Y37877581D01*
X49791982Y37877581D02*
X49791982Y38877581D01*
X49791982Y38877581D02*
X50125315Y38877581D01*
X50125315Y38877581D02*
X50220553Y38829962D01*
X50220553Y38829962D02*
X50268172Y38782343D01*
X50268172Y38782343D02*
X50315791Y38687105D01*
X50315791Y38687105D02*
X50315791Y38591867D01*
X50315791Y38591867D02*
X50268172Y38496629D01*
X50268172Y38496629D02*
X50220553Y38449010D01*
X50220553Y38449010D02*
X50125315Y38401391D01*
X50125315Y38401391D02*
X49791982Y38401391D01*
X50791982Y38401391D02*
X51125315Y38401391D01*
X51268172Y37877581D02*
X50791982Y37877581D01*
X50791982Y37877581D02*
X50791982Y38877581D01*
X50791982Y38877581D02*
X51268172Y38877581D01*
X51696744Y37877581D02*
X51696744Y38877581D01*
X51696744Y38877581D02*
X52268172Y37877581D01*
X52268172Y37877581D02*
X52268172Y38877581D01*
X52744363Y37877581D02*
X52744363Y38877581D01*
X52744363Y38877581D02*
X52982458Y38877581D01*
X52982458Y38877581D02*
X53125315Y38829962D01*
X53125315Y38829962D02*
X53220553Y38734724D01*
X53220553Y38734724D02*
X53268172Y38639486D01*
X53268172Y38639486D02*
X53315791Y38449010D01*
X53315791Y38449010D02*
X53315791Y38306153D01*
X53315791Y38306153D02*
X53268172Y38115677D01*
X53268172Y38115677D02*
X53220553Y38020439D01*
X53220553Y38020439D02*
X53125315Y37925200D01*
X53125315Y37925200D02*
X52982458Y37877581D01*
X52982458Y37877581D02*
X52744363Y37877581D01*
X53696744Y37925200D02*
X53839601Y37877581D01*
X53839601Y37877581D02*
X54077696Y37877581D01*
X54077696Y37877581D02*
X54172934Y37925200D01*
X54172934Y37925200D02*
X54220553Y37972820D01*
X54220553Y37972820D02*
X54268172Y38068058D01*
X54268172Y38068058D02*
X54268172Y38163296D01*
X54268172Y38163296D02*
X54220553Y38258534D01*
X54220553Y38258534D02*
X54172934Y38306153D01*
X54172934Y38306153D02*
X54077696Y38353772D01*
X54077696Y38353772D02*
X53887220Y38401391D01*
X53887220Y38401391D02*
X53791982Y38449010D01*
X53791982Y38449010D02*
X53744363Y38496629D01*
X53744363Y38496629D02*
X53696744Y38591867D01*
X53696744Y38591867D02*
X53696744Y38687105D01*
X53696744Y38687105D02*
X53744363Y38782343D01*
X53744363Y38782343D02*
X53791982Y38829962D01*
X53791982Y38829962D02*
X53887220Y38877581D01*
X53887220Y38877581D02*
X54125315Y38877581D01*
X54125315Y38877581D02*
X54268172Y38829962D01*
D11*
G36*
X7339517Y39422455D02*
G01*
X5158096Y39422455D01*
X5158096Y40620274D01*
X5269207Y40620274D01*
X5273554Y40601158D01*
X5606887Y39601159D01*
X5614878Y39583258D01*
X5619561Y39577859D01*
X5622756Y39571469D01*
X5632227Y39563254D01*
X5640443Y39553782D01*
X5646831Y39550588D01*
X5652232Y39545904D01*
X5664133Y39541937D01*
X5675342Y39536333D01*
X5682466Y39535827D01*
X5689248Y39533566D01*
X5701757Y39534456D01*
X5714262Y39533566D01*
X5721040Y39535826D01*
X5728168Y39536332D01*
X5739384Y39541941D01*
X5751278Y39545905D01*
X5756675Y39550586D01*
X5763067Y39553782D01*
X5771285Y39563258D01*
X5780754Y39571470D01*
X5783947Y39577857D01*
X5788632Y39583258D01*
X5796623Y39601158D01*
X5940651Y40033243D01*
X6270343Y40033243D01*
X6270343Y39994225D01*
X6285275Y39958177D01*
X6312865Y39930587D01*
X6348913Y39915655D01*
X6368422Y39913734D01*
X7130327Y39913734D01*
X7149836Y39915655D01*
X7185884Y39930587D01*
X7213474Y39958177D01*
X7228406Y39994225D01*
X7228406Y40033243D01*
X7213474Y40069291D01*
X7185884Y40096881D01*
X7149836Y40111813D01*
X7130327Y40113734D01*
X6368422Y40113734D01*
X6348913Y40111813D01*
X6312865Y40096881D01*
X6285275Y40069291D01*
X6270343Y40033243D01*
X5940651Y40033243D01*
X6129956Y40601158D01*
X6134303Y40620273D01*
X6131537Y40659193D01*
X6114087Y40694092D01*
X6084611Y40719657D01*
X6047595Y40731996D01*
X6008675Y40729229D01*
X5973776Y40711780D01*
X5948211Y40682304D01*
X5940220Y40664403D01*
X5701755Y39949009D01*
X5463290Y40664404D01*
X5455299Y40682304D01*
X5429734Y40711780D01*
X5394835Y40729230D01*
X5355915Y40731996D01*
X5318899Y40719658D01*
X5289423Y40694093D01*
X5271973Y40659194D01*
X5269207Y40620274D01*
X5158096Y40620274D01*
X5158096Y40843107D01*
X7339517Y40843107D01*
X7339517Y39422455D01*
G37*
D12*
G36*
X74367495Y18971930D02*
G01*
X72234161Y18971930D01*
X72234161Y19886408D01*
X72760853Y19886408D01*
X72760853Y19827880D01*
X72783251Y19773808D01*
X72824635Y19732424D01*
X72878707Y19710026D01*
X72907971Y19707144D01*
X73329400Y19707144D01*
X73329400Y19285715D01*
X73332282Y19256451D01*
X73354680Y19202379D01*
X73396064Y19160995D01*
X73450136Y19138597D01*
X73508664Y19138597D01*
X73562736Y19160995D01*
X73604120Y19202379D01*
X73626518Y19256451D01*
X73629400Y19285715D01*
X73629400Y19707144D01*
X74050828Y19707144D01*
X74080092Y19710026D01*
X74134164Y19732424D01*
X74175548Y19773808D01*
X74197946Y19827880D01*
X74197946Y19886408D01*
X74175548Y19940480D01*
X74134164Y19981864D01*
X74080092Y20004262D01*
X74050828Y20007144D01*
X73629400Y20007144D01*
X73629400Y20428572D01*
X73626518Y20457836D01*
X73604120Y20511908D01*
X73562736Y20553292D01*
X73508664Y20575690D01*
X73450136Y20575690D01*
X73396064Y20553292D01*
X73354680Y20511908D01*
X73332282Y20457836D01*
X73329400Y20428572D01*
X73329400Y20007144D01*
X72907971Y20007144D01*
X72878707Y20004262D01*
X72824635Y19981864D01*
X72783251Y19940480D01*
X72760853Y19886408D01*
X72234161Y19886408D01*
X72234161Y23071430D01*
X72400828Y23071430D01*
X72400828Y22142858D01*
X72403710Y22113594D01*
X72426108Y22059522D01*
X72467492Y22018138D01*
X72521564Y21995740D01*
X72580092Y21995740D01*
X72634164Y22018138D01*
X72675548Y22059522D01*
X72697946Y22113594D01*
X72700828Y22142858D01*
X72700828Y22740865D01*
X73023481Y22458544D01*
X73036130Y22449501D01*
X73038921Y22446710D01*
X73041565Y22445615D01*
X73047402Y22441442D01*
X73070481Y22433637D01*
X73092993Y22424312D01*
X73098055Y22424312D01*
X73102845Y22422692D01*
X73127145Y22424312D01*
X73151521Y22424312D01*
X73156196Y22426249D01*
X73161241Y22426585D01*
X73183076Y22437384D01*
X73205593Y22446710D01*
X73209169Y22450287D01*
X73213704Y22452529D01*
X73229747Y22470865D01*
X73246977Y22488094D01*
X73248913Y22492769D01*
X73252245Y22496576D01*
X73260048Y22519652D01*
X73269375Y22542166D01*
X73270078Y22549308D01*
X73270995Y22552018D01*
X73270732Y22555953D01*
X73272257Y22571430D01*
X73272257Y22750306D01*
X73316962Y22839718D01*
X73353968Y22876724D01*
X73443381Y22921430D01*
X73729704Y22921430D01*
X73819117Y22876723D01*
X73856121Y22839719D01*
X73900828Y22750306D01*
X73900828Y22392554D01*
X73856121Y22303141D01*
X73801905Y22248924D01*
X73783250Y22226193D01*
X73760853Y22172121D01*
X73760853Y22113595D01*
X73783250Y22059523D01*
X73824636Y22018137D01*
X73878708Y21995740D01*
X73937234Y21995740D01*
X73991306Y22018137D01*
X74014037Y22036792D01*
X74085466Y22108221D01*
X74094907Y22119726D01*
X74097899Y22122320D01*
X74100737Y22126830D01*
X74104121Y22130952D01*
X74105637Y22134614D01*
X74113564Y22147205D01*
X74184992Y22290063D01*
X74195502Y22317526D01*
X74195883Y22322902D01*
X74197946Y22327880D01*
X74200828Y22357144D01*
X74200828Y22785715D01*
X74197946Y22814979D01*
X74195883Y22819958D01*
X74195502Y22825333D01*
X74184992Y22852796D01*
X74113564Y22995654D01*
X74105637Y23008246D01*
X74104121Y23011907D01*
X74100737Y23016030D01*
X74097899Y23020539D01*
X74094907Y23023134D01*
X74085466Y23034638D01*
X74014037Y23106067D01*
X74002535Y23115507D01*
X73999939Y23118500D01*
X73995425Y23121341D01*
X73991306Y23124722D01*
X73987646Y23126238D01*
X73975053Y23134165D01*
X73832196Y23205594D01*
X73804733Y23216103D01*
X73799358Y23216485D01*
X73794378Y23218548D01*
X73765114Y23221430D01*
X73407971Y23221430D01*
X73378707Y23218548D01*
X73373726Y23216485D01*
X73368352Y23216103D01*
X73340888Y23205594D01*
X73198032Y23134165D01*
X73185438Y23126238D01*
X73181779Y23124722D01*
X73177659Y23121341D01*
X73173146Y23118500D01*
X73170549Y23115506D01*
X73159048Y23106067D01*
X73087619Y23034638D01*
X73078179Y23023137D01*
X73075186Y23020540D01*
X73072345Y23016027D01*
X73068964Y23011907D01*
X73067448Y23008248D01*
X73059521Y22995654D01*
X73000385Y22877383D01*
X72649604Y23184317D01*
X72636953Y23193361D01*
X72634164Y23196150D01*
X72631518Y23197247D01*
X72625682Y23201418D01*
X72602600Y23209225D01*
X72580092Y23218548D01*
X72575033Y23218548D01*
X72570240Y23220169D01*
X72545931Y23218548D01*
X72521564Y23218548D01*
X72516888Y23216612D01*
X72511844Y23216275D01*
X72490008Y23205477D01*
X72467492Y23196150D01*
X72463915Y23192574D01*
X72459381Y23190331D01*
X72443337Y23171996D01*
X72426108Y23154766D01*
X72424171Y23150092D01*
X72420840Y23146284D01*
X72413033Y23123203D01*
X72403710Y23100694D01*
X72403007Y23093557D01*
X72402089Y23090842D01*
X72402351Y23086903D01*
X72400828Y23071430D01*
X72234161Y23071430D01*
X72234161Y24518762D01*
X72402006Y24518762D01*
X72406155Y24460381D01*
X72432329Y24408034D01*
X72476543Y24369687D01*
X72503394Y24357699D01*
X73576485Y24000001D01*
X72503394Y23642303D01*
X72476543Y23630315D01*
X72432329Y23591968D01*
X72406155Y23539621D01*
X72402006Y23481240D01*
X72420514Y23425716D01*
X72458861Y23381502D01*
X72511208Y23355328D01*
X72569589Y23351179D01*
X72598262Y23357699D01*
X74098262Y23857699D01*
X74125113Y23869687D01*
X74133210Y23876710D01*
X74142795Y23881502D01*
X74155116Y23895709D01*
X74169328Y23908034D01*
X74174121Y23917622D01*
X74181142Y23925716D01*
X74187090Y23943561D01*
X74195501Y23960382D01*
X74196260Y23971070D01*
X74199651Y23981240D01*
X74198317Y24000001D01*
X74199651Y24018762D01*
X74196260Y24028933D01*
X74195501Y24039620D01*
X74187090Y24056442D01*
X74181142Y24074286D01*
X74174121Y24082381D01*
X74169328Y24091968D01*
X74155116Y24104294D01*
X74142795Y24118500D01*
X74133210Y24123293D01*
X74125113Y24130315D01*
X74098262Y24142303D01*
X72598262Y24642303D01*
X72569589Y24648823D01*
X72511208Y24644674D01*
X72458861Y24618500D01*
X72420514Y24574286D01*
X72402006Y24518762D01*
X72234161Y24518762D01*
X72234161Y25785715D01*
X72400828Y25785715D01*
X72400828Y24857143D01*
X72403710Y24827879D01*
X72426108Y24773807D01*
X72467492Y24732423D01*
X72521564Y24710025D01*
X72580092Y24710025D01*
X72634164Y24732423D01*
X72675548Y24773807D01*
X72697946Y24827879D01*
X72700828Y24857143D01*
X72700828Y25455150D01*
X73023481Y25172829D01*
X73036130Y25163786D01*
X73038921Y25160995D01*
X73041565Y25159900D01*
X73047402Y25155727D01*
X73070481Y25147922D01*
X73092993Y25138597D01*
X73098055Y25138597D01*
X73102845Y25136977D01*
X73127145Y25138597D01*
X73151521Y25138597D01*
X73156196Y25140534D01*
X73161241Y25140870D01*
X73183076Y25151669D01*
X73205593Y25160995D01*
X73209169Y25164572D01*
X73213704Y25166814D01*
X73229747Y25185150D01*
X73246977Y25202379D01*
X73248913Y25207054D01*
X73252245Y25210861D01*
X73260048Y25233937D01*
X73269375Y25256451D01*
X73270078Y25263593D01*
X73270995Y25266303D01*
X73270732Y25270238D01*
X73272257Y25285715D01*
X73272257Y25464591D01*
X73316962Y25554003D01*
X73353968Y25591009D01*
X73443381Y25635715D01*
X73729704Y25635715D01*
X73819117Y25591008D01*
X73856121Y25554004D01*
X73900828Y25464591D01*
X73900828Y25106839D01*
X73856121Y25017426D01*
X73801905Y24963209D01*
X73783250Y24940478D01*
X73760853Y24886406D01*
X73760853Y24827880D01*
X73783250Y24773808D01*
X73824636Y24732422D01*
X73878708Y24710025D01*
X73937234Y24710025D01*
X73991306Y24732422D01*
X74014037Y24751077D01*
X74085466Y24822506D01*
X74094907Y24834011D01*
X74097899Y24836605D01*
X74100737Y24841115D01*
X74104121Y24845237D01*
X74105637Y24848899D01*
X74113564Y24861490D01*
X74184992Y25004348D01*
X74195502Y25031811D01*
X74195883Y25037187D01*
X74197946Y25042165D01*
X74200828Y25071429D01*
X74200828Y25500000D01*
X74197946Y25529264D01*
X74195883Y25534243D01*
X74195502Y25539618D01*
X74184992Y25567081D01*
X74113564Y25709939D01*
X74105637Y25722531D01*
X74104121Y25726192D01*
X74100737Y25730315D01*
X74097899Y25734824D01*
X74094907Y25737419D01*
X74085466Y25748923D01*
X74014037Y25820352D01*
X74002535Y25829792D01*
X73999939Y25832785D01*
X73995425Y25835626D01*
X73991306Y25839007D01*
X73987646Y25840523D01*
X73975053Y25848450D01*
X73832196Y25919879D01*
X73804733Y25930388D01*
X73799358Y25930770D01*
X73794378Y25932833D01*
X73765114Y25935715D01*
X73407971Y25935715D01*
X73378707Y25932833D01*
X73373726Y25930770D01*
X73368352Y25930388D01*
X73340888Y25919879D01*
X73198032Y25848450D01*
X73185438Y25840523D01*
X73181779Y25839007D01*
X73177659Y25835626D01*
X73173146Y25832785D01*
X73170549Y25829791D01*
X73159048Y25820352D01*
X73087619Y25748923D01*
X73078179Y25737422D01*
X73075186Y25734825D01*
X73072345Y25730312D01*
X73068964Y25726192D01*
X73067448Y25722533D01*
X73059521Y25709939D01*
X73000385Y25591668D01*
X72649604Y25898602D01*
X72636953Y25907646D01*
X72634164Y25910435D01*
X72631518Y25911532D01*
X72625682Y25915703D01*
X72602600Y25923510D01*
X72580092Y25932833D01*
X72575033Y25932833D01*
X72570240Y25934454D01*
X72545931Y25932833D01*
X72521564Y25932833D01*
X72516888Y25930897D01*
X72511844Y25930560D01*
X72490008Y25919762D01*
X72467492Y25910435D01*
X72463915Y25906859D01*
X72459381Y25904616D01*
X72443337Y25886281D01*
X72426108Y25869051D01*
X72424171Y25864377D01*
X72420840Y25860569D01*
X72413033Y25837488D01*
X72403710Y25814979D01*
X72403007Y25807842D01*
X72402089Y25805127D01*
X72402351Y25801188D01*
X72400828Y25785715D01*
X72234161Y25785715D01*
X72234161Y28714285D01*
X73329400Y28714285D01*
X73329400Y27571428D01*
X73332282Y27542164D01*
X73354680Y27488092D01*
X73396064Y27446708D01*
X73450136Y27424310D01*
X73508664Y27424310D01*
X73562736Y27446708D01*
X73604120Y27488092D01*
X73626518Y27542164D01*
X73629400Y27571428D01*
X73629400Y28714285D01*
X73626518Y28743549D01*
X73604120Y28797621D01*
X73562736Y28839005D01*
X73508664Y28861403D01*
X73450136Y28861403D01*
X73396064Y28839005D01*
X73354680Y28797621D01*
X73332282Y28743549D01*
X73329400Y28714285D01*
X72234161Y28714285D01*
X72234161Y29028070D01*
X74367495Y29028070D01*
X74367495Y18971930D01*
G37*
D10*
X12872419Y28803885D02*
X11872419Y28803885D01*
X11872419Y28803885D02*
X11872419Y29184837D01*
X11872419Y29184837D02*
X11920038Y29280075D01*
X11920038Y29280075D02*
X11967657Y29327694D01*
X11967657Y29327694D02*
X12062895Y29375313D01*
X12062895Y29375313D02*
X12205752Y29375313D01*
X12205752Y29375313D02*
X12300990Y29327694D01*
X12300990Y29327694D02*
X12348609Y29280075D01*
X12348609Y29280075D02*
X12396228Y29184837D01*
X12396228Y29184837D02*
X12396228Y28803885D01*
X12586704Y29756266D02*
X12586704Y30232456D01*
X12872419Y29661028D02*
X11872419Y29994361D01*
X11872419Y29994361D02*
X12872419Y30327694D01*
X12777180Y31232456D02*
X12824800Y31184837D01*
X12824800Y31184837D02*
X12872419Y31041980D01*
X12872419Y31041980D02*
X12872419Y30946742D01*
X12872419Y30946742D02*
X12824800Y30803885D01*
X12824800Y30803885D02*
X12729561Y30708647D01*
X12729561Y30708647D02*
X12634323Y30661028D01*
X12634323Y30661028D02*
X12443847Y30613409D01*
X12443847Y30613409D02*
X12300990Y30613409D01*
X12300990Y30613409D02*
X12110514Y30661028D01*
X12110514Y30661028D02*
X12015276Y30708647D01*
X12015276Y30708647D02*
X11920038Y30803885D01*
X11920038Y30803885D02*
X11872419Y30946742D01*
X11872419Y30946742D02*
X11872419Y31041980D01*
X11872419Y31041980D02*
X11920038Y31184837D01*
X11920038Y31184837D02*
X11967657Y31232456D01*
X12872419Y31661028D02*
X11872419Y31661028D01*
X12872419Y32232456D02*
X12300990Y31803885D01*
X11872419Y32232456D02*
X12443847Y31661028D01*
X11967657Y33375314D02*
X11920038Y33422933D01*
X11920038Y33422933D02*
X11872419Y33518171D01*
X11872419Y33518171D02*
X11872419Y33756266D01*
X11872419Y33756266D02*
X11920038Y33851504D01*
X11920038Y33851504D02*
X11967657Y33899123D01*
X11967657Y33899123D02*
X12062895Y33946742D01*
X12062895Y33946742D02*
X12158133Y33946742D01*
X12158133Y33946742D02*
X12300990Y33899123D01*
X12300990Y33899123D02*
X12872419Y33327695D01*
X12872419Y33327695D02*
X12872419Y33946742D01*
D12*
G36*
X74367495Y55686216D02*
G01*
X72234161Y55686216D01*
X72234161Y56600694D01*
X72760853Y56600694D01*
X72760853Y56542166D01*
X72783251Y56488094D01*
X72824635Y56446710D01*
X72878707Y56424312D01*
X72907971Y56421430D01*
X73329400Y56421430D01*
X73329400Y56000001D01*
X73332282Y55970737D01*
X73354680Y55916665D01*
X73396064Y55875281D01*
X73450136Y55852883D01*
X73508664Y55852883D01*
X73562736Y55875281D01*
X73604120Y55916665D01*
X73626518Y55970737D01*
X73629400Y56000001D01*
X73629400Y56421430D01*
X74050828Y56421430D01*
X74080092Y56424312D01*
X74134164Y56446710D01*
X74175548Y56488094D01*
X74197946Y56542166D01*
X74197946Y56600694D01*
X74175548Y56654766D01*
X74134164Y56696150D01*
X74080092Y56718548D01*
X74050828Y56721430D01*
X73629400Y56721430D01*
X73629400Y57142858D01*
X73626518Y57172122D01*
X73604120Y57226194D01*
X73562736Y57267578D01*
X73508664Y57289976D01*
X73450136Y57289976D01*
X73396064Y57267578D01*
X73354680Y57226194D01*
X73332282Y57172122D01*
X73329400Y57142858D01*
X73329400Y56721430D01*
X72907971Y56721430D01*
X72878707Y56718548D01*
X72824635Y56696150D01*
X72783251Y56654766D01*
X72760853Y56600694D01*
X72234161Y56600694D01*
X72234161Y59714287D01*
X72400828Y59714287D01*
X72400828Y59000001D01*
X72401893Y58989179D01*
X72401528Y58985521D01*
X72402605Y58981949D01*
X72403710Y58970737D01*
X72412101Y58950478D01*
X72418435Y58929489D01*
X72423216Y58923645D01*
X72426108Y58916665D01*
X72441613Y58901160D01*
X72455496Y58884192D01*
X72462151Y58880622D01*
X72467492Y58875281D01*
X72487749Y58866890D01*
X72507071Y58856525D01*
X72518118Y58854311D01*
X72521564Y58852883D01*
X72525238Y58852883D01*
X72535903Y58850745D01*
X73250188Y58779317D01*
X73279594Y58779273D01*
X73286828Y58781456D01*
X73294378Y58781456D01*
X73314631Y58789846D01*
X73335626Y58796180D01*
X73341470Y58800963D01*
X73348450Y58803853D01*
X73363956Y58819361D01*
X73380922Y58833241D01*
X73384492Y58839897D01*
X73389835Y58845239D01*
X73398225Y58865497D01*
X73408590Y58884816D01*
X73409341Y58892333D01*
X73412232Y58899311D01*
X73412231Y58921237D01*
X73414413Y58943053D01*
X73412231Y58950285D01*
X73412231Y58957837D01*
X73403840Y58978094D01*
X73397507Y58999085D01*
X73392724Y59004931D01*
X73389834Y59011909D01*
X73371179Y59034640D01*
X73316962Y59088857D01*
X73272257Y59178268D01*
X73272257Y59464592D01*
X73316962Y59554004D01*
X73353968Y59591010D01*
X73443381Y59635716D01*
X73729704Y59635716D01*
X73819117Y59591009D01*
X73856121Y59554005D01*
X73900828Y59464592D01*
X73900828Y59178268D01*
X73856122Y59088856D01*
X73801906Y59034640D01*
X73783251Y59011909D01*
X73760853Y58957837D01*
X73760853Y58899311D01*
X73783250Y58845239D01*
X73824635Y58803853D01*
X73878707Y58781455D01*
X73937233Y58781455D01*
X73991305Y58803852D01*
X74014036Y58822506D01*
X74085465Y58893934D01*
X74094907Y58905440D01*
X74097899Y58908034D01*
X74100738Y58912545D01*
X74104120Y58916665D01*
X74105635Y58920325D01*
X74113564Y58932919D01*
X74184992Y59075777D01*
X74195502Y59103240D01*
X74195883Y59108616D01*
X74197946Y59113594D01*
X74200828Y59142858D01*
X74200828Y59500001D01*
X74197946Y59529265D01*
X74195883Y59534244D01*
X74195502Y59539619D01*
X74184992Y59567082D01*
X74113564Y59709940D01*
X74105637Y59722532D01*
X74104121Y59726193D01*
X74100737Y59730316D01*
X74097899Y59734825D01*
X74094907Y59737420D01*
X74085466Y59748924D01*
X74014037Y59820353D01*
X74002535Y59829793D01*
X73999939Y59832786D01*
X73995425Y59835627D01*
X73991306Y59839008D01*
X73987646Y59840524D01*
X73975053Y59848451D01*
X73832196Y59919880D01*
X73804733Y59930389D01*
X73799358Y59930771D01*
X73794378Y59932834D01*
X73765114Y59935716D01*
X73407971Y59935716D01*
X73378707Y59932834D01*
X73373726Y59930771D01*
X73368352Y59930389D01*
X73340888Y59919880D01*
X73198032Y59848451D01*
X73185438Y59840524D01*
X73181779Y59839008D01*
X73177659Y59835627D01*
X73173146Y59832786D01*
X73170549Y59829792D01*
X73159048Y59820353D01*
X73087619Y59748924D01*
X73078179Y59737423D01*
X73075186Y59734826D01*
X73072345Y59730313D01*
X73068964Y59726193D01*
X73067448Y59722534D01*
X73059521Y59709940D01*
X72988093Y59567083D01*
X72977583Y59539619D01*
X72977201Y59534244D01*
X72975139Y59529265D01*
X72972257Y59500001D01*
X72972257Y59142858D01*
X72975139Y59113594D01*
X72977201Y59108616D01*
X72977237Y59108109D01*
X72700828Y59135750D01*
X72700828Y59714287D01*
X72697946Y59743551D01*
X72675548Y59797623D01*
X72634164Y59839007D01*
X72580092Y59861405D01*
X72521564Y59861405D01*
X72467492Y59839007D01*
X72426108Y59797623D01*
X72403710Y59743551D01*
X72400828Y59714287D01*
X72234161Y59714287D01*
X72234161Y61233048D01*
X72402006Y61233048D01*
X72406155Y61174667D01*
X72432329Y61122320D01*
X72476543Y61083973D01*
X72503394Y61071985D01*
X73576485Y60714287D01*
X72503394Y60356589D01*
X72476543Y60344601D01*
X72432329Y60306254D01*
X72406155Y60253907D01*
X72402006Y60195526D01*
X72420514Y60140002D01*
X72458861Y60095788D01*
X72511208Y60069614D01*
X72569589Y60065465D01*
X72598262Y60071985D01*
X74098262Y60571985D01*
X74125113Y60583973D01*
X74133210Y60590996D01*
X74142795Y60595788D01*
X74155116Y60609995D01*
X74169328Y60622320D01*
X74174121Y60631908D01*
X74181142Y60640002D01*
X74187090Y60657847D01*
X74195501Y60674668D01*
X74196260Y60685356D01*
X74199651Y60695526D01*
X74198317Y60714287D01*
X74199651Y60733048D01*
X74196260Y60743219D01*
X74195501Y60753906D01*
X74187090Y60770728D01*
X74181142Y60788572D01*
X74174121Y60796667D01*
X74169328Y60806254D01*
X74155116Y60818580D01*
X74142795Y60832786D01*
X74133210Y60837579D01*
X74125113Y60844601D01*
X74098262Y60856589D01*
X72598262Y61356589D01*
X72569589Y61363109D01*
X72511208Y61358960D01*
X72458861Y61332786D01*
X72420514Y61288572D01*
X72402006Y61233048D01*
X72234161Y61233048D01*
X72234161Y64000000D01*
X73329400Y64000000D01*
X73329400Y62857143D01*
X73332282Y62827879D01*
X73354680Y62773807D01*
X73396064Y62732423D01*
X73450136Y62710025D01*
X73508664Y62710025D01*
X73562736Y62732423D01*
X73604120Y62773807D01*
X73626518Y62827879D01*
X73629400Y62857143D01*
X73629400Y64000000D01*
X73626518Y64029264D01*
X73604120Y64083336D01*
X73562736Y64124720D01*
X73508664Y64147118D01*
X73450136Y64147118D01*
X73396064Y64124720D01*
X73354680Y64083336D01*
X73332282Y64029264D01*
X73329400Y64000000D01*
X72234161Y64000000D01*
X72234161Y64313785D01*
X74367495Y64313785D01*
X74367495Y55686216D01*
G37*
D10*
X12872419Y46803885D02*
X11872419Y46803885D01*
X11872419Y46803885D02*
X11872419Y47184837D01*
X11872419Y47184837D02*
X11920038Y47280075D01*
X11920038Y47280075D02*
X11967657Y47327694D01*
X11967657Y47327694D02*
X12062895Y47375313D01*
X12062895Y47375313D02*
X12205752Y47375313D01*
X12205752Y47375313D02*
X12300990Y47327694D01*
X12300990Y47327694D02*
X12348609Y47280075D01*
X12348609Y47280075D02*
X12396228Y47184837D01*
X12396228Y47184837D02*
X12396228Y46803885D01*
X12586704Y47756266D02*
X12586704Y48232456D01*
X12872419Y47661028D02*
X11872419Y47994361D01*
X11872419Y47994361D02*
X12872419Y48327694D01*
X12777180Y49232456D02*
X12824800Y49184837D01*
X12824800Y49184837D02*
X12872419Y49041980D01*
X12872419Y49041980D02*
X12872419Y48946742D01*
X12872419Y48946742D02*
X12824800Y48803885D01*
X12824800Y48803885D02*
X12729561Y48708647D01*
X12729561Y48708647D02*
X12634323Y48661028D01*
X12634323Y48661028D02*
X12443847Y48613409D01*
X12443847Y48613409D02*
X12300990Y48613409D01*
X12300990Y48613409D02*
X12110514Y48661028D01*
X12110514Y48661028D02*
X12015276Y48708647D01*
X12015276Y48708647D02*
X11920038Y48803885D01*
X11920038Y48803885D02*
X11872419Y48946742D01*
X11872419Y48946742D02*
X11872419Y49041980D01*
X11872419Y49041980D02*
X11920038Y49184837D01*
X11920038Y49184837D02*
X11967657Y49232456D01*
X12872419Y49661028D02*
X11872419Y49661028D01*
X12872419Y50232456D02*
X12300990Y49803885D01*
X11872419Y50232456D02*
X12443847Y49661028D01*
X12872419Y51946742D02*
X12872419Y51375314D01*
X12872419Y51661028D02*
X11872419Y51661028D01*
X11872419Y51661028D02*
X12015276Y51565790D01*
X12015276Y51565790D02*
X12110514Y51470552D01*
X12110514Y51470552D02*
X12158133Y51375314D01*
D11*
G36*
X10697911Y39422455D02*
G01*
X8516490Y39422455D01*
X8516490Y40620274D01*
X8627601Y40620274D01*
X8631948Y40601158D01*
X8965281Y39601159D01*
X8973272Y39583258D01*
X8977955Y39577859D01*
X8981150Y39571469D01*
X8990621Y39563254D01*
X8998837Y39553782D01*
X9005225Y39550588D01*
X9010626Y39545904D01*
X9022527Y39541937D01*
X9033736Y39536333D01*
X9040860Y39535827D01*
X9047642Y39533566D01*
X9060151Y39534456D01*
X9072656Y39533566D01*
X9079434Y39535826D01*
X9086562Y39536332D01*
X9097778Y39541941D01*
X9109672Y39545905D01*
X9115069Y39550586D01*
X9121461Y39553782D01*
X9129679Y39563258D01*
X9139148Y39571470D01*
X9142341Y39577857D01*
X9147026Y39583258D01*
X9155017Y39601158D01*
X9299045Y40033243D01*
X9628737Y40033243D01*
X9628737Y39994225D01*
X9643669Y39958177D01*
X9671259Y39930587D01*
X9707307Y39915655D01*
X9726816Y39913734D01*
X10007768Y39913734D01*
X10007768Y39632781D01*
X10009689Y39613272D01*
X10024621Y39577224D01*
X10052211Y39549634D01*
X10088259Y39534702D01*
X10127277Y39534702D01*
X10163325Y39549634D01*
X10190915Y39577224D01*
X10205847Y39613272D01*
X10207768Y39632781D01*
X10207768Y39913734D01*
X10488721Y39913734D01*
X10508230Y39915655D01*
X10544278Y39930587D01*
X10571868Y39958177D01*
X10586800Y39994225D01*
X10586800Y40033243D01*
X10571868Y40069291D01*
X10544278Y40096881D01*
X10508230Y40111813D01*
X10488721Y40113734D01*
X10207768Y40113734D01*
X10207768Y40394686D01*
X10205847Y40414195D01*
X10190915Y40450243D01*
X10163325Y40477833D01*
X10127277Y40492765D01*
X10088259Y40492765D01*
X10052211Y40477833D01*
X10024621Y40450243D01*
X10009689Y40414195D01*
X10007768Y40394686D01*
X10007768Y40113734D01*
X9726816Y40113734D01*
X9707307Y40111813D01*
X9671259Y40096881D01*
X9643669Y40069291D01*
X9628737Y40033243D01*
X9299045Y40033243D01*
X9488350Y40601158D01*
X9492697Y40620273D01*
X9489931Y40659193D01*
X9472481Y40694092D01*
X9443005Y40719657D01*
X9405989Y40731996D01*
X9367069Y40729229D01*
X9332170Y40711780D01*
X9306605Y40682304D01*
X9298614Y40664403D01*
X9060149Y39949009D01*
X8821684Y40664404D01*
X8813693Y40682304D01*
X8788128Y40711780D01*
X8753229Y40729230D01*
X8714309Y40731996D01*
X8677293Y40719658D01*
X8647817Y40694093D01*
X8630367Y40659194D01*
X8627601Y40620274D01*
X8516490Y40620274D01*
X8516490Y40843107D01*
X10697911Y40843107D01*
X10697911Y39422455D01*
G37*
D13*
X39609580Y50857143D02*
X39657200Y50809524D01*
X39657200Y50809524D02*
X39704819Y50666667D01*
X39704819Y50666667D02*
X39704819Y50571429D01*
X39704819Y50571429D02*
X39657200Y50428572D01*
X39657200Y50428572D02*
X39561961Y50333334D01*
X39561961Y50333334D02*
X39466723Y50285715D01*
X39466723Y50285715D02*
X39276247Y50238096D01*
X39276247Y50238096D02*
X39133390Y50238096D01*
X39133390Y50238096D02*
X38942914Y50285715D01*
X38942914Y50285715D02*
X38847676Y50333334D01*
X38847676Y50333334D02*
X38752438Y50428572D01*
X38752438Y50428572D02*
X38704819Y50571429D01*
X38704819Y50571429D02*
X38704819Y50666667D01*
X38704819Y50666667D02*
X38752438Y50809524D01*
X38752438Y50809524D02*
X38800057Y50857143D01*
X39704819Y51809524D02*
X39704819Y51238096D01*
X39704819Y51523810D02*
X38704819Y51523810D01*
X38704819Y51523810D02*
X38847676Y51428572D01*
X38847676Y51428572D02*
X38942914Y51333334D01*
X38942914Y51333334D02*
X38990533Y51238096D01*
X38800057Y52190477D02*
X38752438Y52238096D01*
X38752438Y52238096D02*
X38704819Y52333334D01*
X38704819Y52333334D02*
X38704819Y52571429D01*
X38704819Y52571429D02*
X38752438Y52666667D01*
X38752438Y52666667D02*
X38800057Y52714286D01*
X38800057Y52714286D02*
X38895295Y52761905D01*
X38895295Y52761905D02*
X38990533Y52761905D01*
X38990533Y52761905D02*
X39133390Y52714286D01*
X39133390Y52714286D02*
X39704819Y52142858D01*
X39704819Y52142858D02*
X39704819Y52761905D01*
X60134580Y17007143D02*
X60182200Y16959524D01*
X60182200Y16959524D02*
X60229819Y16816667D01*
X60229819Y16816667D02*
X60229819Y16721429D01*
X60229819Y16721429D02*
X60182200Y16578572D01*
X60182200Y16578572D02*
X60086961Y16483334D01*
X60086961Y16483334D02*
X59991723Y16435715D01*
X59991723Y16435715D02*
X59801247Y16388096D01*
X59801247Y16388096D02*
X59658390Y16388096D01*
X59658390Y16388096D02*
X59467914Y16435715D01*
X59467914Y16435715D02*
X59372676Y16483334D01*
X59372676Y16483334D02*
X59277438Y16578572D01*
X59277438Y16578572D02*
X59229819Y16721429D01*
X59229819Y16721429D02*
X59229819Y16816667D01*
X59229819Y16816667D02*
X59277438Y16959524D01*
X59277438Y16959524D02*
X59325057Y17007143D01*
X60229819Y17959524D02*
X60229819Y17388096D01*
X60229819Y17673810D02*
X59229819Y17673810D01*
X59229819Y17673810D02*
X59372676Y17578572D01*
X59372676Y17578572D02*
X59467914Y17483334D01*
X59467914Y17483334D02*
X59515533Y17388096D01*
X59658390Y18530953D02*
X59610771Y18435715D01*
X59610771Y18435715D02*
X59563152Y18388096D01*
X59563152Y18388096D02*
X59467914Y18340477D01*
X59467914Y18340477D02*
X59420295Y18340477D01*
X59420295Y18340477D02*
X59325057Y18388096D01*
X59325057Y18388096D02*
X59277438Y18435715D01*
X59277438Y18435715D02*
X59229819Y18530953D01*
X59229819Y18530953D02*
X59229819Y18721429D01*
X59229819Y18721429D02*
X59277438Y18816667D01*
X59277438Y18816667D02*
X59325057Y18864286D01*
X59325057Y18864286D02*
X59420295Y18911905D01*
X59420295Y18911905D02*
X59467914Y18911905D01*
X59467914Y18911905D02*
X59563152Y18864286D01*
X59563152Y18864286D02*
X59610771Y18816667D01*
X59610771Y18816667D02*
X59658390Y18721429D01*
X59658390Y18721429D02*
X59658390Y18530953D01*
X59658390Y18530953D02*
X59706009Y18435715D01*
X59706009Y18435715D02*
X59753628Y18388096D01*
X59753628Y18388096D02*
X59848866Y18340477D01*
X59848866Y18340477D02*
X60039342Y18340477D01*
X60039342Y18340477D02*
X60134580Y18388096D01*
X60134580Y18388096D02*
X60182200Y18435715D01*
X60182200Y18435715D02*
X60229819Y18530953D01*
X60229819Y18530953D02*
X60229819Y18721429D01*
X60229819Y18721429D02*
X60182200Y18816667D01*
X60182200Y18816667D02*
X60134580Y18864286D01*
X60134580Y18864286D02*
X60039342Y18911905D01*
X60039342Y18911905D02*
X59848866Y18911905D01*
X59848866Y18911905D02*
X59753628Y18864286D01*
X59753628Y18864286D02*
X59706009Y18816667D01*
X59706009Y18816667D02*
X59658390Y18721429D01*
X23488095Y58695181D02*
X23488095Y57885658D01*
X23488095Y57885658D02*
X23535714Y57790420D01*
X23535714Y57790420D02*
X23583333Y57742800D01*
X23583333Y57742800D02*
X23678571Y57695181D01*
X23678571Y57695181D02*
X23869047Y57695181D01*
X23869047Y57695181D02*
X23964285Y57742800D01*
X23964285Y57742800D02*
X24011904Y57790420D01*
X24011904Y57790420D02*
X24059523Y57885658D01*
X24059523Y57885658D02*
X24059523Y58695181D01*
X25059523Y57695181D02*
X24488095Y57695181D01*
X24773809Y57695181D02*
X24773809Y58695181D01*
X24773809Y58695181D02*
X24678571Y58552324D01*
X24678571Y58552324D02*
X24583333Y58457086D01*
X24583333Y58457086D02*
X24488095Y58409467D01*
X28333333Y61485181D02*
X27857143Y61485181D01*
X27857143Y61485181D02*
X27857143Y62485181D01*
X29190476Y61485181D02*
X28619048Y61485181D01*
X28904762Y61485181D02*
X28904762Y62485181D01*
X28904762Y62485181D02*
X28809524Y62342324D01*
X28809524Y62342324D02*
X28714286Y62247086D01*
X28714286Y62247086D02*
X28619048Y62199467D01*
X54875595Y21445181D02*
X54875595Y20635658D01*
X54875595Y20635658D02*
X54923214Y20540420D01*
X54923214Y20540420D02*
X54970833Y20492800D01*
X54970833Y20492800D02*
X55066071Y20445181D01*
X55066071Y20445181D02*
X55256547Y20445181D01*
X55256547Y20445181D02*
X55351785Y20492800D01*
X55351785Y20492800D02*
X55399404Y20540420D01*
X55399404Y20540420D02*
X55447023Y20635658D01*
X55447023Y20635658D02*
X55447023Y21445181D01*
X55875595Y21349943D02*
X55923214Y21397562D01*
X55923214Y21397562D02*
X56018452Y21445181D01*
X56018452Y21445181D02*
X56256547Y21445181D01*
X56256547Y21445181D02*
X56351785Y21397562D01*
X56351785Y21397562D02*
X56399404Y21349943D01*
X56399404Y21349943D02*
X56447023Y21254705D01*
X56447023Y21254705D02*
X56447023Y21159467D01*
X56447023Y21159467D02*
X56399404Y21016610D01*
X56399404Y21016610D02*
X55827976Y20445181D01*
X55827976Y20445181D02*
X56447023Y20445181D01*
X19583333Y61840420D02*
X19535714Y61792800D01*
X19535714Y61792800D02*
X19392857Y61745181D01*
X19392857Y61745181D02*
X19297619Y61745181D01*
X19297619Y61745181D02*
X19154762Y61792800D01*
X19154762Y61792800D02*
X19059524Y61888039D01*
X19059524Y61888039D02*
X19011905Y61983277D01*
X19011905Y61983277D02*
X18964286Y62173753D01*
X18964286Y62173753D02*
X18964286Y62316610D01*
X18964286Y62316610D02*
X19011905Y62507086D01*
X19011905Y62507086D02*
X19059524Y62602324D01*
X19059524Y62602324D02*
X19154762Y62697562D01*
X19154762Y62697562D02*
X19297619Y62745181D01*
X19297619Y62745181D02*
X19392857Y62745181D01*
X19392857Y62745181D02*
X19535714Y62697562D01*
X19535714Y62697562D02*
X19583333Y62649943D01*
X20488095Y62745181D02*
X20011905Y62745181D01*
X20011905Y62745181D02*
X19964286Y62268991D01*
X19964286Y62268991D02*
X20011905Y62316610D01*
X20011905Y62316610D02*
X20107143Y62364229D01*
X20107143Y62364229D02*
X20345238Y62364229D01*
X20345238Y62364229D02*
X20440476Y62316610D01*
X20440476Y62316610D02*
X20488095Y62268991D01*
X20488095Y62268991D02*
X20535714Y62173753D01*
X20535714Y62173753D02*
X20535714Y61935658D01*
X20535714Y61935658D02*
X20488095Y61840420D01*
X20488095Y61840420D02*
X20440476Y61792800D01*
X20440476Y61792800D02*
X20345238Y61745181D01*
X20345238Y61745181D02*
X20107143Y61745181D01*
X20107143Y61745181D02*
X20011905Y61792800D01*
X20011905Y61792800D02*
X19964286Y61840420D01*
X16154819Y61583334D02*
X15678628Y61250001D01*
X16154819Y61011906D02*
X15154819Y61011906D01*
X15154819Y61011906D02*
X15154819Y61392858D01*
X15154819Y61392858D02*
X15202438Y61488096D01*
X15202438Y61488096D02*
X15250057Y61535715D01*
X15250057Y61535715D02*
X15345295Y61583334D01*
X15345295Y61583334D02*
X15488152Y61583334D01*
X15488152Y61583334D02*
X15583390Y61535715D01*
X15583390Y61535715D02*
X15631009Y61488096D01*
X15631009Y61488096D02*
X15678628Y61392858D01*
X15678628Y61392858D02*
X15678628Y61011906D01*
X15154819Y61916668D02*
X15154819Y62535715D01*
X15154819Y62535715D02*
X15535771Y62202382D01*
X15535771Y62202382D02*
X15535771Y62345239D01*
X15535771Y62345239D02*
X15583390Y62440477D01*
X15583390Y62440477D02*
X15631009Y62488096D01*
X15631009Y62488096D02*
X15726247Y62535715D01*
X15726247Y62535715D02*
X15964342Y62535715D01*
X15964342Y62535715D02*
X16059580Y62488096D01*
X16059580Y62488096D02*
X16107200Y62440477D01*
X16107200Y62440477D02*
X16154819Y62345239D01*
X16154819Y62345239D02*
X16154819Y62059525D01*
X16154819Y62059525D02*
X16107200Y61964287D01*
X16107200Y61964287D02*
X16059580Y61916668D01*
X51313095Y12095181D02*
X51884523Y12095181D01*
X51598809Y11095181D02*
X51598809Y12095181D01*
X52217857Y11095181D02*
X52217857Y12095181D01*
X52217857Y12095181D02*
X52598809Y12095181D01*
X52598809Y12095181D02*
X52694047Y12047562D01*
X52694047Y12047562D02*
X52741666Y11999943D01*
X52741666Y11999943D02*
X52789285Y11904705D01*
X52789285Y11904705D02*
X52789285Y11761848D01*
X52789285Y11761848D02*
X52741666Y11666610D01*
X52741666Y11666610D02*
X52694047Y11618991D01*
X52694047Y11618991D02*
X52598809Y11571372D01*
X52598809Y11571372D02*
X52217857Y11571372D01*
X53170238Y11999943D02*
X53217857Y12047562D01*
X53217857Y12047562D02*
X53313095Y12095181D01*
X53313095Y12095181D02*
X53551190Y12095181D01*
X53551190Y12095181D02*
X53646428Y12047562D01*
X53646428Y12047562D02*
X53694047Y11999943D01*
X53694047Y11999943D02*
X53741666Y11904705D01*
X53741666Y11904705D02*
X53741666Y11809467D01*
X53741666Y11809467D02*
X53694047Y11666610D01*
X53694047Y11666610D02*
X53122619Y11095181D01*
X53122619Y11095181D02*
X53741666Y11095181D01*
X59659580Y63857143D02*
X59707200Y63809524D01*
X59707200Y63809524D02*
X59754819Y63666667D01*
X59754819Y63666667D02*
X59754819Y63571429D01*
X59754819Y63571429D02*
X59707200Y63428572D01*
X59707200Y63428572D02*
X59611961Y63333334D01*
X59611961Y63333334D02*
X59516723Y63285715D01*
X59516723Y63285715D02*
X59326247Y63238096D01*
X59326247Y63238096D02*
X59183390Y63238096D01*
X59183390Y63238096D02*
X58992914Y63285715D01*
X58992914Y63285715D02*
X58897676Y63333334D01*
X58897676Y63333334D02*
X58802438Y63428572D01*
X58802438Y63428572D02*
X58754819Y63571429D01*
X58754819Y63571429D02*
X58754819Y63666667D01*
X58754819Y63666667D02*
X58802438Y63809524D01*
X58802438Y63809524D02*
X58850057Y63857143D01*
X59754819Y64809524D02*
X59754819Y64238096D01*
X59754819Y64523810D02*
X58754819Y64523810D01*
X58754819Y64523810D02*
X58897676Y64428572D01*
X58897676Y64428572D02*
X58992914Y64333334D01*
X58992914Y64333334D02*
X59040533Y64238096D01*
X58754819Y65714286D02*
X58754819Y65238096D01*
X58754819Y65238096D02*
X59231009Y65190477D01*
X59231009Y65190477D02*
X59183390Y65238096D01*
X59183390Y65238096D02*
X59135771Y65333334D01*
X59135771Y65333334D02*
X59135771Y65571429D01*
X59135771Y65571429D02*
X59183390Y65666667D01*
X59183390Y65666667D02*
X59231009Y65714286D01*
X59231009Y65714286D02*
X59326247Y65761905D01*
X59326247Y65761905D02*
X59564342Y65761905D01*
X59564342Y65761905D02*
X59659580Y65714286D01*
X59659580Y65714286D02*
X59707200Y65666667D01*
X59707200Y65666667D02*
X59754819Y65571429D01*
X59754819Y65571429D02*
X59754819Y65333334D01*
X59754819Y65333334D02*
X59707200Y65238096D01*
X59707200Y65238096D02*
X59659580Y65190477D01*
X17409819Y61833334D02*
X16933628Y61500001D01*
X17409819Y61261906D02*
X16409819Y61261906D01*
X16409819Y61261906D02*
X16409819Y61642858D01*
X16409819Y61642858D02*
X16457438Y61738096D01*
X16457438Y61738096D02*
X16505057Y61785715D01*
X16505057Y61785715D02*
X16600295Y61833334D01*
X16600295Y61833334D02*
X16743152Y61833334D01*
X16743152Y61833334D02*
X16838390Y61785715D01*
X16838390Y61785715D02*
X16886009Y61738096D01*
X16886009Y61738096D02*
X16933628Y61642858D01*
X16933628Y61642858D02*
X16933628Y61261906D01*
X16743152Y62690477D02*
X17409819Y62690477D01*
X16362200Y62452382D02*
X17076485Y62214287D01*
X17076485Y62214287D02*
X17076485Y62833334D01*
X21833333Y50040420D02*
X21785714Y49992800D01*
X21785714Y49992800D02*
X21642857Y49945181D01*
X21642857Y49945181D02*
X21547619Y49945181D01*
X21547619Y49945181D02*
X21404762Y49992800D01*
X21404762Y49992800D02*
X21309524Y50088039D01*
X21309524Y50088039D02*
X21261905Y50183277D01*
X21261905Y50183277D02*
X21214286Y50373753D01*
X21214286Y50373753D02*
X21214286Y50516610D01*
X21214286Y50516610D02*
X21261905Y50707086D01*
X21261905Y50707086D02*
X21309524Y50802324D01*
X21309524Y50802324D02*
X21404762Y50897562D01*
X21404762Y50897562D02*
X21547619Y50945181D01*
X21547619Y50945181D02*
X21642857Y50945181D01*
X21642857Y50945181D02*
X21785714Y50897562D01*
X21785714Y50897562D02*
X21833333Y50849943D01*
X22214286Y50849943D02*
X22261905Y50897562D01*
X22261905Y50897562D02*
X22357143Y50945181D01*
X22357143Y50945181D02*
X22595238Y50945181D01*
X22595238Y50945181D02*
X22690476Y50897562D01*
X22690476Y50897562D02*
X22738095Y50849943D01*
X22738095Y50849943D02*
X22785714Y50754705D01*
X22785714Y50754705D02*
X22785714Y50659467D01*
X22785714Y50659467D02*
X22738095Y50516610D01*
X22738095Y50516610D02*
X22166667Y49945181D01*
X22166667Y49945181D02*
X22785714Y49945181D01*
X37109580Y50857143D02*
X37157200Y50809524D01*
X37157200Y50809524D02*
X37204819Y50666667D01*
X37204819Y50666667D02*
X37204819Y50571429D01*
X37204819Y50571429D02*
X37157200Y50428572D01*
X37157200Y50428572D02*
X37061961Y50333334D01*
X37061961Y50333334D02*
X36966723Y50285715D01*
X36966723Y50285715D02*
X36776247Y50238096D01*
X36776247Y50238096D02*
X36633390Y50238096D01*
X36633390Y50238096D02*
X36442914Y50285715D01*
X36442914Y50285715D02*
X36347676Y50333334D01*
X36347676Y50333334D02*
X36252438Y50428572D01*
X36252438Y50428572D02*
X36204819Y50571429D01*
X36204819Y50571429D02*
X36204819Y50666667D01*
X36204819Y50666667D02*
X36252438Y50809524D01*
X36252438Y50809524D02*
X36300057Y50857143D01*
X37204819Y51809524D02*
X37204819Y51238096D01*
X37204819Y51523810D02*
X36204819Y51523810D01*
X36204819Y51523810D02*
X36347676Y51428572D01*
X36347676Y51428572D02*
X36442914Y51333334D01*
X36442914Y51333334D02*
X36490533Y51238096D01*
X36204819Y52428572D02*
X36204819Y52523810D01*
X36204819Y52523810D02*
X36252438Y52619048D01*
X36252438Y52619048D02*
X36300057Y52666667D01*
X36300057Y52666667D02*
X36395295Y52714286D01*
X36395295Y52714286D02*
X36585771Y52761905D01*
X36585771Y52761905D02*
X36823866Y52761905D01*
X36823866Y52761905D02*
X37014342Y52714286D01*
X37014342Y52714286D02*
X37109580Y52666667D01*
X37109580Y52666667D02*
X37157200Y52619048D01*
X37157200Y52619048D02*
X37204819Y52523810D01*
X37204819Y52523810D02*
X37204819Y52428572D01*
X37204819Y52428572D02*
X37157200Y52333334D01*
X37157200Y52333334D02*
X37109580Y52285715D01*
X37109580Y52285715D02*
X37014342Y52238096D01*
X37014342Y52238096D02*
X36823866Y52190477D01*
X36823866Y52190477D02*
X36585771Y52190477D01*
X36585771Y52190477D02*
X36395295Y52238096D01*
X36395295Y52238096D02*
X36300057Y52285715D01*
X36300057Y52285715D02*
X36252438Y52333334D01*
X36252438Y52333334D02*
X36204819Y52428572D01*
X62159580Y63857143D02*
X62207200Y63809524D01*
X62207200Y63809524D02*
X62254819Y63666667D01*
X62254819Y63666667D02*
X62254819Y63571429D01*
X62254819Y63571429D02*
X62207200Y63428572D01*
X62207200Y63428572D02*
X62111961Y63333334D01*
X62111961Y63333334D02*
X62016723Y63285715D01*
X62016723Y63285715D02*
X61826247Y63238096D01*
X61826247Y63238096D02*
X61683390Y63238096D01*
X61683390Y63238096D02*
X61492914Y63285715D01*
X61492914Y63285715D02*
X61397676Y63333334D01*
X61397676Y63333334D02*
X61302438Y63428572D01*
X61302438Y63428572D02*
X61254819Y63571429D01*
X61254819Y63571429D02*
X61254819Y63666667D01*
X61254819Y63666667D02*
X61302438Y63809524D01*
X61302438Y63809524D02*
X61350057Y63857143D01*
X62254819Y64809524D02*
X62254819Y64238096D01*
X62254819Y64523810D02*
X61254819Y64523810D01*
X61254819Y64523810D02*
X61397676Y64428572D01*
X61397676Y64428572D02*
X61492914Y64333334D01*
X61492914Y64333334D02*
X61540533Y64238096D01*
X61254819Y65666667D02*
X61254819Y65476191D01*
X61254819Y65476191D02*
X61302438Y65380953D01*
X61302438Y65380953D02*
X61350057Y65333334D01*
X61350057Y65333334D02*
X61492914Y65238096D01*
X61492914Y65238096D02*
X61683390Y65190477D01*
X61683390Y65190477D02*
X62064342Y65190477D01*
X62064342Y65190477D02*
X62159580Y65238096D01*
X62159580Y65238096D02*
X62207200Y65285715D01*
X62207200Y65285715D02*
X62254819Y65380953D01*
X62254819Y65380953D02*
X62254819Y65571429D01*
X62254819Y65571429D02*
X62207200Y65666667D01*
X62207200Y65666667D02*
X62159580Y65714286D01*
X62159580Y65714286D02*
X62064342Y65761905D01*
X62064342Y65761905D02*
X61826247Y65761905D01*
X61826247Y65761905D02*
X61731009Y65714286D01*
X61731009Y65714286D02*
X61683390Y65666667D01*
X61683390Y65666667D02*
X61635771Y65571429D01*
X61635771Y65571429D02*
X61635771Y65380953D01*
X61635771Y65380953D02*
X61683390Y65285715D01*
X61683390Y65285715D02*
X61731009Y65238096D01*
X61731009Y65238096D02*
X61826247Y65190477D01*
X51238095Y24243181D02*
X51809523Y24243181D01*
X51523809Y23243181D02*
X51523809Y24243181D01*
X52142857Y23243181D02*
X52142857Y24243181D01*
X52142857Y24243181D02*
X52523809Y24243181D01*
X52523809Y24243181D02*
X52619047Y24195562D01*
X52619047Y24195562D02*
X52666666Y24147943D01*
X52666666Y24147943D02*
X52714285Y24052705D01*
X52714285Y24052705D02*
X52714285Y23909848D01*
X52714285Y23909848D02*
X52666666Y23814610D01*
X52666666Y23814610D02*
X52619047Y23766991D01*
X52619047Y23766991D02*
X52523809Y23719372D01*
X52523809Y23719372D02*
X52142857Y23719372D01*
X53666666Y23243181D02*
X53095238Y23243181D01*
X53380952Y23243181D02*
X53380952Y24243181D01*
X53380952Y24243181D02*
X53285714Y24100324D01*
X53285714Y24100324D02*
X53190476Y24005086D01*
X53190476Y24005086D02*
X53095238Y23957467D01*
X59132142Y21190420D02*
X59084523Y21142800D01*
X59084523Y21142800D02*
X58941666Y21095181D01*
X58941666Y21095181D02*
X58846428Y21095181D01*
X58846428Y21095181D02*
X58703571Y21142800D01*
X58703571Y21142800D02*
X58608333Y21238039D01*
X58608333Y21238039D02*
X58560714Y21333277D01*
X58560714Y21333277D02*
X58513095Y21523753D01*
X58513095Y21523753D02*
X58513095Y21666610D01*
X58513095Y21666610D02*
X58560714Y21857086D01*
X58560714Y21857086D02*
X58608333Y21952324D01*
X58608333Y21952324D02*
X58703571Y22047562D01*
X58703571Y22047562D02*
X58846428Y22095181D01*
X58846428Y22095181D02*
X58941666Y22095181D01*
X58941666Y22095181D02*
X59084523Y22047562D01*
X59084523Y22047562D02*
X59132142Y21999943D01*
X60084523Y21095181D02*
X59513095Y21095181D01*
X59798809Y21095181D02*
X59798809Y22095181D01*
X59798809Y22095181D02*
X59703571Y21952324D01*
X59703571Y21952324D02*
X59608333Y21857086D01*
X59608333Y21857086D02*
X59513095Y21809467D01*
X60560714Y21095181D02*
X60751190Y21095181D01*
X60751190Y21095181D02*
X60846428Y21142800D01*
X60846428Y21142800D02*
X60894047Y21190420D01*
X60894047Y21190420D02*
X60989285Y21333277D01*
X60989285Y21333277D02*
X61036904Y21523753D01*
X61036904Y21523753D02*
X61036904Y21904705D01*
X61036904Y21904705D02*
X60989285Y21999943D01*
X60989285Y21999943D02*
X60941666Y22047562D01*
X60941666Y22047562D02*
X60846428Y22095181D01*
X60846428Y22095181D02*
X60655952Y22095181D01*
X60655952Y22095181D02*
X60560714Y22047562D01*
X60560714Y22047562D02*
X60513095Y21999943D01*
X60513095Y21999943D02*
X60465476Y21904705D01*
X60465476Y21904705D02*
X60465476Y21666610D01*
X60465476Y21666610D02*
X60513095Y21571372D01*
X60513095Y21571372D02*
X60560714Y21523753D01*
X60560714Y21523753D02*
X60655952Y21476134D01*
X60655952Y21476134D02*
X60846428Y21476134D01*
X60846428Y21476134D02*
X60941666Y21523753D01*
X60941666Y21523753D02*
X60989285Y21571372D01*
X60989285Y21571372D02*
X61036904Y21666610D01*
X34609580Y51833334D02*
X34657200Y51785715D01*
X34657200Y51785715D02*
X34704819Y51642858D01*
X34704819Y51642858D02*
X34704819Y51547620D01*
X34704819Y51547620D02*
X34657200Y51404763D01*
X34657200Y51404763D02*
X34561961Y51309525D01*
X34561961Y51309525D02*
X34466723Y51261906D01*
X34466723Y51261906D02*
X34276247Y51214287D01*
X34276247Y51214287D02*
X34133390Y51214287D01*
X34133390Y51214287D02*
X33942914Y51261906D01*
X33942914Y51261906D02*
X33847676Y51309525D01*
X33847676Y51309525D02*
X33752438Y51404763D01*
X33752438Y51404763D02*
X33704819Y51547620D01*
X33704819Y51547620D02*
X33704819Y51642858D01*
X33704819Y51642858D02*
X33752438Y51785715D01*
X33752438Y51785715D02*
X33800057Y51833334D01*
X34133390Y52404763D02*
X34085771Y52309525D01*
X34085771Y52309525D02*
X34038152Y52261906D01*
X34038152Y52261906D02*
X33942914Y52214287D01*
X33942914Y52214287D02*
X33895295Y52214287D01*
X33895295Y52214287D02*
X33800057Y52261906D01*
X33800057Y52261906D02*
X33752438Y52309525D01*
X33752438Y52309525D02*
X33704819Y52404763D01*
X33704819Y52404763D02*
X33704819Y52595239D01*
X33704819Y52595239D02*
X33752438Y52690477D01*
X33752438Y52690477D02*
X33800057Y52738096D01*
X33800057Y52738096D02*
X33895295Y52785715D01*
X33895295Y52785715D02*
X33942914Y52785715D01*
X33942914Y52785715D02*
X34038152Y52738096D01*
X34038152Y52738096D02*
X34085771Y52690477D01*
X34085771Y52690477D02*
X34133390Y52595239D01*
X34133390Y52595239D02*
X34133390Y52404763D01*
X34133390Y52404763D02*
X34181009Y52309525D01*
X34181009Y52309525D02*
X34228628Y52261906D01*
X34228628Y52261906D02*
X34323866Y52214287D01*
X34323866Y52214287D02*
X34514342Y52214287D01*
X34514342Y52214287D02*
X34609580Y52261906D01*
X34609580Y52261906D02*
X34657200Y52309525D01*
X34657200Y52309525D02*
X34704819Y52404763D01*
X34704819Y52404763D02*
X34704819Y52595239D01*
X34704819Y52595239D02*
X34657200Y52690477D01*
X34657200Y52690477D02*
X34609580Y52738096D01*
X34609580Y52738096D02*
X34514342Y52785715D01*
X34514342Y52785715D02*
X34323866Y52785715D01*
X34323866Y52785715D02*
X34228628Y52738096D01*
X34228628Y52738096D02*
X34181009Y52690477D01*
X34181009Y52690477D02*
X34133390Y52595239D01*
X18609580Y61833334D02*
X18657200Y61785715D01*
X18657200Y61785715D02*
X18704819Y61642858D01*
X18704819Y61642858D02*
X18704819Y61547620D01*
X18704819Y61547620D02*
X18657200Y61404763D01*
X18657200Y61404763D02*
X18561961Y61309525D01*
X18561961Y61309525D02*
X18466723Y61261906D01*
X18466723Y61261906D02*
X18276247Y61214287D01*
X18276247Y61214287D02*
X18133390Y61214287D01*
X18133390Y61214287D02*
X17942914Y61261906D01*
X17942914Y61261906D02*
X17847676Y61309525D01*
X17847676Y61309525D02*
X17752438Y61404763D01*
X17752438Y61404763D02*
X17704819Y61547620D01*
X17704819Y61547620D02*
X17704819Y61642858D01*
X17704819Y61642858D02*
X17752438Y61785715D01*
X17752438Y61785715D02*
X17800057Y61833334D01*
X17704819Y62690477D02*
X17704819Y62500001D01*
X17704819Y62500001D02*
X17752438Y62404763D01*
X17752438Y62404763D02*
X17800057Y62357144D01*
X17800057Y62357144D02*
X17942914Y62261906D01*
X17942914Y62261906D02*
X18133390Y62214287D01*
X18133390Y62214287D02*
X18514342Y62214287D01*
X18514342Y62214287D02*
X18609580Y62261906D01*
X18609580Y62261906D02*
X18657200Y62309525D01*
X18657200Y62309525D02*
X18704819Y62404763D01*
X18704819Y62404763D02*
X18704819Y62595239D01*
X18704819Y62595239D02*
X18657200Y62690477D01*
X18657200Y62690477D02*
X18609580Y62738096D01*
X18609580Y62738096D02*
X18514342Y62785715D01*
X18514342Y62785715D02*
X18276247Y62785715D01*
X18276247Y62785715D02*
X18181009Y62738096D01*
X18181009Y62738096D02*
X18133390Y62690477D01*
X18133390Y62690477D02*
X18085771Y62595239D01*
X18085771Y62595239D02*
X18085771Y62404763D01*
X18085771Y62404763D02*
X18133390Y62309525D01*
X18133390Y62309525D02*
X18181009Y62261906D01*
X18181009Y62261906D02*
X18276247Y62214287D01*
X34609580Y64083334D02*
X34657200Y64035715D01*
X34657200Y64035715D02*
X34704819Y63892858D01*
X34704819Y63892858D02*
X34704819Y63797620D01*
X34704819Y63797620D02*
X34657200Y63654763D01*
X34657200Y63654763D02*
X34561961Y63559525D01*
X34561961Y63559525D02*
X34466723Y63511906D01*
X34466723Y63511906D02*
X34276247Y63464287D01*
X34276247Y63464287D02*
X34133390Y63464287D01*
X34133390Y63464287D02*
X33942914Y63511906D01*
X33942914Y63511906D02*
X33847676Y63559525D01*
X33847676Y63559525D02*
X33752438Y63654763D01*
X33752438Y63654763D02*
X33704819Y63797620D01*
X33704819Y63797620D02*
X33704819Y63892858D01*
X33704819Y63892858D02*
X33752438Y64035715D01*
X33752438Y64035715D02*
X33800057Y64083334D01*
X33704819Y64416668D02*
X33704819Y65083334D01*
X33704819Y65083334D02*
X34704819Y64654763D01*
X22083333Y65640420D02*
X22035714Y65592800D01*
X22035714Y65592800D02*
X21892857Y65545181D01*
X21892857Y65545181D02*
X21797619Y65545181D01*
X21797619Y65545181D02*
X21654762Y65592800D01*
X21654762Y65592800D02*
X21559524Y65688039D01*
X21559524Y65688039D02*
X21511905Y65783277D01*
X21511905Y65783277D02*
X21464286Y65973753D01*
X21464286Y65973753D02*
X21464286Y66116610D01*
X21464286Y66116610D02*
X21511905Y66307086D01*
X21511905Y66307086D02*
X21559524Y66402324D01*
X21559524Y66402324D02*
X21654762Y66497562D01*
X21654762Y66497562D02*
X21797619Y66545181D01*
X21797619Y66545181D02*
X21892857Y66545181D01*
X21892857Y66545181D02*
X22035714Y66497562D01*
X22035714Y66497562D02*
X22083333Y66449943D01*
X23035714Y65545181D02*
X22464286Y65545181D01*
X22750000Y65545181D02*
X22750000Y66545181D01*
X22750000Y66545181D02*
X22654762Y66402324D01*
X22654762Y66402324D02*
X22559524Y66307086D01*
X22559524Y66307086D02*
X22464286Y66259467D01*
X51334580Y18507143D02*
X51382200Y18459524D01*
X51382200Y18459524D02*
X51429819Y18316667D01*
X51429819Y18316667D02*
X51429819Y18221429D01*
X51429819Y18221429D02*
X51382200Y18078572D01*
X51382200Y18078572D02*
X51286961Y17983334D01*
X51286961Y17983334D02*
X51191723Y17935715D01*
X51191723Y17935715D02*
X51001247Y17888096D01*
X51001247Y17888096D02*
X50858390Y17888096D01*
X50858390Y17888096D02*
X50667914Y17935715D01*
X50667914Y17935715D02*
X50572676Y17983334D01*
X50572676Y17983334D02*
X50477438Y18078572D01*
X50477438Y18078572D02*
X50429819Y18221429D01*
X50429819Y18221429D02*
X50429819Y18316667D01*
X50429819Y18316667D02*
X50477438Y18459524D01*
X50477438Y18459524D02*
X50525057Y18507143D01*
X51429819Y19459524D02*
X51429819Y18888096D01*
X51429819Y19173810D02*
X50429819Y19173810D01*
X50429819Y19173810D02*
X50572676Y19078572D01*
X50572676Y19078572D02*
X50667914Y18983334D01*
X50667914Y18983334D02*
X50715533Y18888096D01*
X50429819Y19792858D02*
X50429819Y20459524D01*
X50429819Y20459524D02*
X51429819Y20030953D01*
X22083333Y64390420D02*
X22035714Y64342800D01*
X22035714Y64342800D02*
X21892857Y64295181D01*
X21892857Y64295181D02*
X21797619Y64295181D01*
X21797619Y64295181D02*
X21654762Y64342800D01*
X21654762Y64342800D02*
X21559524Y64438039D01*
X21559524Y64438039D02*
X21511905Y64533277D01*
X21511905Y64533277D02*
X21464286Y64723753D01*
X21464286Y64723753D02*
X21464286Y64866610D01*
X21464286Y64866610D02*
X21511905Y65057086D01*
X21511905Y65057086D02*
X21559524Y65152324D01*
X21559524Y65152324D02*
X21654762Y65247562D01*
X21654762Y65247562D02*
X21797619Y65295181D01*
X21797619Y65295181D02*
X21892857Y65295181D01*
X21892857Y65295181D02*
X22035714Y65247562D01*
X22035714Y65247562D02*
X22083333Y65199943D01*
X22416667Y65295181D02*
X23035714Y65295181D01*
X23035714Y65295181D02*
X22702381Y64914229D01*
X22702381Y64914229D02*
X22845238Y64914229D01*
X22845238Y64914229D02*
X22940476Y64866610D01*
X22940476Y64866610D02*
X22988095Y64818991D01*
X22988095Y64818991D02*
X23035714Y64723753D01*
X23035714Y64723753D02*
X23035714Y64485658D01*
X23035714Y64485658D02*
X22988095Y64390420D01*
X22988095Y64390420D02*
X22940476Y64342800D01*
X22940476Y64342800D02*
X22845238Y64295181D01*
X22845238Y64295181D02*
X22559524Y64295181D01*
X22559524Y64295181D02*
X22464286Y64342800D01*
X22464286Y64342800D02*
X22416667Y64390420D01*
X14083333Y56795181D02*
X13750000Y57271372D01*
X13511905Y56795181D02*
X13511905Y57795181D01*
X13511905Y57795181D02*
X13892857Y57795181D01*
X13892857Y57795181D02*
X13988095Y57747562D01*
X13988095Y57747562D02*
X14035714Y57699943D01*
X14035714Y57699943D02*
X14083333Y57604705D01*
X14083333Y57604705D02*
X14083333Y57461848D01*
X14083333Y57461848D02*
X14035714Y57366610D01*
X14035714Y57366610D02*
X13988095Y57318991D01*
X13988095Y57318991D02*
X13892857Y57271372D01*
X13892857Y57271372D02*
X13511905Y57271372D01*
X15035714Y56795181D02*
X14464286Y56795181D01*
X14750000Y56795181D02*
X14750000Y57795181D01*
X14750000Y57795181D02*
X14654762Y57652324D01*
X14654762Y57652324D02*
X14559524Y57557086D01*
X14559524Y57557086D02*
X14464286Y57509467D01*
X50408333Y13495181D02*
X50075000Y13971372D01*
X49836905Y13495181D02*
X49836905Y14495181D01*
X49836905Y14495181D02*
X50217857Y14495181D01*
X50217857Y14495181D02*
X50313095Y14447562D01*
X50313095Y14447562D02*
X50360714Y14399943D01*
X50360714Y14399943D02*
X50408333Y14304705D01*
X50408333Y14304705D02*
X50408333Y14161848D01*
X50408333Y14161848D02*
X50360714Y14066610D01*
X50360714Y14066610D02*
X50313095Y14018991D01*
X50313095Y14018991D02*
X50217857Y13971372D01*
X50217857Y13971372D02*
X49836905Y13971372D01*
X51313095Y14495181D02*
X50836905Y14495181D01*
X50836905Y14495181D02*
X50789286Y14018991D01*
X50789286Y14018991D02*
X50836905Y14066610D01*
X50836905Y14066610D02*
X50932143Y14114229D01*
X50932143Y14114229D02*
X51170238Y14114229D01*
X51170238Y14114229D02*
X51265476Y14066610D01*
X51265476Y14066610D02*
X51313095Y14018991D01*
X51313095Y14018991D02*
X51360714Y13923753D01*
X51360714Y13923753D02*
X51360714Y13685658D01*
X51360714Y13685658D02*
X51313095Y13590420D01*
X51313095Y13590420D02*
X51265476Y13542800D01*
X51265476Y13542800D02*
X51170238Y13495181D01*
X51170238Y13495181D02*
X50932143Y13495181D01*
X50932143Y13495181D02*
X50836905Y13542800D01*
X50836905Y13542800D02*
X50789286Y13590420D01*
X52116666Y60448991D02*
X51783333Y60448991D01*
X51783333Y59925181D02*
X51783333Y60925181D01*
X51783333Y60925181D02*
X52259523Y60925181D01*
X52973809Y60448991D02*
X53116666Y60401372D01*
X53116666Y60401372D02*
X53164285Y60353753D01*
X53164285Y60353753D02*
X53211904Y60258515D01*
X53211904Y60258515D02*
X53211904Y60115658D01*
X53211904Y60115658D02*
X53164285Y60020420D01*
X53164285Y60020420D02*
X53116666Y59972800D01*
X53116666Y59972800D02*
X53021428Y59925181D01*
X53021428Y59925181D02*
X52640476Y59925181D01*
X52640476Y59925181D02*
X52640476Y60925181D01*
X52640476Y60925181D02*
X52973809Y60925181D01*
X52973809Y60925181D02*
X53069047Y60877562D01*
X53069047Y60877562D02*
X53116666Y60829943D01*
X53116666Y60829943D02*
X53164285Y60734705D01*
X53164285Y60734705D02*
X53164285Y60639467D01*
X53164285Y60639467D02*
X53116666Y60544229D01*
X53116666Y60544229D02*
X53069047Y60496610D01*
X53069047Y60496610D02*
X52973809Y60448991D01*
X52973809Y60448991D02*
X52640476Y60448991D01*
X54164285Y59925181D02*
X53592857Y59925181D01*
X53878571Y59925181D02*
X53878571Y60925181D01*
X53878571Y60925181D02*
X53783333Y60782324D01*
X53783333Y60782324D02*
X53688095Y60687086D01*
X53688095Y60687086D02*
X53592857Y60639467D01*
X21833333Y51340420D02*
X21785714Y51292800D01*
X21785714Y51292800D02*
X21642857Y51245181D01*
X21642857Y51245181D02*
X21547619Y51245181D01*
X21547619Y51245181D02*
X21404762Y51292800D01*
X21404762Y51292800D02*
X21309524Y51388039D01*
X21309524Y51388039D02*
X21261905Y51483277D01*
X21261905Y51483277D02*
X21214286Y51673753D01*
X21214286Y51673753D02*
X21214286Y51816610D01*
X21214286Y51816610D02*
X21261905Y52007086D01*
X21261905Y52007086D02*
X21309524Y52102324D01*
X21309524Y52102324D02*
X21404762Y52197562D01*
X21404762Y52197562D02*
X21547619Y52245181D01*
X21547619Y52245181D02*
X21642857Y52245181D01*
X21642857Y52245181D02*
X21785714Y52197562D01*
X21785714Y52197562D02*
X21833333Y52149943D01*
X22690476Y51911848D02*
X22690476Y51245181D01*
X22452381Y52292800D02*
X22214286Y51578515D01*
X22214286Y51578515D02*
X22833333Y51578515D01*
X39609580Y64107143D02*
X39657200Y64059524D01*
X39657200Y64059524D02*
X39704819Y63916667D01*
X39704819Y63916667D02*
X39704819Y63821429D01*
X39704819Y63821429D02*
X39657200Y63678572D01*
X39657200Y63678572D02*
X39561961Y63583334D01*
X39561961Y63583334D02*
X39466723Y63535715D01*
X39466723Y63535715D02*
X39276247Y63488096D01*
X39276247Y63488096D02*
X39133390Y63488096D01*
X39133390Y63488096D02*
X38942914Y63535715D01*
X38942914Y63535715D02*
X38847676Y63583334D01*
X38847676Y63583334D02*
X38752438Y63678572D01*
X38752438Y63678572D02*
X38704819Y63821429D01*
X38704819Y63821429D02*
X38704819Y63916667D01*
X38704819Y63916667D02*
X38752438Y64059524D01*
X38752438Y64059524D02*
X38800057Y64107143D01*
X39704819Y65059524D02*
X39704819Y64488096D01*
X39704819Y64773810D02*
X38704819Y64773810D01*
X38704819Y64773810D02*
X38847676Y64678572D01*
X38847676Y64678572D02*
X38942914Y64583334D01*
X38942914Y64583334D02*
X38990533Y64488096D01*
X39704819Y66011905D02*
X39704819Y65440477D01*
X39704819Y65726191D02*
X38704819Y65726191D01*
X38704819Y65726191D02*
X38847676Y65630953D01*
X38847676Y65630953D02*
X38942914Y65535715D01*
X38942914Y65535715D02*
X38990533Y65440477D01*
X37109580Y64108334D02*
X37157200Y64060715D01*
X37157200Y64060715D02*
X37204819Y63917858D01*
X37204819Y63917858D02*
X37204819Y63822620D01*
X37204819Y63822620D02*
X37157200Y63679763D01*
X37157200Y63679763D02*
X37061961Y63584525D01*
X37061961Y63584525D02*
X36966723Y63536906D01*
X36966723Y63536906D02*
X36776247Y63489287D01*
X36776247Y63489287D02*
X36633390Y63489287D01*
X36633390Y63489287D02*
X36442914Y63536906D01*
X36442914Y63536906D02*
X36347676Y63584525D01*
X36347676Y63584525D02*
X36252438Y63679763D01*
X36252438Y63679763D02*
X36204819Y63822620D01*
X36204819Y63822620D02*
X36204819Y63917858D01*
X36204819Y63917858D02*
X36252438Y64060715D01*
X36252438Y64060715D02*
X36300057Y64108334D01*
X37204819Y64584525D02*
X37204819Y64775001D01*
X37204819Y64775001D02*
X37157200Y64870239D01*
X37157200Y64870239D02*
X37109580Y64917858D01*
X37109580Y64917858D02*
X36966723Y65013096D01*
X36966723Y65013096D02*
X36776247Y65060715D01*
X36776247Y65060715D02*
X36395295Y65060715D01*
X36395295Y65060715D02*
X36300057Y65013096D01*
X36300057Y65013096D02*
X36252438Y64965477D01*
X36252438Y64965477D02*
X36204819Y64870239D01*
X36204819Y64870239D02*
X36204819Y64679763D01*
X36204819Y64679763D02*
X36252438Y64584525D01*
X36252438Y64584525D02*
X36300057Y64536906D01*
X36300057Y64536906D02*
X36395295Y64489287D01*
X36395295Y64489287D02*
X36633390Y64489287D01*
X36633390Y64489287D02*
X36728628Y64536906D01*
X36728628Y64536906D02*
X36776247Y64584525D01*
X36776247Y64584525D02*
X36823866Y64679763D01*
X36823866Y64679763D02*
X36823866Y64870239D01*
X36823866Y64870239D02*
X36776247Y64965477D01*
X36776247Y64965477D02*
X36728628Y65013096D01*
X36728628Y65013096D02*
X36633390Y65060715D01*
D14*
%TO.C,C12*%
X38515000Y55711252D02*
X38515000Y55188748D01*
X39985000Y55711252D02*
X39985000Y55188748D01*
%TO.C,C18*%
X58015000Y17942164D02*
X58015000Y18157836D01*
X58735000Y17942164D02*
X58735000Y18157836D01*
D13*
%TO.C,U1*%
X19505000Y59550000D02*
X19705000Y59550000D01*
X19505000Y59430000D02*
X19505000Y59550000D01*
X19505000Y56760000D02*
X19505000Y56870000D01*
X19705000Y56760000D02*
X19505000Y56760000D01*
X22605000Y59550000D02*
X22935000Y59550000D01*
X22935000Y59550000D02*
X22935000Y59330000D01*
X22935000Y56970000D02*
X22935000Y56760000D01*
X22935000Y56760000D02*
X22605000Y56760000D01*
D15*
X19255000Y59170000D02*
G75*
G02*
X18995000Y59170000I-130000J0D01*
G01*
X18995000Y59170000D02*
G75*
G02*
X19255000Y59170000I130000J0D01*
G01*
D14*
%TO.C,L1*%
X25650000Y61100000D02*
X31350000Y61100000D01*
X25650000Y55200000D02*
X25650000Y61100000D01*
X31350000Y61100000D02*
X31350000Y55200000D01*
X31350000Y55200000D02*
X25650000Y55200000D01*
%TO.C,U2*%
X55637500Y20060000D02*
X54837500Y20060000D01*
X55637500Y20060000D02*
X56437500Y20060000D01*
X55637500Y16940000D02*
X54837500Y16940000D01*
X55637500Y16940000D02*
X56437500Y16940000D01*
X54337500Y20010000D02*
X54097500Y20340000D01*
X54577500Y20340000D01*
X54337500Y20010000D01*
G36*
X54337500Y20010000D02*
G01*
X54097500Y20340000D01*
X54577500Y20340000D01*
X54337500Y20010000D01*
G37*
%TO.C,C5*%
X20357836Y61360000D02*
X20142164Y61360000D01*
X20357836Y60640000D02*
X20142164Y60640000D01*
%TO.C,R3*%
X15370000Y59393641D02*
X15370000Y59086359D01*
X16130000Y59393641D02*
X16130000Y59086359D01*
%TO.C,J1*%
X5090000Y41590000D02*
X5090000Y43500000D01*
X5400000Y56100000D02*
X5400000Y41900000D01*
X5400000Y45500000D02*
X5800000Y45500000D01*
X5400000Y41900000D02*
X10600000Y41900000D01*
X5800000Y55700000D02*
X5800000Y53500000D01*
X5800000Y53500000D02*
X5400000Y53500000D01*
X5800000Y52500000D02*
X5400000Y52500000D01*
X5800000Y45500000D02*
X5800000Y52500000D01*
X5800000Y44500000D02*
X5400000Y44500000D01*
X5800000Y42300000D02*
X5800000Y44500000D01*
X7000000Y41590000D02*
X5090000Y41590000D01*
X8000000Y56100000D02*
X8000000Y55700000D01*
X8000000Y55700000D02*
X5800000Y55700000D01*
X8000000Y42300000D02*
X5800000Y42300000D01*
X8000000Y41900000D02*
X8000000Y42300000D01*
X9000000Y55700000D02*
X9000000Y56100000D01*
X9000000Y42300000D02*
X10200000Y42300000D01*
X9000000Y41900000D02*
X9000000Y42300000D01*
X10200000Y55700000D02*
X9000000Y55700000D01*
X10200000Y42300000D02*
X10200000Y55700000D01*
X10600000Y56100000D02*
X5400000Y56100000D01*
X10600000Y41900000D02*
X10600000Y56100000D01*
%TO.C,TP2*%
X53275000Y13550000D02*
G75*
G02*
X51875000Y13550000I-700000J0D01*
G01*
X51875000Y13550000D02*
G75*
G02*
X53275000Y13550000I700000J0D01*
G01*
%TO.C,C15*%
X58465000Y60388748D02*
X58465000Y60911252D01*
X59935000Y60388748D02*
X59935000Y60911252D01*
%TO.C,R4*%
X16620000Y59086359D02*
X16620000Y59393641D01*
X17380000Y59086359D02*
X17380000Y59393641D01*
%TO.C,C2*%
X22138748Y54235000D02*
X22661252Y54235000D01*
X22138748Y52765000D02*
X22661252Y52765000D01*
%TO.C,C10*%
X36015000Y55711252D02*
X36015000Y55188748D01*
X37485000Y55711252D02*
X37485000Y55188748D01*
%TO.C,C16*%
X60965000Y60388748D02*
X60965000Y60911252D01*
X62435000Y60388748D02*
X62435000Y60911252D01*
%TO.C,TP1*%
X53200000Y22250000D02*
G75*
G02*
X51800000Y22250000I-700000J0D01*
G01*
X51800000Y22250000D02*
G75*
G02*
X53200000Y22250000I700000J0D01*
G01*
%TO.C,C19*%
X59634420Y20460000D02*
X59915580Y20460000D01*
X59634420Y19440000D02*
X59915580Y19440000D01*
%TO.C,C8*%
X33515000Y55711252D02*
X33515000Y55188748D01*
X34985000Y55711252D02*
X34985000Y55188748D01*
%TO.C,J2*%
X5090000Y23590000D02*
X5090000Y25500000D01*
X5400000Y38100000D02*
X5400000Y23900000D01*
X5400000Y27500000D02*
X5800000Y27500000D01*
X5400000Y23900000D02*
X10600000Y23900000D01*
X5800000Y37700000D02*
X5800000Y35500000D01*
X5800000Y35500000D02*
X5400000Y35500000D01*
X5800000Y34500000D02*
X5400000Y34500000D01*
X5800000Y27500000D02*
X5800000Y34500000D01*
X5800000Y26500000D02*
X5400000Y26500000D01*
X5800000Y24300000D02*
X5800000Y26500000D01*
X7000000Y23590000D02*
X5090000Y23590000D01*
X8000000Y38100000D02*
X8000000Y37700000D01*
X8000000Y37700000D02*
X5800000Y37700000D01*
X8000000Y24300000D02*
X5800000Y24300000D01*
X8000000Y23900000D02*
X8000000Y24300000D01*
X9000000Y37700000D02*
X9000000Y38100000D01*
X9000000Y24300000D02*
X10200000Y24300000D01*
X9000000Y23900000D02*
X9000000Y24300000D01*
X10200000Y37700000D02*
X9000000Y37700000D01*
X10200000Y24300000D02*
X10200000Y37700000D01*
X10600000Y38100000D02*
X5400000Y38100000D01*
X10600000Y23900000D02*
X10600000Y38100000D01*
%TO.C,C6*%
X17890000Y59142164D02*
X17890000Y59357836D01*
X18610000Y59142164D02*
X18610000Y59357836D01*
D15*
%TO.C,J3*%
X64350000Y63750000D02*
X64350000Y56260000D01*
X64350000Y63750000D02*
X71650000Y63750000D01*
X70690000Y56250000D02*
X70690000Y63750000D01*
X71650000Y56250000D02*
X64350000Y56250000D01*
X71650000Y56250000D02*
X71650000Y63750000D01*
D16*
X71810000Y56120000D02*
G75*
G02*
X71750000Y56120000I-30000J0D01*
G01*
X71750000Y56120000D02*
G75*
G02*
X71810000Y56120000I30000J0D01*
G01*
D14*
%TO.C,C7*%
X33515000Y60438748D02*
X33515000Y60961252D01*
X34985000Y60438748D02*
X34985000Y60961252D01*
%TO.C,C1*%
X22138748Y63735000D02*
X22661252Y63735000D01*
X22138748Y62265000D02*
X22661252Y62265000D01*
%TO.C,C17*%
X52065000Y19290580D02*
X52065000Y19009420D01*
X53085000Y19290580D02*
X53085000Y19009420D01*
%TO.C,C3*%
X22092164Y60960000D02*
X22307836Y60960000D01*
X22092164Y60240000D02*
X22307836Y60240000D01*
%TO.C,R1*%
X16403641Y57630000D02*
X16096359Y57630000D01*
X16403641Y56870000D02*
X16096359Y56870000D01*
D15*
%TO.C,J4*%
X64450000Y27950000D02*
X64450000Y20460000D01*
X64450000Y27950000D02*
X71750000Y27950000D01*
X70790000Y20450000D02*
X70790000Y27950000D01*
X71750000Y20450000D02*
X64450000Y20450000D01*
X71750000Y20450000D02*
X71750000Y27950000D01*
D16*
X71910000Y20320000D02*
G75*
G02*
X71850000Y20320000I-30000J0D01*
G01*
X71850000Y20320000D02*
G75*
G02*
X71910000Y20320000I30000J0D01*
G01*
D14*
%TO.C,R5*%
X52012258Y16072500D02*
X51537742Y16072500D01*
X52012258Y15027500D02*
X51537742Y15027500D01*
%TO.C,FB1*%
X52347936Y59460000D02*
X53552064Y59460000D01*
X52347936Y56740000D02*
X53552064Y56740000D01*
%TO.C,C4*%
X21992164Y56060000D02*
X22207836Y56060000D01*
X21992164Y55340000D02*
X22207836Y55340000D01*
%TO.C,C11*%
X38515000Y60438748D02*
X38515000Y60961252D01*
X39985000Y60438748D02*
X39985000Y60961252D01*
%TO.C,C9*%
X36015000Y60463748D02*
X36015000Y60986252D01*
X37485000Y60463748D02*
X37485000Y60986252D01*
%TD*%
%LPC*%
G36*
X5484211Y8264282D02*
G01*
X5801835Y8201103D01*
X6111737Y8107095D01*
X6410932Y7983165D01*
X6696539Y7830504D01*
X6965808Y7650585D01*
X7216145Y7445139D01*
X7445139Y7216145D01*
X7650585Y6965808D01*
X7830504Y6696539D01*
X7983165Y6410932D01*
X8107095Y6111737D01*
X8201103Y5801835D01*
X8264282Y5484211D01*
X8296025Y5161923D01*
X8296025Y4838077D01*
X8264282Y4515789D01*
X8201103Y4198165D01*
X8107095Y3888263D01*
X7983165Y3589068D01*
X7830504Y3303461D01*
X7650585Y3034192D01*
X7445139Y2783855D01*
X7216145Y2554861D01*
X6965808Y2349415D01*
X6696539Y2169496D01*
X6410932Y2016835D01*
X6111737Y1892905D01*
X5801835Y1798897D01*
X5484211Y1735718D01*
X5161923Y1703975D01*
X4838077Y1703975D01*
X4515789Y1735718D01*
X4198165Y1798897D01*
X3888263Y1892905D01*
X3589068Y2016835D01*
X3303461Y2169496D01*
X3034192Y2349415D01*
X2783855Y2554861D01*
X2554861Y2783855D01*
X2349415Y3034192D01*
X2169496Y3303461D01*
X2016835Y3589068D01*
X1892905Y3888263D01*
X1798897Y4198165D01*
X1735718Y4515789D01*
X1703975Y4838077D01*
X1703975Y5161923D01*
X1735718Y5484211D01*
X1798897Y5801835D01*
X1892905Y6111737D01*
X2016835Y6410932D01*
X2169496Y6696539D01*
X2349415Y6965808D01*
X2554861Y7216145D01*
X2783855Y7445139D01*
X3034192Y7650585D01*
X3303461Y7830504D01*
X3589068Y7983165D01*
X3888263Y8107095D01*
X4198165Y8201103D01*
X4515789Y8264282D01*
X4838077Y8296025D01*
X5161923Y8296025D01*
X5484211Y8264282D01*
G37*
G36*
X75484211Y8264282D02*
G01*
X75801835Y8201103D01*
X76111737Y8107095D01*
X76410932Y7983165D01*
X76696539Y7830504D01*
X76965808Y7650585D01*
X77216145Y7445139D01*
X77445139Y7216145D01*
X77650585Y6965808D01*
X77830504Y6696539D01*
X77983165Y6410932D01*
X78107095Y6111737D01*
X78201103Y5801835D01*
X78264282Y5484211D01*
X78296025Y5161923D01*
X78296025Y4838077D01*
X78264282Y4515789D01*
X78201103Y4198165D01*
X78107095Y3888263D01*
X77983165Y3589068D01*
X77830504Y3303461D01*
X77650585Y3034192D01*
X77445139Y2783855D01*
X77216145Y2554861D01*
X76965808Y2349415D01*
X76696539Y2169496D01*
X76410932Y2016835D01*
X76111737Y1892905D01*
X75801835Y1798897D01*
X75484211Y1735718D01*
X75161923Y1703975D01*
X74838077Y1703975D01*
X74515789Y1735718D01*
X74198165Y1798897D01*
X73888263Y1892905D01*
X73589068Y2016835D01*
X73303461Y2169496D01*
X73034192Y2349415D01*
X72783855Y2554861D01*
X72554861Y2783855D01*
X72349415Y3034192D01*
X72169496Y3303461D01*
X72016835Y3589068D01*
X71892905Y3888263D01*
X71798897Y4198165D01*
X71735718Y4515789D01*
X71703975Y4838077D01*
X71703975Y5161923D01*
X71735718Y5484211D01*
X71798897Y5801835D01*
X71892905Y6111737D01*
X72016835Y6410932D01*
X72169496Y6696539D01*
X72349415Y6965808D01*
X72554861Y7216145D01*
X72783855Y7445139D01*
X73034192Y7650585D01*
X73303461Y7830504D01*
X73589068Y7983165D01*
X73888263Y8107095D01*
X74198165Y8201103D01*
X74515789Y8264282D01*
X74838077Y8296025D01*
X75161923Y8296025D01*
X75484211Y8264282D01*
G37*
G36*
X52643858Y14144867D02*
G01*
X52653316Y14144867D01*
X52680563Y14137567D01*
X52749099Y14123934D01*
X52781448Y14110535D01*
X52804610Y14104328D01*
X52825377Y14092338D01*
X52857722Y14078940D01*
X52915816Y14040123D01*
X52940257Y14026012D01*
X52946946Y14019323D01*
X52955481Y14013620D01*
X53038619Y13930482D01*
X53044321Y13921948D01*
X53051012Y13915257D01*
X53065124Y13890814D01*
X53103939Y13832723D01*
X53117335Y13800382D01*
X53129328Y13779610D01*
X53135535Y13756445D01*
X53148933Y13724100D01*
X53162565Y13655567D01*
X53169867Y13628316D01*
X53169867Y13618859D01*
X53171870Y13608789D01*
X53171870Y13491212D01*
X53169867Y13481143D01*
X53169867Y13471684D01*
X53162564Y13444431D01*
X53148933Y13375901D01*
X53135535Y13343559D01*
X53129328Y13320390D01*
X53117334Y13299617D01*
X53103939Y13267278D01*
X53065128Y13209195D01*
X53051012Y13184743D01*
X53044319Y13178051D01*
X53038619Y13169519D01*
X52955481Y13086381D01*
X52946949Y13080681D01*
X52940257Y13073988D01*
X52915805Y13059872D01*
X52857722Y13021061D01*
X52825383Y13007666D01*
X52804610Y12995672D01*
X52781441Y12989465D01*
X52749099Y12976067D01*
X52680569Y12962436D01*
X52653316Y12955133D01*
X52643858Y12955133D01*
X52633788Y12953130D01*
X52516212Y12953130D01*
X52506142Y12955133D01*
X52496684Y12955133D01*
X52469432Y12962436D01*
X52400900Y12976067D01*
X52368555Y12989465D01*
X52345390Y12995672D01*
X52324618Y13007665D01*
X52292277Y13021061D01*
X52234186Y13059876D01*
X52209743Y13073988D01*
X52203052Y13080679D01*
X52194518Y13086381D01*
X52111380Y13169519D01*
X52105677Y13178054D01*
X52098988Y13184743D01*
X52084877Y13209184D01*
X52046060Y13267278D01*
X52032662Y13299623D01*
X52020672Y13320390D01*
X52014465Y13343552D01*
X52001066Y13375901D01*
X51987433Y13444437D01*
X51980133Y13471684D01*
X51980133Y13481142D01*
X51978130Y13491212D01*
X51978130Y13608789D01*
X51980133Y13618860D01*
X51980133Y13628316D01*
X51987433Y13655561D01*
X52001066Y13724100D01*
X52014466Y13756452D01*
X52020672Y13779610D01*
X52032660Y13800376D01*
X52046060Y13832723D01*
X52084881Y13890825D01*
X52098988Y13915257D01*
X52105675Y13921945D01*
X52111380Y13930482D01*
X52194518Y14013620D01*
X52203055Y14019325D01*
X52209743Y14026012D01*
X52234175Y14040119D01*
X52292277Y14078940D01*
X52324624Y14092340D01*
X52345390Y14104328D01*
X52368548Y14110534D01*
X52400900Y14123934D01*
X52469437Y14137567D01*
X52496684Y14144867D01*
X52506142Y14144867D01*
X52516212Y14146870D01*
X52633788Y14146870D01*
X52643858Y14144867D01*
G37*
G36*
X51218685Y16117031D02*
G01*
X51227358Y16113202D01*
X51234925Y16112099D01*
X51282223Y16088977D01*
X51319541Y16072499D01*
X51322996Y16069044D01*
X51323920Y16068592D01*
X51393591Y15998921D01*
X51394042Y15997998D01*
X51397499Y15994541D01*
X51413978Y15957218D01*
X51437098Y15909927D01*
X51438200Y15902361D01*
X51442031Y15893685D01*
X51450000Y15825000D01*
X51450000Y15275000D01*
X51442031Y15206315D01*
X51438199Y15197639D01*
X51437098Y15190075D01*
X51413985Y15142798D01*
X51397499Y15105459D01*
X51394041Y15102002D01*
X51393591Y15101080D01*
X51323920Y15031409D01*
X51322998Y15030959D01*
X51319541Y15027501D01*
X51282207Y15011017D01*
X51234926Y14987902D01*
X51227361Y14986800D01*
X51218685Y14982969D01*
X51150000Y14975000D01*
X50750000Y14975000D01*
X50681315Y14982969D01*
X50672638Y14986800D01*
X50665074Y14987902D01*
X50617787Y15011019D01*
X50580459Y15027501D01*
X50577002Y15030958D01*
X50576079Y15031409D01*
X50506408Y15101080D01*
X50505956Y15102004D01*
X50502501Y15105459D01*
X50486025Y15142772D01*
X50462901Y15190074D01*
X50461798Y15197643D01*
X50457969Y15206315D01*
X50450000Y15275000D01*
X50450000Y15825000D01*
X50457969Y15893685D01*
X50461798Y15902358D01*
X50462901Y15909926D01*
X50486028Y15957234D01*
X50502501Y15994541D01*
X50505955Y15997996D01*
X50506408Y15998921D01*
X50576079Y16068592D01*
X50577004Y16069045D01*
X50580459Y16072499D01*
X50617761Y16088970D01*
X50665073Y16112099D01*
X50672642Y16113202D01*
X50681315Y16117031D01*
X50750000Y16125000D01*
X51150000Y16125000D01*
X51218685Y16117031D01*
G37*
G36*
X52868685Y16117031D02*
G01*
X52877358Y16113202D01*
X52884925Y16112099D01*
X52932223Y16088977D01*
X52969541Y16072499D01*
X52972996Y16069044D01*
X52973920Y16068592D01*
X53043591Y15998921D01*
X53044042Y15997998D01*
X53047499Y15994541D01*
X53063978Y15957218D01*
X53087098Y15909927D01*
X53088200Y15902361D01*
X53092031Y15893685D01*
X53100000Y15825000D01*
X53100000Y15275000D01*
X53092031Y15206315D01*
X53088199Y15197639D01*
X53087098Y15190075D01*
X53063985Y15142798D01*
X53047499Y15105459D01*
X53044041Y15102002D01*
X53043591Y15101080D01*
X52973920Y15031409D01*
X52972998Y15030959D01*
X52969541Y15027501D01*
X52932207Y15011017D01*
X52884926Y14987902D01*
X52877361Y14986800D01*
X52868685Y14982969D01*
X52800000Y14975000D01*
X52400000Y14975000D01*
X52331315Y14982969D01*
X52322638Y14986800D01*
X52315074Y14987902D01*
X52267787Y15011019D01*
X52230459Y15027501D01*
X52227002Y15030958D01*
X52226079Y15031409D01*
X52156408Y15101080D01*
X52155956Y15102004D01*
X52152501Y15105459D01*
X52136025Y15142772D01*
X52112901Y15190074D01*
X52111798Y15197643D01*
X52107969Y15206315D01*
X52100000Y15275000D01*
X52100000Y15825000D01*
X52107969Y15893685D01*
X52111798Y15902358D01*
X52112901Y15909926D01*
X52136028Y15957234D01*
X52152501Y15994541D01*
X52155955Y15997996D01*
X52156408Y15998921D01*
X52226079Y16068592D01*
X52227004Y16069045D01*
X52230459Y16072499D01*
X52267761Y16088970D01*
X52315073Y16112099D01*
X52322642Y16113202D01*
X52331315Y16117031D01*
X52400000Y16125000D01*
X52800000Y16125000D01*
X52868685Y16117031D01*
G37*
G36*
X55016547Y17949195D02*
G01*
X55067908Y17943236D01*
X55085454Y17935489D01*
X55108171Y17930970D01*
X55132491Y17914720D01*
X55153293Y17905535D01*
X55167500Y17891328D01*
X55189277Y17876777D01*
X55203827Y17855001D01*
X55218034Y17840794D01*
X55227218Y17819994D01*
X55243470Y17795671D01*
X55247989Y17772952D01*
X55255735Y17755409D01*
X55261692Y17704060D01*
X55262500Y17700000D01*
X55262500Y17400000D01*
X55261692Y17395941D01*
X55255735Y17344592D01*
X55247989Y17327050D01*
X55243470Y17304329D01*
X55227216Y17280005D01*
X55218034Y17259207D01*
X55203829Y17245003D01*
X55189277Y17223223D01*
X55167497Y17208671D01*
X55153293Y17194466D01*
X55132495Y17185284D01*
X55108171Y17169030D01*
X55085450Y17164511D01*
X55067908Y17156765D01*
X55016561Y17150808D01*
X55012500Y17150000D01*
X53987500Y17150000D01*
X53983441Y17150808D01*
X53932091Y17156765D01*
X53914548Y17164511D01*
X53891829Y17169030D01*
X53867506Y17185282D01*
X53846706Y17194466D01*
X53832499Y17208673D01*
X53810723Y17223223D01*
X53796172Y17245000D01*
X53781965Y17259207D01*
X53772780Y17280009D01*
X53756530Y17304329D01*
X53752011Y17327046D01*
X53744264Y17344592D01*
X53738305Y17395951D01*
X53737500Y17400000D01*
X53737500Y17700000D01*
X53738304Y17704047D01*
X53744264Y17755409D01*
X53752011Y17772957D01*
X53756530Y17795671D01*
X53772778Y17819990D01*
X53781965Y17840794D01*
X53796174Y17855004D01*
X53810723Y17876777D01*
X53832496Y17891326D01*
X53846706Y17905535D01*
X53867510Y17914722D01*
X53891829Y17930970D01*
X53914543Y17935489D01*
X53932091Y17943236D01*
X53983452Y17949195D01*
X53987500Y17950000D01*
X55012500Y17950000D01*
X55016547Y17949195D01*
G37*
G36*
X57291547Y17949195D02*
G01*
X57342908Y17943236D01*
X57360454Y17935489D01*
X57383171Y17930970D01*
X57407491Y17914720D01*
X57428293Y17905535D01*
X57442500Y17891328D01*
X57464277Y17876777D01*
X57478827Y17855001D01*
X57493034Y17840794D01*
X57502218Y17819994D01*
X57518470Y17795671D01*
X57522989Y17772952D01*
X57530735Y17755409D01*
X57536692Y17704060D01*
X57537500Y17700000D01*
X57537500Y17400000D01*
X57536692Y17395941D01*
X57530735Y17344592D01*
X57522989Y17327050D01*
X57518470Y17304329D01*
X57502216Y17280005D01*
X57493034Y17259207D01*
X57478829Y17245003D01*
X57464277Y17223223D01*
X57442497Y17208671D01*
X57428293Y17194466D01*
X57407495Y17185284D01*
X57383171Y17169030D01*
X57360450Y17164511D01*
X57342908Y17156765D01*
X57291561Y17150808D01*
X57287500Y17150000D01*
X56262500Y17150000D01*
X56258441Y17150808D01*
X56207091Y17156765D01*
X56189548Y17164511D01*
X56166829Y17169030D01*
X56142506Y17185282D01*
X56121706Y17194466D01*
X56107499Y17208673D01*
X56085723Y17223223D01*
X56071172Y17245000D01*
X56056965Y17259207D01*
X56047780Y17280009D01*
X56031530Y17304329D01*
X56027011Y17327046D01*
X56019264Y17344592D01*
X56013305Y17395951D01*
X56012500Y17400000D01*
X56012500Y17700000D01*
X56013304Y17704047D01*
X56019264Y17755409D01*
X56027011Y17772957D01*
X56031530Y17795671D01*
X56047778Y17819990D01*
X56056965Y17840794D01*
X56071174Y17855004D01*
X56085723Y17876777D01*
X56107496Y17891326D01*
X56121706Y17905535D01*
X56142510Y17914722D01*
X56166829Y17930970D01*
X56189543Y17935489D01*
X56207091Y17943236D01*
X56258452Y17949195D01*
X56262500Y17950000D01*
X57287500Y17950000D01*
X57291547Y17949195D01*
G37*
G36*
X58549047Y17949195D02*
G01*
X58598118Y17943502D01*
X58614883Y17936100D01*
X58636844Y17931731D01*
X58660354Y17916022D01*
X58680142Y17907285D01*
X58693656Y17893771D01*
X58714706Y17879706D01*
X58728770Y17858657D01*
X58742284Y17845143D01*
X58751020Y17825357D01*
X58766731Y17801844D01*
X58771099Y17779882D01*
X58778501Y17763119D01*
X58784192Y17714058D01*
X58785000Y17710000D01*
X58785000Y17430000D01*
X58784192Y17425941D01*
X58778501Y17376882D01*
X58771099Y17360121D01*
X58766731Y17338156D01*
X58751019Y17314642D01*
X58742284Y17294858D01*
X58728772Y17281347D01*
X58714706Y17260294D01*
X58693653Y17246228D01*
X58680142Y17232716D01*
X58660358Y17223981D01*
X58636844Y17208269D01*
X58614879Y17203901D01*
X58598118Y17196499D01*
X58549059Y17190808D01*
X58545000Y17190000D01*
X58205000Y17190000D01*
X58200942Y17190808D01*
X58151881Y17196499D01*
X58135118Y17203901D01*
X58113156Y17208269D01*
X58089643Y17223980D01*
X58069857Y17232716D01*
X58056343Y17246230D01*
X58035294Y17260294D01*
X58021229Y17281344D01*
X58007715Y17294858D01*
X57998978Y17314646D01*
X57983269Y17338156D01*
X57978900Y17360117D01*
X57971498Y17376882D01*
X57965805Y17425953D01*
X57965000Y17430000D01*
X57965000Y17710000D01*
X57965804Y17714046D01*
X57971498Y17763119D01*
X57978901Y17779886D01*
X57983269Y17801844D01*
X57998976Y17825353D01*
X58007715Y17845143D01*
X58021231Y17858660D01*
X58035294Y17879706D01*
X58056340Y17893769D01*
X58069857Y17907285D01*
X58089647Y17916024D01*
X58113156Y17931731D01*
X58135114Y17936099D01*
X58151881Y17943502D01*
X58200954Y17949196D01*
X58205000Y17950000D01*
X58545000Y17950000D01*
X58549047Y17949195D01*
G37*
G36*
X52909116Y18913926D02*
G01*
X52914447Y18911440D01*
X52917061Y18911059D01*
X52954201Y18892903D01*
X53011412Y18866224D01*
X53091224Y18786412D01*
X53117912Y18729179D01*
X53136058Y18692062D01*
X53136438Y18689451D01*
X53138926Y18684116D01*
X53150000Y18600000D01*
X53150000Y18150000D01*
X53138926Y18065884D01*
X53136438Y18060550D01*
X53136058Y18057939D01*
X53117922Y18020843D01*
X53091224Y17963588D01*
X53011412Y17883776D01*
X52954157Y17857078D01*
X52917061Y17838942D01*
X52914450Y17838562D01*
X52909116Y17836074D01*
X52825000Y17825000D01*
X52325000Y17825000D01*
X52240884Y17836074D01*
X52235549Y17838562D01*
X52232938Y17838942D01*
X52195821Y17857088D01*
X52138588Y17883776D01*
X52058776Y17963588D01*
X52032097Y18020799D01*
X52013941Y18057939D01*
X52013560Y18060553D01*
X52011074Y18065884D01*
X52000000Y18150000D01*
X52000000Y18600000D01*
X52011074Y18684116D01*
X52013560Y18689448D01*
X52013941Y18692062D01*
X52032108Y18729224D01*
X52058776Y18786412D01*
X52138588Y18866224D01*
X52195776Y18892892D01*
X52232938Y18911059D01*
X52235552Y18911440D01*
X52240884Y18913926D01*
X52325000Y18925000D01*
X52825000Y18925000D01*
X52909116Y18913926D01*
G37*
G36*
X55016547Y18899195D02*
G01*
X55067908Y18893236D01*
X55085454Y18885489D01*
X55108171Y18880970D01*
X55132491Y18864720D01*
X55153293Y18855535D01*
X55167500Y18841328D01*
X55189277Y18826777D01*
X55203827Y18805001D01*
X55218034Y18790794D01*
X55227218Y18769994D01*
X55243470Y18745671D01*
X55247989Y18722952D01*
X55255735Y18705409D01*
X55261692Y18654060D01*
X55262500Y18650000D01*
X55262500Y18350000D01*
X55261692Y18345941D01*
X55255735Y18294592D01*
X55247989Y18277050D01*
X55243470Y18254329D01*
X55227216Y18230005D01*
X55218034Y18209207D01*
X55203829Y18195003D01*
X55189277Y18173223D01*
X55167497Y18158671D01*
X55153293Y18144466D01*
X55132495Y18135284D01*
X55108171Y18119030D01*
X55085450Y18114511D01*
X55067908Y18106765D01*
X55016561Y18100808D01*
X55012500Y18100000D01*
X53987500Y18100000D01*
X53983441Y18100808D01*
X53932091Y18106765D01*
X53914548Y18114511D01*
X53891829Y18119030D01*
X53867506Y18135282D01*
X53846706Y18144466D01*
X53832499Y18158673D01*
X53810723Y18173223D01*
X53796172Y18195000D01*
X53781965Y18209207D01*
X53772780Y18230009D01*
X53756530Y18254329D01*
X53752011Y18277046D01*
X53744264Y18294592D01*
X53738305Y18345951D01*
X53737500Y18350000D01*
X53737500Y18650000D01*
X53738304Y18654047D01*
X53744264Y18705409D01*
X53752011Y18722957D01*
X53756530Y18745671D01*
X53772778Y18769990D01*
X53781965Y18790794D01*
X53796174Y18805004D01*
X53810723Y18826777D01*
X53832496Y18841326D01*
X53846706Y18855535D01*
X53867510Y18864722D01*
X53891829Y18880970D01*
X53914543Y18885489D01*
X53932091Y18893236D01*
X53983452Y18899195D01*
X53987500Y18900000D01*
X55012500Y18900000D01*
X55016547Y18899195D01*
G37*
G36*
X58549047Y18909195D02*
G01*
X58598118Y18903502D01*
X58614883Y18896100D01*
X58636844Y18891731D01*
X58660354Y18876022D01*
X58680142Y18867285D01*
X58693656Y18853771D01*
X58714706Y18839706D01*
X58728770Y18818657D01*
X58742284Y18805143D01*
X58751020Y18785357D01*
X58766731Y18761844D01*
X58771099Y18739882D01*
X58778501Y18723119D01*
X58784192Y18674058D01*
X58785000Y18670000D01*
X58785000Y18390000D01*
X58784192Y18385941D01*
X58778501Y18336882D01*
X58771099Y18320121D01*
X58766731Y18298156D01*
X58751019Y18274642D01*
X58742284Y18254858D01*
X58728772Y18241347D01*
X58714706Y18220294D01*
X58693653Y18206228D01*
X58680142Y18192716D01*
X58660358Y18183981D01*
X58636844Y18168269D01*
X58614879Y18163901D01*
X58598118Y18156499D01*
X58549059Y18150808D01*
X58545000Y18150000D01*
X58205000Y18150000D01*
X58200942Y18150808D01*
X58151881Y18156499D01*
X58135118Y18163901D01*
X58113156Y18168269D01*
X58089643Y18183980D01*
X58069857Y18192716D01*
X58056343Y18206230D01*
X58035294Y18220294D01*
X58021229Y18241344D01*
X58007715Y18254858D01*
X57998978Y18274646D01*
X57983269Y18298156D01*
X57978900Y18320117D01*
X57971498Y18336882D01*
X57965805Y18385953D01*
X57965000Y18390000D01*
X57965000Y18670000D01*
X57965804Y18674046D01*
X57971498Y18723119D01*
X57978901Y18739886D01*
X57983269Y18761844D01*
X57998976Y18785353D01*
X58007715Y18805143D01*
X58021231Y18818660D01*
X58035294Y18839706D01*
X58056340Y18853769D01*
X58069857Y18867285D01*
X58089647Y18876024D01*
X58113156Y18891731D01*
X58135114Y18896099D01*
X58151881Y18903502D01*
X58200954Y18909196D01*
X58205000Y18910000D01*
X58545000Y18910000D01*
X58549047Y18909195D01*
G37*
G36*
X55016547Y19849195D02*
G01*
X55067908Y19843236D01*
X55085454Y19835489D01*
X55108171Y19830970D01*
X55132491Y19814720D01*
X55153293Y19805535D01*
X55167500Y19791328D01*
X55189277Y19776777D01*
X55203827Y19755001D01*
X55218034Y19740794D01*
X55227218Y19719994D01*
X55243470Y19695671D01*
X55247989Y19672952D01*
X55255735Y19655409D01*
X55261692Y19604060D01*
X55262500Y19600000D01*
X55262500Y19300000D01*
X55261692Y19295941D01*
X55255735Y19244592D01*
X55247989Y19227050D01*
X55243470Y19204329D01*
X55227216Y19180005D01*
X55218034Y19159207D01*
X55203829Y19145003D01*
X55189277Y19123223D01*
X55167497Y19108671D01*
X55153293Y19094466D01*
X55132495Y19085284D01*
X55108171Y19069030D01*
X55085450Y19064511D01*
X55067908Y19056765D01*
X55016561Y19050808D01*
X55012500Y19050000D01*
X53987500Y19050000D01*
X53983441Y19050808D01*
X53932091Y19056765D01*
X53914548Y19064511D01*
X53891829Y19069030D01*
X53867506Y19085282D01*
X53846706Y19094466D01*
X53832499Y19108673D01*
X53810723Y19123223D01*
X53796172Y19145000D01*
X53781965Y19159207D01*
X53772780Y19180009D01*
X53756530Y19204329D01*
X53752011Y19227046D01*
X53744264Y19244592D01*
X53738305Y19295951D01*
X53737500Y19300000D01*
X53737500Y19600000D01*
X53738304Y19604047D01*
X53744264Y19655409D01*
X53752011Y19672957D01*
X53756530Y19695671D01*
X53772778Y19719990D01*
X53781965Y19740794D01*
X53796174Y19755004D01*
X53810723Y19776777D01*
X53832496Y19791326D01*
X53846706Y19805535D01*
X53867510Y19814722D01*
X53891829Y19830970D01*
X53914543Y19835489D01*
X53932091Y19843236D01*
X53983452Y19849195D01*
X53987500Y19850000D01*
X55012500Y19850000D01*
X55016547Y19849195D01*
G37*
G36*
X57291547Y19849195D02*
G01*
X57342908Y19843236D01*
X57360454Y19835489D01*
X57383171Y19830970D01*
X57407491Y19814720D01*
X57428293Y19805535D01*
X57442500Y19791328D01*
X57464277Y19776777D01*
X57478827Y19755001D01*
X57493034Y19740794D01*
X57502218Y19719994D01*
X57518470Y19695671D01*
X57522989Y19672952D01*
X57530735Y19655409D01*
X57536692Y19604060D01*
X57537500Y19600000D01*
X57537500Y19300000D01*
X57536692Y19295941D01*
X57530735Y19244592D01*
X57522989Y19227050D01*
X57518470Y19204329D01*
X57502216Y19180005D01*
X57493034Y19159207D01*
X57478829Y19145003D01*
X57464277Y19123223D01*
X57442497Y19108671D01*
X57428293Y19094466D01*
X57407495Y19085284D01*
X57383171Y19069030D01*
X57360450Y19064511D01*
X57342908Y19056765D01*
X57291561Y19050808D01*
X57287500Y19050000D01*
X56262500Y19050000D01*
X56258441Y19050808D01*
X56207091Y19056765D01*
X56189548Y19064511D01*
X56166829Y19069030D01*
X56142506Y19085282D01*
X56121706Y19094466D01*
X56107499Y19108673D01*
X56085723Y19123223D01*
X56071172Y19145000D01*
X56056965Y19159207D01*
X56047780Y19180009D01*
X56031530Y19204329D01*
X56027011Y19227046D01*
X56019264Y19244592D01*
X56013305Y19295951D01*
X56012500Y19300000D01*
X56012500Y19600000D01*
X56013304Y19604047D01*
X56019264Y19655409D01*
X56027011Y19672957D01*
X56031530Y19695671D01*
X56047778Y19719990D01*
X56056965Y19740794D01*
X56071174Y19755004D01*
X56085723Y19776777D01*
X56107496Y19791326D01*
X56121706Y19805535D01*
X56142510Y19814722D01*
X56166829Y19830970D01*
X56189543Y19835489D01*
X56207091Y19843236D01*
X56258452Y19849195D01*
X56262500Y19850000D01*
X57287500Y19850000D01*
X57291547Y19849195D01*
G37*
G36*
X52909116Y20463926D02*
G01*
X52914447Y20461440D01*
X52917061Y20461059D01*
X52954201Y20442903D01*
X53011412Y20416224D01*
X53091224Y20336412D01*
X53117912Y20279179D01*
X53136058Y20242062D01*
X53136438Y20239451D01*
X53138926Y20234116D01*
X53150000Y20150000D01*
X53150000Y19700000D01*
X53138926Y19615884D01*
X53136438Y19610550D01*
X53136058Y19607939D01*
X53117922Y19570843D01*
X53091224Y19513588D01*
X53011412Y19433776D01*
X52954157Y19407078D01*
X52917061Y19388942D01*
X52914450Y19388562D01*
X52909116Y19386074D01*
X52825000Y19375000D01*
X52325000Y19375000D01*
X52240884Y19386074D01*
X52235549Y19388562D01*
X52232938Y19388942D01*
X52195821Y19407088D01*
X52138588Y19433776D01*
X52058776Y19513588D01*
X52032097Y19570799D01*
X52013941Y19607939D01*
X52013560Y19610553D01*
X52011074Y19615884D01*
X52000000Y19700000D01*
X52000000Y20150000D01*
X52011074Y20234116D01*
X52013560Y20239448D01*
X52013941Y20242062D01*
X52032108Y20279224D01*
X52058776Y20336412D01*
X52138588Y20416224D01*
X52195776Y20442892D01*
X52232938Y20461059D01*
X52235552Y20461440D01*
X52240884Y20463926D01*
X52325000Y20475000D01*
X52825000Y20475000D01*
X52909116Y20463926D01*
G37*
G36*
X59309116Y20513926D02*
G01*
X59314447Y20511440D01*
X59317061Y20511059D01*
X59354201Y20492903D01*
X59411412Y20466224D01*
X59491224Y20386412D01*
X59517912Y20329179D01*
X59536058Y20292062D01*
X59536438Y20289451D01*
X59538926Y20284116D01*
X59550000Y20200000D01*
X59550000Y19700000D01*
X59538926Y19615884D01*
X59536438Y19610550D01*
X59536058Y19607939D01*
X59517922Y19570843D01*
X59491224Y19513588D01*
X59411412Y19433776D01*
X59354157Y19407078D01*
X59317061Y19388942D01*
X59314450Y19388562D01*
X59309116Y19386074D01*
X59225000Y19375000D01*
X58775000Y19375000D01*
X58690884Y19386074D01*
X58685549Y19388562D01*
X58682938Y19388942D01*
X58645821Y19407088D01*
X58588588Y19433776D01*
X58508776Y19513588D01*
X58482097Y19570799D01*
X58463941Y19607939D01*
X58463560Y19610553D01*
X58461074Y19615884D01*
X58450000Y19700000D01*
X58450000Y20200000D01*
X58461074Y20284116D01*
X58463560Y20289448D01*
X58463941Y20292062D01*
X58482108Y20329224D01*
X58508776Y20386412D01*
X58588588Y20466224D01*
X58645776Y20492892D01*
X58682938Y20511059D01*
X58685552Y20511440D01*
X58690884Y20513926D01*
X58775000Y20525000D01*
X59225000Y20525000D01*
X59309116Y20513926D01*
G37*
G36*
X60859116Y20513926D02*
G01*
X60864447Y20511440D01*
X60867061Y20511059D01*
X60904201Y20492903D01*
X60961412Y20466224D01*
X61041224Y20386412D01*
X61067912Y20329179D01*
X61086058Y20292062D01*
X61086438Y20289451D01*
X61088926Y20284116D01*
X61100000Y20200000D01*
X61100000Y19700000D01*
X61088926Y19615884D01*
X61086438Y19610550D01*
X61086058Y19607939D01*
X61067922Y19570843D01*
X61041224Y19513588D01*
X60961412Y19433776D01*
X60904157Y19407078D01*
X60867061Y19388942D01*
X60864450Y19388562D01*
X60859116Y19386074D01*
X60775000Y19375000D01*
X60325000Y19375000D01*
X60240884Y19386074D01*
X60235549Y19388562D01*
X60232938Y19388942D01*
X60195821Y19407088D01*
X60138588Y19433776D01*
X60058776Y19513588D01*
X60032097Y19570799D01*
X60013941Y19607939D01*
X60013560Y19610553D01*
X60011074Y19615884D01*
X60000000Y19700000D01*
X60000000Y20200000D01*
X60011074Y20284116D01*
X60013560Y20289448D01*
X60013941Y20292062D01*
X60032108Y20329224D01*
X60058776Y20386412D01*
X60138588Y20466224D01*
X60195776Y20492892D01*
X60232938Y20511059D01*
X60235552Y20511440D01*
X60240884Y20513926D01*
X60325000Y20525000D01*
X60775000Y20525000D01*
X60859116Y20513926D01*
G37*
G36*
X68530134Y23616844D02*
G01*
X68709220Y23558655D01*
X68876998Y23473168D01*
X69029338Y23362487D01*
X69162487Y23229338D01*
X69273168Y23076998D01*
X69358655Y22909220D01*
X69416844Y22730134D01*
X69446301Y22544151D01*
X69446301Y22355849D01*
X69416844Y22169866D01*
X69358655Y21990780D01*
X69273168Y21823002D01*
X69162487Y21670662D01*
X69029338Y21537513D01*
X68876998Y21426832D01*
X68709220Y21341345D01*
X68530134Y21283156D01*
X68344151Y21253699D01*
X68155849Y21253699D01*
X67969866Y21283156D01*
X67790780Y21341345D01*
X67623002Y21426832D01*
X67470662Y21537513D01*
X67337513Y21670662D01*
X67226832Y21823002D01*
X67141345Y21990780D01*
X67083156Y22169866D01*
X67053699Y22355849D01*
X67053699Y22544151D01*
X67083156Y22730134D01*
X67141345Y22909220D01*
X67226832Y23076998D01*
X67337513Y23229338D01*
X67470662Y23362487D01*
X67623002Y23473168D01*
X67790780Y23558655D01*
X67969866Y23616844D01*
X68155849Y23646301D01*
X68344151Y23646301D01*
X68530134Y23616844D01*
G37*
G36*
X52568858Y22844867D02*
G01*
X52578316Y22844867D01*
X52605563Y22837567D01*
X52674099Y22823934D01*
X52706448Y22810535D01*
X52729610Y22804328D01*
X52750377Y22792338D01*
X52782722Y22778940D01*
X52840816Y22740123D01*
X52865257Y22726012D01*
X52871946Y22719323D01*
X52880481Y22713620D01*
X52963619Y22630482D01*
X52969321Y22621948D01*
X52976012Y22615257D01*
X52990124Y22590814D01*
X53028939Y22532723D01*
X53042335Y22500382D01*
X53054328Y22479610D01*
X53060535Y22456445D01*
X53073933Y22424100D01*
X53087565Y22355567D01*
X53094867Y22328316D01*
X53094867Y22318859D01*
X53096870Y22308789D01*
X53096870Y22191212D01*
X53094867Y22181143D01*
X53094867Y22171684D01*
X53087564Y22144431D01*
X53073933Y22075901D01*
X53060535Y22043559D01*
X53054328Y22020390D01*
X53042334Y21999617D01*
X53028939Y21967278D01*
X52990128Y21909195D01*
X52976012Y21884743D01*
X52969319Y21878051D01*
X52963619Y21869519D01*
X52880481Y21786381D01*
X52871949Y21780681D01*
X52865257Y21773988D01*
X52840805Y21759872D01*
X52782722Y21721061D01*
X52750383Y21707666D01*
X52729610Y21695672D01*
X52706441Y21689465D01*
X52674099Y21676067D01*
X52605569Y21662436D01*
X52578316Y21655133D01*
X52568858Y21655133D01*
X52558788Y21653130D01*
X52441212Y21653130D01*
X52431142Y21655133D01*
X52421684Y21655133D01*
X52394432Y21662436D01*
X52325900Y21676067D01*
X52293555Y21689465D01*
X52270390Y21695672D01*
X52249618Y21707665D01*
X52217277Y21721061D01*
X52159186Y21759876D01*
X52134743Y21773988D01*
X52128052Y21780679D01*
X52119518Y21786381D01*
X52036380Y21869519D01*
X52030677Y21878054D01*
X52023988Y21884743D01*
X52009877Y21909184D01*
X51971060Y21967278D01*
X51957662Y21999623D01*
X51945672Y22020390D01*
X51939465Y22043552D01*
X51926066Y22075901D01*
X51912433Y22144437D01*
X51905133Y22171684D01*
X51905133Y22181142D01*
X51903130Y22191212D01*
X51903130Y22308789D01*
X51905133Y22318860D01*
X51905133Y22328316D01*
X51912433Y22355561D01*
X51926066Y22424100D01*
X51939466Y22456452D01*
X51945672Y22479610D01*
X51957660Y22500376D01*
X51971060Y22532723D01*
X52009881Y22590825D01*
X52023988Y22615257D01*
X52030675Y22621945D01*
X52036380Y22630482D01*
X52119518Y22713620D01*
X52128055Y22719325D01*
X52134743Y22726012D01*
X52159175Y22740119D01*
X52217277Y22778940D01*
X52249624Y22792340D01*
X52270390Y22804328D01*
X52293548Y22810534D01*
X52325900Y22823934D01*
X52394437Y22837567D01*
X52421684Y22844867D01*
X52431142Y22844867D01*
X52441212Y22846870D01*
X52558788Y22846870D01*
X52568858Y22844867D01*
G37*
G36*
X68530134Y27116844D02*
G01*
X68709220Y27058655D01*
X68876998Y26973168D01*
X69029338Y26862487D01*
X69162487Y26729338D01*
X69273168Y26576998D01*
X69358655Y26409220D01*
X69416844Y26230134D01*
X69446301Y26044151D01*
X69446301Y25855849D01*
X69416844Y25669866D01*
X69358655Y25490780D01*
X69273168Y25323002D01*
X69162487Y25170662D01*
X69029338Y25037513D01*
X68876998Y24926832D01*
X68709220Y24841345D01*
X68530134Y24783156D01*
X68344151Y24753699D01*
X68155849Y24753699D01*
X67969866Y24783156D01*
X67790780Y24841345D01*
X67623002Y24926832D01*
X67470662Y25037513D01*
X67337513Y25170662D01*
X67226832Y25323002D01*
X67141345Y25490780D01*
X67083156Y25669866D01*
X67053699Y25855849D01*
X67053699Y26044151D01*
X67083156Y26230134D01*
X67141345Y26409220D01*
X67226832Y26576998D01*
X67337513Y26729338D01*
X67470662Y26862487D01*
X67623002Y26973168D01*
X67790780Y27058655D01*
X67969866Y27116844D01*
X68155849Y27146301D01*
X68344151Y27146301D01*
X68530134Y27116844D01*
G37*
G36*
X7674868Y26685450D02*
G01*
X7680586Y26682655D01*
X7682962Y26682278D01*
X7720987Y26662904D01*
X7778377Y26634847D01*
X7859847Y26553377D01*
X7887907Y26495980D01*
X7907276Y26457966D01*
X7907652Y26455592D01*
X7910450Y26449868D01*
X7925000Y26350000D01*
X7925000Y25650000D01*
X7910450Y25550132D01*
X7907652Y25544411D01*
X7907277Y25542038D01*
X7887926Y25504061D01*
X7859847Y25446623D01*
X7778377Y25365153D01*
X7720955Y25337081D01*
X7682965Y25317724D01*
X7680591Y25317349D01*
X7674868Y25314550D01*
X7575000Y25300000D01*
X6425000Y25300000D01*
X6325132Y25314550D01*
X6319410Y25317348D01*
X6317037Y25317723D01*
X6279035Y25337086D01*
X6221623Y25365153D01*
X6140153Y25446623D01*
X6112104Y25503997D01*
X6092723Y25542035D01*
X6092346Y25544412D01*
X6089550Y25550132D01*
X6075000Y25650000D01*
X6075000Y26350000D01*
X6089550Y26449868D01*
X6092345Y26455587D01*
X6092722Y26457963D01*
X6112108Y26496013D01*
X6140153Y26553377D01*
X6221623Y26634847D01*
X6278971Y26662884D01*
X6317034Y26682277D01*
X6319411Y26682654D01*
X6325132Y26685450D01*
X6425000Y26700000D01*
X7575000Y26700000D01*
X7674868Y26685450D01*
G37*
G36*
X9293612Y26696629D02*
G01*
X9428199Y26669858D01*
X9554978Y26617345D01*
X9669075Y26541107D01*
X9766107Y26444075D01*
X9842345Y26329978D01*
X9894858Y26203199D01*
X9921629Y26068612D01*
X9921629Y25931388D01*
X9894858Y25796801D01*
X9842345Y25670022D01*
X9766107Y25555925D01*
X9669075Y25458893D01*
X9554978Y25382655D01*
X9428199Y25330142D01*
X9293612Y25303371D01*
X9225000Y25300000D01*
X9223768Y25300000D01*
X8776232Y25300000D01*
X8775000Y25300000D01*
X8706388Y25303371D01*
X8571801Y25330142D01*
X8445022Y25382655D01*
X8330925Y25458893D01*
X8233893Y25555925D01*
X8157655Y25670022D01*
X8105142Y25796801D01*
X8078371Y25931388D01*
X8078371Y26068612D01*
X8105142Y26203199D01*
X8157655Y26329978D01*
X8233893Y26444075D01*
X8330925Y26541107D01*
X8445022Y26617345D01*
X8571801Y26669858D01*
X8706388Y26696629D01*
X8775000Y26700000D01*
X9225000Y26700000D01*
X9293612Y26696629D01*
G37*
G36*
X7293612Y28696629D02*
G01*
X7428199Y28669858D01*
X7554978Y28617345D01*
X7669075Y28541107D01*
X7766107Y28444075D01*
X7842345Y28329978D01*
X7894858Y28203199D01*
X7921629Y28068612D01*
X7921629Y27931388D01*
X7894858Y27796801D01*
X7842345Y27670022D01*
X7766107Y27555925D01*
X7669075Y27458893D01*
X7554978Y27382655D01*
X7428199Y27330142D01*
X7293612Y27303371D01*
X7225000Y27300000D01*
X7223768Y27300000D01*
X6776232Y27300000D01*
X6775000Y27300000D01*
X6706388Y27303371D01*
X6571801Y27330142D01*
X6445022Y27382655D01*
X6330925Y27458893D01*
X6233893Y27555925D01*
X6157655Y27670022D01*
X6105142Y27796801D01*
X6078371Y27931388D01*
X6078371Y28068612D01*
X6105142Y28203199D01*
X6157655Y28329978D01*
X6233893Y28444075D01*
X6330925Y28541107D01*
X6445022Y28617345D01*
X6571801Y28669858D01*
X6706388Y28696629D01*
X6775000Y28700000D01*
X7225000Y28700000D01*
X7293612Y28696629D01*
G37*
G36*
X9293612Y28696629D02*
G01*
X9428199Y28669858D01*
X9554978Y28617345D01*
X9669075Y28541107D01*
X9766107Y28444075D01*
X9842345Y28329978D01*
X9894858Y28203199D01*
X9921629Y28068612D01*
X9921629Y27931388D01*
X9894858Y27796801D01*
X9842345Y27670022D01*
X9766107Y27555925D01*
X9669075Y27458893D01*
X9554978Y27382655D01*
X9428199Y27330142D01*
X9293612Y27303371D01*
X9225000Y27300000D01*
X9223768Y27300000D01*
X8776232Y27300000D01*
X8775000Y27300000D01*
X8706388Y27303371D01*
X8571801Y27330142D01*
X8445022Y27382655D01*
X8330925Y27458893D01*
X8233893Y27555925D01*
X8157655Y27670022D01*
X8105142Y27796801D01*
X8078371Y27931388D01*
X8078371Y28068612D01*
X8105142Y28203199D01*
X8157655Y28329978D01*
X8233893Y28444075D01*
X8330925Y28541107D01*
X8445022Y28617345D01*
X8571801Y28669858D01*
X8706388Y28696629D01*
X8775000Y28700000D01*
X9225000Y28700000D01*
X9293612Y28696629D01*
G37*
G36*
X7293612Y30696629D02*
G01*
X7428199Y30669858D01*
X7554978Y30617345D01*
X7669075Y30541107D01*
X7766107Y30444075D01*
X7842345Y30329978D01*
X7894858Y30203199D01*
X7921629Y30068612D01*
X7921629Y29931388D01*
X7894858Y29796801D01*
X7842345Y29670022D01*
X7766107Y29555925D01*
X7669075Y29458893D01*
X7554978Y29382655D01*
X7428199Y29330142D01*
X7293612Y29303371D01*
X7225000Y29300000D01*
X7223768Y29300000D01*
X6776232Y29300000D01*
X6775000Y29300000D01*
X6706388Y29303371D01*
X6571801Y29330142D01*
X6445022Y29382655D01*
X6330925Y29458893D01*
X6233893Y29555925D01*
X6157655Y29670022D01*
X6105142Y29796801D01*
X6078371Y29931388D01*
X6078371Y30068612D01*
X6105142Y30203199D01*
X6157655Y30329978D01*
X6233893Y30444075D01*
X6330925Y30541107D01*
X6445022Y30617345D01*
X6571801Y30669858D01*
X6706388Y30696629D01*
X6775000Y30700000D01*
X7225000Y30700000D01*
X7293612Y30696629D01*
G37*
G36*
X9293612Y30696629D02*
G01*
X9428199Y30669858D01*
X9554978Y30617345D01*
X9669075Y30541107D01*
X9766107Y30444075D01*
X9842345Y30329978D01*
X9894858Y30203199D01*
X9921629Y30068612D01*
X9921629Y29931388D01*
X9894858Y29796801D01*
X9842345Y29670022D01*
X9766107Y29555925D01*
X9669075Y29458893D01*
X9554978Y29382655D01*
X9428199Y29330142D01*
X9293612Y29303371D01*
X9225000Y29300000D01*
X9223768Y29300000D01*
X8776232Y29300000D01*
X8775000Y29300000D01*
X8706388Y29303371D01*
X8571801Y29330142D01*
X8445022Y29382655D01*
X8330925Y29458893D01*
X8233893Y29555925D01*
X8157655Y29670022D01*
X8105142Y29796801D01*
X8078371Y29931388D01*
X8078371Y30068612D01*
X8105142Y30203199D01*
X8157655Y30329978D01*
X8233893Y30444075D01*
X8330925Y30541107D01*
X8445022Y30617345D01*
X8571801Y30669858D01*
X8706388Y30696629D01*
X8775000Y30700000D01*
X9225000Y30700000D01*
X9293612Y30696629D01*
G37*
G36*
X7293612Y32696629D02*
G01*
X7428199Y32669858D01*
X7554978Y32617345D01*
X7669075Y32541107D01*
X7766107Y32444075D01*
X7842345Y32329978D01*
X7894858Y32203199D01*
X7921629Y32068612D01*
X7921629Y31931388D01*
X7894858Y31796801D01*
X7842345Y31670022D01*
X7766107Y31555925D01*
X7669075Y31458893D01*
X7554978Y31382655D01*
X7428199Y31330142D01*
X7293612Y31303371D01*
X7225000Y31300000D01*
X7223768Y31300000D01*
X6776232Y31300000D01*
X6775000Y31300000D01*
X6706388Y31303371D01*
X6571801Y31330142D01*
X6445022Y31382655D01*
X6330925Y31458893D01*
X6233893Y31555925D01*
X6157655Y31670022D01*
X6105142Y31796801D01*
X6078371Y31931388D01*
X6078371Y32068612D01*
X6105142Y32203199D01*
X6157655Y32329978D01*
X6233893Y32444075D01*
X6330925Y32541107D01*
X6445022Y32617345D01*
X6571801Y32669858D01*
X6706388Y32696629D01*
X6775000Y32700000D01*
X7225000Y32700000D01*
X7293612Y32696629D01*
G37*
G36*
X9293612Y32696629D02*
G01*
X9428199Y32669858D01*
X9554978Y32617345D01*
X9669075Y32541107D01*
X9766107Y32444075D01*
X9842345Y32329978D01*
X9894858Y32203199D01*
X9921629Y32068612D01*
X9921629Y31931388D01*
X9894858Y31796801D01*
X9842345Y31670022D01*
X9766107Y31555925D01*
X9669075Y31458893D01*
X9554978Y31382655D01*
X9428199Y31330142D01*
X9293612Y31303371D01*
X9225000Y31300000D01*
X9223768Y31300000D01*
X8776232Y31300000D01*
X8775000Y31300000D01*
X8706388Y31303371D01*
X8571801Y31330142D01*
X8445022Y31382655D01*
X8330925Y31458893D01*
X8233893Y31555925D01*
X8157655Y31670022D01*
X8105142Y31796801D01*
X8078371Y31931388D01*
X8078371Y32068612D01*
X8105142Y32203199D01*
X8157655Y32329978D01*
X8233893Y32444075D01*
X8330925Y32541107D01*
X8445022Y32617345D01*
X8571801Y32669858D01*
X8706388Y32696629D01*
X8775000Y32700000D01*
X9225000Y32700000D01*
X9293612Y32696629D01*
G37*
G36*
X7293612Y34696629D02*
G01*
X7428199Y34669858D01*
X7554978Y34617345D01*
X7669075Y34541107D01*
X7766107Y34444075D01*
X7842345Y34329978D01*
X7894858Y34203199D01*
X7921629Y34068612D01*
X7921629Y33931388D01*
X7894858Y33796801D01*
X7842345Y33670022D01*
X7766107Y33555925D01*
X7669075Y33458893D01*
X7554978Y33382655D01*
X7428199Y33330142D01*
X7293612Y33303371D01*
X7225000Y33300000D01*
X7223768Y33300000D01*
X6776232Y33300000D01*
X6775000Y33300000D01*
X6706388Y33303371D01*
X6571801Y33330142D01*
X6445022Y33382655D01*
X6330925Y33458893D01*
X6233893Y33555925D01*
X6157655Y33670022D01*
X6105142Y33796801D01*
X6078371Y33931388D01*
X6078371Y34068612D01*
X6105142Y34203199D01*
X6157655Y34329978D01*
X6233893Y34444075D01*
X6330925Y34541107D01*
X6445022Y34617345D01*
X6571801Y34669858D01*
X6706388Y34696629D01*
X6775000Y34700000D01*
X7225000Y34700000D01*
X7293612Y34696629D01*
G37*
G36*
X9293612Y34696629D02*
G01*
X9428199Y34669858D01*
X9554978Y34617345D01*
X9669075Y34541107D01*
X9766107Y34444075D01*
X9842345Y34329978D01*
X9894858Y34203199D01*
X9921629Y34068612D01*
X9921629Y33931388D01*
X9894858Y33796801D01*
X9842345Y33670022D01*
X9766107Y33555925D01*
X9669075Y33458893D01*
X9554978Y33382655D01*
X9428199Y33330142D01*
X9293612Y33303371D01*
X9225000Y33300000D01*
X9223768Y33300000D01*
X8776232Y33300000D01*
X8775000Y33300000D01*
X8706388Y33303371D01*
X8571801Y33330142D01*
X8445022Y33382655D01*
X8330925Y33458893D01*
X8233893Y33555925D01*
X8157655Y33670022D01*
X8105142Y33796801D01*
X8078371Y33931388D01*
X8078371Y34068612D01*
X8105142Y34203199D01*
X8157655Y34329978D01*
X8233893Y34444075D01*
X8330925Y34541107D01*
X8445022Y34617345D01*
X8571801Y34669858D01*
X8706388Y34696629D01*
X8775000Y34700000D01*
X9225000Y34700000D01*
X9293612Y34696629D01*
G37*
G36*
X7293612Y36696629D02*
G01*
X7428199Y36669858D01*
X7554978Y36617345D01*
X7669075Y36541107D01*
X7766107Y36444075D01*
X7842345Y36329978D01*
X7894858Y36203199D01*
X7921629Y36068612D01*
X7921629Y35931388D01*
X7894858Y35796801D01*
X7842345Y35670022D01*
X7766107Y35555925D01*
X7669075Y35458893D01*
X7554978Y35382655D01*
X7428199Y35330142D01*
X7293612Y35303371D01*
X7225000Y35300000D01*
X7223768Y35300000D01*
X6776232Y35300000D01*
X6775000Y35300000D01*
X6706388Y35303371D01*
X6571801Y35330142D01*
X6445022Y35382655D01*
X6330925Y35458893D01*
X6233893Y35555925D01*
X6157655Y35670022D01*
X6105142Y35796801D01*
X6078371Y35931388D01*
X6078371Y36068612D01*
X6105142Y36203199D01*
X6157655Y36329978D01*
X6233893Y36444075D01*
X6330925Y36541107D01*
X6445022Y36617345D01*
X6571801Y36669858D01*
X6706388Y36696629D01*
X6775000Y36700000D01*
X7225000Y36700000D01*
X7293612Y36696629D01*
G37*
G36*
X9293612Y36696629D02*
G01*
X9428199Y36669858D01*
X9554978Y36617345D01*
X9669075Y36541107D01*
X9766107Y36444075D01*
X9842345Y36329978D01*
X9894858Y36203199D01*
X9921629Y36068612D01*
X9921629Y35931388D01*
X9894858Y35796801D01*
X9842345Y35670022D01*
X9766107Y35555925D01*
X9669075Y35458893D01*
X9554978Y35382655D01*
X9428199Y35330142D01*
X9293612Y35303371D01*
X9225000Y35300000D01*
X9223768Y35300000D01*
X8776232Y35300000D01*
X8775000Y35300000D01*
X8706388Y35303371D01*
X8571801Y35330142D01*
X8445022Y35382655D01*
X8330925Y35458893D01*
X8233893Y35555925D01*
X8157655Y35670022D01*
X8105142Y35796801D01*
X8078371Y35931388D01*
X8078371Y36068612D01*
X8105142Y36203199D01*
X8157655Y36329978D01*
X8233893Y36444075D01*
X8330925Y36541107D01*
X8445022Y36617345D01*
X8571801Y36669858D01*
X8706388Y36696629D01*
X8775000Y36700000D01*
X9225000Y36700000D01*
X9293612Y36696629D01*
G37*
G36*
X7674868Y44685450D02*
G01*
X7680586Y44682655D01*
X7682962Y44682278D01*
X7720987Y44662904D01*
X7778377Y44634847D01*
X7859847Y44553377D01*
X7887907Y44495980D01*
X7907276Y44457966D01*
X7907652Y44455592D01*
X7910450Y44449868D01*
X7925000Y44350000D01*
X7925000Y43650000D01*
X7910450Y43550132D01*
X7907652Y43544411D01*
X7907277Y43542038D01*
X7887926Y43504061D01*
X7859847Y43446623D01*
X7778377Y43365153D01*
X7720955Y43337081D01*
X7682965Y43317724D01*
X7680591Y43317349D01*
X7674868Y43314550D01*
X7575000Y43300000D01*
X6425000Y43300000D01*
X6325132Y43314550D01*
X6319410Y43317348D01*
X6317037Y43317723D01*
X6279035Y43337086D01*
X6221623Y43365153D01*
X6140153Y43446623D01*
X6112104Y43503997D01*
X6092723Y43542035D01*
X6092346Y43544412D01*
X6089550Y43550132D01*
X6075000Y43650000D01*
X6075000Y44350000D01*
X6089550Y44449868D01*
X6092345Y44455587D01*
X6092722Y44457963D01*
X6112108Y44496013D01*
X6140153Y44553377D01*
X6221623Y44634847D01*
X6278971Y44662884D01*
X6317034Y44682277D01*
X6319411Y44682654D01*
X6325132Y44685450D01*
X6425000Y44700000D01*
X7575000Y44700000D01*
X7674868Y44685450D01*
G37*
G36*
X9293612Y44696629D02*
G01*
X9428199Y44669858D01*
X9554978Y44617345D01*
X9669075Y44541107D01*
X9766107Y44444075D01*
X9842345Y44329978D01*
X9894858Y44203199D01*
X9921629Y44068612D01*
X9921629Y43931388D01*
X9894858Y43796801D01*
X9842345Y43670022D01*
X9766107Y43555925D01*
X9669075Y43458893D01*
X9554978Y43382655D01*
X9428199Y43330142D01*
X9293612Y43303371D01*
X9225000Y43300000D01*
X9223768Y43300000D01*
X8776232Y43300000D01*
X8775000Y43300000D01*
X8706388Y43303371D01*
X8571801Y43330142D01*
X8445022Y43382655D01*
X8330925Y43458893D01*
X8233893Y43555925D01*
X8157655Y43670022D01*
X8105142Y43796801D01*
X8078371Y43931388D01*
X8078371Y44068612D01*
X8105142Y44203199D01*
X8157655Y44329978D01*
X8233893Y44444075D01*
X8330925Y44541107D01*
X8445022Y44617345D01*
X8571801Y44669858D01*
X8706388Y44696629D01*
X8775000Y44700000D01*
X9225000Y44700000D01*
X9293612Y44696629D01*
G37*
G36*
X7293612Y46696629D02*
G01*
X7428199Y46669858D01*
X7554978Y46617345D01*
X7669075Y46541107D01*
X7766107Y46444075D01*
X7842345Y46329978D01*
X7894858Y46203199D01*
X7921629Y46068612D01*
X7921629Y45931388D01*
X7894858Y45796801D01*
X7842345Y45670022D01*
X7766107Y45555925D01*
X7669075Y45458893D01*
X7554978Y45382655D01*
X7428199Y45330142D01*
X7293612Y45303371D01*
X7225000Y45300000D01*
X7223768Y45300000D01*
X6776232Y45300000D01*
X6775000Y45300000D01*
X6706388Y45303371D01*
X6571801Y45330142D01*
X6445022Y45382655D01*
X6330925Y45458893D01*
X6233893Y45555925D01*
X6157655Y45670022D01*
X6105142Y45796801D01*
X6078371Y45931388D01*
X6078371Y46068612D01*
X6105142Y46203199D01*
X6157655Y46329978D01*
X6233893Y46444075D01*
X6330925Y46541107D01*
X6445022Y46617345D01*
X6571801Y46669858D01*
X6706388Y46696629D01*
X6775000Y46700000D01*
X7225000Y46700000D01*
X7293612Y46696629D01*
G37*
G36*
X9293612Y46696629D02*
G01*
X9428199Y46669858D01*
X9554978Y46617345D01*
X9669075Y46541107D01*
X9766107Y46444075D01*
X9842345Y46329978D01*
X9894858Y46203199D01*
X9921629Y46068612D01*
X9921629Y45931388D01*
X9894858Y45796801D01*
X9842345Y45670022D01*
X9766107Y45555925D01*
X9669075Y45458893D01*
X9554978Y45382655D01*
X9428199Y45330142D01*
X9293612Y45303371D01*
X9225000Y45300000D01*
X9223768Y45300000D01*
X8776232Y45300000D01*
X8775000Y45300000D01*
X8706388Y45303371D01*
X8571801Y45330142D01*
X8445022Y45382655D01*
X8330925Y45458893D01*
X8233893Y45555925D01*
X8157655Y45670022D01*
X8105142Y45796801D01*
X8078371Y45931388D01*
X8078371Y46068612D01*
X8105142Y46203199D01*
X8157655Y46329978D01*
X8233893Y46444075D01*
X8330925Y46541107D01*
X8445022Y46617345D01*
X8571801Y46669858D01*
X8706388Y46696629D01*
X8775000Y46700000D01*
X9225000Y46700000D01*
X9293612Y46696629D01*
G37*
G36*
X7293612Y48696629D02*
G01*
X7428199Y48669858D01*
X7554978Y48617345D01*
X7669075Y48541107D01*
X7766107Y48444075D01*
X7842345Y48329978D01*
X7894858Y48203199D01*
X7921629Y48068612D01*
X7921629Y47931388D01*
X7894858Y47796801D01*
X7842345Y47670022D01*
X7766107Y47555925D01*
X7669075Y47458893D01*
X7554978Y47382655D01*
X7428199Y47330142D01*
X7293612Y47303371D01*
X7225000Y47300000D01*
X7223768Y47300000D01*
X6776232Y47300000D01*
X6775000Y47300000D01*
X6706388Y47303371D01*
X6571801Y47330142D01*
X6445022Y47382655D01*
X6330925Y47458893D01*
X6233893Y47555925D01*
X6157655Y47670022D01*
X6105142Y47796801D01*
X6078371Y47931388D01*
X6078371Y48068612D01*
X6105142Y48203199D01*
X6157655Y48329978D01*
X6233893Y48444075D01*
X6330925Y48541107D01*
X6445022Y48617345D01*
X6571801Y48669858D01*
X6706388Y48696629D01*
X6775000Y48700000D01*
X7225000Y48700000D01*
X7293612Y48696629D01*
G37*
G36*
X9293612Y48696629D02*
G01*
X9428199Y48669858D01*
X9554978Y48617345D01*
X9669075Y48541107D01*
X9766107Y48444075D01*
X9842345Y48329978D01*
X9894858Y48203199D01*
X9921629Y48068612D01*
X9921629Y47931388D01*
X9894858Y47796801D01*
X9842345Y47670022D01*
X9766107Y47555925D01*
X9669075Y47458893D01*
X9554978Y47382655D01*
X9428199Y47330142D01*
X9293612Y47303371D01*
X9225000Y47300000D01*
X9223768Y47300000D01*
X8776232Y47300000D01*
X8775000Y47300000D01*
X8706388Y47303371D01*
X8571801Y47330142D01*
X8445022Y47382655D01*
X8330925Y47458893D01*
X8233893Y47555925D01*
X8157655Y47670022D01*
X8105142Y47796801D01*
X8078371Y47931388D01*
X8078371Y48068612D01*
X8105142Y48203199D01*
X8157655Y48329978D01*
X8233893Y48444075D01*
X8330925Y48541107D01*
X8445022Y48617345D01*
X8571801Y48669858D01*
X8706388Y48696629D01*
X8775000Y48700000D01*
X9225000Y48700000D01*
X9293612Y48696629D01*
G37*
G36*
X7293612Y50696629D02*
G01*
X7428199Y50669858D01*
X7554978Y50617345D01*
X7669075Y50541107D01*
X7766107Y50444075D01*
X7842345Y50329978D01*
X7894858Y50203199D01*
X7921629Y50068612D01*
X7921629Y49931388D01*
X7894858Y49796801D01*
X7842345Y49670022D01*
X7766107Y49555925D01*
X7669075Y49458893D01*
X7554978Y49382655D01*
X7428199Y49330142D01*
X7293612Y49303371D01*
X7225000Y49300000D01*
X7223768Y49300000D01*
X6776232Y49300000D01*
X6775000Y49300000D01*
X6706388Y49303371D01*
X6571801Y49330142D01*
X6445022Y49382655D01*
X6330925Y49458893D01*
X6233893Y49555925D01*
X6157655Y49670022D01*
X6105142Y49796801D01*
X6078371Y49931388D01*
X6078371Y50068612D01*
X6105142Y50203199D01*
X6157655Y50329978D01*
X6233893Y50444075D01*
X6330925Y50541107D01*
X6445022Y50617345D01*
X6571801Y50669858D01*
X6706388Y50696629D01*
X6775000Y50700000D01*
X7225000Y50700000D01*
X7293612Y50696629D01*
G37*
G36*
X9293612Y50696629D02*
G01*
X9428199Y50669858D01*
X9554978Y50617345D01*
X9669075Y50541107D01*
X9766107Y50444075D01*
X9842345Y50329978D01*
X9894858Y50203199D01*
X9921629Y50068612D01*
X9921629Y49931388D01*
X9894858Y49796801D01*
X9842345Y49670022D01*
X9766107Y49555925D01*
X9669075Y49458893D01*
X9554978Y49382655D01*
X9428199Y49330142D01*
X9293612Y49303371D01*
X9225000Y49300000D01*
X9223768Y49300000D01*
X8776232Y49300000D01*
X8775000Y49300000D01*
X8706388Y49303371D01*
X8571801Y49330142D01*
X8445022Y49382655D01*
X8330925Y49458893D01*
X8233893Y49555925D01*
X8157655Y49670022D01*
X8105142Y49796801D01*
X8078371Y49931388D01*
X8078371Y50068612D01*
X8105142Y50203199D01*
X8157655Y50329978D01*
X8233893Y50444075D01*
X8330925Y50541107D01*
X8445022Y50617345D01*
X8571801Y50669858D01*
X8706388Y50696629D01*
X8775000Y50700000D01*
X9225000Y50700000D01*
X9293612Y50696629D01*
G37*
G36*
X7293612Y52696629D02*
G01*
X7428199Y52669858D01*
X7554978Y52617345D01*
X7669075Y52541107D01*
X7766107Y52444075D01*
X7842345Y52329978D01*
X7894858Y52203199D01*
X7921629Y52068612D01*
X7921629Y51931388D01*
X7894858Y51796801D01*
X7842345Y51670022D01*
X7766107Y51555925D01*
X7669075Y51458893D01*
X7554978Y51382655D01*
X7428199Y51330142D01*
X7293612Y51303371D01*
X7225000Y51300000D01*
X7223768Y51300000D01*
X6776232Y51300000D01*
X6775000Y51300000D01*
X6706388Y51303371D01*
X6571801Y51330142D01*
X6445022Y51382655D01*
X6330925Y51458893D01*
X6233893Y51555925D01*
X6157655Y51670022D01*
X6105142Y51796801D01*
X6078371Y51931388D01*
X6078371Y52068612D01*
X6105142Y52203199D01*
X6157655Y52329978D01*
X6233893Y52444075D01*
X6330925Y52541107D01*
X6445022Y52617345D01*
X6571801Y52669858D01*
X6706388Y52696629D01*
X6775000Y52700000D01*
X7225000Y52700000D01*
X7293612Y52696629D01*
G37*
G36*
X9293612Y52696629D02*
G01*
X9428199Y52669858D01*
X9554978Y52617345D01*
X9669075Y52541107D01*
X9766107Y52444075D01*
X9842345Y52329978D01*
X9894858Y52203199D01*
X9921629Y52068612D01*
X9921629Y51931388D01*
X9894858Y51796801D01*
X9842345Y51670022D01*
X9766107Y51555925D01*
X9669075Y51458893D01*
X9554978Y51382655D01*
X9428199Y51330142D01*
X9293612Y51303371D01*
X9225000Y51300000D01*
X9223768Y51300000D01*
X8776232Y51300000D01*
X8775000Y51300000D01*
X8706388Y51303371D01*
X8571801Y51330142D01*
X8445022Y51382655D01*
X8330925Y51458893D01*
X8233893Y51555925D01*
X8157655Y51670022D01*
X8105142Y51796801D01*
X8078371Y51931388D01*
X8078371Y52068612D01*
X8105142Y52203199D01*
X8157655Y52329978D01*
X8233893Y52444075D01*
X8330925Y52541107D01*
X8445022Y52617345D01*
X8571801Y52669858D01*
X8706388Y52696629D01*
X8775000Y52700000D01*
X9225000Y52700000D01*
X9293612Y52696629D01*
G37*
G36*
X21799868Y54310450D02*
G01*
X21805586Y54307655D01*
X21807962Y54307278D01*
X21845987Y54287904D01*
X21903377Y54259847D01*
X21984847Y54178377D01*
X22012907Y54120980D01*
X22032276Y54082966D01*
X22032652Y54080592D01*
X22035450Y54074868D01*
X22050000Y53975000D01*
X22050000Y53025000D01*
X22035450Y52925132D01*
X22032652Y52919411D01*
X22032277Y52917038D01*
X22012926Y52879061D01*
X21984847Y52821623D01*
X21903377Y52740153D01*
X21845955Y52712081D01*
X21807965Y52692724D01*
X21805591Y52692349D01*
X21799868Y52689550D01*
X21700000Y52675000D01*
X21200000Y52675000D01*
X21100132Y52689550D01*
X21094410Y52692348D01*
X21092037Y52692723D01*
X21054035Y52712086D01*
X20996623Y52740153D01*
X20915153Y52821623D01*
X20887104Y52878997D01*
X20867723Y52917035D01*
X20867346Y52919412D01*
X20864550Y52925132D01*
X20850000Y53025000D01*
X20850000Y53975000D01*
X20864550Y54074868D01*
X20867345Y54080587D01*
X20867722Y54082963D01*
X20887108Y54121013D01*
X20915153Y54178377D01*
X20996623Y54259847D01*
X21053971Y54287884D01*
X21092034Y54307277D01*
X21094411Y54307654D01*
X21100132Y54310450D01*
X21200000Y54325000D01*
X21700000Y54325000D01*
X21799868Y54310450D01*
G37*
G36*
X23699868Y54310450D02*
G01*
X23705586Y54307655D01*
X23707962Y54307278D01*
X23745987Y54287904D01*
X23803377Y54259847D01*
X23884847Y54178377D01*
X23912907Y54120980D01*
X23932276Y54082966D01*
X23932652Y54080592D01*
X23935450Y54074868D01*
X23950000Y53975000D01*
X23950000Y53025000D01*
X23935450Y52925132D01*
X23932652Y52919411D01*
X23932277Y52917038D01*
X23912926Y52879061D01*
X23884847Y52821623D01*
X23803377Y52740153D01*
X23745955Y52712081D01*
X23707965Y52692724D01*
X23705591Y52692349D01*
X23699868Y52689550D01*
X23600000Y52675000D01*
X23100000Y52675000D01*
X23000132Y52689550D01*
X22994410Y52692348D01*
X22992037Y52692723D01*
X22954035Y52712086D01*
X22896623Y52740153D01*
X22815153Y52821623D01*
X22787104Y52878997D01*
X22767723Y52917035D01*
X22767346Y52919412D01*
X22764550Y52925132D01*
X22750000Y53025000D01*
X22750000Y53975000D01*
X22764550Y54074868D01*
X22767345Y54080587D01*
X22767722Y54082963D01*
X22787108Y54121013D01*
X22815153Y54178377D01*
X22896623Y54259847D01*
X22953971Y54287884D01*
X22992034Y54307277D01*
X22994411Y54307654D01*
X23000132Y54310450D01*
X23100000Y54325000D01*
X23600000Y54325000D01*
X23699868Y54310450D01*
G37*
G36*
X7293612Y54696629D02*
G01*
X7428199Y54669858D01*
X7554978Y54617345D01*
X7669075Y54541107D01*
X7766107Y54444075D01*
X7842345Y54329978D01*
X7894858Y54203199D01*
X7921629Y54068612D01*
X7921629Y53931388D01*
X7894858Y53796801D01*
X7842345Y53670022D01*
X7766107Y53555925D01*
X7669075Y53458893D01*
X7554978Y53382655D01*
X7428199Y53330142D01*
X7293612Y53303371D01*
X7225000Y53300000D01*
X7223768Y53300000D01*
X6776232Y53300000D01*
X6775000Y53300000D01*
X6706388Y53303371D01*
X6571801Y53330142D01*
X6445022Y53382655D01*
X6330925Y53458893D01*
X6233893Y53555925D01*
X6157655Y53670022D01*
X6105142Y53796801D01*
X6078371Y53931388D01*
X6078371Y54068612D01*
X6105142Y54203199D01*
X6157655Y54329978D01*
X6233893Y54444075D01*
X6330925Y54541107D01*
X6445022Y54617345D01*
X6571801Y54669858D01*
X6706388Y54696629D01*
X6775000Y54700000D01*
X7225000Y54700000D01*
X7293612Y54696629D01*
G37*
G36*
X9293612Y54696629D02*
G01*
X9428199Y54669858D01*
X9554978Y54617345D01*
X9669075Y54541107D01*
X9766107Y54444075D01*
X9842345Y54329978D01*
X9894858Y54203199D01*
X9921629Y54068612D01*
X9921629Y53931388D01*
X9894858Y53796801D01*
X9842345Y53670022D01*
X9766107Y53555925D01*
X9669075Y53458893D01*
X9554978Y53382655D01*
X9428199Y53330142D01*
X9293612Y53303371D01*
X9225000Y53300000D01*
X9223768Y53300000D01*
X8776232Y53300000D01*
X8775000Y53300000D01*
X8706388Y53303371D01*
X8571801Y53330142D01*
X8445022Y53382655D01*
X8330925Y53458893D01*
X8233893Y53555925D01*
X8157655Y53670022D01*
X8105142Y53796801D01*
X8078371Y53931388D01*
X8078371Y54068612D01*
X8105142Y54203199D01*
X8157655Y54329978D01*
X8233893Y54444075D01*
X8330925Y54541107D01*
X8445022Y54617345D01*
X8571801Y54669858D01*
X8706388Y54696629D01*
X8775000Y54700000D01*
X9225000Y54700000D01*
X9293612Y54696629D01*
G37*
G36*
X34824868Y55085450D02*
G01*
X34830586Y55082655D01*
X34832962Y55082278D01*
X34870987Y55062904D01*
X34928377Y55034847D01*
X35009847Y54953377D01*
X35037907Y54895980D01*
X35057276Y54857966D01*
X35057652Y54855592D01*
X35060450Y54849868D01*
X35075000Y54750000D01*
X35075000Y54250000D01*
X35060450Y54150132D01*
X35057652Y54144411D01*
X35057277Y54142038D01*
X35037926Y54104061D01*
X35009847Y54046623D01*
X34928377Y53965153D01*
X34870955Y53937081D01*
X34832965Y53917724D01*
X34830591Y53917349D01*
X34824868Y53914550D01*
X34725000Y53900000D01*
X33775000Y53900000D01*
X33675132Y53914550D01*
X33669410Y53917348D01*
X33667037Y53917723D01*
X33629035Y53937086D01*
X33571623Y53965153D01*
X33490153Y54046623D01*
X33462104Y54103997D01*
X33442723Y54142035D01*
X33442346Y54144412D01*
X33439550Y54150132D01*
X33425000Y54250000D01*
X33425000Y54750000D01*
X33439550Y54849868D01*
X33442345Y54855587D01*
X33442722Y54857963D01*
X33462108Y54896013D01*
X33490153Y54953377D01*
X33571623Y55034847D01*
X33628971Y55062884D01*
X33667034Y55082277D01*
X33669411Y55082654D01*
X33675132Y55085450D01*
X33775000Y55100000D01*
X34725000Y55100000D01*
X34824868Y55085450D01*
G37*
G36*
X37324868Y55085450D02*
G01*
X37330586Y55082655D01*
X37332962Y55082278D01*
X37370987Y55062904D01*
X37428377Y55034847D01*
X37509847Y54953377D01*
X37537907Y54895980D01*
X37557276Y54857966D01*
X37557652Y54855592D01*
X37560450Y54849868D01*
X37575000Y54750000D01*
X37575000Y54250000D01*
X37560450Y54150132D01*
X37557652Y54144411D01*
X37557277Y54142038D01*
X37537926Y54104061D01*
X37509847Y54046623D01*
X37428377Y53965153D01*
X37370955Y53937081D01*
X37332965Y53917724D01*
X37330591Y53917349D01*
X37324868Y53914550D01*
X37225000Y53900000D01*
X36275000Y53900000D01*
X36175132Y53914550D01*
X36169410Y53917348D01*
X36167037Y53917723D01*
X36129035Y53937086D01*
X36071623Y53965153D01*
X35990153Y54046623D01*
X35962104Y54103997D01*
X35942723Y54142035D01*
X35942346Y54144412D01*
X35939550Y54150132D01*
X35925000Y54250000D01*
X35925000Y54750000D01*
X35939550Y54849868D01*
X35942345Y54855587D01*
X35942722Y54857963D01*
X35962108Y54896013D01*
X35990153Y54953377D01*
X36071623Y55034847D01*
X36128971Y55062884D01*
X36167034Y55082277D01*
X36169411Y55082654D01*
X36175132Y55085450D01*
X36275000Y55100000D01*
X37225000Y55100000D01*
X37324868Y55085450D01*
G37*
G36*
X39824868Y55085450D02*
G01*
X39830586Y55082655D01*
X39832962Y55082278D01*
X39870987Y55062904D01*
X39928377Y55034847D01*
X40009847Y54953377D01*
X40037907Y54895980D01*
X40057276Y54857966D01*
X40057652Y54855592D01*
X40060450Y54849868D01*
X40075000Y54750000D01*
X40075000Y54250000D01*
X40060450Y54150132D01*
X40057652Y54144411D01*
X40057277Y54142038D01*
X40037926Y54104061D01*
X40009847Y54046623D01*
X39928377Y53965153D01*
X39870955Y53937081D01*
X39832965Y53917724D01*
X39830591Y53917349D01*
X39824868Y53914550D01*
X39725000Y53900000D01*
X38775000Y53900000D01*
X38675132Y53914550D01*
X38669410Y53917348D01*
X38667037Y53917723D01*
X38629035Y53937086D01*
X38571623Y53965153D01*
X38490153Y54046623D01*
X38462104Y54103997D01*
X38442723Y54142035D01*
X38442346Y54144412D01*
X38439550Y54150132D01*
X38425000Y54250000D01*
X38425000Y54750000D01*
X38439550Y54849868D01*
X38442345Y54855587D01*
X38442722Y54857963D01*
X38462108Y54896013D01*
X38490153Y54953377D01*
X38571623Y55034847D01*
X38628971Y55062884D01*
X38667034Y55082277D01*
X38669411Y55082654D01*
X38675132Y55085450D01*
X38775000Y55100000D01*
X39725000Y55100000D01*
X39824868Y55085450D01*
G37*
G36*
X21764047Y56109195D02*
G01*
X21813118Y56103502D01*
X21829883Y56096100D01*
X21851844Y56091731D01*
X21875354Y56076022D01*
X21895142Y56067285D01*
X21908656Y56053771D01*
X21929706Y56039706D01*
X21943770Y56018657D01*
X21957284Y56005143D01*
X21966020Y55985357D01*
X21981731Y55961844D01*
X21986099Y55939882D01*
X21993501Y55923119D01*
X21999192Y55874058D01*
X22000000Y55870000D01*
X22000000Y55530000D01*
X21999192Y55525941D01*
X21993501Y55476882D01*
X21986099Y55460121D01*
X21981731Y55438156D01*
X21966019Y55414642D01*
X21957284Y55394858D01*
X21943772Y55381347D01*
X21929706Y55360294D01*
X21908653Y55346228D01*
X21895142Y55332716D01*
X21875358Y55323981D01*
X21851844Y55308269D01*
X21829879Y55303901D01*
X21813118Y55296499D01*
X21764059Y55290808D01*
X21760000Y55290000D01*
X21480000Y55290000D01*
X21475942Y55290808D01*
X21426881Y55296499D01*
X21410118Y55303901D01*
X21388156Y55308269D01*
X21364643Y55323980D01*
X21344857Y55332716D01*
X21331343Y55346230D01*
X21310294Y55360294D01*
X21296229Y55381344D01*
X21282715Y55394858D01*
X21273978Y55414646D01*
X21258269Y55438156D01*
X21253900Y55460117D01*
X21246498Y55476882D01*
X21240805Y55525953D01*
X21240000Y55530000D01*
X21240000Y55870000D01*
X21240804Y55874046D01*
X21246498Y55923119D01*
X21253901Y55939886D01*
X21258269Y55961844D01*
X21273976Y55985353D01*
X21282715Y56005143D01*
X21296231Y56018660D01*
X21310294Y56039706D01*
X21331340Y56053769D01*
X21344857Y56067285D01*
X21364647Y56076024D01*
X21388156Y56091731D01*
X21410114Y56096099D01*
X21426881Y56103502D01*
X21475954Y56109196D01*
X21480000Y56110000D01*
X21760000Y56110000D01*
X21764047Y56109195D01*
G37*
G36*
X22724047Y56109195D02*
G01*
X22773118Y56103502D01*
X22789883Y56096100D01*
X22811844Y56091731D01*
X22835354Y56076022D01*
X22855142Y56067285D01*
X22868656Y56053771D01*
X22889706Y56039706D01*
X22903770Y56018657D01*
X22917284Y56005143D01*
X22926020Y55985357D01*
X22941731Y55961844D01*
X22946099Y55939882D01*
X22953501Y55923119D01*
X22959192Y55874058D01*
X22960000Y55870000D01*
X22960000Y55530000D01*
X22959192Y55525941D01*
X22953501Y55476882D01*
X22946099Y55460121D01*
X22941731Y55438156D01*
X22926019Y55414642D01*
X22917284Y55394858D01*
X22903772Y55381347D01*
X22889706Y55360294D01*
X22868653Y55346228D01*
X22855142Y55332716D01*
X22835358Y55323981D01*
X22811844Y55308269D01*
X22789879Y55303901D01*
X22773118Y55296499D01*
X22724059Y55290808D01*
X22720000Y55290000D01*
X22440000Y55290000D01*
X22435942Y55290808D01*
X22386881Y55296499D01*
X22370118Y55303901D01*
X22348156Y55308269D01*
X22324643Y55323980D01*
X22304857Y55332716D01*
X22291343Y55346230D01*
X22270294Y55360294D01*
X22256229Y55381344D01*
X22242715Y55394858D01*
X22233978Y55414646D01*
X22218269Y55438156D01*
X22213900Y55460117D01*
X22206498Y55476882D01*
X22200805Y55525953D01*
X22200000Y55530000D01*
X22200000Y55870000D01*
X22200804Y55874046D01*
X22206498Y55923119D01*
X22213901Y55939886D01*
X22218269Y55961844D01*
X22233976Y55985353D01*
X22242715Y56005143D01*
X22256231Y56018660D01*
X22270294Y56039706D01*
X22291340Y56053769D01*
X22304857Y56067285D01*
X22324647Y56076024D01*
X22348156Y56091731D01*
X22370114Y56096099D01*
X22386881Y56103502D01*
X22435954Y56109196D01*
X22440000Y56110000D01*
X22720000Y56110000D01*
X22724047Y56109195D01*
G37*
G36*
X27284868Y60585450D02*
G01*
X27290586Y60582655D01*
X27292962Y60582278D01*
X27330987Y60562904D01*
X27388377Y60534847D01*
X27469847Y60453377D01*
X27497907Y60395980D01*
X27517276Y60357966D01*
X27517652Y60355592D01*
X27520450Y60349868D01*
X27535000Y60250000D01*
X27535000Y56050000D01*
X27520450Y55950132D01*
X27517652Y55944411D01*
X27517277Y55942038D01*
X27497926Y55904061D01*
X27469847Y55846623D01*
X27388377Y55765153D01*
X27330955Y55737081D01*
X27292965Y55717724D01*
X27290591Y55717349D01*
X27284868Y55714550D01*
X27185000Y55700000D01*
X26505000Y55700000D01*
X26405132Y55714550D01*
X26399410Y55717348D01*
X26397037Y55717723D01*
X26359035Y55737086D01*
X26301623Y55765153D01*
X26220153Y55846623D01*
X26192104Y55903997D01*
X26172723Y55942035D01*
X26172346Y55944412D01*
X26169550Y55950132D01*
X26155000Y56050000D01*
X26155000Y60250000D01*
X26169550Y60349868D01*
X26172345Y60355587D01*
X26172722Y60357963D01*
X26192108Y60396013D01*
X26220153Y60453377D01*
X26301623Y60534847D01*
X26358971Y60562884D01*
X26397034Y60582277D01*
X26399411Y60582654D01*
X26405132Y60585450D01*
X26505000Y60600000D01*
X27185000Y60600000D01*
X27284868Y60585450D01*
G37*
G36*
X30594868Y60585450D02*
G01*
X30600586Y60582655D01*
X30602962Y60582278D01*
X30640987Y60562904D01*
X30698377Y60534847D01*
X30779847Y60453377D01*
X30807907Y60395980D01*
X30827276Y60357966D01*
X30827652Y60355592D01*
X30830450Y60349868D01*
X30845000Y60250000D01*
X30845000Y56050000D01*
X30830450Y55950132D01*
X30827652Y55944411D01*
X30827277Y55942038D01*
X30807926Y55904061D01*
X30779847Y55846623D01*
X30698377Y55765153D01*
X30640955Y55737081D01*
X30602965Y55717724D01*
X30600591Y55717349D01*
X30594868Y55714550D01*
X30495000Y55700000D01*
X29815000Y55700000D01*
X29715132Y55714550D01*
X29709410Y55717348D01*
X29707037Y55717723D01*
X29669035Y55737086D01*
X29611623Y55765153D01*
X29530153Y55846623D01*
X29502104Y55903997D01*
X29482723Y55942035D01*
X29482346Y55944412D01*
X29479550Y55950132D01*
X29465000Y56050000D01*
X29465000Y60250000D01*
X29479550Y60349868D01*
X29482345Y60355587D01*
X29482722Y60357963D01*
X29502108Y60396013D01*
X29530153Y60453377D01*
X29611623Y60534847D01*
X29668971Y60562884D01*
X29707034Y60582277D01*
X29709411Y60582654D01*
X29715132Y60585450D01*
X29815000Y60600000D01*
X30495000Y60600000D01*
X30594868Y60585450D01*
G37*
G36*
X34824868Y56985450D02*
G01*
X34830586Y56982655D01*
X34832962Y56982278D01*
X34870987Y56962904D01*
X34928377Y56934847D01*
X35009847Y56853377D01*
X35037907Y56795980D01*
X35057276Y56757966D01*
X35057652Y56755592D01*
X35060450Y56749868D01*
X35075000Y56650000D01*
X35075000Y56150000D01*
X35060450Y56050132D01*
X35057652Y56044411D01*
X35057277Y56042038D01*
X35037926Y56004061D01*
X35009847Y55946623D01*
X34928377Y55865153D01*
X34870955Y55837081D01*
X34832965Y55817724D01*
X34830591Y55817349D01*
X34824868Y55814550D01*
X34725000Y55800000D01*
X33775000Y55800000D01*
X33675132Y55814550D01*
X33669410Y55817348D01*
X33667037Y55817723D01*
X33629035Y55837086D01*
X33571623Y55865153D01*
X33490153Y55946623D01*
X33462104Y56003997D01*
X33442723Y56042035D01*
X33442346Y56044412D01*
X33439550Y56050132D01*
X33425000Y56150000D01*
X33425000Y56650000D01*
X33439550Y56749868D01*
X33442345Y56755587D01*
X33442722Y56757963D01*
X33462108Y56796013D01*
X33490153Y56853377D01*
X33571623Y56934847D01*
X33628971Y56962884D01*
X33667034Y56982277D01*
X33669411Y56982654D01*
X33675132Y56985450D01*
X33775000Y57000000D01*
X34725000Y57000000D01*
X34824868Y56985450D01*
G37*
G36*
X37324868Y56985450D02*
G01*
X37330586Y56982655D01*
X37332962Y56982278D01*
X37370987Y56962904D01*
X37428377Y56934847D01*
X37509847Y56853377D01*
X37537907Y56795980D01*
X37557276Y56757966D01*
X37557652Y56755592D01*
X37560450Y56749868D01*
X37575000Y56650000D01*
X37575000Y56150000D01*
X37560450Y56050132D01*
X37557652Y56044411D01*
X37557277Y56042038D01*
X37537926Y56004061D01*
X37509847Y55946623D01*
X37428377Y55865153D01*
X37370955Y55837081D01*
X37332965Y55817724D01*
X37330591Y55817349D01*
X37324868Y55814550D01*
X37225000Y55800000D01*
X36275000Y55800000D01*
X36175132Y55814550D01*
X36169410Y55817348D01*
X36167037Y55817723D01*
X36129035Y55837086D01*
X36071623Y55865153D01*
X35990153Y55946623D01*
X35962104Y56003997D01*
X35942723Y56042035D01*
X35942346Y56044412D01*
X35939550Y56050132D01*
X35925000Y56150000D01*
X35925000Y56650000D01*
X35939550Y56749868D01*
X35942345Y56755587D01*
X35942722Y56757963D01*
X35962108Y56796013D01*
X35990153Y56853377D01*
X36071623Y56934847D01*
X36128971Y56962884D01*
X36167034Y56982277D01*
X36169411Y56982654D01*
X36175132Y56985450D01*
X36275000Y57000000D01*
X37225000Y57000000D01*
X37324868Y56985450D01*
G37*
G36*
X39824868Y56985450D02*
G01*
X39830586Y56982655D01*
X39832962Y56982278D01*
X39870987Y56962904D01*
X39928377Y56934847D01*
X40009847Y56853377D01*
X40037907Y56795980D01*
X40057276Y56757966D01*
X40057652Y56755592D01*
X40060450Y56749868D01*
X40075000Y56650000D01*
X40075000Y56150000D01*
X40060450Y56050132D01*
X40057652Y56044411D01*
X40057277Y56042038D01*
X40037926Y56004061D01*
X40009847Y55946623D01*
X39928377Y55865153D01*
X39870955Y55837081D01*
X39832965Y55817724D01*
X39830591Y55817349D01*
X39824868Y55814550D01*
X39725000Y55800000D01*
X38775000Y55800000D01*
X38675132Y55814550D01*
X38669410Y55817348D01*
X38667037Y55817723D01*
X38629035Y55837086D01*
X38571623Y55865153D01*
X38490153Y55946623D01*
X38462104Y56003997D01*
X38442723Y56042035D01*
X38442346Y56044412D01*
X38439550Y56050132D01*
X38425000Y56150000D01*
X38425000Y56650000D01*
X38439550Y56749868D01*
X38442345Y56755587D01*
X38442722Y56757963D01*
X38462108Y56796013D01*
X38490153Y56853377D01*
X38571623Y56934847D01*
X38628971Y56962884D01*
X38667034Y56982277D01*
X38669411Y56982654D01*
X38675132Y56985450D01*
X38775000Y57000000D01*
X39725000Y57000000D01*
X39824868Y56985450D01*
G37*
G36*
X20134134Y57821194D02*
G01*
X20150355Y57810355D01*
X20161194Y57794134D01*
X20165000Y57775000D01*
X20165000Y57525000D01*
X20161194Y57505866D01*
X20150355Y57489645D01*
X20134134Y57478806D01*
X20131670Y57478317D01*
X20105712Y57460970D01*
X20127240Y57390000D01*
X20165000Y57390000D01*
X20186047Y57385813D01*
X20190591Y57383931D01*
X20190595Y57383930D01*
X20217622Y57372736D01*
X20217625Y57372733D01*
X20224938Y57369704D01*
X20246986Y57347657D01*
X20253382Y57342194D01*
X20254351Y57340292D01*
X20254704Y57339939D01*
X20254704Y57339938D01*
X20255452Y57338130D01*
X20255459Y57338118D01*
X20268929Y57305596D01*
X20270813Y57301047D01*
X20275000Y57280000D01*
X20275000Y57275074D01*
X20281466Y57242565D01*
X20363533Y57242565D01*
X20370000Y57275079D01*
X20370000Y57280000D01*
X20373806Y57299134D01*
X20384645Y57315355D01*
X20400866Y57326194D01*
X20420000Y57330000D01*
X20670000Y57330000D01*
X20689134Y57326194D01*
X20705355Y57315355D01*
X20716194Y57299134D01*
X20720000Y57280000D01*
X20720000Y56700000D01*
X20716194Y56680866D01*
X20705355Y56664645D01*
X20689134Y56653806D01*
X20670000Y56650000D01*
X20420000Y56650000D01*
X20400866Y56653806D01*
X20384645Y56664645D01*
X20373806Y56680866D01*
X20370000Y56700000D01*
X20370000Y56704926D01*
X20363534Y56737438D01*
X20281465Y56737438D01*
X20275000Y56704932D01*
X20275000Y56700000D01*
X20270813Y56678953D01*
X20268929Y56674405D01*
X20268928Y56674401D01*
X20257735Y56647378D01*
X20257733Y56647377D01*
X20254704Y56640062D01*
X20232649Y56618007D01*
X20227193Y56611618D01*
X20225292Y56610650D01*
X20224939Y56610296D01*
X20224938Y56610296D01*
X20223124Y56609545D01*
X20223117Y56609541D01*
X20196994Y56598722D01*
X20186047Y56594187D01*
X20165000Y56590000D01*
X20160078Y56590000D01*
X19889922Y56590000D01*
X19885000Y56590000D01*
X19863953Y56594187D01*
X19859405Y56596071D01*
X19859404Y56596071D01*
X19832377Y56607265D01*
X19832374Y56607268D01*
X19825062Y56610296D01*
X19803012Y56632345D01*
X19796617Y56637807D01*
X19795647Y56639710D01*
X19795296Y56640061D01*
X19795296Y56640062D01*
X19794549Y56641865D01*
X19794540Y56641883D01*
X19781070Y56674405D01*
X19781069Y56674409D01*
X19779187Y56678953D01*
X19775000Y56700000D01*
X19775000Y56910711D01*
X19745711Y56940000D01*
X19535000Y56940000D01*
X19513953Y56944187D01*
X19509405Y56946071D01*
X19509404Y56946071D01*
X19482377Y56957265D01*
X19482374Y56957268D01*
X19475062Y56960296D01*
X19453012Y56982345D01*
X19446617Y56987807D01*
X19445647Y56989710D01*
X19445296Y56990061D01*
X19445296Y56990062D01*
X19444549Y56991865D01*
X19444540Y56991883D01*
X19431070Y57024405D01*
X19431069Y57024409D01*
X19429187Y57028953D01*
X19425000Y57050000D01*
X19425000Y57280000D01*
X19429187Y57301047D01*
X19431068Y57305591D01*
X19431070Y57305596D01*
X19442264Y57332623D01*
X19442268Y57332628D01*
X19445296Y57339938D01*
X19467337Y57361981D01*
X19472806Y57368383D01*
X19474710Y57369354D01*
X19475061Y57369704D01*
X19475062Y57369704D01*
X19476859Y57370449D01*
X19476882Y57370460D01*
X19509411Y57383933D01*
X19509417Y57383935D01*
X19513953Y57385813D01*
X19535000Y57390000D01*
X19539858Y57390000D01*
X19547325Y57391488D01*
X19547269Y57473581D01*
X19540099Y57475000D01*
X19535000Y57475000D01*
X19515866Y57478806D01*
X19499645Y57489645D01*
X19488806Y57505866D01*
X19485000Y57525000D01*
X19485000Y57775000D01*
X19488806Y57794134D01*
X19499645Y57810355D01*
X19515866Y57821194D01*
X19535000Y57825000D01*
X20115000Y57825000D01*
X20134134Y57821194D01*
G37*
G36*
X22446047Y59705813D02*
G01*
X22450591Y59703931D01*
X22450595Y59703930D01*
X22477622Y59692736D01*
X22477625Y59692733D01*
X22484938Y59689704D01*
X22506986Y59667657D01*
X22513382Y59662194D01*
X22514351Y59660292D01*
X22514704Y59659939D01*
X22514704Y59659938D01*
X22515452Y59658130D01*
X22515459Y59658118D01*
X22528929Y59625596D01*
X22530813Y59621047D01*
X22535000Y59600000D01*
X22535000Y59595078D01*
X22535000Y59289289D01*
X22564289Y59260000D01*
X22930078Y59260000D01*
X22935000Y59260000D01*
X22956047Y59255813D01*
X22960591Y59253931D01*
X22960595Y59253930D01*
X22987622Y59242736D01*
X22987625Y59242733D01*
X22994938Y59239704D01*
X23016986Y59217657D01*
X23023382Y59212194D01*
X23024351Y59210292D01*
X23024704Y59209939D01*
X23024704Y59209938D01*
X23025452Y59208130D01*
X23025459Y59208118D01*
X23038929Y59175596D01*
X23040813Y59171047D01*
X23045000Y59150000D01*
X23045000Y58750000D01*
X23040813Y58728953D01*
X23038928Y58724405D01*
X23038929Y58724405D01*
X23027735Y58697378D01*
X23027733Y58697377D01*
X23024704Y58690062D01*
X23002644Y58668002D01*
X22987316Y58650055D01*
X22990566Y58608762D01*
X22997624Y58602734D01*
X23004938Y58599704D01*
X23026986Y58577657D01*
X23033382Y58572194D01*
X23034351Y58570292D01*
X23034704Y58569939D01*
X23034704Y58569938D01*
X23035452Y58568130D01*
X23035459Y58568118D01*
X23048929Y58535596D01*
X23050813Y58531047D01*
X23055000Y58510000D01*
X23055000Y58290000D01*
X23050813Y58268953D01*
X23048928Y58264405D01*
X23048929Y58264405D01*
X23037735Y58237378D01*
X23037733Y58237377D01*
X23034704Y58230062D01*
X23012647Y58208005D01*
X22988160Y58179334D01*
X22991410Y58138041D01*
X22997624Y58132734D01*
X23004938Y58129704D01*
X23026986Y58107656D01*
X23033382Y58102194D01*
X23034351Y58100292D01*
X23034704Y58099939D01*
X23034704Y58099938D01*
X23035452Y58098130D01*
X23035459Y58098118D01*
X23048929Y58065596D01*
X23050813Y58061047D01*
X23055000Y58040000D01*
X23055000Y57810000D01*
X23050813Y57788953D01*
X23048928Y57784405D01*
X23048929Y57784405D01*
X23037735Y57757378D01*
X23037733Y57757377D01*
X23034704Y57750062D01*
X23010933Y57726000D01*
X23007092Y57721501D01*
X23005862Y57720866D01*
X23005557Y57720556D01*
X23003846Y57719824D01*
X22986137Y57710666D01*
X22980034Y57657757D01*
X22997624Y57642734D01*
X23004938Y57639704D01*
X23026986Y57617657D01*
X23033382Y57612194D01*
X23034351Y57610292D01*
X23034704Y57609939D01*
X23034704Y57609938D01*
X23035452Y57608130D01*
X23035459Y57608118D01*
X23048929Y57575596D01*
X23050813Y57571047D01*
X23055000Y57550000D01*
X23055000Y57150000D01*
X23050813Y57128953D01*
X23048928Y57124405D01*
X23048929Y57124405D01*
X23037735Y57097378D01*
X23037733Y57097377D01*
X23034704Y57090062D01*
X23012649Y57068007D01*
X23007193Y57061618D01*
X23005292Y57060650D01*
X23004939Y57060296D01*
X23004938Y57060296D01*
X23003124Y57059545D01*
X23003117Y57059541D01*
X22980081Y57050000D01*
X22966047Y57044187D01*
X22945000Y57040000D01*
X22940078Y57040000D01*
X22564289Y57040000D01*
X22535000Y57010711D01*
X22535000Y56700000D01*
X22530813Y56678953D01*
X22527245Y56670339D01*
X22517735Y56647378D01*
X22517733Y56647377D01*
X22514704Y56640062D01*
X22492649Y56618007D01*
X22487193Y56611618D01*
X22485292Y56610650D01*
X22484939Y56610296D01*
X22484938Y56610296D01*
X22483124Y56609545D01*
X22483117Y56609541D01*
X22456994Y56598722D01*
X22446047Y56594187D01*
X22425000Y56590000D01*
X22420078Y56590000D01*
X22019922Y56590000D01*
X22015000Y56590000D01*
X21993953Y56594187D01*
X21989405Y56596071D01*
X21989404Y56596071D01*
X21962377Y56607265D01*
X21962374Y56607268D01*
X21955062Y56610296D01*
X21933012Y56632345D01*
X21926617Y56637807D01*
X21925647Y56639710D01*
X21925296Y56640061D01*
X21925296Y56640062D01*
X21924549Y56641865D01*
X21924540Y56641883D01*
X21911070Y56674404D01*
X21911068Y56674410D01*
X21909187Y56678953D01*
X21905000Y56700000D01*
X21905000Y56704920D01*
X21904314Y56708368D01*
X21838781Y56721401D01*
X21816684Y56688331D01*
X21816194Y56685866D01*
X21805355Y56669645D01*
X21789134Y56658806D01*
X21770000Y56655000D01*
X21420000Y56655000D01*
X21400866Y56658806D01*
X21384645Y56669645D01*
X21373806Y56685866D01*
X21370000Y56705000D01*
X21370000Y57555000D01*
X21373806Y57574134D01*
X21384645Y57590355D01*
X21400866Y57601194D01*
X21420000Y57605000D01*
X21424924Y57605000D01*
X21447627Y57609515D01*
X21446139Y57625313D01*
X21751309Y57625313D01*
X21786673Y57601684D01*
X21789134Y57601194D01*
X21805355Y57590355D01*
X21816194Y57574134D01*
X21820000Y57555000D01*
X21820000Y57550051D01*
X21821188Y57544074D01*
X21894999Y57536798D01*
X21922264Y57602623D01*
X21922268Y57602628D01*
X21925296Y57609938D01*
X21947339Y57631983D01*
X21951825Y57637234D01*
X21925399Y57695207D01*
X21773237Y57696507D01*
X21751309Y57625313D01*
X21446139Y57625313D01*
X21439165Y57699363D01*
X21364060Y57700004D01*
X21343049Y57704370D01*
X21304297Y57720811D01*
X21281770Y57743629D01*
X21276047Y57748602D01*
X21275206Y57750277D01*
X21274875Y57750613D01*
X21274149Y57752386D01*
X21260942Y57784660D01*
X21260941Y57784663D01*
X21259097Y57789170D01*
X21255000Y57810000D01*
X21255000Y58510000D01*
X21259187Y58531047D01*
X21261068Y58535591D01*
X21261070Y58535596D01*
X21272264Y58562623D01*
X21272268Y58562628D01*
X21275296Y58569938D01*
X21297337Y58591981D01*
X21302806Y58598383D01*
X21304710Y58599354D01*
X21305061Y58599704D01*
X21305062Y58599704D01*
X21306859Y58600449D01*
X21306882Y58600460D01*
X21339404Y58613930D01*
X21339409Y58613932D01*
X21343953Y58615813D01*
X21365000Y58620000D01*
X21369919Y58620000D01*
X21400363Y58626056D01*
X21413275Y58690970D01*
X21775678Y58690970D01*
X21797206Y58620000D01*
X21907571Y58620000D01*
X21936834Y58667736D01*
X21925643Y58689714D01*
X21925296Y58690061D01*
X21925296Y58690062D01*
X21924554Y58691853D01*
X21924546Y58691869D01*
X21894999Y58763202D01*
X21821188Y58755926D01*
X21820000Y58749951D01*
X21820000Y58745000D01*
X21816194Y58725866D01*
X21805355Y58709645D01*
X21789134Y58698806D01*
X21786671Y58698317D01*
X21775678Y58690970D01*
X21413275Y58690970D01*
X21413398Y58691589D01*
X21403329Y58698317D01*
X21400866Y58698806D01*
X21384645Y58709645D01*
X21373806Y58725866D01*
X21370000Y58745000D01*
X21370000Y59595000D01*
X21373806Y59614134D01*
X21384645Y59630355D01*
X21400866Y59641194D01*
X21420000Y59645000D01*
X21770000Y59645000D01*
X21789134Y59641194D01*
X21805355Y59630355D01*
X21816194Y59614134D01*
X21816683Y59611671D01*
X21838781Y59578600D01*
X21904312Y59591633D01*
X21905000Y59595091D01*
X21905000Y59600000D01*
X21909187Y59621047D01*
X21911068Y59625590D01*
X21911070Y59625597D01*
X21922264Y59652623D01*
X21922268Y59652628D01*
X21925296Y59659938D01*
X21947337Y59681981D01*
X21952806Y59688383D01*
X21954710Y59689354D01*
X21955061Y59689704D01*
X21955062Y59689704D01*
X21956859Y59690449D01*
X21956882Y59690460D01*
X21989404Y59703930D01*
X21989409Y59703932D01*
X21993953Y59705813D01*
X22015000Y59710000D01*
X22425000Y59710000D01*
X22446047Y59705813D01*
G37*
G36*
X21189134Y57326194D02*
G01*
X21205355Y57315355D01*
X21216194Y57299134D01*
X21220000Y57280000D01*
X21220000Y56700000D01*
X21216194Y56680866D01*
X21205355Y56664645D01*
X21189134Y56653806D01*
X21170000Y56650000D01*
X20920000Y56650000D01*
X20900866Y56653806D01*
X20884645Y56664645D01*
X20873806Y56680866D01*
X20870000Y56700000D01*
X20870000Y57280000D01*
X20873806Y57299134D01*
X20884645Y57315355D01*
X20900866Y57326194D01*
X20920000Y57330000D01*
X21170000Y57330000D01*
X21189134Y57326194D01*
G37*
G36*
X52024868Y59510450D02*
G01*
X52030586Y59507655D01*
X52032962Y59507278D01*
X52070987Y59487904D01*
X52128377Y59459847D01*
X52209847Y59378377D01*
X52237907Y59320980D01*
X52257276Y59282966D01*
X52257652Y59280592D01*
X52260450Y59274868D01*
X52275000Y59175000D01*
X52275000Y57025000D01*
X52260450Y56925132D01*
X52257652Y56919411D01*
X52257277Y56917038D01*
X52237926Y56879061D01*
X52209847Y56821623D01*
X52128377Y56740153D01*
X52070955Y56712081D01*
X52032965Y56692724D01*
X52030591Y56692349D01*
X52024868Y56689550D01*
X51925000Y56675000D01*
X51175000Y56675000D01*
X51075132Y56689550D01*
X51069410Y56692348D01*
X51067037Y56692723D01*
X51029035Y56712086D01*
X50971623Y56740153D01*
X50890153Y56821623D01*
X50862104Y56878997D01*
X50842723Y56917035D01*
X50842346Y56919412D01*
X50839550Y56925132D01*
X50825000Y57025000D01*
X50825000Y59175000D01*
X50839550Y59274868D01*
X50842345Y59280587D01*
X50842722Y59282963D01*
X50862108Y59321013D01*
X50890153Y59378377D01*
X50971623Y59459847D01*
X51028971Y59487884D01*
X51067034Y59507277D01*
X51069411Y59507654D01*
X51075132Y59510450D01*
X51175000Y59525000D01*
X51925000Y59525000D01*
X52024868Y59510450D01*
G37*
G36*
X54824868Y59510450D02*
G01*
X54830586Y59507655D01*
X54832962Y59507278D01*
X54870987Y59487904D01*
X54928377Y59459847D01*
X55009847Y59378377D01*
X55037907Y59320980D01*
X55057276Y59282966D01*
X55057652Y59280592D01*
X55060450Y59274868D01*
X55075000Y59175000D01*
X55075000Y57025000D01*
X55060450Y56925132D01*
X55057652Y56919411D01*
X55057277Y56917038D01*
X55037926Y56879061D01*
X55009847Y56821623D01*
X54928377Y56740153D01*
X54870955Y56712081D01*
X54832965Y56692724D01*
X54830591Y56692349D01*
X54824868Y56689550D01*
X54725000Y56675000D01*
X53975000Y56675000D01*
X53875132Y56689550D01*
X53869410Y56692348D01*
X53867037Y56692723D01*
X53829035Y56712086D01*
X53771623Y56740153D01*
X53690153Y56821623D01*
X53662104Y56878997D01*
X53642723Y56917035D01*
X53642346Y56919412D01*
X53639550Y56925132D01*
X53625000Y57025000D01*
X53625000Y59175000D01*
X53639550Y59274868D01*
X53642345Y59280587D01*
X53642722Y59282963D01*
X53662108Y59321013D01*
X53690153Y59378377D01*
X53771623Y59459847D01*
X53828971Y59487884D01*
X53867034Y59507277D01*
X53869411Y59507654D01*
X53875132Y59510450D01*
X53975000Y59525000D01*
X54725000Y59525000D01*
X54824868Y59510450D01*
G37*
G36*
X15879047Y57669195D02*
G01*
X15926974Y57663635D01*
X15943348Y57656406D01*
X15964931Y57652112D01*
X15988037Y57636673D01*
X16007316Y57628160D01*
X16020483Y57614993D01*
X16041170Y57601170D01*
X16054992Y57580484D01*
X16068159Y57567317D01*
X16076670Y57548041D01*
X16092112Y57524931D01*
X16096405Y57503346D01*
X16103634Y57486975D01*
X16109192Y57439058D01*
X16110000Y57435000D01*
X16110000Y57065000D01*
X16109192Y57060941D01*
X16103634Y57013026D01*
X16096405Y56996656D01*
X16092112Y56975069D01*
X16076669Y56951958D01*
X16068159Y56932684D01*
X16054994Y56919520D01*
X16041170Y56898830D01*
X16020480Y56885006D01*
X16007316Y56871841D01*
X15988042Y56863331D01*
X15964931Y56847888D01*
X15943344Y56843595D01*
X15926974Y56836366D01*
X15879059Y56830808D01*
X15875000Y56830000D01*
X15605000Y56830000D01*
X15600942Y56830808D01*
X15553025Y56836366D01*
X15536654Y56843595D01*
X15515069Y56847888D01*
X15491959Y56863330D01*
X15472683Y56871841D01*
X15459516Y56885008D01*
X15438830Y56898830D01*
X15425007Y56919517D01*
X15411840Y56932684D01*
X15403327Y56951963D01*
X15387888Y56975069D01*
X15383594Y56996652D01*
X15376365Y57013026D01*
X15370805Y57060953D01*
X15370000Y57065000D01*
X15370000Y57435000D01*
X15370804Y57439046D01*
X15376365Y57486975D01*
X15383595Y57503350D01*
X15387888Y57524931D01*
X15403326Y57548036D01*
X15411840Y57567317D01*
X15425009Y57580487D01*
X15438830Y57601170D01*
X15459513Y57614991D01*
X15472683Y57628160D01*
X15491964Y57636674D01*
X15515069Y57652112D01*
X15536650Y57656405D01*
X15553025Y57663635D01*
X15600954Y57669196D01*
X15605000Y57670000D01*
X15875000Y57670000D01*
X15879047Y57669195D01*
G37*
G36*
X16899047Y57669195D02*
G01*
X16946974Y57663635D01*
X16963348Y57656406D01*
X16984931Y57652112D01*
X17008037Y57636673D01*
X17027316Y57628160D01*
X17040483Y57614993D01*
X17061170Y57601170D01*
X17074992Y57580484D01*
X17088159Y57567317D01*
X17096670Y57548041D01*
X17112112Y57524931D01*
X17116405Y57503346D01*
X17123634Y57486975D01*
X17129192Y57439058D01*
X17130000Y57435000D01*
X17130000Y57065000D01*
X17129192Y57060941D01*
X17123634Y57013026D01*
X17116405Y56996656D01*
X17112112Y56975069D01*
X17096669Y56951958D01*
X17088159Y56932684D01*
X17074994Y56919520D01*
X17061170Y56898830D01*
X17040480Y56885006D01*
X17027316Y56871841D01*
X17008042Y56863331D01*
X16984931Y56847888D01*
X16963344Y56843595D01*
X16946974Y56836366D01*
X16899059Y56830808D01*
X16895000Y56830000D01*
X16625000Y56830000D01*
X16620942Y56830808D01*
X16573025Y56836366D01*
X16556654Y56843595D01*
X16535069Y56847888D01*
X16511959Y56863330D01*
X16492683Y56871841D01*
X16479516Y56885008D01*
X16458830Y56898830D01*
X16445007Y56919517D01*
X16431840Y56932684D01*
X16423327Y56951963D01*
X16407888Y56975069D01*
X16403594Y56996652D01*
X16396365Y57013026D01*
X16390805Y57060953D01*
X16390000Y57065000D01*
X16390000Y57435000D01*
X16390804Y57439046D01*
X16396365Y57486975D01*
X16403595Y57503350D01*
X16407888Y57524931D01*
X16423326Y57548036D01*
X16431840Y57567317D01*
X16445009Y57580487D01*
X16458830Y57601170D01*
X16479513Y57614991D01*
X16492683Y57628160D01*
X16511964Y57636674D01*
X16535069Y57652112D01*
X16556650Y57656405D01*
X16573025Y57663635D01*
X16620954Y57669196D01*
X16625000Y57670000D01*
X16895000Y57670000D01*
X16899047Y57669195D01*
G37*
G36*
X68430134Y59416844D02*
G01*
X68609220Y59358655D01*
X68776998Y59273168D01*
X68929338Y59162487D01*
X69062487Y59029338D01*
X69173168Y58876998D01*
X69258655Y58709220D01*
X69316844Y58530134D01*
X69346301Y58344151D01*
X69346301Y58155849D01*
X69316844Y57969866D01*
X69258655Y57790780D01*
X69173168Y57623002D01*
X69062487Y57470662D01*
X68929338Y57337513D01*
X68776998Y57226832D01*
X68609220Y57141345D01*
X68430134Y57083156D01*
X68244151Y57053699D01*
X68055849Y57053699D01*
X67869866Y57083156D01*
X67690780Y57141345D01*
X67523002Y57226832D01*
X67370662Y57337513D01*
X67237513Y57470662D01*
X67126832Y57623002D01*
X67041345Y57790780D01*
X66983156Y57969866D01*
X66953699Y58155849D01*
X66953699Y58344151D01*
X66983156Y58530134D01*
X67041345Y58709220D01*
X67126832Y58876998D01*
X67237513Y59029338D01*
X67370662Y59162487D01*
X67523002Y59273168D01*
X67690780Y59358655D01*
X67869866Y59416844D01*
X68055849Y59446301D01*
X68244151Y59446301D01*
X68430134Y59416844D01*
G37*
G36*
X20134134Y58321194D02*
G01*
X20150355Y58310355D01*
X20161194Y58294134D01*
X20165000Y58275000D01*
X20165000Y58025000D01*
X20161194Y58005866D01*
X20150355Y57989645D01*
X20134134Y57978806D01*
X20115000Y57975000D01*
X19535000Y57975000D01*
X19515866Y57978806D01*
X19499645Y57989645D01*
X19488806Y58005866D01*
X19485000Y58025000D01*
X19485000Y58275000D01*
X19488806Y58294134D01*
X19499645Y58310355D01*
X19515866Y58321194D01*
X19535000Y58325000D01*
X20115000Y58325000D01*
X20134134Y58321194D01*
G37*
G36*
X15939047Y59099195D02*
G01*
X15986974Y59093635D01*
X16003348Y59086406D01*
X16024931Y59082112D01*
X16048037Y59066673D01*
X16067316Y59058160D01*
X16080483Y59044993D01*
X16101170Y59031170D01*
X16114992Y59010484D01*
X16128159Y58997317D01*
X16136670Y58978041D01*
X16152112Y58954931D01*
X16156405Y58933346D01*
X16163634Y58916975D01*
X16169192Y58869058D01*
X16170000Y58865000D01*
X16170000Y58595000D01*
X16169192Y58590941D01*
X16163634Y58543026D01*
X16156405Y58526656D01*
X16152112Y58505069D01*
X16136669Y58481958D01*
X16128159Y58462684D01*
X16114994Y58449520D01*
X16101170Y58428830D01*
X16080480Y58415006D01*
X16067316Y58401841D01*
X16048042Y58393331D01*
X16024931Y58377888D01*
X16003344Y58373595D01*
X15986974Y58366366D01*
X15939059Y58360808D01*
X15935000Y58360000D01*
X15565000Y58360000D01*
X15560942Y58360808D01*
X15513025Y58366366D01*
X15496654Y58373595D01*
X15475069Y58377888D01*
X15451959Y58393330D01*
X15432683Y58401841D01*
X15419516Y58415008D01*
X15398830Y58428830D01*
X15385007Y58449517D01*
X15371840Y58462684D01*
X15363327Y58481963D01*
X15347888Y58505069D01*
X15343594Y58526652D01*
X15336365Y58543026D01*
X15330805Y58590953D01*
X15330000Y58595000D01*
X15330000Y58865000D01*
X15330804Y58869046D01*
X15336365Y58916975D01*
X15343595Y58933350D01*
X15347888Y58954931D01*
X15363326Y58978036D01*
X15371840Y58997317D01*
X15385009Y59010487D01*
X15398830Y59031170D01*
X15419513Y59044991D01*
X15432683Y59058160D01*
X15451964Y59066674D01*
X15475069Y59082112D01*
X15496650Y59086405D01*
X15513025Y59093635D01*
X15560954Y59099196D01*
X15565000Y59100000D01*
X15935000Y59100000D01*
X15939047Y59099195D01*
G37*
G36*
X17189047Y59099195D02*
G01*
X17236974Y59093635D01*
X17253348Y59086406D01*
X17274931Y59082112D01*
X17298037Y59066673D01*
X17317316Y59058160D01*
X17330483Y59044993D01*
X17351170Y59031170D01*
X17364992Y59010484D01*
X17378159Y58997317D01*
X17386670Y58978041D01*
X17402112Y58954931D01*
X17406405Y58933346D01*
X17413634Y58916975D01*
X17419192Y58869058D01*
X17420000Y58865000D01*
X17420000Y58595000D01*
X17419192Y58590941D01*
X17413634Y58543026D01*
X17406405Y58526656D01*
X17402112Y58505069D01*
X17386669Y58481958D01*
X17378159Y58462684D01*
X17364994Y58449520D01*
X17351170Y58428830D01*
X17330480Y58415006D01*
X17317316Y58401841D01*
X17298042Y58393331D01*
X17274931Y58377888D01*
X17253344Y58373595D01*
X17236974Y58366366D01*
X17189059Y58360808D01*
X17185000Y58360000D01*
X16815000Y58360000D01*
X16810942Y58360808D01*
X16763025Y58366366D01*
X16746654Y58373595D01*
X16725069Y58377888D01*
X16701959Y58393330D01*
X16682683Y58401841D01*
X16669516Y58415008D01*
X16648830Y58428830D01*
X16635007Y58449517D01*
X16621840Y58462684D01*
X16613327Y58481963D01*
X16597888Y58505069D01*
X16593594Y58526652D01*
X16586365Y58543026D01*
X16580805Y58590953D01*
X16580000Y58595000D01*
X16580000Y58865000D01*
X16580804Y58869046D01*
X16586365Y58916975D01*
X16593595Y58933350D01*
X16597888Y58954931D01*
X16613326Y58978036D01*
X16621840Y58997317D01*
X16635009Y59010487D01*
X16648830Y59031170D01*
X16669513Y59044991D01*
X16682683Y59058160D01*
X16701964Y59066674D01*
X16725069Y59082112D01*
X16746650Y59086405D01*
X16763025Y59093635D01*
X16810954Y59099196D01*
X16815000Y59100000D01*
X17185000Y59100000D01*
X17189047Y59099195D01*
G37*
G36*
X18424047Y59149195D02*
G01*
X18473118Y59143502D01*
X18489883Y59136100D01*
X18511844Y59131731D01*
X18535354Y59116022D01*
X18555142Y59107285D01*
X18568656Y59093771D01*
X18589706Y59079706D01*
X18603770Y59058657D01*
X18617284Y59045143D01*
X18626020Y59025357D01*
X18641731Y59001844D01*
X18646099Y58979882D01*
X18653501Y58963119D01*
X18659192Y58914058D01*
X18660000Y58910000D01*
X18660000Y58630000D01*
X18659192Y58625941D01*
X18653501Y58576882D01*
X18646099Y58560121D01*
X18641731Y58538156D01*
X18626019Y58514642D01*
X18617284Y58494858D01*
X18603772Y58481347D01*
X18589706Y58460294D01*
X18568653Y58446228D01*
X18555142Y58432716D01*
X18535358Y58423981D01*
X18511844Y58408269D01*
X18489879Y58403901D01*
X18473118Y58396499D01*
X18424059Y58390808D01*
X18420000Y58390000D01*
X18080000Y58390000D01*
X18075942Y58390808D01*
X18026881Y58396499D01*
X18010118Y58403901D01*
X17988156Y58408269D01*
X17964643Y58423980D01*
X17944857Y58432716D01*
X17931343Y58446230D01*
X17910294Y58460294D01*
X17896229Y58481344D01*
X17882715Y58494858D01*
X17873978Y58514646D01*
X17858269Y58538156D01*
X17853900Y58560117D01*
X17846498Y58576882D01*
X17840805Y58625953D01*
X17840000Y58630000D01*
X17840000Y58910000D01*
X17840804Y58914046D01*
X17846498Y58963119D01*
X17853901Y58979886D01*
X17858269Y59001844D01*
X17873976Y59025353D01*
X17882715Y59045143D01*
X17896231Y59058660D01*
X17910294Y59079706D01*
X17931340Y59093769D01*
X17944857Y59107285D01*
X17964647Y59116024D01*
X17988156Y59131731D01*
X18010114Y59136099D01*
X18026881Y59143502D01*
X18075954Y59149196D01*
X18080000Y59150000D01*
X18420000Y59150000D01*
X18424047Y59149195D01*
G37*
G36*
X20186047Y59705813D02*
G01*
X20190591Y59703931D01*
X20190595Y59703930D01*
X20217622Y59692736D01*
X20217625Y59692733D01*
X20224938Y59689704D01*
X20246986Y59667657D01*
X20253382Y59662194D01*
X20254351Y59660292D01*
X20254704Y59659939D01*
X20254704Y59659938D01*
X20255452Y59658130D01*
X20255459Y59658118D01*
X20268929Y59625596D01*
X20270813Y59621047D01*
X20275000Y59600000D01*
X20275000Y59595074D01*
X20281466Y59562565D01*
X20363533Y59562565D01*
X20370000Y59595079D01*
X20370000Y59600000D01*
X20373806Y59619134D01*
X20384645Y59635355D01*
X20400866Y59646194D01*
X20420000Y59650000D01*
X20670000Y59650000D01*
X20689134Y59646194D01*
X20705355Y59635355D01*
X20716194Y59619134D01*
X20720000Y59600000D01*
X20720000Y59020000D01*
X20716194Y59000866D01*
X20705355Y58984645D01*
X20689134Y58973806D01*
X20670000Y58970000D01*
X20420000Y58970000D01*
X20400866Y58973806D01*
X20384645Y58984645D01*
X20373806Y59000866D01*
X20370000Y59020000D01*
X20370000Y59024926D01*
X20363534Y59057438D01*
X20281465Y59057438D01*
X20275000Y59024932D01*
X20275000Y59020000D01*
X20270813Y58998953D01*
X20268929Y58994405D01*
X20268928Y58994401D01*
X20257735Y58967378D01*
X20257733Y58967377D01*
X20254704Y58960062D01*
X20232649Y58938007D01*
X20227193Y58931618D01*
X20225292Y58930650D01*
X20224939Y58930296D01*
X20224938Y58930296D01*
X20223124Y58929545D01*
X20223117Y58929541D01*
X20196994Y58918722D01*
X20186047Y58914187D01*
X20165000Y58910000D01*
X20160078Y58910000D01*
X20127240Y58910000D01*
X20105712Y58839030D01*
X20131672Y58821684D01*
X20134134Y58821194D01*
X20150355Y58810355D01*
X20161194Y58794134D01*
X20165000Y58775000D01*
X20165000Y58525000D01*
X20161194Y58505866D01*
X20150355Y58489645D01*
X20134134Y58478806D01*
X20115000Y58475000D01*
X19535000Y58475000D01*
X19515866Y58478806D01*
X19499645Y58489645D01*
X19488806Y58505866D01*
X19485000Y58525000D01*
X19485000Y58775000D01*
X19488806Y58794134D01*
X19499645Y58810355D01*
X19515866Y58821194D01*
X19535000Y58825000D01*
X19539908Y58825000D01*
X19549310Y58826871D01*
X19556575Y58900675D01*
X19492377Y58927265D01*
X19492374Y58927268D01*
X19485062Y58930296D01*
X19463012Y58952345D01*
X19456617Y58957807D01*
X19455647Y58959710D01*
X19455296Y58960061D01*
X19455296Y58960062D01*
X19454549Y58961865D01*
X19454540Y58961883D01*
X19441070Y58994405D01*
X19441069Y58994409D01*
X19439187Y58998953D01*
X19435000Y59020000D01*
X19435000Y59250000D01*
X19439187Y59271047D01*
X19441068Y59275591D01*
X19441070Y59275596D01*
X19452264Y59302623D01*
X19452268Y59302628D01*
X19455296Y59309938D01*
X19477337Y59331981D01*
X19482806Y59338383D01*
X19484710Y59339354D01*
X19485061Y59339704D01*
X19485062Y59339704D01*
X19486859Y59340449D01*
X19486882Y59340460D01*
X19519404Y59353930D01*
X19519409Y59353932D01*
X19523953Y59355813D01*
X19545000Y59360000D01*
X19755711Y59360000D01*
X19785000Y59389289D01*
X19785000Y59595078D01*
X19785000Y59600000D01*
X19789187Y59621047D01*
X19791068Y59625591D01*
X19791070Y59625596D01*
X19802264Y59652623D01*
X19802268Y59652628D01*
X19805296Y59659938D01*
X19827337Y59681981D01*
X19832806Y59688383D01*
X19834710Y59689354D01*
X19835061Y59689704D01*
X19835062Y59689704D01*
X19836859Y59690449D01*
X19836882Y59690460D01*
X19869404Y59703930D01*
X19869409Y59703932D01*
X19873953Y59705813D01*
X19895000Y59710000D01*
X20165000Y59710000D01*
X20186047Y59705813D01*
G37*
G36*
X21189134Y59646194D02*
G01*
X21205355Y59635355D01*
X21216194Y59619134D01*
X21220000Y59600000D01*
X21220000Y59020000D01*
X21216194Y59000866D01*
X21205355Y58984645D01*
X21189134Y58973806D01*
X21170000Y58970000D01*
X20920000Y58970000D01*
X20900866Y58973806D01*
X20884645Y58984645D01*
X20873806Y59000866D01*
X20870000Y59020000D01*
X20870000Y59600000D01*
X20873806Y59619134D01*
X20884645Y59635355D01*
X20900866Y59646194D01*
X20920000Y59650000D01*
X21170000Y59650000D01*
X21189134Y59646194D01*
G37*
G36*
X59774868Y60285450D02*
G01*
X59780586Y60282655D01*
X59782962Y60282278D01*
X59820987Y60262904D01*
X59878377Y60234847D01*
X59959847Y60153377D01*
X59987907Y60095980D01*
X60007276Y60057966D01*
X60007652Y60055592D01*
X60010450Y60049868D01*
X60025000Y59950000D01*
X60025000Y59450000D01*
X60010450Y59350132D01*
X60007652Y59344411D01*
X60007277Y59342038D01*
X59987926Y59304061D01*
X59959847Y59246623D01*
X59878377Y59165153D01*
X59820955Y59137081D01*
X59782965Y59117724D01*
X59780591Y59117349D01*
X59774868Y59114550D01*
X59675000Y59100000D01*
X58725000Y59100000D01*
X58625132Y59114550D01*
X58619410Y59117348D01*
X58617037Y59117723D01*
X58579035Y59137086D01*
X58521623Y59165153D01*
X58440153Y59246623D01*
X58412104Y59303997D01*
X58392723Y59342035D01*
X58392346Y59344412D01*
X58389550Y59350132D01*
X58375000Y59450000D01*
X58375000Y59950000D01*
X58389550Y60049868D01*
X58392345Y60055587D01*
X58392722Y60057963D01*
X58412108Y60096013D01*
X58440153Y60153377D01*
X58521623Y60234847D01*
X58578971Y60262884D01*
X58617034Y60282277D01*
X58619411Y60282654D01*
X58625132Y60285450D01*
X58725000Y60300000D01*
X59675000Y60300000D01*
X59774868Y60285450D01*
G37*
G36*
X62274868Y60285450D02*
G01*
X62280586Y60282655D01*
X62282962Y60282278D01*
X62320987Y60262904D01*
X62378377Y60234847D01*
X62459847Y60153377D01*
X62487907Y60095980D01*
X62507276Y60057966D01*
X62507652Y60055592D01*
X62510450Y60049868D01*
X62525000Y59950000D01*
X62525000Y59450000D01*
X62510450Y59350132D01*
X62507652Y59344411D01*
X62507277Y59342038D01*
X62487926Y59304061D01*
X62459847Y59246623D01*
X62378377Y59165153D01*
X62320955Y59137081D01*
X62282965Y59117724D01*
X62280591Y59117349D01*
X62274868Y59114550D01*
X62175000Y59100000D01*
X61225000Y59100000D01*
X61125132Y59114550D01*
X61119410Y59117348D01*
X61117037Y59117723D01*
X61079035Y59137086D01*
X61021623Y59165153D01*
X60940153Y59246623D01*
X60912104Y59303997D01*
X60892723Y59342035D01*
X60892346Y59344412D01*
X60889550Y59350132D01*
X60875000Y59450000D01*
X60875000Y59950000D01*
X60889550Y60049868D01*
X60892345Y60055587D01*
X60892722Y60057963D01*
X60912108Y60096013D01*
X60940153Y60153377D01*
X61021623Y60234847D01*
X61078971Y60262884D01*
X61117034Y60282277D01*
X61119411Y60282654D01*
X61125132Y60285450D01*
X61225000Y60300000D01*
X62175000Y60300000D01*
X62274868Y60285450D01*
G37*
G36*
X34824868Y60335450D02*
G01*
X34830586Y60332655D01*
X34832962Y60332278D01*
X34870987Y60312904D01*
X34928377Y60284847D01*
X35009847Y60203377D01*
X35037907Y60145980D01*
X35057276Y60107966D01*
X35057652Y60105592D01*
X35060450Y60099868D01*
X35075000Y60000000D01*
X35075000Y59500000D01*
X35060450Y59400132D01*
X35057652Y59394411D01*
X35057277Y59392038D01*
X35037926Y59354061D01*
X35009847Y59296623D01*
X34928377Y59215153D01*
X34870955Y59187081D01*
X34832965Y59167724D01*
X34830591Y59167349D01*
X34824868Y59164550D01*
X34725000Y59150000D01*
X33775000Y59150000D01*
X33675132Y59164550D01*
X33669410Y59167348D01*
X33667037Y59167723D01*
X33629035Y59187086D01*
X33571623Y59215153D01*
X33490153Y59296623D01*
X33462104Y59353997D01*
X33442723Y59392035D01*
X33442346Y59394412D01*
X33439550Y59400132D01*
X33425000Y59500000D01*
X33425000Y60000000D01*
X33439550Y60099868D01*
X33442345Y60105587D01*
X33442722Y60107963D01*
X33462108Y60146013D01*
X33490153Y60203377D01*
X33571623Y60284847D01*
X33628971Y60312884D01*
X33667034Y60332277D01*
X33669411Y60332654D01*
X33675132Y60335450D01*
X33775000Y60350000D01*
X34725000Y60350000D01*
X34824868Y60335450D01*
G37*
G36*
X39824868Y60335450D02*
G01*
X39830586Y60332655D01*
X39832962Y60332278D01*
X39870987Y60312904D01*
X39928377Y60284847D01*
X40009847Y60203377D01*
X40037907Y60145980D01*
X40057276Y60107966D01*
X40057652Y60105592D01*
X40060450Y60099868D01*
X40075000Y60000000D01*
X40075000Y59500000D01*
X40060450Y59400132D01*
X40057652Y59394411D01*
X40057277Y59392038D01*
X40037926Y59354061D01*
X40009847Y59296623D01*
X39928377Y59215153D01*
X39870955Y59187081D01*
X39832965Y59167724D01*
X39830591Y59167349D01*
X39824868Y59164550D01*
X39725000Y59150000D01*
X38775000Y59150000D01*
X38675132Y59164550D01*
X38669410Y59167348D01*
X38667037Y59167723D01*
X38629035Y59187086D01*
X38571623Y59215153D01*
X38490153Y59296623D01*
X38462104Y59353997D01*
X38442723Y59392035D01*
X38442346Y59394412D01*
X38439550Y59400132D01*
X38425000Y59500000D01*
X38425000Y60000000D01*
X38439550Y60099868D01*
X38442345Y60105587D01*
X38442722Y60107963D01*
X38462108Y60146013D01*
X38490153Y60203377D01*
X38571623Y60284847D01*
X38628971Y60312884D01*
X38667034Y60332277D01*
X38669411Y60332654D01*
X38675132Y60335450D01*
X38775000Y60350000D01*
X39725000Y60350000D01*
X39824868Y60335450D01*
G37*
G36*
X37324868Y60360450D02*
G01*
X37330586Y60357655D01*
X37332962Y60357278D01*
X37370987Y60337904D01*
X37428377Y60309847D01*
X37509847Y60228377D01*
X37537907Y60170980D01*
X37557276Y60132966D01*
X37557652Y60130592D01*
X37560450Y60124868D01*
X37575000Y60025000D01*
X37575000Y59525000D01*
X37560450Y59425132D01*
X37557652Y59419411D01*
X37557277Y59417038D01*
X37537926Y59379061D01*
X37509847Y59321623D01*
X37428377Y59240153D01*
X37370955Y59212081D01*
X37332965Y59192724D01*
X37330591Y59192349D01*
X37324868Y59189550D01*
X37225000Y59175000D01*
X36275000Y59175000D01*
X36175132Y59189550D01*
X36169410Y59192348D01*
X36167037Y59192723D01*
X36129035Y59212086D01*
X36071623Y59240153D01*
X35990153Y59321623D01*
X35962104Y59378997D01*
X35942723Y59417035D01*
X35942346Y59419412D01*
X35939550Y59425132D01*
X35925000Y59525000D01*
X35925000Y60025000D01*
X35939550Y60124868D01*
X35942345Y60130587D01*
X35942722Y60132963D01*
X35962108Y60171013D01*
X35990153Y60228377D01*
X36071623Y60309847D01*
X36128971Y60337884D01*
X36167034Y60357277D01*
X36169411Y60357654D01*
X36175132Y60360450D01*
X36275000Y60375000D01*
X37225000Y60375000D01*
X37324868Y60360450D01*
G37*
G36*
X18424047Y60109195D02*
G01*
X18473118Y60103502D01*
X18489883Y60096100D01*
X18511844Y60091731D01*
X18535354Y60076022D01*
X18555142Y60067285D01*
X18568656Y60053771D01*
X18589706Y60039706D01*
X18603770Y60018657D01*
X18617284Y60005143D01*
X18626020Y59985357D01*
X18641731Y59961844D01*
X18646099Y59939882D01*
X18653501Y59923119D01*
X18659192Y59874058D01*
X18660000Y59870000D01*
X18660000Y59590000D01*
X18659192Y59585941D01*
X18653501Y59536882D01*
X18646099Y59520121D01*
X18641731Y59498156D01*
X18626019Y59474642D01*
X18617284Y59454858D01*
X18603772Y59441347D01*
X18589706Y59420294D01*
X18568653Y59406228D01*
X18555142Y59392716D01*
X18535358Y59383981D01*
X18511844Y59368269D01*
X18489879Y59363901D01*
X18473118Y59356499D01*
X18424059Y59350808D01*
X18420000Y59350000D01*
X18080000Y59350000D01*
X18075942Y59350808D01*
X18026881Y59356499D01*
X18010118Y59363901D01*
X17988156Y59368269D01*
X17964643Y59383980D01*
X17944857Y59392716D01*
X17931343Y59406230D01*
X17910294Y59420294D01*
X17896229Y59441344D01*
X17882715Y59454858D01*
X17873978Y59474646D01*
X17858269Y59498156D01*
X17853900Y59520117D01*
X17846498Y59536882D01*
X17840805Y59585953D01*
X17840000Y59590000D01*
X17840000Y59870000D01*
X17840804Y59874046D01*
X17846498Y59923119D01*
X17853901Y59939886D01*
X17858269Y59961844D01*
X17873976Y59985353D01*
X17882715Y60005143D01*
X17896231Y60018660D01*
X17910294Y60039706D01*
X17931340Y60053769D01*
X17944857Y60067285D01*
X17964647Y60076024D01*
X17988156Y60091731D01*
X18010114Y60096099D01*
X18026881Y60103502D01*
X18075954Y60109196D01*
X18080000Y60110000D01*
X18420000Y60110000D01*
X18424047Y60109195D01*
G37*
G36*
X15939047Y60119195D02*
G01*
X15986974Y60113635D01*
X16003348Y60106406D01*
X16024931Y60102112D01*
X16048037Y60086673D01*
X16067316Y60078160D01*
X16080483Y60064993D01*
X16101170Y60051170D01*
X16114992Y60030484D01*
X16128159Y60017317D01*
X16136670Y59998041D01*
X16152112Y59974931D01*
X16156405Y59953346D01*
X16163634Y59936975D01*
X16169192Y59889058D01*
X16170000Y59885000D01*
X16170000Y59615000D01*
X16169192Y59610941D01*
X16163634Y59563026D01*
X16156405Y59546656D01*
X16152112Y59525069D01*
X16136669Y59501958D01*
X16128159Y59482684D01*
X16114994Y59469520D01*
X16101170Y59448830D01*
X16080480Y59435006D01*
X16067316Y59421841D01*
X16048042Y59413331D01*
X16024931Y59397888D01*
X16003344Y59393595D01*
X15986974Y59386366D01*
X15939059Y59380808D01*
X15935000Y59380000D01*
X15565000Y59380000D01*
X15560942Y59380808D01*
X15513025Y59386366D01*
X15496654Y59393595D01*
X15475069Y59397888D01*
X15451959Y59413330D01*
X15432683Y59421841D01*
X15419516Y59435008D01*
X15398830Y59448830D01*
X15385007Y59469517D01*
X15371840Y59482684D01*
X15363327Y59501963D01*
X15347888Y59525069D01*
X15343594Y59546652D01*
X15336365Y59563026D01*
X15330805Y59610953D01*
X15330000Y59615000D01*
X15330000Y59885000D01*
X15330804Y59889046D01*
X15336365Y59936975D01*
X15343595Y59953350D01*
X15347888Y59974931D01*
X15363326Y59998036D01*
X15371840Y60017317D01*
X15385009Y60030487D01*
X15398830Y60051170D01*
X15419513Y60064991D01*
X15432683Y60078160D01*
X15451964Y60086674D01*
X15475069Y60102112D01*
X15496650Y60106405D01*
X15513025Y60113635D01*
X15560954Y60119196D01*
X15565000Y60120000D01*
X15935000Y60120000D01*
X15939047Y60119195D01*
G37*
G36*
X17189047Y60119195D02*
G01*
X17236974Y60113635D01*
X17253348Y60106406D01*
X17274931Y60102112D01*
X17298037Y60086673D01*
X17317316Y60078160D01*
X17330483Y60064993D01*
X17351170Y60051170D01*
X17364992Y60030484D01*
X17378159Y60017317D01*
X17386670Y59998041D01*
X17402112Y59974931D01*
X17406405Y59953346D01*
X17413634Y59936975D01*
X17419192Y59889058D01*
X17420000Y59885000D01*
X17420000Y59615000D01*
X17419192Y59610941D01*
X17413634Y59563026D01*
X17406405Y59546656D01*
X17402112Y59525069D01*
X17386669Y59501958D01*
X17378159Y59482684D01*
X17364994Y59469520D01*
X17351170Y59448830D01*
X17330480Y59435006D01*
X17317316Y59421841D01*
X17298042Y59413331D01*
X17274931Y59397888D01*
X17253344Y59393595D01*
X17236974Y59386366D01*
X17189059Y59380808D01*
X17185000Y59380000D01*
X16815000Y59380000D01*
X16810942Y59380808D01*
X16763025Y59386366D01*
X16746654Y59393595D01*
X16725069Y59397888D01*
X16701959Y59413330D01*
X16682683Y59421841D01*
X16669516Y59435008D01*
X16648830Y59448830D01*
X16635007Y59469517D01*
X16621840Y59482684D01*
X16613327Y59501963D01*
X16597888Y59525069D01*
X16593594Y59546652D01*
X16586365Y59563026D01*
X16580805Y59610953D01*
X16580000Y59615000D01*
X16580000Y59885000D01*
X16580804Y59889046D01*
X16586365Y59936975D01*
X16593595Y59953350D01*
X16597888Y59974931D01*
X16613326Y59998036D01*
X16621840Y60017317D01*
X16635009Y60030487D01*
X16648830Y60051170D01*
X16669513Y60064991D01*
X16682683Y60078160D01*
X16701964Y60086674D01*
X16725069Y60102112D01*
X16746650Y60106405D01*
X16763025Y60113635D01*
X16810954Y60119196D01*
X16815000Y60120000D01*
X17185000Y60120000D01*
X17189047Y60119195D01*
G37*
G36*
X21864047Y61009195D02*
G01*
X21913118Y61003502D01*
X21929883Y60996100D01*
X21951844Y60991731D01*
X21975354Y60976022D01*
X21995142Y60967285D01*
X22008656Y60953771D01*
X22029706Y60939706D01*
X22043770Y60918657D01*
X22057284Y60905143D01*
X22066020Y60885357D01*
X22081731Y60861844D01*
X22086099Y60839882D01*
X22093501Y60823119D01*
X22099192Y60774058D01*
X22100000Y60770000D01*
X22100000Y60430000D01*
X22099192Y60425941D01*
X22093501Y60376882D01*
X22086099Y60360121D01*
X22081731Y60338156D01*
X22066019Y60314642D01*
X22057284Y60294858D01*
X22043772Y60281347D01*
X22029706Y60260294D01*
X22008653Y60246228D01*
X21995142Y60232716D01*
X21975358Y60223981D01*
X21951844Y60208269D01*
X21929879Y60203901D01*
X21913118Y60196499D01*
X21864059Y60190808D01*
X21860000Y60190000D01*
X21580000Y60190000D01*
X21575942Y60190808D01*
X21526881Y60196499D01*
X21510118Y60203901D01*
X21488156Y60208269D01*
X21464643Y60223980D01*
X21444857Y60232716D01*
X21431343Y60246230D01*
X21410294Y60260294D01*
X21396229Y60281344D01*
X21382715Y60294858D01*
X21373978Y60314646D01*
X21358269Y60338156D01*
X21353900Y60360117D01*
X21346498Y60376882D01*
X21340805Y60425953D01*
X21340000Y60430000D01*
X21340000Y60770000D01*
X21340804Y60774046D01*
X21346498Y60823119D01*
X21353901Y60839886D01*
X21358269Y60861844D01*
X21373976Y60885353D01*
X21382715Y60905143D01*
X21396231Y60918660D01*
X21410294Y60939706D01*
X21431340Y60953769D01*
X21444857Y60967285D01*
X21464647Y60976024D01*
X21488156Y60991731D01*
X21510114Y60996099D01*
X21526881Y61003502D01*
X21575954Y61009196D01*
X21580000Y61010000D01*
X21860000Y61010000D01*
X21864047Y61009195D01*
G37*
G36*
X22824047Y61009195D02*
G01*
X22873118Y61003502D01*
X22889883Y60996100D01*
X22911844Y60991731D01*
X22935354Y60976022D01*
X22955142Y60967285D01*
X22968656Y60953771D01*
X22989706Y60939706D01*
X23003770Y60918657D01*
X23017284Y60905143D01*
X23026020Y60885357D01*
X23041731Y60861844D01*
X23046099Y60839882D01*
X23053501Y60823119D01*
X23059192Y60774058D01*
X23060000Y60770000D01*
X23060000Y60430000D01*
X23059192Y60425941D01*
X23053501Y60376882D01*
X23046099Y60360121D01*
X23041731Y60338156D01*
X23026019Y60314642D01*
X23017284Y60294858D01*
X23003772Y60281347D01*
X22989706Y60260294D01*
X22968653Y60246228D01*
X22955142Y60232716D01*
X22935358Y60223981D01*
X22911844Y60208269D01*
X22889879Y60203901D01*
X22873118Y60196499D01*
X22824059Y60190808D01*
X22820000Y60190000D01*
X22540000Y60190000D01*
X22535942Y60190808D01*
X22486881Y60196499D01*
X22470118Y60203901D01*
X22448156Y60208269D01*
X22424643Y60223980D01*
X22404857Y60232716D01*
X22391343Y60246230D01*
X22370294Y60260294D01*
X22356229Y60281344D01*
X22342715Y60294858D01*
X22333978Y60314646D01*
X22318269Y60338156D01*
X22313900Y60360117D01*
X22306498Y60376882D01*
X22300805Y60425953D01*
X22300000Y60430000D01*
X22300000Y60770000D01*
X22300804Y60774046D01*
X22306498Y60823119D01*
X22313901Y60839886D01*
X22318269Y60861844D01*
X22333976Y60885353D01*
X22342715Y60905143D01*
X22356231Y60918660D01*
X22370294Y60939706D01*
X22391340Y60953769D01*
X22404857Y60967285D01*
X22424647Y60976024D01*
X22448156Y60991731D01*
X22470114Y60996099D01*
X22486881Y61003502D01*
X22535954Y61009196D01*
X22540000Y61010000D01*
X22820000Y61010000D01*
X22824047Y61009195D01*
G37*
G36*
X68430134Y62916844D02*
G01*
X68609220Y62858655D01*
X68776998Y62773168D01*
X68929338Y62662487D01*
X69062487Y62529338D01*
X69173168Y62376998D01*
X69258655Y62209220D01*
X69316844Y62030134D01*
X69346301Y61844151D01*
X69346301Y61655849D01*
X69316844Y61469866D01*
X69258655Y61290780D01*
X69173168Y61123002D01*
X69062487Y60970662D01*
X68929338Y60837513D01*
X68776998Y60726832D01*
X68609220Y60641345D01*
X68430134Y60583156D01*
X68244151Y60553699D01*
X68055849Y60553699D01*
X67869866Y60583156D01*
X67690780Y60641345D01*
X67523002Y60726832D01*
X67370662Y60837513D01*
X67237513Y60970662D01*
X67126832Y61123002D01*
X67041345Y61290780D01*
X66983156Y61469866D01*
X66953699Y61655849D01*
X66953699Y61844151D01*
X66983156Y62030134D01*
X67041345Y62209220D01*
X67126832Y62376998D01*
X67237513Y62529338D01*
X67370662Y62662487D01*
X67523002Y62773168D01*
X67690780Y62858655D01*
X67869866Y62916844D01*
X68055849Y62946301D01*
X68244151Y62946301D01*
X68430134Y62916844D01*
G37*
G36*
X19914047Y61409195D02*
G01*
X19963118Y61403502D01*
X19979883Y61396100D01*
X20001844Y61391731D01*
X20025354Y61376022D01*
X20045142Y61367285D01*
X20058656Y61353771D01*
X20079706Y61339706D01*
X20093770Y61318657D01*
X20107284Y61305143D01*
X20116020Y61285357D01*
X20131731Y61261844D01*
X20136099Y61239882D01*
X20143501Y61223119D01*
X20149192Y61174058D01*
X20150000Y61170000D01*
X20150000Y60830000D01*
X20149192Y60825941D01*
X20143501Y60776882D01*
X20136099Y60760121D01*
X20131731Y60738156D01*
X20116019Y60714642D01*
X20107284Y60694858D01*
X20093772Y60681347D01*
X20079706Y60660294D01*
X20058653Y60646228D01*
X20045142Y60632716D01*
X20025358Y60623981D01*
X20001844Y60608269D01*
X19979879Y60603901D01*
X19963118Y60596499D01*
X19914059Y60590808D01*
X19910000Y60590000D01*
X19630000Y60590000D01*
X19625942Y60590808D01*
X19576881Y60596499D01*
X19560118Y60603901D01*
X19538156Y60608269D01*
X19514643Y60623980D01*
X19494857Y60632716D01*
X19481343Y60646230D01*
X19460294Y60660294D01*
X19446229Y60681344D01*
X19432715Y60694858D01*
X19423978Y60714646D01*
X19408269Y60738156D01*
X19403900Y60760117D01*
X19396498Y60776882D01*
X19390805Y60825953D01*
X19390000Y60830000D01*
X19390000Y61170000D01*
X19390804Y61174046D01*
X19396498Y61223119D01*
X19403901Y61239886D01*
X19408269Y61261844D01*
X19423976Y61285353D01*
X19432715Y61305143D01*
X19446231Y61318660D01*
X19460294Y61339706D01*
X19481340Y61353769D01*
X19494857Y61367285D01*
X19514647Y61376024D01*
X19538156Y61391731D01*
X19560114Y61396099D01*
X19576881Y61403502D01*
X19625954Y61409196D01*
X19630000Y61410000D01*
X19910000Y61410000D01*
X19914047Y61409195D01*
G37*
G36*
X20874047Y61409195D02*
G01*
X20923118Y61403502D01*
X20939883Y61396100D01*
X20961844Y61391731D01*
X20985354Y61376022D01*
X21005142Y61367285D01*
X21018656Y61353771D01*
X21039706Y61339706D01*
X21053770Y61318657D01*
X21067284Y61305143D01*
X21076020Y61285357D01*
X21091731Y61261844D01*
X21096099Y61239882D01*
X21103501Y61223119D01*
X21109192Y61174058D01*
X21110000Y61170000D01*
X21110000Y60830000D01*
X21109192Y60825941D01*
X21103501Y60776882D01*
X21096099Y60760121D01*
X21091731Y60738156D01*
X21076019Y60714642D01*
X21067284Y60694858D01*
X21053772Y60681347D01*
X21039706Y60660294D01*
X21018653Y60646228D01*
X21005142Y60632716D01*
X20985358Y60623981D01*
X20961844Y60608269D01*
X20939879Y60603901D01*
X20923118Y60596499D01*
X20874059Y60590808D01*
X20870000Y60590000D01*
X20590000Y60590000D01*
X20585942Y60590808D01*
X20536881Y60596499D01*
X20520118Y60603901D01*
X20498156Y60608269D01*
X20474643Y60623980D01*
X20454857Y60632716D01*
X20441343Y60646230D01*
X20420294Y60660294D01*
X20406229Y60681344D01*
X20392715Y60694858D01*
X20383978Y60714646D01*
X20368269Y60738156D01*
X20363900Y60760117D01*
X20356498Y60776882D01*
X20350805Y60825953D01*
X20350000Y60830000D01*
X20350000Y61170000D01*
X20350804Y61174046D01*
X20356498Y61223119D01*
X20363901Y61239886D01*
X20368269Y61261844D01*
X20383976Y61285353D01*
X20392715Y61305143D01*
X20406231Y61318660D01*
X20420294Y61339706D01*
X20441340Y61353769D01*
X20454857Y61367285D01*
X20474647Y61376024D01*
X20498156Y61391731D01*
X20520114Y61396099D01*
X20536881Y61403502D01*
X20585954Y61409196D01*
X20590000Y61410000D01*
X20870000Y61410000D01*
X20874047Y61409195D01*
G37*
G36*
X59774868Y62185450D02*
G01*
X59780586Y62182655D01*
X59782962Y62182278D01*
X59820987Y62162904D01*
X59878377Y62134847D01*
X59959847Y62053377D01*
X59987907Y61995980D01*
X60007276Y61957966D01*
X60007652Y61955592D01*
X60010450Y61949868D01*
X60025000Y61850000D01*
X60025000Y61350000D01*
X60010450Y61250132D01*
X60007652Y61244411D01*
X60007277Y61242038D01*
X59987926Y61204061D01*
X59959847Y61146623D01*
X59878377Y61065153D01*
X59820955Y61037081D01*
X59782965Y61017724D01*
X59780591Y61017349D01*
X59774868Y61014550D01*
X59675000Y61000000D01*
X58725000Y61000000D01*
X58625132Y61014550D01*
X58619410Y61017348D01*
X58617037Y61017723D01*
X58579035Y61037086D01*
X58521623Y61065153D01*
X58440153Y61146623D01*
X58412104Y61203997D01*
X58392723Y61242035D01*
X58392346Y61244412D01*
X58389550Y61250132D01*
X58375000Y61350000D01*
X58375000Y61850000D01*
X58389550Y61949868D01*
X58392345Y61955587D01*
X58392722Y61957963D01*
X58412108Y61996013D01*
X58440153Y62053377D01*
X58521623Y62134847D01*
X58578971Y62162884D01*
X58617034Y62182277D01*
X58619411Y62182654D01*
X58625132Y62185450D01*
X58725000Y62200000D01*
X59675000Y62200000D01*
X59774868Y62185450D01*
G37*
G36*
X62274868Y62185450D02*
G01*
X62280586Y62182655D01*
X62282962Y62182278D01*
X62320987Y62162904D01*
X62378377Y62134847D01*
X62459847Y62053377D01*
X62487907Y61995980D01*
X62507276Y61957966D01*
X62507652Y61955592D01*
X62510450Y61949868D01*
X62525000Y61850000D01*
X62525000Y61350000D01*
X62510450Y61250132D01*
X62507652Y61244411D01*
X62507277Y61242038D01*
X62487926Y61204061D01*
X62459847Y61146623D01*
X62378377Y61065153D01*
X62320955Y61037081D01*
X62282965Y61017724D01*
X62280591Y61017349D01*
X62274868Y61014550D01*
X62175000Y61000000D01*
X61225000Y61000000D01*
X61125132Y61014550D01*
X61119410Y61017348D01*
X61117037Y61017723D01*
X61079035Y61037086D01*
X61021623Y61065153D01*
X60940153Y61146623D01*
X60912104Y61203997D01*
X60892723Y61242035D01*
X60892346Y61244412D01*
X60889550Y61250132D01*
X60875000Y61350000D01*
X60875000Y61850000D01*
X60889550Y61949868D01*
X60892345Y61955587D01*
X60892722Y61957963D01*
X60912108Y61996013D01*
X60940153Y62053377D01*
X61021623Y62134847D01*
X61078971Y62162884D01*
X61117034Y62182277D01*
X61119411Y62182654D01*
X61125132Y62185450D01*
X61225000Y62200000D01*
X62175000Y62200000D01*
X62274868Y62185450D01*
G37*
G36*
X34824868Y62235450D02*
G01*
X34830586Y62232655D01*
X34832962Y62232278D01*
X34870987Y62212904D01*
X34928377Y62184847D01*
X35009847Y62103377D01*
X35037907Y62045980D01*
X35057276Y62007966D01*
X35057652Y62005592D01*
X35060450Y61999868D01*
X35075000Y61900000D01*
X35075000Y61400000D01*
X35060450Y61300132D01*
X35057652Y61294411D01*
X35057277Y61292038D01*
X35037926Y61254061D01*
X35009847Y61196623D01*
X34928377Y61115153D01*
X34870955Y61087081D01*
X34832965Y61067724D01*
X34830591Y61067349D01*
X34824868Y61064550D01*
X34725000Y61050000D01*
X33775000Y61050000D01*
X33675132Y61064550D01*
X33669410Y61067348D01*
X33667037Y61067723D01*
X33629035Y61087086D01*
X33571623Y61115153D01*
X33490153Y61196623D01*
X33462104Y61253997D01*
X33442723Y61292035D01*
X33442346Y61294412D01*
X33439550Y61300132D01*
X33425000Y61400000D01*
X33425000Y61900000D01*
X33439550Y61999868D01*
X33442345Y62005587D01*
X33442722Y62007963D01*
X33462108Y62046013D01*
X33490153Y62103377D01*
X33571623Y62184847D01*
X33628971Y62212884D01*
X33667034Y62232277D01*
X33669411Y62232654D01*
X33675132Y62235450D01*
X33775000Y62250000D01*
X34725000Y62250000D01*
X34824868Y62235450D01*
G37*
G36*
X39824868Y62235450D02*
G01*
X39830586Y62232655D01*
X39832962Y62232278D01*
X39870987Y62212904D01*
X39928377Y62184847D01*
X40009847Y62103377D01*
X40037907Y62045980D01*
X40057276Y62007966D01*
X40057652Y62005592D01*
X40060450Y61999868D01*
X40075000Y61900000D01*
X40075000Y61400000D01*
X40060450Y61300132D01*
X40057652Y61294411D01*
X40057277Y61292038D01*
X40037926Y61254061D01*
X40009847Y61196623D01*
X39928377Y61115153D01*
X39870955Y61087081D01*
X39832965Y61067724D01*
X39830591Y61067349D01*
X39824868Y61064550D01*
X39725000Y61050000D01*
X38775000Y61050000D01*
X38675132Y61064550D01*
X38669410Y61067348D01*
X38667037Y61067723D01*
X38629035Y61087086D01*
X38571623Y61115153D01*
X38490153Y61196623D01*
X38462104Y61253997D01*
X38442723Y61292035D01*
X38442346Y61294412D01*
X38439550Y61300132D01*
X38425000Y61400000D01*
X38425000Y61900000D01*
X38439550Y61999868D01*
X38442345Y62005587D01*
X38442722Y62007963D01*
X38462108Y62046013D01*
X38490153Y62103377D01*
X38571623Y62184847D01*
X38628971Y62212884D01*
X38667034Y62232277D01*
X38669411Y62232654D01*
X38675132Y62235450D01*
X38775000Y62250000D01*
X39725000Y62250000D01*
X39824868Y62235450D01*
G37*
G36*
X37324868Y62260450D02*
G01*
X37330586Y62257655D01*
X37332962Y62257278D01*
X37370987Y62237904D01*
X37428377Y62209847D01*
X37509847Y62128377D01*
X37537907Y62070980D01*
X37557276Y62032966D01*
X37557652Y62030592D01*
X37560450Y62024868D01*
X37575000Y61925000D01*
X37575000Y61425000D01*
X37560450Y61325132D01*
X37557652Y61319411D01*
X37557277Y61317038D01*
X37537926Y61279061D01*
X37509847Y61221623D01*
X37428377Y61140153D01*
X37370955Y61112081D01*
X37332965Y61092724D01*
X37330591Y61092349D01*
X37324868Y61089550D01*
X37225000Y61075000D01*
X36275000Y61075000D01*
X36175132Y61089550D01*
X36169410Y61092348D01*
X36167037Y61092723D01*
X36129035Y61112086D01*
X36071623Y61140153D01*
X35990153Y61221623D01*
X35962104Y61278997D01*
X35942723Y61317035D01*
X35942346Y61319412D01*
X35939550Y61325132D01*
X35925000Y61425000D01*
X35925000Y61925000D01*
X35939550Y62024868D01*
X35942345Y62030587D01*
X35942722Y62032963D01*
X35962108Y62071013D01*
X35990153Y62128377D01*
X36071623Y62209847D01*
X36128971Y62237884D01*
X36167034Y62257277D01*
X36169411Y62257654D01*
X36175132Y62260450D01*
X36275000Y62275000D01*
X37225000Y62275000D01*
X37324868Y62260450D01*
G37*
G36*
X21799868Y63810450D02*
G01*
X21805586Y63807655D01*
X21807962Y63807278D01*
X21845987Y63787904D01*
X21903377Y63759847D01*
X21984847Y63678377D01*
X22012907Y63620980D01*
X22032276Y63582966D01*
X22032652Y63580592D01*
X22035450Y63574868D01*
X22050000Y63475000D01*
X22050000Y62525000D01*
X22035450Y62425132D01*
X22032652Y62419411D01*
X22032277Y62417038D01*
X22012926Y62379061D01*
X21984847Y62321623D01*
X21903377Y62240153D01*
X21845955Y62212081D01*
X21807965Y62192724D01*
X21805591Y62192349D01*
X21799868Y62189550D01*
X21700000Y62175000D01*
X21200000Y62175000D01*
X21100132Y62189550D01*
X21094410Y62192348D01*
X21092037Y62192723D01*
X21054035Y62212086D01*
X20996623Y62240153D01*
X20915153Y62321623D01*
X20887104Y62378997D01*
X20867723Y62417035D01*
X20867346Y62419412D01*
X20864550Y62425132D01*
X20850000Y62525000D01*
X20850000Y63475000D01*
X20864550Y63574868D01*
X20867345Y63580587D01*
X20867722Y63582963D01*
X20887108Y63621013D01*
X20915153Y63678377D01*
X20996623Y63759847D01*
X21053971Y63787884D01*
X21092034Y63807277D01*
X21094411Y63807654D01*
X21100132Y63810450D01*
X21200000Y63825000D01*
X21700000Y63825000D01*
X21799868Y63810450D01*
G37*
G36*
X23699868Y63810450D02*
G01*
X23705586Y63807655D01*
X23707962Y63807278D01*
X23745987Y63787904D01*
X23803377Y63759847D01*
X23884847Y63678377D01*
X23912907Y63620980D01*
X23932276Y63582966D01*
X23932652Y63580592D01*
X23935450Y63574868D01*
X23950000Y63475000D01*
X23950000Y62525000D01*
X23935450Y62425132D01*
X23932652Y62419411D01*
X23932277Y62417038D01*
X23912926Y62379061D01*
X23884847Y62321623D01*
X23803377Y62240153D01*
X23745955Y62212081D01*
X23707965Y62192724D01*
X23705591Y62192349D01*
X23699868Y62189550D01*
X23600000Y62175000D01*
X23100000Y62175000D01*
X23000132Y62189550D01*
X22994410Y62192348D01*
X22992037Y62192723D01*
X22954035Y62212086D01*
X22896623Y62240153D01*
X22815153Y62321623D01*
X22787104Y62378997D01*
X22767723Y62417035D01*
X22767346Y62419412D01*
X22764550Y62425132D01*
X22750000Y62525000D01*
X22750000Y63475000D01*
X22764550Y63574868D01*
X22767345Y63580587D01*
X22767722Y63582963D01*
X22787108Y63621013D01*
X22815153Y63678377D01*
X22896623Y63759847D01*
X22953971Y63787884D01*
X22992034Y63807277D01*
X22994411Y63807654D01*
X23000132Y63810450D01*
X23100000Y63825000D01*
X23600000Y63825000D01*
X23699868Y63810450D01*
G37*
G36*
X5484211Y78264282D02*
G01*
X5801835Y78201103D01*
X6111737Y78107095D01*
X6410932Y77983165D01*
X6696539Y77830504D01*
X6965808Y77650585D01*
X7216145Y77445139D01*
X7445139Y77216145D01*
X7650585Y76965808D01*
X7830504Y76696539D01*
X7983165Y76410932D01*
X8107095Y76111737D01*
X8201103Y75801835D01*
X8264282Y75484211D01*
X8296025Y75161923D01*
X8296025Y74838077D01*
X8264282Y74515789D01*
X8201103Y74198165D01*
X8107095Y73888263D01*
X7983165Y73589068D01*
X7830504Y73303461D01*
X7650585Y73034192D01*
X7445139Y72783855D01*
X7216145Y72554861D01*
X6965808Y72349415D01*
X6696539Y72169496D01*
X6410932Y72016835D01*
X6111737Y71892905D01*
X5801835Y71798897D01*
X5484211Y71735718D01*
X5161923Y71703975D01*
X4838077Y71703975D01*
X4515789Y71735718D01*
X4198165Y71798897D01*
X3888263Y71892905D01*
X3589068Y72016835D01*
X3303461Y72169496D01*
X3034192Y72349415D01*
X2783855Y72554861D01*
X2554861Y72783855D01*
X2349415Y73034192D01*
X2169496Y73303461D01*
X2016835Y73589068D01*
X1892905Y73888263D01*
X1798897Y74198165D01*
X1735718Y74515789D01*
X1703975Y74838077D01*
X1703975Y75161923D01*
X1735718Y75484211D01*
X1798897Y75801835D01*
X1892905Y76111737D01*
X2016835Y76410932D01*
X2169496Y76696539D01*
X2349415Y76965808D01*
X2554861Y77216145D01*
X2783855Y77445139D01*
X3034192Y77650585D01*
X3303461Y77830504D01*
X3589068Y77983165D01*
X3888263Y78107095D01*
X4198165Y78201103D01*
X4515789Y78264282D01*
X4838077Y78296025D01*
X5161923Y78296025D01*
X5484211Y78264282D01*
G37*
G36*
X75484211Y78264282D02*
G01*
X75801835Y78201103D01*
X76111737Y78107095D01*
X76410932Y77983165D01*
X76696539Y77830504D01*
X76965808Y77650585D01*
X77216145Y77445139D01*
X77445139Y77216145D01*
X77650585Y76965808D01*
X77830504Y76696539D01*
X77983165Y76410932D01*
X78107095Y76111737D01*
X78201103Y75801835D01*
X78264282Y75484211D01*
X78296025Y75161923D01*
X78296025Y74838077D01*
X78264282Y74515789D01*
X78201103Y74198165D01*
X78107095Y73888263D01*
X77983165Y73589068D01*
X77830504Y73303461D01*
X77650585Y73034192D01*
X77445139Y72783855D01*
X77216145Y72554861D01*
X76965808Y72349415D01*
X76696539Y72169496D01*
X76410932Y72016835D01*
X76111737Y71892905D01*
X75801835Y71798897D01*
X75484211Y71735718D01*
X75161923Y71703975D01*
X74838077Y71703975D01*
X74515789Y71735718D01*
X74198165Y71798897D01*
X73888263Y71892905D01*
X73589068Y72016835D01*
X73303461Y72169496D01*
X73034192Y72349415D01*
X72783855Y72554861D01*
X72554861Y72783855D01*
X72349415Y73034192D01*
X72169496Y73303461D01*
X72016835Y73589068D01*
X71892905Y73888263D01*
X71798897Y74198165D01*
X71735718Y74515789D01*
X71703975Y74838077D01*
X71703975Y75161923D01*
X71735718Y75484211D01*
X71798897Y75801835D01*
X71892905Y76111737D01*
X72016835Y76410932D01*
X72169496Y76696539D01*
X72349415Y76965808D01*
X72554861Y77216145D01*
X72783855Y77445139D01*
X73034192Y77650585D01*
X73303461Y77830504D01*
X73589068Y77983165D01*
X73888263Y78107095D01*
X74198165Y78201103D01*
X74515789Y78264282D01*
X74838077Y78296025D01*
X75161923Y78296025D01*
X75484211Y78264282D01*
G37*
%LPD*%
M02*
