%TF.GenerationSoftware,KiCad,Pcbnew,9.0.2*%
%TF.CreationDate,2026-04-14T22:46:37-07:00*%
%TF.ProjectId,ANTS-Power-board,414e5453-2d50-46f7-9765-722d626f6172,rev?*%
%TF.SameCoordinates,Original*%
%TF.FileFunction,Soldermask,Bot*%
%TF.FilePolarity,Negative*%
%FSLAX46Y46*%
G04 Gerber Fmt 4.6, Leading zero omitted, Abs format (unit mm)*
G04 Created by KiCad (PCBNEW 9.0.2) date 2026-04-14 22:46:37*
%MOMM*%
%LPD*%
G01*
G04 APERTURE LIST*
G04 APERTURE END LIST*
G36*
X5484211Y8264282D02*
G01*
X5801835Y8201103D01*
X6111737Y8107095D01*
X6410932Y7983165D01*
X6696539Y7830504D01*
X6965808Y7650585D01*
X7216145Y7445139D01*
X7445139Y7216145D01*
X7650585Y6965808D01*
X7830504Y6696539D01*
X7983165Y6410932D01*
X8107095Y6111737D01*
X8201103Y5801835D01*
X8264282Y5484211D01*
X8296025Y5161923D01*
X8296025Y4838077D01*
X8264282Y4515789D01*
X8201103Y4198165D01*
X8107095Y3888263D01*
X7983165Y3589068D01*
X7830504Y3303461D01*
X7650585Y3034192D01*
X7445139Y2783855D01*
X7216145Y2554861D01*
X6965808Y2349415D01*
X6696539Y2169496D01*
X6410932Y2016835D01*
X6111737Y1892905D01*
X5801835Y1798897D01*
X5484211Y1735718D01*
X5161923Y1703975D01*
X4838077Y1703975D01*
X4515789Y1735718D01*
X4198165Y1798897D01*
X3888263Y1892905D01*
X3589068Y2016835D01*
X3303461Y2169496D01*
X3034192Y2349415D01*
X2783855Y2554861D01*
X2554861Y2783855D01*
X2349415Y3034192D01*
X2169496Y3303461D01*
X2016835Y3589068D01*
X1892905Y3888263D01*
X1798897Y4198165D01*
X1735718Y4515789D01*
X1703975Y4838077D01*
X1703975Y5161923D01*
X1735718Y5484211D01*
X1798897Y5801835D01*
X1892905Y6111737D01*
X2016835Y6410932D01*
X2169496Y6696539D01*
X2349415Y6965808D01*
X2554861Y7216145D01*
X2783855Y7445139D01*
X3034192Y7650585D01*
X3303461Y7830504D01*
X3589068Y7983165D01*
X3888263Y8107095D01*
X4198165Y8201103D01*
X4515789Y8264282D01*
X4838077Y8296025D01*
X5161923Y8296025D01*
X5484211Y8264282D01*
G37*
G36*
X75484211Y8264282D02*
G01*
X75801835Y8201103D01*
X76111737Y8107095D01*
X76410932Y7983165D01*
X76696539Y7830504D01*
X76965808Y7650585D01*
X77216145Y7445139D01*
X77445139Y7216145D01*
X77650585Y6965808D01*
X77830504Y6696539D01*
X77983165Y6410932D01*
X78107095Y6111737D01*
X78201103Y5801835D01*
X78264282Y5484211D01*
X78296025Y5161923D01*
X78296025Y4838077D01*
X78264282Y4515789D01*
X78201103Y4198165D01*
X78107095Y3888263D01*
X77983165Y3589068D01*
X77830504Y3303461D01*
X77650585Y3034192D01*
X77445139Y2783855D01*
X77216145Y2554861D01*
X76965808Y2349415D01*
X76696539Y2169496D01*
X76410932Y2016835D01*
X76111737Y1892905D01*
X75801835Y1798897D01*
X75484211Y1735718D01*
X75161923Y1703975D01*
X74838077Y1703975D01*
X74515789Y1735718D01*
X74198165Y1798897D01*
X73888263Y1892905D01*
X73589068Y2016835D01*
X73303461Y2169496D01*
X73034192Y2349415D01*
X72783855Y2554861D01*
X72554861Y2783855D01*
X72349415Y3034192D01*
X72169496Y3303461D01*
X72016835Y3589068D01*
X71892905Y3888263D01*
X71798897Y4198165D01*
X71735718Y4515789D01*
X71703975Y4838077D01*
X71703975Y5161923D01*
X71735718Y5484211D01*
X71798897Y5801835D01*
X71892905Y6111737D01*
X72016835Y6410932D01*
X72169496Y6696539D01*
X72349415Y6965808D01*
X72554861Y7216145D01*
X72783855Y7445139D01*
X73034192Y7650585D01*
X73303461Y7830504D01*
X73589068Y7983165D01*
X73888263Y8107095D01*
X74198165Y8201103D01*
X74515789Y8264282D01*
X74838077Y8296025D01*
X75161923Y8296025D01*
X75484211Y8264282D01*
G37*
G36*
X52643858Y14144867D02*
G01*
X52653316Y14144867D01*
X52680563Y14137567D01*
X52749099Y14123934D01*
X52781448Y14110535D01*
X52804610Y14104328D01*
X52825377Y14092338D01*
X52857722Y14078940D01*
X52915816Y14040123D01*
X52940257Y14026012D01*
X52946946Y14019323D01*
X52955481Y14013620D01*
X53038619Y13930482D01*
X53044321Y13921948D01*
X53051012Y13915257D01*
X53065124Y13890814D01*
X53103939Y13832723D01*
X53117335Y13800382D01*
X53129328Y13779610D01*
X53135535Y13756445D01*
X53148933Y13724100D01*
X53162565Y13655567D01*
X53169867Y13628316D01*
X53169867Y13618859D01*
X53171870Y13608789D01*
X53171870Y13491212D01*
X53169867Y13481143D01*
X53169867Y13471684D01*
X53162564Y13444431D01*
X53148933Y13375901D01*
X53135535Y13343559D01*
X53129328Y13320390D01*
X53117334Y13299617D01*
X53103939Y13267278D01*
X53065128Y13209195D01*
X53051012Y13184743D01*
X53044319Y13178051D01*
X53038619Y13169519D01*
X52955481Y13086381D01*
X52946949Y13080681D01*
X52940257Y13073988D01*
X52915805Y13059872D01*
X52857722Y13021061D01*
X52825383Y13007666D01*
X52804610Y12995672D01*
X52781441Y12989465D01*
X52749099Y12976067D01*
X52680569Y12962436D01*
X52653316Y12955133D01*
X52643858Y12955133D01*
X52633788Y12953130D01*
X52516212Y12953130D01*
X52506142Y12955133D01*
X52496684Y12955133D01*
X52469432Y12962436D01*
X52400900Y12976067D01*
X52368555Y12989465D01*
X52345390Y12995672D01*
X52324618Y13007665D01*
X52292277Y13021061D01*
X52234186Y13059876D01*
X52209743Y13073988D01*
X52203052Y13080679D01*
X52194518Y13086381D01*
X52111380Y13169519D01*
X52105677Y13178054D01*
X52098988Y13184743D01*
X52084877Y13209184D01*
X52046060Y13267278D01*
X52032662Y13299623D01*
X52020672Y13320390D01*
X52014465Y13343552D01*
X52001066Y13375901D01*
X51987433Y13444437D01*
X51980133Y13471684D01*
X51980133Y13481142D01*
X51978130Y13491212D01*
X51978130Y13608789D01*
X51980133Y13618860D01*
X51980133Y13628316D01*
X51987433Y13655561D01*
X52001066Y13724100D01*
X52014466Y13756452D01*
X52020672Y13779610D01*
X52032660Y13800376D01*
X52046060Y13832723D01*
X52084881Y13890825D01*
X52098988Y13915257D01*
X52105675Y13921945D01*
X52111380Y13930482D01*
X52194518Y14013620D01*
X52203055Y14019325D01*
X52209743Y14026012D01*
X52234175Y14040119D01*
X52292277Y14078940D01*
X52324624Y14092340D01*
X52345390Y14104328D01*
X52368548Y14110534D01*
X52400900Y14123934D01*
X52469437Y14137567D01*
X52496684Y14144867D01*
X52506142Y14144867D01*
X52516212Y14146870D01*
X52633788Y14146870D01*
X52643858Y14144867D01*
G37*
G36*
X68280134Y23616844D02*
G01*
X68459220Y23558655D01*
X68626998Y23473168D01*
X68779338Y23362487D01*
X68912487Y23229338D01*
X69023168Y23076998D01*
X69108655Y22909220D01*
X69166844Y22730134D01*
X69196301Y22544151D01*
X69196301Y22355849D01*
X69166844Y22169866D01*
X69108655Y21990780D01*
X69023168Y21823002D01*
X68912487Y21670662D01*
X68779338Y21537513D01*
X68626998Y21426832D01*
X68459220Y21341345D01*
X68280134Y21283156D01*
X68094151Y21253699D01*
X67905849Y21253699D01*
X67719866Y21283156D01*
X67540780Y21341345D01*
X67373002Y21426832D01*
X67220662Y21537513D01*
X67087513Y21670662D01*
X66976832Y21823002D01*
X66891345Y21990780D01*
X66833156Y22169866D01*
X66803699Y22355849D01*
X66803699Y22544151D01*
X66833156Y22730134D01*
X66891345Y22909220D01*
X66976832Y23076998D01*
X67087513Y23229338D01*
X67220662Y23362487D01*
X67373002Y23473168D01*
X67540780Y23558655D01*
X67719866Y23616844D01*
X67905849Y23646301D01*
X68094151Y23646301D01*
X68280134Y23616844D01*
G37*
G36*
X52568858Y22844867D02*
G01*
X52578316Y22844867D01*
X52605563Y22837567D01*
X52674099Y22823934D01*
X52706448Y22810535D01*
X52729610Y22804328D01*
X52750377Y22792338D01*
X52782722Y22778940D01*
X52840816Y22740123D01*
X52865257Y22726012D01*
X52871946Y22719323D01*
X52880481Y22713620D01*
X52963619Y22630482D01*
X52969321Y22621948D01*
X52976012Y22615257D01*
X52990124Y22590814D01*
X53028939Y22532723D01*
X53042335Y22500382D01*
X53054328Y22479610D01*
X53060535Y22456445D01*
X53073933Y22424100D01*
X53087565Y22355567D01*
X53094867Y22328316D01*
X53094867Y22318859D01*
X53096870Y22308789D01*
X53096870Y22191212D01*
X53094867Y22181143D01*
X53094867Y22171684D01*
X53087564Y22144431D01*
X53073933Y22075901D01*
X53060535Y22043559D01*
X53054328Y22020390D01*
X53042334Y21999617D01*
X53028939Y21967278D01*
X52990128Y21909195D01*
X52976012Y21884743D01*
X52969319Y21878051D01*
X52963619Y21869519D01*
X52880481Y21786381D01*
X52871949Y21780681D01*
X52865257Y21773988D01*
X52840805Y21759872D01*
X52782722Y21721061D01*
X52750383Y21707666D01*
X52729610Y21695672D01*
X52706441Y21689465D01*
X52674099Y21676067D01*
X52605569Y21662436D01*
X52578316Y21655133D01*
X52568858Y21655133D01*
X52558788Y21653130D01*
X52441212Y21653130D01*
X52431142Y21655133D01*
X52421684Y21655133D01*
X52394432Y21662436D01*
X52325900Y21676067D01*
X52293555Y21689465D01*
X52270390Y21695672D01*
X52249618Y21707665D01*
X52217277Y21721061D01*
X52159186Y21759876D01*
X52134743Y21773988D01*
X52128052Y21780679D01*
X52119518Y21786381D01*
X52036380Y21869519D01*
X52030677Y21878054D01*
X52023988Y21884743D01*
X52009877Y21909184D01*
X51971060Y21967278D01*
X51957662Y21999623D01*
X51945672Y22020390D01*
X51939465Y22043552D01*
X51926066Y22075901D01*
X51912433Y22144437D01*
X51905133Y22171684D01*
X51905133Y22181142D01*
X51903130Y22191212D01*
X51903130Y22308789D01*
X51905133Y22318860D01*
X51905133Y22328316D01*
X51912433Y22355561D01*
X51926066Y22424100D01*
X51939466Y22456452D01*
X51945672Y22479610D01*
X51957660Y22500376D01*
X51971060Y22532723D01*
X52009881Y22590825D01*
X52023988Y22615257D01*
X52030675Y22621945D01*
X52036380Y22630482D01*
X52119518Y22713620D01*
X52128055Y22719325D01*
X52134743Y22726012D01*
X52159175Y22740119D01*
X52217277Y22778940D01*
X52249624Y22792340D01*
X52270390Y22804328D01*
X52293548Y22810534D01*
X52325900Y22823934D01*
X52394437Y22837567D01*
X52421684Y22844867D01*
X52431142Y22844867D01*
X52441212Y22846870D01*
X52558788Y22846870D01*
X52568858Y22844867D01*
G37*
G36*
X15800770Y24089093D02*
G01*
X15972827Y24017825D01*
X16127674Y23914360D01*
X16259360Y23782674D01*
X16362825Y23627827D01*
X16434093Y23455770D01*
X16470425Y23273116D01*
X16470425Y23086884D01*
X16434093Y22904230D01*
X16362825Y22732173D01*
X16259360Y22577326D01*
X16127674Y22445640D01*
X15972827Y22342175D01*
X15800770Y22270907D01*
X15618116Y22234575D01*
X15431884Y22234575D01*
X15249230Y22270907D01*
X15077173Y22342175D01*
X14922326Y22445640D01*
X14790640Y22577326D01*
X14687175Y22732173D01*
X14615907Y22904230D01*
X14579575Y23086884D01*
X14579575Y23273116D01*
X14615907Y23455770D01*
X14687175Y23627827D01*
X14790640Y23782674D01*
X14922326Y23914360D01*
X15077173Y24017825D01*
X15249230Y24089093D01*
X15431884Y24125425D01*
X15618116Y24125425D01*
X15800770Y24089093D01*
G37*
G36*
X68280134Y27116844D02*
G01*
X68459220Y27058655D01*
X68626998Y26973168D01*
X68779338Y26862487D01*
X68912487Y26729338D01*
X69023168Y26576998D01*
X69108655Y26409220D01*
X69166844Y26230134D01*
X69196301Y26044151D01*
X69196301Y25855849D01*
X69166844Y25669866D01*
X69108655Y25490780D01*
X69023168Y25323002D01*
X68912487Y25170662D01*
X68779338Y25037513D01*
X68626998Y24926832D01*
X68459220Y24841345D01*
X68280134Y24783156D01*
X68094151Y24753699D01*
X67905849Y24753699D01*
X67719866Y24783156D01*
X67540780Y24841345D01*
X67373002Y24926832D01*
X67220662Y25037513D01*
X67087513Y25170662D01*
X66976832Y25323002D01*
X66891345Y25490780D01*
X66833156Y25669866D01*
X66803699Y25855849D01*
X66803699Y26044151D01*
X66833156Y26230134D01*
X66891345Y26409220D01*
X66976832Y26576998D01*
X67087513Y26729338D01*
X67220662Y26862487D01*
X67373002Y26973168D01*
X67540780Y27058655D01*
X67719866Y27116844D01*
X67905849Y27146301D01*
X68094151Y27146301D01*
X68280134Y27116844D01*
G37*
G36*
X15800770Y26629093D02*
G01*
X15972827Y26557825D01*
X16127674Y26454360D01*
X16259360Y26322674D01*
X16362825Y26167827D01*
X16434093Y25995770D01*
X16470425Y25813116D01*
X16470425Y25626884D01*
X16434093Y25444230D01*
X16362825Y25272173D01*
X16259360Y25117326D01*
X16127674Y24985640D01*
X15972827Y24882175D01*
X15800770Y24810907D01*
X15618116Y24774575D01*
X15431884Y24774575D01*
X15249230Y24810907D01*
X15077173Y24882175D01*
X14922326Y24985640D01*
X14790640Y25117326D01*
X14687175Y25272173D01*
X14615907Y25444230D01*
X14579575Y25626884D01*
X14579575Y25813116D01*
X14615907Y25995770D01*
X14687175Y26167827D01*
X14790640Y26322674D01*
X14922326Y26454360D01*
X15077173Y26557825D01*
X15249230Y26629093D01*
X15431884Y26665425D01*
X15618116Y26665425D01*
X15800770Y26629093D01*
G37*
G36*
X7293612Y26696629D02*
G01*
X7428199Y26669858D01*
X7554978Y26617345D01*
X7669075Y26541107D01*
X7766107Y26444075D01*
X7842345Y26329978D01*
X7894858Y26203199D01*
X7921629Y26068612D01*
X7921629Y25931388D01*
X7894858Y25796801D01*
X7842345Y25670022D01*
X7766107Y25555925D01*
X7669075Y25458893D01*
X7554978Y25382655D01*
X7428199Y25330142D01*
X7293612Y25303371D01*
X7225000Y25300000D01*
X7223768Y25300000D01*
X6776232Y25300000D01*
X6775000Y25300000D01*
X6706388Y25303371D01*
X6571801Y25330142D01*
X6445022Y25382655D01*
X6330925Y25458893D01*
X6233893Y25555925D01*
X6157655Y25670022D01*
X6105142Y25796801D01*
X6078371Y25931388D01*
X6078371Y26068612D01*
X6105142Y26203199D01*
X6157655Y26329978D01*
X6233893Y26444075D01*
X6330925Y26541107D01*
X6445022Y26617345D01*
X6571801Y26669858D01*
X6706388Y26696629D01*
X6775000Y26700000D01*
X7225000Y26700000D01*
X7293612Y26696629D01*
G37*
G36*
X9293612Y26696629D02*
G01*
X9428199Y26669858D01*
X9554978Y26617345D01*
X9669075Y26541107D01*
X9766107Y26444075D01*
X9842345Y26329978D01*
X9894858Y26203199D01*
X9921629Y26068612D01*
X9921629Y25931388D01*
X9894858Y25796801D01*
X9842345Y25670022D01*
X9766107Y25555925D01*
X9669075Y25458893D01*
X9554978Y25382655D01*
X9428199Y25330142D01*
X9293612Y25303371D01*
X9225000Y25300000D01*
X9223768Y25300000D01*
X8776232Y25300000D01*
X8775000Y25300000D01*
X8706388Y25303371D01*
X8571801Y25330142D01*
X8445022Y25382655D01*
X8330925Y25458893D01*
X8233893Y25555925D01*
X8157655Y25670022D01*
X8105142Y25796801D01*
X8078371Y25931388D01*
X8078371Y26068612D01*
X8105142Y26203199D01*
X8157655Y26329978D01*
X8233893Y26444075D01*
X8330925Y26541107D01*
X8445022Y26617345D01*
X8571801Y26669858D01*
X8706388Y26696629D01*
X8775000Y26700000D01*
X9225000Y26700000D01*
X9293612Y26696629D01*
G37*
G36*
X7293612Y28696629D02*
G01*
X7428199Y28669858D01*
X7554978Y28617345D01*
X7669075Y28541107D01*
X7766107Y28444075D01*
X7842345Y28329978D01*
X7894858Y28203199D01*
X7921629Y28068612D01*
X7921629Y27931388D01*
X7894858Y27796801D01*
X7842345Y27670022D01*
X7766107Y27555925D01*
X7669075Y27458893D01*
X7554978Y27382655D01*
X7428199Y27330142D01*
X7293612Y27303371D01*
X7225000Y27300000D01*
X7223768Y27300000D01*
X6776232Y27300000D01*
X6775000Y27300000D01*
X6706388Y27303371D01*
X6571801Y27330142D01*
X6445022Y27382655D01*
X6330925Y27458893D01*
X6233893Y27555925D01*
X6157655Y27670022D01*
X6105142Y27796801D01*
X6078371Y27931388D01*
X6078371Y28068612D01*
X6105142Y28203199D01*
X6157655Y28329978D01*
X6233893Y28444075D01*
X6330925Y28541107D01*
X6445022Y28617345D01*
X6571801Y28669858D01*
X6706388Y28696629D01*
X6775000Y28700000D01*
X7225000Y28700000D01*
X7293612Y28696629D01*
G37*
G36*
X9293612Y28696629D02*
G01*
X9428199Y28669858D01*
X9554978Y28617345D01*
X9669075Y28541107D01*
X9766107Y28444075D01*
X9842345Y28329978D01*
X9894858Y28203199D01*
X9921629Y28068612D01*
X9921629Y27931388D01*
X9894858Y27796801D01*
X9842345Y27670022D01*
X9766107Y27555925D01*
X9669075Y27458893D01*
X9554978Y27382655D01*
X9428199Y27330142D01*
X9293612Y27303371D01*
X9225000Y27300000D01*
X9223768Y27300000D01*
X8776232Y27300000D01*
X8775000Y27300000D01*
X8706388Y27303371D01*
X8571801Y27330142D01*
X8445022Y27382655D01*
X8330925Y27458893D01*
X8233893Y27555925D01*
X8157655Y27670022D01*
X8105142Y27796801D01*
X8078371Y27931388D01*
X8078371Y28068612D01*
X8105142Y28203199D01*
X8157655Y28329978D01*
X8233893Y28444075D01*
X8330925Y28541107D01*
X8445022Y28617345D01*
X8571801Y28669858D01*
X8706388Y28696629D01*
X8775000Y28700000D01*
X9225000Y28700000D01*
X9293612Y28696629D01*
G37*
G36*
X15800770Y29169093D02*
G01*
X15972827Y29097825D01*
X16127674Y28994360D01*
X16259360Y28862674D01*
X16362825Y28707827D01*
X16434093Y28535770D01*
X16470425Y28353116D01*
X16470425Y28166884D01*
X16434093Y27984230D01*
X16362825Y27812173D01*
X16259360Y27657326D01*
X16127674Y27525640D01*
X15972827Y27422175D01*
X15800770Y27350907D01*
X15618116Y27314575D01*
X15431884Y27314575D01*
X15249230Y27350907D01*
X15077173Y27422175D01*
X14922326Y27525640D01*
X14790640Y27657326D01*
X14687175Y27812173D01*
X14615907Y27984230D01*
X14579575Y28166884D01*
X14579575Y28353116D01*
X14615907Y28535770D01*
X14687175Y28707827D01*
X14790640Y28862674D01*
X14922326Y28994360D01*
X15077173Y29097825D01*
X15249230Y29169093D01*
X15431884Y29205425D01*
X15618116Y29205425D01*
X15800770Y29169093D01*
G37*
G36*
X7293612Y30696629D02*
G01*
X7428199Y30669858D01*
X7554978Y30617345D01*
X7669075Y30541107D01*
X7766107Y30444075D01*
X7842345Y30329978D01*
X7894858Y30203199D01*
X7921629Y30068612D01*
X7921629Y29931388D01*
X7894858Y29796801D01*
X7842345Y29670022D01*
X7766107Y29555925D01*
X7669075Y29458893D01*
X7554978Y29382655D01*
X7428199Y29330142D01*
X7293612Y29303371D01*
X7225000Y29300000D01*
X7223768Y29300000D01*
X6776232Y29300000D01*
X6775000Y29300000D01*
X6706388Y29303371D01*
X6571801Y29330142D01*
X6445022Y29382655D01*
X6330925Y29458893D01*
X6233893Y29555925D01*
X6157655Y29670022D01*
X6105142Y29796801D01*
X6078371Y29931388D01*
X6078371Y30068612D01*
X6105142Y30203199D01*
X6157655Y30329978D01*
X6233893Y30444075D01*
X6330925Y30541107D01*
X6445022Y30617345D01*
X6571801Y30669858D01*
X6706388Y30696629D01*
X6775000Y30700000D01*
X7225000Y30700000D01*
X7293612Y30696629D01*
G37*
G36*
X9293612Y30696629D02*
G01*
X9428199Y30669858D01*
X9554978Y30617345D01*
X9669075Y30541107D01*
X9766107Y30444075D01*
X9842345Y30329978D01*
X9894858Y30203199D01*
X9921629Y30068612D01*
X9921629Y29931388D01*
X9894858Y29796801D01*
X9842345Y29670022D01*
X9766107Y29555925D01*
X9669075Y29458893D01*
X9554978Y29382655D01*
X9428199Y29330142D01*
X9293612Y29303371D01*
X9225000Y29300000D01*
X9223768Y29300000D01*
X8776232Y29300000D01*
X8775000Y29300000D01*
X8706388Y29303371D01*
X8571801Y29330142D01*
X8445022Y29382655D01*
X8330925Y29458893D01*
X8233893Y29555925D01*
X8157655Y29670022D01*
X8105142Y29796801D01*
X8078371Y29931388D01*
X8078371Y30068612D01*
X8105142Y30203199D01*
X8157655Y30329978D01*
X8233893Y30444075D01*
X8330925Y30541107D01*
X8445022Y30617345D01*
X8571801Y30669858D01*
X8706388Y30696629D01*
X8775000Y30700000D01*
X9225000Y30700000D01*
X9293612Y30696629D01*
G37*
G36*
X16413268Y31742388D02*
G01*
X16445711Y31720711D01*
X16467388Y31688268D01*
X16475000Y31650000D01*
X16475000Y29950000D01*
X16467388Y29911732D01*
X16445711Y29879289D01*
X16413268Y29857612D01*
X16375000Y29850000D01*
X14675000Y29850000D01*
X14636732Y29857612D01*
X14604289Y29879289D01*
X14582612Y29911732D01*
X14575000Y29950000D01*
X14575000Y31650000D01*
X14582612Y31688268D01*
X14604289Y31720711D01*
X14636732Y31742388D01*
X14675000Y31750000D01*
X16375000Y31750000D01*
X16413268Y31742388D01*
G37*
G36*
X7293612Y32696629D02*
G01*
X7428199Y32669858D01*
X7554978Y32617345D01*
X7669075Y32541107D01*
X7766107Y32444075D01*
X7842345Y32329978D01*
X7894858Y32203199D01*
X7921629Y32068612D01*
X7921629Y31931388D01*
X7894858Y31796801D01*
X7842345Y31670022D01*
X7766107Y31555925D01*
X7669075Y31458893D01*
X7554978Y31382655D01*
X7428199Y31330142D01*
X7293612Y31303371D01*
X7225000Y31300000D01*
X7223768Y31300000D01*
X6776232Y31300000D01*
X6775000Y31300000D01*
X6706388Y31303371D01*
X6571801Y31330142D01*
X6445022Y31382655D01*
X6330925Y31458893D01*
X6233893Y31555925D01*
X6157655Y31670022D01*
X6105142Y31796801D01*
X6078371Y31931388D01*
X6078371Y32068612D01*
X6105142Y32203199D01*
X6157655Y32329978D01*
X6233893Y32444075D01*
X6330925Y32541107D01*
X6445022Y32617345D01*
X6571801Y32669858D01*
X6706388Y32696629D01*
X6775000Y32700000D01*
X7225000Y32700000D01*
X7293612Y32696629D01*
G37*
G36*
X9293612Y32696629D02*
G01*
X9428199Y32669858D01*
X9554978Y32617345D01*
X9669075Y32541107D01*
X9766107Y32444075D01*
X9842345Y32329978D01*
X9894858Y32203199D01*
X9921629Y32068612D01*
X9921629Y31931388D01*
X9894858Y31796801D01*
X9842345Y31670022D01*
X9766107Y31555925D01*
X9669075Y31458893D01*
X9554978Y31382655D01*
X9428199Y31330142D01*
X9293612Y31303371D01*
X9225000Y31300000D01*
X9223768Y31300000D01*
X8776232Y31300000D01*
X8775000Y31300000D01*
X8706388Y31303371D01*
X8571801Y31330142D01*
X8445022Y31382655D01*
X8330925Y31458893D01*
X8233893Y31555925D01*
X8157655Y31670022D01*
X8105142Y31796801D01*
X8078371Y31931388D01*
X8078371Y32068612D01*
X8105142Y32203199D01*
X8157655Y32329978D01*
X8233893Y32444075D01*
X8330925Y32541107D01*
X8445022Y32617345D01*
X8571801Y32669858D01*
X8706388Y32696629D01*
X8775000Y32700000D01*
X9225000Y32700000D01*
X9293612Y32696629D01*
G37*
G36*
X7293612Y34696629D02*
G01*
X7428199Y34669858D01*
X7554978Y34617345D01*
X7669075Y34541107D01*
X7766107Y34444075D01*
X7842345Y34329978D01*
X7894858Y34203199D01*
X7921629Y34068612D01*
X7921629Y33931388D01*
X7894858Y33796801D01*
X7842345Y33670022D01*
X7766107Y33555925D01*
X7669075Y33458893D01*
X7554978Y33382655D01*
X7428199Y33330142D01*
X7293612Y33303371D01*
X7225000Y33300000D01*
X7223768Y33300000D01*
X6776232Y33300000D01*
X6775000Y33300000D01*
X6706388Y33303371D01*
X6571801Y33330142D01*
X6445022Y33382655D01*
X6330925Y33458893D01*
X6233893Y33555925D01*
X6157655Y33670022D01*
X6105142Y33796801D01*
X6078371Y33931388D01*
X6078371Y34068612D01*
X6105142Y34203199D01*
X6157655Y34329978D01*
X6233893Y34444075D01*
X6330925Y34541107D01*
X6445022Y34617345D01*
X6571801Y34669858D01*
X6706388Y34696629D01*
X6775000Y34700000D01*
X7225000Y34700000D01*
X7293612Y34696629D01*
G37*
G36*
X9293612Y34696629D02*
G01*
X9428199Y34669858D01*
X9554978Y34617345D01*
X9669075Y34541107D01*
X9766107Y34444075D01*
X9842345Y34329978D01*
X9894858Y34203199D01*
X9921629Y34068612D01*
X9921629Y33931388D01*
X9894858Y33796801D01*
X9842345Y33670022D01*
X9766107Y33555925D01*
X9669075Y33458893D01*
X9554978Y33382655D01*
X9428199Y33330142D01*
X9293612Y33303371D01*
X9225000Y33300000D01*
X9223768Y33300000D01*
X8776232Y33300000D01*
X8775000Y33300000D01*
X8706388Y33303371D01*
X8571801Y33330142D01*
X8445022Y33382655D01*
X8330925Y33458893D01*
X8233893Y33555925D01*
X8157655Y33670022D01*
X8105142Y33796801D01*
X8078371Y33931388D01*
X8078371Y34068612D01*
X8105142Y34203199D01*
X8157655Y34329978D01*
X8233893Y34444075D01*
X8330925Y34541107D01*
X8445022Y34617345D01*
X8571801Y34669858D01*
X8706388Y34696629D01*
X8775000Y34700000D01*
X9225000Y34700000D01*
X9293612Y34696629D01*
G37*
G36*
X7293612Y36696629D02*
G01*
X7428199Y36669858D01*
X7554978Y36617345D01*
X7669075Y36541107D01*
X7766107Y36444075D01*
X7842345Y36329978D01*
X7894858Y36203199D01*
X7921629Y36068612D01*
X7921629Y35931388D01*
X7894858Y35796801D01*
X7842345Y35670022D01*
X7766107Y35555925D01*
X7669075Y35458893D01*
X7554978Y35382655D01*
X7428199Y35330142D01*
X7293612Y35303371D01*
X7225000Y35300000D01*
X7223768Y35300000D01*
X6776232Y35300000D01*
X6775000Y35300000D01*
X6706388Y35303371D01*
X6571801Y35330142D01*
X6445022Y35382655D01*
X6330925Y35458893D01*
X6233893Y35555925D01*
X6157655Y35670022D01*
X6105142Y35796801D01*
X6078371Y35931388D01*
X6078371Y36068612D01*
X6105142Y36203199D01*
X6157655Y36329978D01*
X6233893Y36444075D01*
X6330925Y36541107D01*
X6445022Y36617345D01*
X6571801Y36669858D01*
X6706388Y36696629D01*
X6775000Y36700000D01*
X7225000Y36700000D01*
X7293612Y36696629D01*
G37*
G36*
X9674868Y36685450D02*
G01*
X9680586Y36682655D01*
X9682962Y36682278D01*
X9720987Y36662904D01*
X9778377Y36634847D01*
X9859847Y36553377D01*
X9887907Y36495980D01*
X9907276Y36457966D01*
X9907652Y36455592D01*
X9910450Y36449868D01*
X9925000Y36350000D01*
X9925000Y35650000D01*
X9910450Y35550132D01*
X9907652Y35544411D01*
X9907277Y35542038D01*
X9887926Y35504061D01*
X9859847Y35446623D01*
X9778377Y35365153D01*
X9720955Y35337081D01*
X9682965Y35317724D01*
X9680591Y35317349D01*
X9674868Y35314550D01*
X9575000Y35300000D01*
X8425000Y35300000D01*
X8325132Y35314550D01*
X8319410Y35317348D01*
X8317037Y35317723D01*
X8279035Y35337086D01*
X8221623Y35365153D01*
X8140153Y35446623D01*
X8112104Y35503997D01*
X8092723Y35542035D01*
X8092346Y35544412D01*
X8089550Y35550132D01*
X8075000Y35650000D01*
X8075000Y36350000D01*
X8089550Y36449868D01*
X8092345Y36455587D01*
X8092722Y36457963D01*
X8112108Y36496013D01*
X8140153Y36553377D01*
X8221623Y36634847D01*
X8278971Y36662884D01*
X8317034Y36682277D01*
X8319411Y36682654D01*
X8325132Y36685450D01*
X8425000Y36700000D01*
X9575000Y36700000D01*
X9674868Y36685450D01*
G37*
G36*
X15775770Y41589093D02*
G01*
X15947827Y41517825D01*
X16102674Y41414360D01*
X16234360Y41282674D01*
X16337825Y41127827D01*
X16409093Y40955770D01*
X16445425Y40773116D01*
X16445425Y40586884D01*
X16409093Y40404230D01*
X16337825Y40232173D01*
X16234360Y40077326D01*
X16102674Y39945640D01*
X15947827Y39842175D01*
X15775770Y39770907D01*
X15593116Y39734575D01*
X15406884Y39734575D01*
X15224230Y39770907D01*
X15052173Y39842175D01*
X14897326Y39945640D01*
X14765640Y40077326D01*
X14662175Y40232173D01*
X14590907Y40404230D01*
X14554575Y40586884D01*
X14554575Y40773116D01*
X14590907Y40955770D01*
X14662175Y41127827D01*
X14765640Y41282674D01*
X14897326Y41414360D01*
X15052173Y41517825D01*
X15224230Y41589093D01*
X15406884Y41625425D01*
X15593116Y41625425D01*
X15775770Y41589093D01*
G37*
G36*
X15775770Y44129093D02*
G01*
X15947827Y44057825D01*
X16102674Y43954360D01*
X16234360Y43822674D01*
X16337825Y43667827D01*
X16409093Y43495770D01*
X16445425Y43313116D01*
X16445425Y43126884D01*
X16409093Y42944230D01*
X16337825Y42772173D01*
X16234360Y42617326D01*
X16102674Y42485640D01*
X15947827Y42382175D01*
X15775770Y42310907D01*
X15593116Y42274575D01*
X15406884Y42274575D01*
X15224230Y42310907D01*
X15052173Y42382175D01*
X14897326Y42485640D01*
X14765640Y42617326D01*
X14662175Y42772173D01*
X14590907Y42944230D01*
X14554575Y43126884D01*
X14554575Y43313116D01*
X14590907Y43495770D01*
X14662175Y43667827D01*
X14765640Y43822674D01*
X14897326Y43954360D01*
X15052173Y44057825D01*
X15224230Y44129093D01*
X15406884Y44165425D01*
X15593116Y44165425D01*
X15775770Y44129093D01*
G37*
G36*
X7293612Y44696629D02*
G01*
X7428199Y44669858D01*
X7554978Y44617345D01*
X7669075Y44541107D01*
X7766107Y44444075D01*
X7842345Y44329978D01*
X7894858Y44203199D01*
X7921629Y44068612D01*
X7921629Y43931388D01*
X7894858Y43796801D01*
X7842345Y43670022D01*
X7766107Y43555925D01*
X7669075Y43458893D01*
X7554978Y43382655D01*
X7428199Y43330142D01*
X7293612Y43303371D01*
X7225000Y43300000D01*
X7223768Y43300000D01*
X6776232Y43300000D01*
X6775000Y43300000D01*
X6706388Y43303371D01*
X6571801Y43330142D01*
X6445022Y43382655D01*
X6330925Y43458893D01*
X6233893Y43555925D01*
X6157655Y43670022D01*
X6105142Y43796801D01*
X6078371Y43931388D01*
X6078371Y44068612D01*
X6105142Y44203199D01*
X6157655Y44329978D01*
X6233893Y44444075D01*
X6330925Y44541107D01*
X6445022Y44617345D01*
X6571801Y44669858D01*
X6706388Y44696629D01*
X6775000Y44700000D01*
X7225000Y44700000D01*
X7293612Y44696629D01*
G37*
G36*
X9293612Y44696629D02*
G01*
X9428199Y44669858D01*
X9554978Y44617345D01*
X9669075Y44541107D01*
X9766107Y44444075D01*
X9842345Y44329978D01*
X9894858Y44203199D01*
X9921629Y44068612D01*
X9921629Y43931388D01*
X9894858Y43796801D01*
X9842345Y43670022D01*
X9766107Y43555925D01*
X9669075Y43458893D01*
X9554978Y43382655D01*
X9428199Y43330142D01*
X9293612Y43303371D01*
X9225000Y43300000D01*
X9223768Y43300000D01*
X8776232Y43300000D01*
X8775000Y43300000D01*
X8706388Y43303371D01*
X8571801Y43330142D01*
X8445022Y43382655D01*
X8330925Y43458893D01*
X8233893Y43555925D01*
X8157655Y43670022D01*
X8105142Y43796801D01*
X8078371Y43931388D01*
X8078371Y44068612D01*
X8105142Y44203199D01*
X8157655Y44329978D01*
X8233893Y44444075D01*
X8330925Y44541107D01*
X8445022Y44617345D01*
X8571801Y44669858D01*
X8706388Y44696629D01*
X8775000Y44700000D01*
X9225000Y44700000D01*
X9293612Y44696629D01*
G37*
G36*
X15775770Y46669093D02*
G01*
X15947827Y46597825D01*
X16102674Y46494360D01*
X16234360Y46362674D01*
X16337825Y46207827D01*
X16409093Y46035770D01*
X16445425Y45853116D01*
X16445425Y45666884D01*
X16409093Y45484230D01*
X16337825Y45312173D01*
X16234360Y45157326D01*
X16102674Y45025640D01*
X15947827Y44922175D01*
X15775770Y44850907D01*
X15593116Y44814575D01*
X15406884Y44814575D01*
X15224230Y44850907D01*
X15052173Y44922175D01*
X14897326Y45025640D01*
X14765640Y45157326D01*
X14662175Y45312173D01*
X14590907Y45484230D01*
X14554575Y45666884D01*
X14554575Y45853116D01*
X14590907Y46035770D01*
X14662175Y46207827D01*
X14765640Y46362674D01*
X14897326Y46494360D01*
X15052173Y46597825D01*
X15224230Y46669093D01*
X15406884Y46705425D01*
X15593116Y46705425D01*
X15775770Y46669093D01*
G37*
G36*
X7293612Y46696629D02*
G01*
X7428199Y46669858D01*
X7554978Y46617345D01*
X7669075Y46541107D01*
X7766107Y46444075D01*
X7842345Y46329978D01*
X7894858Y46203199D01*
X7921629Y46068612D01*
X7921629Y45931388D01*
X7894858Y45796801D01*
X7842345Y45670022D01*
X7766107Y45555925D01*
X7669075Y45458893D01*
X7554978Y45382655D01*
X7428199Y45330142D01*
X7293612Y45303371D01*
X7225000Y45300000D01*
X7223768Y45300000D01*
X6776232Y45300000D01*
X6775000Y45300000D01*
X6706388Y45303371D01*
X6571801Y45330142D01*
X6445022Y45382655D01*
X6330925Y45458893D01*
X6233893Y45555925D01*
X6157655Y45670022D01*
X6105142Y45796801D01*
X6078371Y45931388D01*
X6078371Y46068612D01*
X6105142Y46203199D01*
X6157655Y46329978D01*
X6233893Y46444075D01*
X6330925Y46541107D01*
X6445022Y46617345D01*
X6571801Y46669858D01*
X6706388Y46696629D01*
X6775000Y46700000D01*
X7225000Y46700000D01*
X7293612Y46696629D01*
G37*
G36*
X9293612Y46696629D02*
G01*
X9428199Y46669858D01*
X9554978Y46617345D01*
X9669075Y46541107D01*
X9766107Y46444075D01*
X9842345Y46329978D01*
X9894858Y46203199D01*
X9921629Y46068612D01*
X9921629Y45931388D01*
X9894858Y45796801D01*
X9842345Y45670022D01*
X9766107Y45555925D01*
X9669075Y45458893D01*
X9554978Y45382655D01*
X9428199Y45330142D01*
X9293612Y45303371D01*
X9225000Y45300000D01*
X9223768Y45300000D01*
X8776232Y45300000D01*
X8775000Y45300000D01*
X8706388Y45303371D01*
X8571801Y45330142D01*
X8445022Y45382655D01*
X8330925Y45458893D01*
X8233893Y45555925D01*
X8157655Y45670022D01*
X8105142Y45796801D01*
X8078371Y45931388D01*
X8078371Y46068612D01*
X8105142Y46203199D01*
X8157655Y46329978D01*
X8233893Y46444075D01*
X8330925Y46541107D01*
X8445022Y46617345D01*
X8571801Y46669858D01*
X8706388Y46696629D01*
X8775000Y46700000D01*
X9225000Y46700000D01*
X9293612Y46696629D01*
G37*
G36*
X7293612Y48696629D02*
G01*
X7428199Y48669858D01*
X7554978Y48617345D01*
X7669075Y48541107D01*
X7766107Y48444075D01*
X7842345Y48329978D01*
X7894858Y48203199D01*
X7921629Y48068612D01*
X7921629Y47931388D01*
X7894858Y47796801D01*
X7842345Y47670022D01*
X7766107Y47555925D01*
X7669075Y47458893D01*
X7554978Y47382655D01*
X7428199Y47330142D01*
X7293612Y47303371D01*
X7225000Y47300000D01*
X7223768Y47300000D01*
X6776232Y47300000D01*
X6775000Y47300000D01*
X6706388Y47303371D01*
X6571801Y47330142D01*
X6445022Y47382655D01*
X6330925Y47458893D01*
X6233893Y47555925D01*
X6157655Y47670022D01*
X6105142Y47796801D01*
X6078371Y47931388D01*
X6078371Y48068612D01*
X6105142Y48203199D01*
X6157655Y48329978D01*
X6233893Y48444075D01*
X6330925Y48541107D01*
X6445022Y48617345D01*
X6571801Y48669858D01*
X6706388Y48696629D01*
X6775000Y48700000D01*
X7225000Y48700000D01*
X7293612Y48696629D01*
G37*
G36*
X9293612Y48696629D02*
G01*
X9428199Y48669858D01*
X9554978Y48617345D01*
X9669075Y48541107D01*
X9766107Y48444075D01*
X9842345Y48329978D01*
X9894858Y48203199D01*
X9921629Y48068612D01*
X9921629Y47931388D01*
X9894858Y47796801D01*
X9842345Y47670022D01*
X9766107Y47555925D01*
X9669075Y47458893D01*
X9554978Y47382655D01*
X9428199Y47330142D01*
X9293612Y47303371D01*
X9225000Y47300000D01*
X9223768Y47300000D01*
X8776232Y47300000D01*
X8775000Y47300000D01*
X8706388Y47303371D01*
X8571801Y47330142D01*
X8445022Y47382655D01*
X8330925Y47458893D01*
X8233893Y47555925D01*
X8157655Y47670022D01*
X8105142Y47796801D01*
X8078371Y47931388D01*
X8078371Y48068612D01*
X8105142Y48203199D01*
X8157655Y48329978D01*
X8233893Y48444075D01*
X8330925Y48541107D01*
X8445022Y48617345D01*
X8571801Y48669858D01*
X8706388Y48696629D01*
X8775000Y48700000D01*
X9225000Y48700000D01*
X9293612Y48696629D01*
G37*
G36*
X16388268Y49242388D02*
G01*
X16420711Y49220711D01*
X16442388Y49188268D01*
X16450000Y49150000D01*
X16450000Y47450000D01*
X16442388Y47411732D01*
X16420711Y47379289D01*
X16388268Y47357612D01*
X16350000Y47350000D01*
X14650000Y47350000D01*
X14611732Y47357612D01*
X14579289Y47379289D01*
X14557612Y47411732D01*
X14550000Y47450000D01*
X14550000Y49150000D01*
X14557612Y49188268D01*
X14579289Y49220711D01*
X14611732Y49242388D01*
X14650000Y49250000D01*
X16350000Y49250000D01*
X16388268Y49242388D01*
G37*
G36*
X68280134Y49916844D02*
G01*
X68459220Y49858655D01*
X68626998Y49773168D01*
X68779338Y49662487D01*
X68912487Y49529338D01*
X69023168Y49376998D01*
X69108655Y49209220D01*
X69166844Y49030134D01*
X69196301Y48844151D01*
X69196301Y48655849D01*
X69166844Y48469866D01*
X69108655Y48290780D01*
X69023168Y48123002D01*
X68912487Y47970662D01*
X68779338Y47837513D01*
X68626998Y47726832D01*
X68459220Y47641345D01*
X68280134Y47583156D01*
X68094151Y47553699D01*
X67905849Y47553699D01*
X67719866Y47583156D01*
X67540780Y47641345D01*
X67373002Y47726832D01*
X67220662Y47837513D01*
X67087513Y47970662D01*
X66976832Y48123002D01*
X66891345Y48290780D01*
X66833156Y48469866D01*
X66803699Y48655849D01*
X66803699Y48844151D01*
X66833156Y49030134D01*
X66891345Y49209220D01*
X66976832Y49376998D01*
X67087513Y49529338D01*
X67220662Y49662487D01*
X67373002Y49773168D01*
X67540780Y49858655D01*
X67719866Y49916844D01*
X67905849Y49946301D01*
X68094151Y49946301D01*
X68280134Y49916844D01*
G37*
G36*
X7293612Y50696629D02*
G01*
X7428199Y50669858D01*
X7554978Y50617345D01*
X7669075Y50541107D01*
X7766107Y50444075D01*
X7842345Y50329978D01*
X7894858Y50203199D01*
X7921629Y50068612D01*
X7921629Y49931388D01*
X7894858Y49796801D01*
X7842345Y49670022D01*
X7766107Y49555925D01*
X7669075Y49458893D01*
X7554978Y49382655D01*
X7428199Y49330142D01*
X7293612Y49303371D01*
X7225000Y49300000D01*
X7223768Y49300000D01*
X6776232Y49300000D01*
X6775000Y49300000D01*
X6706388Y49303371D01*
X6571801Y49330142D01*
X6445022Y49382655D01*
X6330925Y49458893D01*
X6233893Y49555925D01*
X6157655Y49670022D01*
X6105142Y49796801D01*
X6078371Y49931388D01*
X6078371Y50068612D01*
X6105142Y50203199D01*
X6157655Y50329978D01*
X6233893Y50444075D01*
X6330925Y50541107D01*
X6445022Y50617345D01*
X6571801Y50669858D01*
X6706388Y50696629D01*
X6775000Y50700000D01*
X7225000Y50700000D01*
X7293612Y50696629D01*
G37*
G36*
X9293612Y50696629D02*
G01*
X9428199Y50669858D01*
X9554978Y50617345D01*
X9669075Y50541107D01*
X9766107Y50444075D01*
X9842345Y50329978D01*
X9894858Y50203199D01*
X9921629Y50068612D01*
X9921629Y49931388D01*
X9894858Y49796801D01*
X9842345Y49670022D01*
X9766107Y49555925D01*
X9669075Y49458893D01*
X9554978Y49382655D01*
X9428199Y49330142D01*
X9293612Y49303371D01*
X9225000Y49300000D01*
X9223768Y49300000D01*
X8776232Y49300000D01*
X8775000Y49300000D01*
X8706388Y49303371D01*
X8571801Y49330142D01*
X8445022Y49382655D01*
X8330925Y49458893D01*
X8233893Y49555925D01*
X8157655Y49670022D01*
X8105142Y49796801D01*
X8078371Y49931388D01*
X8078371Y50068612D01*
X8105142Y50203199D01*
X8157655Y50329978D01*
X8233893Y50444075D01*
X8330925Y50541107D01*
X8445022Y50617345D01*
X8571801Y50669858D01*
X8706388Y50696629D01*
X8775000Y50700000D01*
X9225000Y50700000D01*
X9293612Y50696629D01*
G37*
G36*
X68280134Y53416844D02*
G01*
X68459220Y53358655D01*
X68626998Y53273168D01*
X68779338Y53162487D01*
X68912487Y53029338D01*
X69023168Y52876998D01*
X69108655Y52709220D01*
X69166844Y52530134D01*
X69196301Y52344151D01*
X69196301Y52155849D01*
X69166844Y51969866D01*
X69108655Y51790780D01*
X69023168Y51623002D01*
X68912487Y51470662D01*
X68779338Y51337513D01*
X68626998Y51226832D01*
X68459220Y51141345D01*
X68280134Y51083156D01*
X68094151Y51053699D01*
X67905849Y51053699D01*
X67719866Y51083156D01*
X67540780Y51141345D01*
X67373002Y51226832D01*
X67220662Y51337513D01*
X67087513Y51470662D01*
X66976832Y51623002D01*
X66891345Y51790780D01*
X66833156Y51969866D01*
X66803699Y52155849D01*
X66803699Y52344151D01*
X66833156Y52530134D01*
X66891345Y52709220D01*
X66976832Y52876998D01*
X67087513Y53029338D01*
X67220662Y53162487D01*
X67373002Y53273168D01*
X67540780Y53358655D01*
X67719866Y53416844D01*
X67905849Y53446301D01*
X68094151Y53446301D01*
X68280134Y53416844D01*
G37*
G36*
X7293612Y52696629D02*
G01*
X7428199Y52669858D01*
X7554978Y52617345D01*
X7669075Y52541107D01*
X7766107Y52444075D01*
X7842345Y52329978D01*
X7894858Y52203199D01*
X7921629Y52068612D01*
X7921629Y51931388D01*
X7894858Y51796801D01*
X7842345Y51670022D01*
X7766107Y51555925D01*
X7669075Y51458893D01*
X7554978Y51382655D01*
X7428199Y51330142D01*
X7293612Y51303371D01*
X7225000Y51300000D01*
X7223768Y51300000D01*
X6776232Y51300000D01*
X6775000Y51300000D01*
X6706388Y51303371D01*
X6571801Y51330142D01*
X6445022Y51382655D01*
X6330925Y51458893D01*
X6233893Y51555925D01*
X6157655Y51670022D01*
X6105142Y51796801D01*
X6078371Y51931388D01*
X6078371Y52068612D01*
X6105142Y52203199D01*
X6157655Y52329978D01*
X6233893Y52444075D01*
X6330925Y52541107D01*
X6445022Y52617345D01*
X6571801Y52669858D01*
X6706388Y52696629D01*
X6775000Y52700000D01*
X7225000Y52700000D01*
X7293612Y52696629D01*
G37*
G36*
X9293612Y52696629D02*
G01*
X9428199Y52669858D01*
X9554978Y52617345D01*
X9669075Y52541107D01*
X9766107Y52444075D01*
X9842345Y52329978D01*
X9894858Y52203199D01*
X9921629Y52068612D01*
X9921629Y51931388D01*
X9894858Y51796801D01*
X9842345Y51670022D01*
X9766107Y51555925D01*
X9669075Y51458893D01*
X9554978Y51382655D01*
X9428199Y51330142D01*
X9293612Y51303371D01*
X9225000Y51300000D01*
X9223768Y51300000D01*
X8776232Y51300000D01*
X8775000Y51300000D01*
X8706388Y51303371D01*
X8571801Y51330142D01*
X8445022Y51382655D01*
X8330925Y51458893D01*
X8233893Y51555925D01*
X8157655Y51670022D01*
X8105142Y51796801D01*
X8078371Y51931388D01*
X8078371Y52068612D01*
X8105142Y52203199D01*
X8157655Y52329978D01*
X8233893Y52444075D01*
X8330925Y52541107D01*
X8445022Y52617345D01*
X8571801Y52669858D01*
X8706388Y52696629D01*
X8775000Y52700000D01*
X9225000Y52700000D01*
X9293612Y52696629D01*
G37*
G36*
X7293612Y54696629D02*
G01*
X7428199Y54669858D01*
X7554978Y54617345D01*
X7669075Y54541107D01*
X7766107Y54444075D01*
X7842345Y54329978D01*
X7894858Y54203199D01*
X7921629Y54068612D01*
X7921629Y53931388D01*
X7894858Y53796801D01*
X7842345Y53670022D01*
X7766107Y53555925D01*
X7669075Y53458893D01*
X7554978Y53382655D01*
X7428199Y53330142D01*
X7293612Y53303371D01*
X7225000Y53300000D01*
X7223768Y53300000D01*
X6776232Y53300000D01*
X6775000Y53300000D01*
X6706388Y53303371D01*
X6571801Y53330142D01*
X6445022Y53382655D01*
X6330925Y53458893D01*
X6233893Y53555925D01*
X6157655Y53670022D01*
X6105142Y53796801D01*
X6078371Y53931388D01*
X6078371Y54068612D01*
X6105142Y54203199D01*
X6157655Y54329978D01*
X6233893Y54444075D01*
X6330925Y54541107D01*
X6445022Y54617345D01*
X6571801Y54669858D01*
X6706388Y54696629D01*
X6775000Y54700000D01*
X7225000Y54700000D01*
X7293612Y54696629D01*
G37*
G36*
X9674868Y54685450D02*
G01*
X9680586Y54682655D01*
X9682962Y54682278D01*
X9720987Y54662904D01*
X9778377Y54634847D01*
X9859847Y54553377D01*
X9887907Y54495980D01*
X9907276Y54457966D01*
X9907652Y54455592D01*
X9910450Y54449868D01*
X9925000Y54350000D01*
X9925000Y53650000D01*
X9910450Y53550132D01*
X9907652Y53544411D01*
X9907277Y53542038D01*
X9887926Y53504061D01*
X9859847Y53446623D01*
X9778377Y53365153D01*
X9720955Y53337081D01*
X9682965Y53317724D01*
X9680591Y53317349D01*
X9674868Y53314550D01*
X9575000Y53300000D01*
X8425000Y53300000D01*
X8325132Y53314550D01*
X8319410Y53317348D01*
X8317037Y53317723D01*
X8279035Y53337086D01*
X8221623Y53365153D01*
X8140153Y53446623D01*
X8112104Y53503997D01*
X8092723Y53542035D01*
X8092346Y53544412D01*
X8089550Y53550132D01*
X8075000Y53650000D01*
X8075000Y54350000D01*
X8089550Y54449868D01*
X8092345Y54455587D01*
X8092722Y54457963D01*
X8112108Y54496013D01*
X8140153Y54553377D01*
X8221623Y54634847D01*
X8278971Y54662884D01*
X8317034Y54682277D01*
X8319411Y54682654D01*
X8325132Y54685450D01*
X8425000Y54700000D01*
X9575000Y54700000D01*
X9674868Y54685450D01*
G37*
G36*
X68280134Y59416844D02*
G01*
X68459220Y59358655D01*
X68626998Y59273168D01*
X68779338Y59162487D01*
X68912487Y59029338D01*
X69023168Y58876998D01*
X69108655Y58709220D01*
X69166844Y58530134D01*
X69196301Y58344151D01*
X69196301Y58155849D01*
X69166844Y57969866D01*
X69108655Y57790780D01*
X69023168Y57623002D01*
X68912487Y57470662D01*
X68779338Y57337513D01*
X68626998Y57226832D01*
X68459220Y57141345D01*
X68280134Y57083156D01*
X68094151Y57053699D01*
X67905849Y57053699D01*
X67719866Y57083156D01*
X67540780Y57141345D01*
X67373002Y57226832D01*
X67220662Y57337513D01*
X67087513Y57470662D01*
X66976832Y57623002D01*
X66891345Y57790780D01*
X66833156Y57969866D01*
X66803699Y58155849D01*
X66803699Y58344151D01*
X66833156Y58530134D01*
X66891345Y58709220D01*
X66976832Y58876998D01*
X67087513Y59029338D01*
X67220662Y59162487D01*
X67373002Y59273168D01*
X67540780Y59358655D01*
X67719866Y59416844D01*
X67905849Y59446301D01*
X68094151Y59446301D01*
X68280134Y59416844D01*
G37*
G36*
X68280134Y62916844D02*
G01*
X68459220Y62858655D01*
X68626998Y62773168D01*
X68779338Y62662487D01*
X68912487Y62529338D01*
X69023168Y62376998D01*
X69108655Y62209220D01*
X69166844Y62030134D01*
X69196301Y61844151D01*
X69196301Y61655849D01*
X69166844Y61469866D01*
X69108655Y61290780D01*
X69023168Y61123002D01*
X68912487Y60970662D01*
X68779338Y60837513D01*
X68626998Y60726832D01*
X68459220Y60641345D01*
X68280134Y60583156D01*
X68094151Y60553699D01*
X67905849Y60553699D01*
X67719866Y60583156D01*
X67540780Y60641345D01*
X67373002Y60726832D01*
X67220662Y60837513D01*
X67087513Y60970662D01*
X66976832Y61123002D01*
X66891345Y61290780D01*
X66833156Y61469866D01*
X66803699Y61655849D01*
X66803699Y61844151D01*
X66833156Y62030134D01*
X66891345Y62209220D01*
X66976832Y62376998D01*
X67087513Y62529338D01*
X67220662Y62662487D01*
X67373002Y62773168D01*
X67540780Y62858655D01*
X67719866Y62916844D01*
X67905849Y62946301D01*
X68094151Y62946301D01*
X68280134Y62916844D01*
G37*
G36*
X5484211Y78264282D02*
G01*
X5801835Y78201103D01*
X6111737Y78107095D01*
X6410932Y77983165D01*
X6696539Y77830504D01*
X6965808Y77650585D01*
X7216145Y77445139D01*
X7445139Y77216145D01*
X7650585Y76965808D01*
X7830504Y76696539D01*
X7983165Y76410932D01*
X8107095Y76111737D01*
X8201103Y75801835D01*
X8264282Y75484211D01*
X8296025Y75161923D01*
X8296025Y74838077D01*
X8264282Y74515789D01*
X8201103Y74198165D01*
X8107095Y73888263D01*
X7983165Y73589068D01*
X7830504Y73303461D01*
X7650585Y73034192D01*
X7445139Y72783855D01*
X7216145Y72554861D01*
X6965808Y72349415D01*
X6696539Y72169496D01*
X6410932Y72016835D01*
X6111737Y71892905D01*
X5801835Y71798897D01*
X5484211Y71735718D01*
X5161923Y71703975D01*
X4838077Y71703975D01*
X4515789Y71735718D01*
X4198165Y71798897D01*
X3888263Y71892905D01*
X3589068Y72016835D01*
X3303461Y72169496D01*
X3034192Y72349415D01*
X2783855Y72554861D01*
X2554861Y72783855D01*
X2349415Y73034192D01*
X2169496Y73303461D01*
X2016835Y73589068D01*
X1892905Y73888263D01*
X1798897Y74198165D01*
X1735718Y74515789D01*
X1703975Y74838077D01*
X1703975Y75161923D01*
X1735718Y75484211D01*
X1798897Y75801835D01*
X1892905Y76111737D01*
X2016835Y76410932D01*
X2169496Y76696539D01*
X2349415Y76965808D01*
X2554861Y77216145D01*
X2783855Y77445139D01*
X3034192Y77650585D01*
X3303461Y77830504D01*
X3589068Y77983165D01*
X3888263Y78107095D01*
X4198165Y78201103D01*
X4515789Y78264282D01*
X4838077Y78296025D01*
X5161923Y78296025D01*
X5484211Y78264282D01*
G37*
G36*
X75484211Y78264282D02*
G01*
X75801835Y78201103D01*
X76111737Y78107095D01*
X76410932Y77983165D01*
X76696539Y77830504D01*
X76965808Y77650585D01*
X77216145Y77445139D01*
X77445139Y77216145D01*
X77650585Y76965808D01*
X77830504Y76696539D01*
X77983165Y76410932D01*
X78107095Y76111737D01*
X78201103Y75801835D01*
X78264282Y75484211D01*
X78296025Y75161923D01*
X78296025Y74838077D01*
X78264282Y74515789D01*
X78201103Y74198165D01*
X78107095Y73888263D01*
X77983165Y73589068D01*
X77830504Y73303461D01*
X77650585Y73034192D01*
X77445139Y72783855D01*
X77216145Y72554861D01*
X76965808Y72349415D01*
X76696539Y72169496D01*
X76410932Y72016835D01*
X76111737Y71892905D01*
X75801835Y71798897D01*
X75484211Y71735718D01*
X75161923Y71703975D01*
X74838077Y71703975D01*
X74515789Y71735718D01*
X74198165Y71798897D01*
X73888263Y71892905D01*
X73589068Y72016835D01*
X73303461Y72169496D01*
X73034192Y72349415D01*
X72783855Y72554861D01*
X72554861Y72783855D01*
X72349415Y73034192D01*
X72169496Y73303461D01*
X72016835Y73589068D01*
X71892905Y73888263D01*
X71798897Y74198165D01*
X71735718Y74515789D01*
X71703975Y74838077D01*
X71703975Y75161923D01*
X71735718Y75484211D01*
X71798897Y75801835D01*
X71892905Y76111737D01*
X72016835Y76410932D01*
X72169496Y76696539D01*
X72349415Y76965808D01*
X72554861Y77216145D01*
X72783855Y77445139D01*
X73034192Y77650585D01*
X73303461Y77830504D01*
X73589068Y77983165D01*
X73888263Y78107095D01*
X74198165Y78201103D01*
X74515789Y78264282D01*
X74838077Y78296025D01*
X75161923Y78296025D01*
X75484211Y78264282D01*
G37*
M02*
