%TF.GenerationSoftware,KiCad,Pcbnew,9.0.2*%
%TF.CreationDate,2026-04-14T10:42:29-07:00*%
%TF.ProjectId,ANTS-Power-board,414e5453-2d50-46f7-9765-722d626f6172,rev?*%
%TF.SameCoordinates,Original*%
%TF.FileFunction,Legend,Bot*%
%TF.FilePolarity,Positive*%
%FSLAX46Y46*%
G04 Gerber Fmt 4.6, Leading zero omitted, Abs format (unit mm)*
G04 Created by KiCad (PCBNEW 9.0.2) date 2026-04-14 10:42:29*
%MOMM*%
%LPD*%
G01*
G04 APERTURE LIST*
G04 APERTURE END LIST*
%LPC*%
G36*
X5484211Y8264282D02*
G01*
X5801835Y8201103D01*
X6111737Y8107095D01*
X6410932Y7983165D01*
X6696539Y7830504D01*
X6965808Y7650585D01*
X7216145Y7445139D01*
X7445139Y7216145D01*
X7650585Y6965808D01*
X7830504Y6696539D01*
X7983165Y6410932D01*
X8107095Y6111737D01*
X8201103Y5801835D01*
X8264282Y5484211D01*
X8296025Y5161923D01*
X8296025Y4838077D01*
X8264282Y4515789D01*
X8201103Y4198165D01*
X8107095Y3888263D01*
X7983165Y3589068D01*
X7830504Y3303461D01*
X7650585Y3034192D01*
X7445139Y2783855D01*
X7216145Y2554861D01*
X6965808Y2349415D01*
X6696539Y2169496D01*
X6410932Y2016835D01*
X6111737Y1892905D01*
X5801835Y1798897D01*
X5484211Y1735718D01*
X5161923Y1703975D01*
X4838077Y1703975D01*
X4515789Y1735718D01*
X4198165Y1798897D01*
X3888263Y1892905D01*
X3589068Y2016835D01*
X3303461Y2169496D01*
X3034192Y2349415D01*
X2783855Y2554861D01*
X2554861Y2783855D01*
X2349415Y3034192D01*
X2169496Y3303461D01*
X2016835Y3589068D01*
X1892905Y3888263D01*
X1798897Y4198165D01*
X1735718Y4515789D01*
X1703975Y4838077D01*
X1703975Y5161923D01*
X1735718Y5484211D01*
X1798897Y5801835D01*
X1892905Y6111737D01*
X2016835Y6410932D01*
X2169496Y6696539D01*
X2349415Y6965808D01*
X2554861Y7216145D01*
X2783855Y7445139D01*
X3034192Y7650585D01*
X3303461Y7830504D01*
X3589068Y7983165D01*
X3888263Y8107095D01*
X4198165Y8201103D01*
X4515789Y8264282D01*
X4838077Y8296025D01*
X5161923Y8296025D01*
X5484211Y8264282D01*
G37*
G36*
X75484211Y8264282D02*
G01*
X75801835Y8201103D01*
X76111737Y8107095D01*
X76410932Y7983165D01*
X76696539Y7830504D01*
X76965808Y7650585D01*
X77216145Y7445139D01*
X77445139Y7216145D01*
X77650585Y6965808D01*
X77830504Y6696539D01*
X77983165Y6410932D01*
X78107095Y6111737D01*
X78201103Y5801835D01*
X78264282Y5484211D01*
X78296025Y5161923D01*
X78296025Y4838077D01*
X78264282Y4515789D01*
X78201103Y4198165D01*
X78107095Y3888263D01*
X77983165Y3589068D01*
X77830504Y3303461D01*
X77650585Y3034192D01*
X77445139Y2783855D01*
X77216145Y2554861D01*
X76965808Y2349415D01*
X76696539Y2169496D01*
X76410932Y2016835D01*
X76111737Y1892905D01*
X75801835Y1798897D01*
X75484211Y1735718D01*
X75161923Y1703975D01*
X74838077Y1703975D01*
X74515789Y1735718D01*
X74198165Y1798897D01*
X73888263Y1892905D01*
X73589068Y2016835D01*
X73303461Y2169496D01*
X73034192Y2349415D01*
X72783855Y2554861D01*
X72554861Y2783855D01*
X72349415Y3034192D01*
X72169496Y3303461D01*
X72016835Y3589068D01*
X71892905Y3888263D01*
X71798897Y4198165D01*
X71735718Y4515789D01*
X71703975Y4838077D01*
X71703975Y5161923D01*
X71735718Y5484211D01*
X71798897Y5801835D01*
X71892905Y6111737D01*
X72016835Y6410932D01*
X72169496Y6696539D01*
X72349415Y6965808D01*
X72554861Y7216145D01*
X72783855Y7445139D01*
X73034192Y7650585D01*
X73303461Y7830504D01*
X73589068Y7983165D01*
X73888263Y8107095D01*
X74198165Y8201103D01*
X74515789Y8264282D01*
X74838077Y8296025D01*
X75161923Y8296025D01*
X75484211Y8264282D01*
G37*
G36*
X52643858Y14144867D02*
G01*
X52653316Y14144867D01*
X52680563Y14137567D01*
X52749099Y14123934D01*
X52781448Y14110535D01*
X52804610Y14104328D01*
X52825377Y14092338D01*
X52857722Y14078940D01*
X52915816Y14040123D01*
X52940257Y14026012D01*
X52946946Y14019323D01*
X52955481Y14013620D01*
X53038619Y13930482D01*
X53044321Y13921948D01*
X53051012Y13915257D01*
X53065124Y13890814D01*
X53103939Y13832723D01*
X53117335Y13800382D01*
X53129328Y13779610D01*
X53135535Y13756445D01*
X53148933Y13724100D01*
X53162565Y13655567D01*
X53169867Y13628316D01*
X53169867Y13618859D01*
X53171870Y13608789D01*
X53171870Y13491212D01*
X53169867Y13481143D01*
X53169867Y13471684D01*
X53162564Y13444431D01*
X53148933Y13375901D01*
X53135535Y13343559D01*
X53129328Y13320390D01*
X53117334Y13299617D01*
X53103939Y13267278D01*
X53065128Y13209195D01*
X53051012Y13184743D01*
X53044319Y13178051D01*
X53038619Y13169519D01*
X52955481Y13086381D01*
X52946949Y13080681D01*
X52940257Y13073988D01*
X52915805Y13059872D01*
X52857722Y13021061D01*
X52825383Y13007666D01*
X52804610Y12995672D01*
X52781441Y12989465D01*
X52749099Y12976067D01*
X52680569Y12962436D01*
X52653316Y12955133D01*
X52643858Y12955133D01*
X52633788Y12953130D01*
X52516212Y12953130D01*
X52506142Y12955133D01*
X52496684Y12955133D01*
X52469432Y12962436D01*
X52400900Y12976067D01*
X52368555Y12989465D01*
X52345390Y12995672D01*
X52324618Y13007665D01*
X52292277Y13021061D01*
X52234186Y13059876D01*
X52209743Y13073988D01*
X52203052Y13080679D01*
X52194518Y13086381D01*
X52111380Y13169519D01*
X52105677Y13178054D01*
X52098988Y13184743D01*
X52084877Y13209184D01*
X52046060Y13267278D01*
X52032662Y13299623D01*
X52020672Y13320390D01*
X52014465Y13343552D01*
X52001066Y13375901D01*
X51987433Y13444437D01*
X51980133Y13471684D01*
X51980133Y13481142D01*
X51978130Y13491212D01*
X51978130Y13608789D01*
X51980133Y13618860D01*
X51980133Y13628316D01*
X51987433Y13655561D01*
X52001066Y13724100D01*
X52014466Y13756452D01*
X52020672Y13779610D01*
X52032660Y13800376D01*
X52046060Y13832723D01*
X52084881Y13890825D01*
X52098988Y13915257D01*
X52105675Y13921945D01*
X52111380Y13930482D01*
X52194518Y14013620D01*
X52203055Y14019325D01*
X52209743Y14026012D01*
X52234175Y14040119D01*
X52292277Y14078940D01*
X52324624Y14092340D01*
X52345390Y14104328D01*
X52368548Y14110534D01*
X52400900Y14123934D01*
X52469437Y14137567D01*
X52496684Y14144867D01*
X52506142Y14144867D01*
X52516212Y14146870D01*
X52633788Y14146870D01*
X52643858Y14144867D01*
G37*
G36*
X68530134Y23616844D02*
G01*
X68709220Y23558655D01*
X68876998Y23473168D01*
X69029338Y23362487D01*
X69162487Y23229338D01*
X69273168Y23076998D01*
X69358655Y22909220D01*
X69416844Y22730134D01*
X69446301Y22544151D01*
X69446301Y22355849D01*
X69416844Y22169866D01*
X69358655Y21990780D01*
X69273168Y21823002D01*
X69162487Y21670662D01*
X69029338Y21537513D01*
X68876998Y21426832D01*
X68709220Y21341345D01*
X68530134Y21283156D01*
X68344151Y21253699D01*
X68155849Y21253699D01*
X67969866Y21283156D01*
X67790780Y21341345D01*
X67623002Y21426832D01*
X67470662Y21537513D01*
X67337513Y21670662D01*
X67226832Y21823002D01*
X67141345Y21990780D01*
X67083156Y22169866D01*
X67053699Y22355849D01*
X67053699Y22544151D01*
X67083156Y22730134D01*
X67141345Y22909220D01*
X67226832Y23076998D01*
X67337513Y23229338D01*
X67470662Y23362487D01*
X67623002Y23473168D01*
X67790780Y23558655D01*
X67969866Y23616844D01*
X68155849Y23646301D01*
X68344151Y23646301D01*
X68530134Y23616844D01*
G37*
G36*
X52568858Y22844867D02*
G01*
X52578316Y22844867D01*
X52605563Y22837567D01*
X52674099Y22823934D01*
X52706448Y22810535D01*
X52729610Y22804328D01*
X52750377Y22792338D01*
X52782722Y22778940D01*
X52840816Y22740123D01*
X52865257Y22726012D01*
X52871946Y22719323D01*
X52880481Y22713620D01*
X52963619Y22630482D01*
X52969321Y22621948D01*
X52976012Y22615257D01*
X52990124Y22590814D01*
X53028939Y22532723D01*
X53042335Y22500382D01*
X53054328Y22479610D01*
X53060535Y22456445D01*
X53073933Y22424100D01*
X53087565Y22355567D01*
X53094867Y22328316D01*
X53094867Y22318859D01*
X53096870Y22308789D01*
X53096870Y22191212D01*
X53094867Y22181143D01*
X53094867Y22171684D01*
X53087564Y22144431D01*
X53073933Y22075901D01*
X53060535Y22043559D01*
X53054328Y22020390D01*
X53042334Y21999617D01*
X53028939Y21967278D01*
X52990128Y21909195D01*
X52976012Y21884743D01*
X52969319Y21878051D01*
X52963619Y21869519D01*
X52880481Y21786381D01*
X52871949Y21780681D01*
X52865257Y21773988D01*
X52840805Y21759872D01*
X52782722Y21721061D01*
X52750383Y21707666D01*
X52729610Y21695672D01*
X52706441Y21689465D01*
X52674099Y21676067D01*
X52605569Y21662436D01*
X52578316Y21655133D01*
X52568858Y21655133D01*
X52558788Y21653130D01*
X52441212Y21653130D01*
X52431142Y21655133D01*
X52421684Y21655133D01*
X52394432Y21662436D01*
X52325900Y21676067D01*
X52293555Y21689465D01*
X52270390Y21695672D01*
X52249618Y21707665D01*
X52217277Y21721061D01*
X52159186Y21759876D01*
X52134743Y21773988D01*
X52128052Y21780679D01*
X52119518Y21786381D01*
X52036380Y21869519D01*
X52030677Y21878054D01*
X52023988Y21884743D01*
X52009877Y21909184D01*
X51971060Y21967278D01*
X51957662Y21999623D01*
X51945672Y22020390D01*
X51939465Y22043552D01*
X51926066Y22075901D01*
X51912433Y22144437D01*
X51905133Y22171684D01*
X51905133Y22181142D01*
X51903130Y22191212D01*
X51903130Y22308789D01*
X51905133Y22318860D01*
X51905133Y22328316D01*
X51912433Y22355561D01*
X51926066Y22424100D01*
X51939466Y22456452D01*
X51945672Y22479610D01*
X51957660Y22500376D01*
X51971060Y22532723D01*
X52009881Y22590825D01*
X52023988Y22615257D01*
X52030675Y22621945D01*
X52036380Y22630482D01*
X52119518Y22713620D01*
X52128055Y22719325D01*
X52134743Y22726012D01*
X52159175Y22740119D01*
X52217277Y22778940D01*
X52249624Y22792340D01*
X52270390Y22804328D01*
X52293548Y22810534D01*
X52325900Y22823934D01*
X52394437Y22837567D01*
X52421684Y22844867D01*
X52431142Y22844867D01*
X52441212Y22846870D01*
X52558788Y22846870D01*
X52568858Y22844867D01*
G37*
G36*
X68530134Y27116844D02*
G01*
X68709220Y27058655D01*
X68876998Y26973168D01*
X69029338Y26862487D01*
X69162487Y26729338D01*
X69273168Y26576998D01*
X69358655Y26409220D01*
X69416844Y26230134D01*
X69446301Y26044151D01*
X69446301Y25855849D01*
X69416844Y25669866D01*
X69358655Y25490780D01*
X69273168Y25323002D01*
X69162487Y25170662D01*
X69029338Y25037513D01*
X68876998Y24926832D01*
X68709220Y24841345D01*
X68530134Y24783156D01*
X68344151Y24753699D01*
X68155849Y24753699D01*
X67969866Y24783156D01*
X67790780Y24841345D01*
X67623002Y24926832D01*
X67470662Y25037513D01*
X67337513Y25170662D01*
X67226832Y25323002D01*
X67141345Y25490780D01*
X67083156Y25669866D01*
X67053699Y25855849D01*
X67053699Y26044151D01*
X67083156Y26230134D01*
X67141345Y26409220D01*
X67226832Y26576998D01*
X67337513Y26729338D01*
X67470662Y26862487D01*
X67623002Y26973168D01*
X67790780Y27058655D01*
X67969866Y27116844D01*
X68155849Y27146301D01*
X68344151Y27146301D01*
X68530134Y27116844D01*
G37*
G36*
X7674868Y26685450D02*
G01*
X7680586Y26682655D01*
X7682962Y26682278D01*
X7720987Y26662904D01*
X7778377Y26634847D01*
X7859847Y26553377D01*
X7887907Y26495980D01*
X7907276Y26457966D01*
X7907652Y26455592D01*
X7910450Y26449868D01*
X7925000Y26350000D01*
X7925000Y25650000D01*
X7910450Y25550132D01*
X7907652Y25544411D01*
X7907277Y25542038D01*
X7887926Y25504061D01*
X7859847Y25446623D01*
X7778377Y25365153D01*
X7720955Y25337081D01*
X7682965Y25317724D01*
X7680591Y25317349D01*
X7674868Y25314550D01*
X7575000Y25300000D01*
X6425000Y25300000D01*
X6325132Y25314550D01*
X6319410Y25317348D01*
X6317037Y25317723D01*
X6279035Y25337086D01*
X6221623Y25365153D01*
X6140153Y25446623D01*
X6112104Y25503997D01*
X6092723Y25542035D01*
X6092346Y25544412D01*
X6089550Y25550132D01*
X6075000Y25650000D01*
X6075000Y26350000D01*
X6089550Y26449868D01*
X6092345Y26455587D01*
X6092722Y26457963D01*
X6112108Y26496013D01*
X6140153Y26553377D01*
X6221623Y26634847D01*
X6278971Y26662884D01*
X6317034Y26682277D01*
X6319411Y26682654D01*
X6325132Y26685450D01*
X6425000Y26700000D01*
X7575000Y26700000D01*
X7674868Y26685450D01*
G37*
G36*
X9293612Y26696629D02*
G01*
X9428199Y26669858D01*
X9554978Y26617345D01*
X9669075Y26541107D01*
X9766107Y26444075D01*
X9842345Y26329978D01*
X9894858Y26203199D01*
X9921629Y26068612D01*
X9921629Y25931388D01*
X9894858Y25796801D01*
X9842345Y25670022D01*
X9766107Y25555925D01*
X9669075Y25458893D01*
X9554978Y25382655D01*
X9428199Y25330142D01*
X9293612Y25303371D01*
X9225000Y25300000D01*
X9223768Y25300000D01*
X8776232Y25300000D01*
X8775000Y25300000D01*
X8706388Y25303371D01*
X8571801Y25330142D01*
X8445022Y25382655D01*
X8330925Y25458893D01*
X8233893Y25555925D01*
X8157655Y25670022D01*
X8105142Y25796801D01*
X8078371Y25931388D01*
X8078371Y26068612D01*
X8105142Y26203199D01*
X8157655Y26329978D01*
X8233893Y26444075D01*
X8330925Y26541107D01*
X8445022Y26617345D01*
X8571801Y26669858D01*
X8706388Y26696629D01*
X8775000Y26700000D01*
X9225000Y26700000D01*
X9293612Y26696629D01*
G37*
G36*
X7293612Y28696629D02*
G01*
X7428199Y28669858D01*
X7554978Y28617345D01*
X7669075Y28541107D01*
X7766107Y28444075D01*
X7842345Y28329978D01*
X7894858Y28203199D01*
X7921629Y28068612D01*
X7921629Y27931388D01*
X7894858Y27796801D01*
X7842345Y27670022D01*
X7766107Y27555925D01*
X7669075Y27458893D01*
X7554978Y27382655D01*
X7428199Y27330142D01*
X7293612Y27303371D01*
X7225000Y27300000D01*
X7223768Y27300000D01*
X6776232Y27300000D01*
X6775000Y27300000D01*
X6706388Y27303371D01*
X6571801Y27330142D01*
X6445022Y27382655D01*
X6330925Y27458893D01*
X6233893Y27555925D01*
X6157655Y27670022D01*
X6105142Y27796801D01*
X6078371Y27931388D01*
X6078371Y28068612D01*
X6105142Y28203199D01*
X6157655Y28329978D01*
X6233893Y28444075D01*
X6330925Y28541107D01*
X6445022Y28617345D01*
X6571801Y28669858D01*
X6706388Y28696629D01*
X6775000Y28700000D01*
X7225000Y28700000D01*
X7293612Y28696629D01*
G37*
G36*
X9293612Y28696629D02*
G01*
X9428199Y28669858D01*
X9554978Y28617345D01*
X9669075Y28541107D01*
X9766107Y28444075D01*
X9842345Y28329978D01*
X9894858Y28203199D01*
X9921629Y28068612D01*
X9921629Y27931388D01*
X9894858Y27796801D01*
X9842345Y27670022D01*
X9766107Y27555925D01*
X9669075Y27458893D01*
X9554978Y27382655D01*
X9428199Y27330142D01*
X9293612Y27303371D01*
X9225000Y27300000D01*
X9223768Y27300000D01*
X8776232Y27300000D01*
X8775000Y27300000D01*
X8706388Y27303371D01*
X8571801Y27330142D01*
X8445022Y27382655D01*
X8330925Y27458893D01*
X8233893Y27555925D01*
X8157655Y27670022D01*
X8105142Y27796801D01*
X8078371Y27931388D01*
X8078371Y28068612D01*
X8105142Y28203199D01*
X8157655Y28329978D01*
X8233893Y28444075D01*
X8330925Y28541107D01*
X8445022Y28617345D01*
X8571801Y28669858D01*
X8706388Y28696629D01*
X8775000Y28700000D01*
X9225000Y28700000D01*
X9293612Y28696629D01*
G37*
G36*
X7293612Y30696629D02*
G01*
X7428199Y30669858D01*
X7554978Y30617345D01*
X7669075Y30541107D01*
X7766107Y30444075D01*
X7842345Y30329978D01*
X7894858Y30203199D01*
X7921629Y30068612D01*
X7921629Y29931388D01*
X7894858Y29796801D01*
X7842345Y29670022D01*
X7766107Y29555925D01*
X7669075Y29458893D01*
X7554978Y29382655D01*
X7428199Y29330142D01*
X7293612Y29303371D01*
X7225000Y29300000D01*
X7223768Y29300000D01*
X6776232Y29300000D01*
X6775000Y29300000D01*
X6706388Y29303371D01*
X6571801Y29330142D01*
X6445022Y29382655D01*
X6330925Y29458893D01*
X6233893Y29555925D01*
X6157655Y29670022D01*
X6105142Y29796801D01*
X6078371Y29931388D01*
X6078371Y30068612D01*
X6105142Y30203199D01*
X6157655Y30329978D01*
X6233893Y30444075D01*
X6330925Y30541107D01*
X6445022Y30617345D01*
X6571801Y30669858D01*
X6706388Y30696629D01*
X6775000Y30700000D01*
X7225000Y30700000D01*
X7293612Y30696629D01*
G37*
G36*
X9293612Y30696629D02*
G01*
X9428199Y30669858D01*
X9554978Y30617345D01*
X9669075Y30541107D01*
X9766107Y30444075D01*
X9842345Y30329978D01*
X9894858Y30203199D01*
X9921629Y30068612D01*
X9921629Y29931388D01*
X9894858Y29796801D01*
X9842345Y29670022D01*
X9766107Y29555925D01*
X9669075Y29458893D01*
X9554978Y29382655D01*
X9428199Y29330142D01*
X9293612Y29303371D01*
X9225000Y29300000D01*
X9223768Y29300000D01*
X8776232Y29300000D01*
X8775000Y29300000D01*
X8706388Y29303371D01*
X8571801Y29330142D01*
X8445022Y29382655D01*
X8330925Y29458893D01*
X8233893Y29555925D01*
X8157655Y29670022D01*
X8105142Y29796801D01*
X8078371Y29931388D01*
X8078371Y30068612D01*
X8105142Y30203199D01*
X8157655Y30329978D01*
X8233893Y30444075D01*
X8330925Y30541107D01*
X8445022Y30617345D01*
X8571801Y30669858D01*
X8706388Y30696629D01*
X8775000Y30700000D01*
X9225000Y30700000D01*
X9293612Y30696629D01*
G37*
G36*
X7293612Y32696629D02*
G01*
X7428199Y32669858D01*
X7554978Y32617345D01*
X7669075Y32541107D01*
X7766107Y32444075D01*
X7842345Y32329978D01*
X7894858Y32203199D01*
X7921629Y32068612D01*
X7921629Y31931388D01*
X7894858Y31796801D01*
X7842345Y31670022D01*
X7766107Y31555925D01*
X7669075Y31458893D01*
X7554978Y31382655D01*
X7428199Y31330142D01*
X7293612Y31303371D01*
X7225000Y31300000D01*
X7223768Y31300000D01*
X6776232Y31300000D01*
X6775000Y31300000D01*
X6706388Y31303371D01*
X6571801Y31330142D01*
X6445022Y31382655D01*
X6330925Y31458893D01*
X6233893Y31555925D01*
X6157655Y31670022D01*
X6105142Y31796801D01*
X6078371Y31931388D01*
X6078371Y32068612D01*
X6105142Y32203199D01*
X6157655Y32329978D01*
X6233893Y32444075D01*
X6330925Y32541107D01*
X6445022Y32617345D01*
X6571801Y32669858D01*
X6706388Y32696629D01*
X6775000Y32700000D01*
X7225000Y32700000D01*
X7293612Y32696629D01*
G37*
G36*
X9293612Y32696629D02*
G01*
X9428199Y32669858D01*
X9554978Y32617345D01*
X9669075Y32541107D01*
X9766107Y32444075D01*
X9842345Y32329978D01*
X9894858Y32203199D01*
X9921629Y32068612D01*
X9921629Y31931388D01*
X9894858Y31796801D01*
X9842345Y31670022D01*
X9766107Y31555925D01*
X9669075Y31458893D01*
X9554978Y31382655D01*
X9428199Y31330142D01*
X9293612Y31303371D01*
X9225000Y31300000D01*
X9223768Y31300000D01*
X8776232Y31300000D01*
X8775000Y31300000D01*
X8706388Y31303371D01*
X8571801Y31330142D01*
X8445022Y31382655D01*
X8330925Y31458893D01*
X8233893Y31555925D01*
X8157655Y31670022D01*
X8105142Y31796801D01*
X8078371Y31931388D01*
X8078371Y32068612D01*
X8105142Y32203199D01*
X8157655Y32329978D01*
X8233893Y32444075D01*
X8330925Y32541107D01*
X8445022Y32617345D01*
X8571801Y32669858D01*
X8706388Y32696629D01*
X8775000Y32700000D01*
X9225000Y32700000D01*
X9293612Y32696629D01*
G37*
G36*
X7293612Y34696629D02*
G01*
X7428199Y34669858D01*
X7554978Y34617345D01*
X7669075Y34541107D01*
X7766107Y34444075D01*
X7842345Y34329978D01*
X7894858Y34203199D01*
X7921629Y34068612D01*
X7921629Y33931388D01*
X7894858Y33796801D01*
X7842345Y33670022D01*
X7766107Y33555925D01*
X7669075Y33458893D01*
X7554978Y33382655D01*
X7428199Y33330142D01*
X7293612Y33303371D01*
X7225000Y33300000D01*
X7223768Y33300000D01*
X6776232Y33300000D01*
X6775000Y33300000D01*
X6706388Y33303371D01*
X6571801Y33330142D01*
X6445022Y33382655D01*
X6330925Y33458893D01*
X6233893Y33555925D01*
X6157655Y33670022D01*
X6105142Y33796801D01*
X6078371Y33931388D01*
X6078371Y34068612D01*
X6105142Y34203199D01*
X6157655Y34329978D01*
X6233893Y34444075D01*
X6330925Y34541107D01*
X6445022Y34617345D01*
X6571801Y34669858D01*
X6706388Y34696629D01*
X6775000Y34700000D01*
X7225000Y34700000D01*
X7293612Y34696629D01*
G37*
G36*
X9293612Y34696629D02*
G01*
X9428199Y34669858D01*
X9554978Y34617345D01*
X9669075Y34541107D01*
X9766107Y34444075D01*
X9842345Y34329978D01*
X9894858Y34203199D01*
X9921629Y34068612D01*
X9921629Y33931388D01*
X9894858Y33796801D01*
X9842345Y33670022D01*
X9766107Y33555925D01*
X9669075Y33458893D01*
X9554978Y33382655D01*
X9428199Y33330142D01*
X9293612Y33303371D01*
X9225000Y33300000D01*
X9223768Y33300000D01*
X8776232Y33300000D01*
X8775000Y33300000D01*
X8706388Y33303371D01*
X8571801Y33330142D01*
X8445022Y33382655D01*
X8330925Y33458893D01*
X8233893Y33555925D01*
X8157655Y33670022D01*
X8105142Y33796801D01*
X8078371Y33931388D01*
X8078371Y34068612D01*
X8105142Y34203199D01*
X8157655Y34329978D01*
X8233893Y34444075D01*
X8330925Y34541107D01*
X8445022Y34617345D01*
X8571801Y34669858D01*
X8706388Y34696629D01*
X8775000Y34700000D01*
X9225000Y34700000D01*
X9293612Y34696629D01*
G37*
G36*
X7293612Y36696629D02*
G01*
X7428199Y36669858D01*
X7554978Y36617345D01*
X7669075Y36541107D01*
X7766107Y36444075D01*
X7842345Y36329978D01*
X7894858Y36203199D01*
X7921629Y36068612D01*
X7921629Y35931388D01*
X7894858Y35796801D01*
X7842345Y35670022D01*
X7766107Y35555925D01*
X7669075Y35458893D01*
X7554978Y35382655D01*
X7428199Y35330142D01*
X7293612Y35303371D01*
X7225000Y35300000D01*
X7223768Y35300000D01*
X6776232Y35300000D01*
X6775000Y35300000D01*
X6706388Y35303371D01*
X6571801Y35330142D01*
X6445022Y35382655D01*
X6330925Y35458893D01*
X6233893Y35555925D01*
X6157655Y35670022D01*
X6105142Y35796801D01*
X6078371Y35931388D01*
X6078371Y36068612D01*
X6105142Y36203199D01*
X6157655Y36329978D01*
X6233893Y36444075D01*
X6330925Y36541107D01*
X6445022Y36617345D01*
X6571801Y36669858D01*
X6706388Y36696629D01*
X6775000Y36700000D01*
X7225000Y36700000D01*
X7293612Y36696629D01*
G37*
G36*
X9293612Y36696629D02*
G01*
X9428199Y36669858D01*
X9554978Y36617345D01*
X9669075Y36541107D01*
X9766107Y36444075D01*
X9842345Y36329978D01*
X9894858Y36203199D01*
X9921629Y36068612D01*
X9921629Y35931388D01*
X9894858Y35796801D01*
X9842345Y35670022D01*
X9766107Y35555925D01*
X9669075Y35458893D01*
X9554978Y35382655D01*
X9428199Y35330142D01*
X9293612Y35303371D01*
X9225000Y35300000D01*
X9223768Y35300000D01*
X8776232Y35300000D01*
X8775000Y35300000D01*
X8706388Y35303371D01*
X8571801Y35330142D01*
X8445022Y35382655D01*
X8330925Y35458893D01*
X8233893Y35555925D01*
X8157655Y35670022D01*
X8105142Y35796801D01*
X8078371Y35931388D01*
X8078371Y36068612D01*
X8105142Y36203199D01*
X8157655Y36329978D01*
X8233893Y36444075D01*
X8330925Y36541107D01*
X8445022Y36617345D01*
X8571801Y36669858D01*
X8706388Y36696629D01*
X8775000Y36700000D01*
X9225000Y36700000D01*
X9293612Y36696629D01*
G37*
G36*
X7674868Y44685450D02*
G01*
X7680586Y44682655D01*
X7682962Y44682278D01*
X7720987Y44662904D01*
X7778377Y44634847D01*
X7859847Y44553377D01*
X7887907Y44495980D01*
X7907276Y44457966D01*
X7907652Y44455592D01*
X7910450Y44449868D01*
X7925000Y44350000D01*
X7925000Y43650000D01*
X7910450Y43550132D01*
X7907652Y43544411D01*
X7907277Y43542038D01*
X7887926Y43504061D01*
X7859847Y43446623D01*
X7778377Y43365153D01*
X7720955Y43337081D01*
X7682965Y43317724D01*
X7680591Y43317349D01*
X7674868Y43314550D01*
X7575000Y43300000D01*
X6425000Y43300000D01*
X6325132Y43314550D01*
X6319410Y43317348D01*
X6317037Y43317723D01*
X6279035Y43337086D01*
X6221623Y43365153D01*
X6140153Y43446623D01*
X6112104Y43503997D01*
X6092723Y43542035D01*
X6092346Y43544412D01*
X6089550Y43550132D01*
X6075000Y43650000D01*
X6075000Y44350000D01*
X6089550Y44449868D01*
X6092345Y44455587D01*
X6092722Y44457963D01*
X6112108Y44496013D01*
X6140153Y44553377D01*
X6221623Y44634847D01*
X6278971Y44662884D01*
X6317034Y44682277D01*
X6319411Y44682654D01*
X6325132Y44685450D01*
X6425000Y44700000D01*
X7575000Y44700000D01*
X7674868Y44685450D01*
G37*
G36*
X9293612Y44696629D02*
G01*
X9428199Y44669858D01*
X9554978Y44617345D01*
X9669075Y44541107D01*
X9766107Y44444075D01*
X9842345Y44329978D01*
X9894858Y44203199D01*
X9921629Y44068612D01*
X9921629Y43931388D01*
X9894858Y43796801D01*
X9842345Y43670022D01*
X9766107Y43555925D01*
X9669075Y43458893D01*
X9554978Y43382655D01*
X9428199Y43330142D01*
X9293612Y43303371D01*
X9225000Y43300000D01*
X9223768Y43300000D01*
X8776232Y43300000D01*
X8775000Y43300000D01*
X8706388Y43303371D01*
X8571801Y43330142D01*
X8445022Y43382655D01*
X8330925Y43458893D01*
X8233893Y43555925D01*
X8157655Y43670022D01*
X8105142Y43796801D01*
X8078371Y43931388D01*
X8078371Y44068612D01*
X8105142Y44203199D01*
X8157655Y44329978D01*
X8233893Y44444075D01*
X8330925Y44541107D01*
X8445022Y44617345D01*
X8571801Y44669858D01*
X8706388Y44696629D01*
X8775000Y44700000D01*
X9225000Y44700000D01*
X9293612Y44696629D01*
G37*
G36*
X7293612Y46696629D02*
G01*
X7428199Y46669858D01*
X7554978Y46617345D01*
X7669075Y46541107D01*
X7766107Y46444075D01*
X7842345Y46329978D01*
X7894858Y46203199D01*
X7921629Y46068612D01*
X7921629Y45931388D01*
X7894858Y45796801D01*
X7842345Y45670022D01*
X7766107Y45555925D01*
X7669075Y45458893D01*
X7554978Y45382655D01*
X7428199Y45330142D01*
X7293612Y45303371D01*
X7225000Y45300000D01*
X7223768Y45300000D01*
X6776232Y45300000D01*
X6775000Y45300000D01*
X6706388Y45303371D01*
X6571801Y45330142D01*
X6445022Y45382655D01*
X6330925Y45458893D01*
X6233893Y45555925D01*
X6157655Y45670022D01*
X6105142Y45796801D01*
X6078371Y45931388D01*
X6078371Y46068612D01*
X6105142Y46203199D01*
X6157655Y46329978D01*
X6233893Y46444075D01*
X6330925Y46541107D01*
X6445022Y46617345D01*
X6571801Y46669858D01*
X6706388Y46696629D01*
X6775000Y46700000D01*
X7225000Y46700000D01*
X7293612Y46696629D01*
G37*
G36*
X9293612Y46696629D02*
G01*
X9428199Y46669858D01*
X9554978Y46617345D01*
X9669075Y46541107D01*
X9766107Y46444075D01*
X9842345Y46329978D01*
X9894858Y46203199D01*
X9921629Y46068612D01*
X9921629Y45931388D01*
X9894858Y45796801D01*
X9842345Y45670022D01*
X9766107Y45555925D01*
X9669075Y45458893D01*
X9554978Y45382655D01*
X9428199Y45330142D01*
X9293612Y45303371D01*
X9225000Y45300000D01*
X9223768Y45300000D01*
X8776232Y45300000D01*
X8775000Y45300000D01*
X8706388Y45303371D01*
X8571801Y45330142D01*
X8445022Y45382655D01*
X8330925Y45458893D01*
X8233893Y45555925D01*
X8157655Y45670022D01*
X8105142Y45796801D01*
X8078371Y45931388D01*
X8078371Y46068612D01*
X8105142Y46203199D01*
X8157655Y46329978D01*
X8233893Y46444075D01*
X8330925Y46541107D01*
X8445022Y46617345D01*
X8571801Y46669858D01*
X8706388Y46696629D01*
X8775000Y46700000D01*
X9225000Y46700000D01*
X9293612Y46696629D01*
G37*
G36*
X7293612Y48696629D02*
G01*
X7428199Y48669858D01*
X7554978Y48617345D01*
X7669075Y48541107D01*
X7766107Y48444075D01*
X7842345Y48329978D01*
X7894858Y48203199D01*
X7921629Y48068612D01*
X7921629Y47931388D01*
X7894858Y47796801D01*
X7842345Y47670022D01*
X7766107Y47555925D01*
X7669075Y47458893D01*
X7554978Y47382655D01*
X7428199Y47330142D01*
X7293612Y47303371D01*
X7225000Y47300000D01*
X7223768Y47300000D01*
X6776232Y47300000D01*
X6775000Y47300000D01*
X6706388Y47303371D01*
X6571801Y47330142D01*
X6445022Y47382655D01*
X6330925Y47458893D01*
X6233893Y47555925D01*
X6157655Y47670022D01*
X6105142Y47796801D01*
X6078371Y47931388D01*
X6078371Y48068612D01*
X6105142Y48203199D01*
X6157655Y48329978D01*
X6233893Y48444075D01*
X6330925Y48541107D01*
X6445022Y48617345D01*
X6571801Y48669858D01*
X6706388Y48696629D01*
X6775000Y48700000D01*
X7225000Y48700000D01*
X7293612Y48696629D01*
G37*
G36*
X9293612Y48696629D02*
G01*
X9428199Y48669858D01*
X9554978Y48617345D01*
X9669075Y48541107D01*
X9766107Y48444075D01*
X9842345Y48329978D01*
X9894858Y48203199D01*
X9921629Y48068612D01*
X9921629Y47931388D01*
X9894858Y47796801D01*
X9842345Y47670022D01*
X9766107Y47555925D01*
X9669075Y47458893D01*
X9554978Y47382655D01*
X9428199Y47330142D01*
X9293612Y47303371D01*
X9225000Y47300000D01*
X9223768Y47300000D01*
X8776232Y47300000D01*
X8775000Y47300000D01*
X8706388Y47303371D01*
X8571801Y47330142D01*
X8445022Y47382655D01*
X8330925Y47458893D01*
X8233893Y47555925D01*
X8157655Y47670022D01*
X8105142Y47796801D01*
X8078371Y47931388D01*
X8078371Y48068612D01*
X8105142Y48203199D01*
X8157655Y48329978D01*
X8233893Y48444075D01*
X8330925Y48541107D01*
X8445022Y48617345D01*
X8571801Y48669858D01*
X8706388Y48696629D01*
X8775000Y48700000D01*
X9225000Y48700000D01*
X9293612Y48696629D01*
G37*
G36*
X7293612Y50696629D02*
G01*
X7428199Y50669858D01*
X7554978Y50617345D01*
X7669075Y50541107D01*
X7766107Y50444075D01*
X7842345Y50329978D01*
X7894858Y50203199D01*
X7921629Y50068612D01*
X7921629Y49931388D01*
X7894858Y49796801D01*
X7842345Y49670022D01*
X7766107Y49555925D01*
X7669075Y49458893D01*
X7554978Y49382655D01*
X7428199Y49330142D01*
X7293612Y49303371D01*
X7225000Y49300000D01*
X7223768Y49300000D01*
X6776232Y49300000D01*
X6775000Y49300000D01*
X6706388Y49303371D01*
X6571801Y49330142D01*
X6445022Y49382655D01*
X6330925Y49458893D01*
X6233893Y49555925D01*
X6157655Y49670022D01*
X6105142Y49796801D01*
X6078371Y49931388D01*
X6078371Y50068612D01*
X6105142Y50203199D01*
X6157655Y50329978D01*
X6233893Y50444075D01*
X6330925Y50541107D01*
X6445022Y50617345D01*
X6571801Y50669858D01*
X6706388Y50696629D01*
X6775000Y50700000D01*
X7225000Y50700000D01*
X7293612Y50696629D01*
G37*
G36*
X9293612Y50696629D02*
G01*
X9428199Y50669858D01*
X9554978Y50617345D01*
X9669075Y50541107D01*
X9766107Y50444075D01*
X9842345Y50329978D01*
X9894858Y50203199D01*
X9921629Y50068612D01*
X9921629Y49931388D01*
X9894858Y49796801D01*
X9842345Y49670022D01*
X9766107Y49555925D01*
X9669075Y49458893D01*
X9554978Y49382655D01*
X9428199Y49330142D01*
X9293612Y49303371D01*
X9225000Y49300000D01*
X9223768Y49300000D01*
X8776232Y49300000D01*
X8775000Y49300000D01*
X8706388Y49303371D01*
X8571801Y49330142D01*
X8445022Y49382655D01*
X8330925Y49458893D01*
X8233893Y49555925D01*
X8157655Y49670022D01*
X8105142Y49796801D01*
X8078371Y49931388D01*
X8078371Y50068612D01*
X8105142Y50203199D01*
X8157655Y50329978D01*
X8233893Y50444075D01*
X8330925Y50541107D01*
X8445022Y50617345D01*
X8571801Y50669858D01*
X8706388Y50696629D01*
X8775000Y50700000D01*
X9225000Y50700000D01*
X9293612Y50696629D01*
G37*
G36*
X7293612Y52696629D02*
G01*
X7428199Y52669858D01*
X7554978Y52617345D01*
X7669075Y52541107D01*
X7766107Y52444075D01*
X7842345Y52329978D01*
X7894858Y52203199D01*
X7921629Y52068612D01*
X7921629Y51931388D01*
X7894858Y51796801D01*
X7842345Y51670022D01*
X7766107Y51555925D01*
X7669075Y51458893D01*
X7554978Y51382655D01*
X7428199Y51330142D01*
X7293612Y51303371D01*
X7225000Y51300000D01*
X7223768Y51300000D01*
X6776232Y51300000D01*
X6775000Y51300000D01*
X6706388Y51303371D01*
X6571801Y51330142D01*
X6445022Y51382655D01*
X6330925Y51458893D01*
X6233893Y51555925D01*
X6157655Y51670022D01*
X6105142Y51796801D01*
X6078371Y51931388D01*
X6078371Y52068612D01*
X6105142Y52203199D01*
X6157655Y52329978D01*
X6233893Y52444075D01*
X6330925Y52541107D01*
X6445022Y52617345D01*
X6571801Y52669858D01*
X6706388Y52696629D01*
X6775000Y52700000D01*
X7225000Y52700000D01*
X7293612Y52696629D01*
G37*
G36*
X9293612Y52696629D02*
G01*
X9428199Y52669858D01*
X9554978Y52617345D01*
X9669075Y52541107D01*
X9766107Y52444075D01*
X9842345Y52329978D01*
X9894858Y52203199D01*
X9921629Y52068612D01*
X9921629Y51931388D01*
X9894858Y51796801D01*
X9842345Y51670022D01*
X9766107Y51555925D01*
X9669075Y51458893D01*
X9554978Y51382655D01*
X9428199Y51330142D01*
X9293612Y51303371D01*
X9225000Y51300000D01*
X9223768Y51300000D01*
X8776232Y51300000D01*
X8775000Y51300000D01*
X8706388Y51303371D01*
X8571801Y51330142D01*
X8445022Y51382655D01*
X8330925Y51458893D01*
X8233893Y51555925D01*
X8157655Y51670022D01*
X8105142Y51796801D01*
X8078371Y51931388D01*
X8078371Y52068612D01*
X8105142Y52203199D01*
X8157655Y52329978D01*
X8233893Y52444075D01*
X8330925Y52541107D01*
X8445022Y52617345D01*
X8571801Y52669858D01*
X8706388Y52696629D01*
X8775000Y52700000D01*
X9225000Y52700000D01*
X9293612Y52696629D01*
G37*
G36*
X7293612Y54696629D02*
G01*
X7428199Y54669858D01*
X7554978Y54617345D01*
X7669075Y54541107D01*
X7766107Y54444075D01*
X7842345Y54329978D01*
X7894858Y54203199D01*
X7921629Y54068612D01*
X7921629Y53931388D01*
X7894858Y53796801D01*
X7842345Y53670022D01*
X7766107Y53555925D01*
X7669075Y53458893D01*
X7554978Y53382655D01*
X7428199Y53330142D01*
X7293612Y53303371D01*
X7225000Y53300000D01*
X7223768Y53300000D01*
X6776232Y53300000D01*
X6775000Y53300000D01*
X6706388Y53303371D01*
X6571801Y53330142D01*
X6445022Y53382655D01*
X6330925Y53458893D01*
X6233893Y53555925D01*
X6157655Y53670022D01*
X6105142Y53796801D01*
X6078371Y53931388D01*
X6078371Y54068612D01*
X6105142Y54203199D01*
X6157655Y54329978D01*
X6233893Y54444075D01*
X6330925Y54541107D01*
X6445022Y54617345D01*
X6571801Y54669858D01*
X6706388Y54696629D01*
X6775000Y54700000D01*
X7225000Y54700000D01*
X7293612Y54696629D01*
G37*
G36*
X9293612Y54696629D02*
G01*
X9428199Y54669858D01*
X9554978Y54617345D01*
X9669075Y54541107D01*
X9766107Y54444075D01*
X9842345Y54329978D01*
X9894858Y54203199D01*
X9921629Y54068612D01*
X9921629Y53931388D01*
X9894858Y53796801D01*
X9842345Y53670022D01*
X9766107Y53555925D01*
X9669075Y53458893D01*
X9554978Y53382655D01*
X9428199Y53330142D01*
X9293612Y53303371D01*
X9225000Y53300000D01*
X9223768Y53300000D01*
X8776232Y53300000D01*
X8775000Y53300000D01*
X8706388Y53303371D01*
X8571801Y53330142D01*
X8445022Y53382655D01*
X8330925Y53458893D01*
X8233893Y53555925D01*
X8157655Y53670022D01*
X8105142Y53796801D01*
X8078371Y53931388D01*
X8078371Y54068612D01*
X8105142Y54203199D01*
X8157655Y54329978D01*
X8233893Y54444075D01*
X8330925Y54541107D01*
X8445022Y54617345D01*
X8571801Y54669858D01*
X8706388Y54696629D01*
X8775000Y54700000D01*
X9225000Y54700000D01*
X9293612Y54696629D01*
G37*
G36*
X68430134Y59416844D02*
G01*
X68609220Y59358655D01*
X68776998Y59273168D01*
X68929338Y59162487D01*
X69062487Y59029338D01*
X69173168Y58876998D01*
X69258655Y58709220D01*
X69316844Y58530134D01*
X69346301Y58344151D01*
X69346301Y58155849D01*
X69316844Y57969866D01*
X69258655Y57790780D01*
X69173168Y57623002D01*
X69062487Y57470662D01*
X68929338Y57337513D01*
X68776998Y57226832D01*
X68609220Y57141345D01*
X68430134Y57083156D01*
X68244151Y57053699D01*
X68055849Y57053699D01*
X67869866Y57083156D01*
X67690780Y57141345D01*
X67523002Y57226832D01*
X67370662Y57337513D01*
X67237513Y57470662D01*
X67126832Y57623002D01*
X67041345Y57790780D01*
X66983156Y57969866D01*
X66953699Y58155849D01*
X66953699Y58344151D01*
X66983156Y58530134D01*
X67041345Y58709220D01*
X67126832Y58876998D01*
X67237513Y59029338D01*
X67370662Y59162487D01*
X67523002Y59273168D01*
X67690780Y59358655D01*
X67869866Y59416844D01*
X68055849Y59446301D01*
X68244151Y59446301D01*
X68430134Y59416844D01*
G37*
G36*
X68430134Y62916844D02*
G01*
X68609220Y62858655D01*
X68776998Y62773168D01*
X68929338Y62662487D01*
X69062487Y62529338D01*
X69173168Y62376998D01*
X69258655Y62209220D01*
X69316844Y62030134D01*
X69346301Y61844151D01*
X69346301Y61655849D01*
X69316844Y61469866D01*
X69258655Y61290780D01*
X69173168Y61123002D01*
X69062487Y60970662D01*
X68929338Y60837513D01*
X68776998Y60726832D01*
X68609220Y60641345D01*
X68430134Y60583156D01*
X68244151Y60553699D01*
X68055849Y60553699D01*
X67869866Y60583156D01*
X67690780Y60641345D01*
X67523002Y60726832D01*
X67370662Y60837513D01*
X67237513Y60970662D01*
X67126832Y61123002D01*
X67041345Y61290780D01*
X66983156Y61469866D01*
X66953699Y61655849D01*
X66953699Y61844151D01*
X66983156Y62030134D01*
X67041345Y62209220D01*
X67126832Y62376998D01*
X67237513Y62529338D01*
X67370662Y62662487D01*
X67523002Y62773168D01*
X67690780Y62858655D01*
X67869866Y62916844D01*
X68055849Y62946301D01*
X68244151Y62946301D01*
X68430134Y62916844D01*
G37*
G36*
X5484211Y78264282D02*
G01*
X5801835Y78201103D01*
X6111737Y78107095D01*
X6410932Y77983165D01*
X6696539Y77830504D01*
X6965808Y77650585D01*
X7216145Y77445139D01*
X7445139Y77216145D01*
X7650585Y76965808D01*
X7830504Y76696539D01*
X7983165Y76410932D01*
X8107095Y76111737D01*
X8201103Y75801835D01*
X8264282Y75484211D01*
X8296025Y75161923D01*
X8296025Y74838077D01*
X8264282Y74515789D01*
X8201103Y74198165D01*
X8107095Y73888263D01*
X7983165Y73589068D01*
X7830504Y73303461D01*
X7650585Y73034192D01*
X7445139Y72783855D01*
X7216145Y72554861D01*
X6965808Y72349415D01*
X6696539Y72169496D01*
X6410932Y72016835D01*
X6111737Y71892905D01*
X5801835Y71798897D01*
X5484211Y71735718D01*
X5161923Y71703975D01*
X4838077Y71703975D01*
X4515789Y71735718D01*
X4198165Y71798897D01*
X3888263Y71892905D01*
X3589068Y72016835D01*
X3303461Y72169496D01*
X3034192Y72349415D01*
X2783855Y72554861D01*
X2554861Y72783855D01*
X2349415Y73034192D01*
X2169496Y73303461D01*
X2016835Y73589068D01*
X1892905Y73888263D01*
X1798897Y74198165D01*
X1735718Y74515789D01*
X1703975Y74838077D01*
X1703975Y75161923D01*
X1735718Y75484211D01*
X1798897Y75801835D01*
X1892905Y76111737D01*
X2016835Y76410932D01*
X2169496Y76696539D01*
X2349415Y76965808D01*
X2554861Y77216145D01*
X2783855Y77445139D01*
X3034192Y77650585D01*
X3303461Y77830504D01*
X3589068Y77983165D01*
X3888263Y78107095D01*
X4198165Y78201103D01*
X4515789Y78264282D01*
X4838077Y78296025D01*
X5161923Y78296025D01*
X5484211Y78264282D01*
G37*
G36*
X75484211Y78264282D02*
G01*
X75801835Y78201103D01*
X76111737Y78107095D01*
X76410932Y77983165D01*
X76696539Y77830504D01*
X76965808Y77650585D01*
X77216145Y77445139D01*
X77445139Y77216145D01*
X77650585Y76965808D01*
X77830504Y76696539D01*
X77983165Y76410932D01*
X78107095Y76111737D01*
X78201103Y75801835D01*
X78264282Y75484211D01*
X78296025Y75161923D01*
X78296025Y74838077D01*
X78264282Y74515789D01*
X78201103Y74198165D01*
X78107095Y73888263D01*
X77983165Y73589068D01*
X77830504Y73303461D01*
X77650585Y73034192D01*
X77445139Y72783855D01*
X77216145Y72554861D01*
X76965808Y72349415D01*
X76696539Y72169496D01*
X76410932Y72016835D01*
X76111737Y71892905D01*
X75801835Y71798897D01*
X75484211Y71735718D01*
X75161923Y71703975D01*
X74838077Y71703975D01*
X74515789Y71735718D01*
X74198165Y71798897D01*
X73888263Y71892905D01*
X73589068Y72016835D01*
X73303461Y72169496D01*
X73034192Y72349415D01*
X72783855Y72554861D01*
X72554861Y72783855D01*
X72349415Y73034192D01*
X72169496Y73303461D01*
X72016835Y73589068D01*
X71892905Y73888263D01*
X71798897Y74198165D01*
X71735718Y74515789D01*
X71703975Y74838077D01*
X71703975Y75161923D01*
X71735718Y75484211D01*
X71798897Y75801835D01*
X71892905Y76111737D01*
X72016835Y76410932D01*
X72169496Y76696539D01*
X72349415Y76965808D01*
X72554861Y77216145D01*
X72783855Y77445139D01*
X73034192Y77650585D01*
X73303461Y77830504D01*
X73589068Y77983165D01*
X73888263Y78107095D01*
X74198165Y78201103D01*
X74515789Y78264282D01*
X74838077Y78296025D01*
X75161923Y78296025D01*
X75484211Y78264282D01*
G37*
%LPD*%
M02*
