%TF.GenerationSoftware,KiCad,Pcbnew,9.0.2*%
%TF.CreationDate,2026-04-14T10:42:29-07:00*%
%TF.ProjectId,ANTS-Power-board,414e5453-2d50-46f7-9765-722d626f6172,rev?*%
%TF.SameCoordinates,Original*%
%TF.FileFunction,Copper,L1,Top*%
%TF.FilePolarity,Positive*%
%FSLAX46Y46*%
G04 Gerber Fmt 4.6, Leading zero omitted, Abs format (unit mm)*
G04 Created by KiCad (PCBNEW 9.0.2) date 2026-04-14 10:42:29*
%MOMM*%
%LPD*%
G01*
G04 APERTURE LIST*
G04 Aperture macros list*
%AMRoundRect*
0 Rectangle with rounded corners*
0 $1 Rounding radius*
0 $2 $3 $4 $5 $6 $7 $8 $9 X,Y pos of 4 corners*
0 Add a 4 corners polygon primitive as box body*
4,1,4,$2,$3,$4,$5,$6,$7,$8,$9,$2,$3,0*
0 Add four circle primitives for the rounded corners*
1,1,$1+$1,$2,$3*
1,1,$1+$1,$4,$5*
1,1,$1+$1,$6,$7*
1,1,$1+$1,$8,$9*
0 Add four rect primitives between the rounded corners*
20,1,$1+$1,$2,$3,$4,$5,0*
20,1,$1+$1,$4,$5,$6,$7,0*
20,1,$1+$1,$6,$7,$8,$9,0*
20,1,$1+$1,$8,$9,$2,$3,0*%
%AMFreePoly0*
4,1,17,0.345355,0.325355,0.360000,0.290000,0.360000,-0.290000,0.345355,-0.325355,0.310000,-0.340000,-0.310000,-0.340000,-0.345355,-0.325355,-0.360000,-0.290000,-0.360000,-0.060000,-0.345355,-0.024645,-0.310000,-0.010000,-0.010000,-0.010000,-0.010000,0.290000,0.004645,0.325355,0.040000,0.340000,0.310000,0.340000,0.345355,0.325355,0.345355,0.325355,$1*%
%AMFreePoly1*
4,1,17,0.345355,0.325355,0.360000,0.290000,0.360000,-0.290000,0.345355,-0.325355,0.310000,-0.340000,0.030000,-0.340000,-0.005355,-0.325355,-0.020000,-0.290000,-0.020000,0.010000,-0.320000,0.010000,-0.355355,0.024645,-0.370000,0.060000,-0.370000,0.290000,-0.355355,0.325355,-0.320000,0.340000,0.310000,0.340000,0.345355,0.325355,0.345355,0.325355,$1*%
%AMFreePoly2*
4,1,17,0.495355,0.455355,0.510000,0.420000,0.510000,0.020000,0.495355,-0.015355,0.460000,-0.030000,-0.010000,-0.030000,-0.010000,-0.430000,-0.024645,-0.465355,-0.060000,-0.480000,-0.470000,-0.480000,-0.505355,-0.465355,-0.520000,-0.430000,-0.520000,0.420000,-0.505355,0.455355,-0.470000,0.470000,0.460000,0.470000,0.495355,0.455355,0.495355,0.455355,$1*%
%AMFreePoly3*
4,1,23,0.825355,0.395355,0.840000,0.360000,0.840000,0.140000,0.825355,0.104645,0.790000,0.090000,0.490000,0.090000,0.490000,-0.060000,0.790000,-0.060000,0.825355,-0.074645,0.840000,-0.110000,0.840000,-0.340000,0.825355,-0.375355,0.791219,-0.389985,0.381219,-0.399985,0.379573,-0.399998,-0.790427,-0.389998,-0.825656,-0.375052,-0.840000,-0.340000,-0.840000,0.360000,-0.825355,0.395355,
-0.790000,0.410000,0.790000,0.410000,0.825355,0.395355,0.825355,0.395355,$1*%
%AMFreePoly4*
4,1,17,-0.014645,0.465355,0.000000,0.430000,0.000000,0.030000,0.460000,0.030000,0.495355,0.015355,0.510000,-0.020000,0.510000,-0.420000,0.495355,-0.455355,0.460000,-0.470000,-0.460000,-0.470000,-0.495355,-0.455355,-0.510000,-0.420000,-0.510000,0.430000,-0.495355,0.465355,-0.460000,0.480000,-0.050000,0.480000,-0.014645,0.465355,-0.014645,0.465355,$1*%
G04 Aperture macros list end*
%TA.AperFunction,SMDPad,CuDef*%
%ADD10RoundRect,0.250000X-0.475000X0.250000X-0.475000X-0.250000X0.475000X-0.250000X0.475000X0.250000X0*%
%TD*%
%TA.AperFunction,SMDPad,CuDef*%
%ADD11RoundRect,0.140000X0.170000X-0.140000X0.170000X0.140000X-0.170000X0.140000X-0.170000X-0.140000X0*%
%TD*%
%TA.AperFunction,SMDPad,CuDef*%
%ADD12FreePoly0,0.000000*%
%TD*%
%TA.AperFunction,SMDPad,CuDef*%
%ADD13R,0.580000X0.250000*%
%TD*%
%TA.AperFunction,SMDPad,CuDef*%
%ADD14FreePoly1,0.000000*%
%TD*%
%TA.AperFunction,SMDPad,CuDef*%
%ADD15R,0.250000X0.580000*%
%TD*%
%TA.AperFunction,SMDPad,CuDef*%
%ADD16R,0.350000X0.850000*%
%TD*%
%TA.AperFunction,SMDPad,CuDef*%
%ADD17FreePoly2,0.000000*%
%TD*%
%TA.AperFunction,SMDPad,CuDef*%
%ADD18FreePoly3,0.000000*%
%TD*%
%TA.AperFunction,SMDPad,CuDef*%
%ADD19FreePoly4,0.000000*%
%TD*%
%TA.AperFunction,SMDPad,CuDef*%
%ADD20RoundRect,0.250000X-0.340000X-2.100000X0.340000X-2.100000X0.340000X2.100000X-0.340000X2.100000X0*%
%TD*%
%TA.AperFunction,SMDPad,CuDef*%
%ADD21RoundRect,0.150000X-0.512500X-0.150000X0.512500X-0.150000X0.512500X0.150000X-0.512500X0.150000X0*%
%TD*%
%TA.AperFunction,ComponentPad*%
%ADD22C,0.800000*%
%TD*%
%TA.AperFunction,ComponentPad*%
%ADD23C,6.400000*%
%TD*%
%TA.AperFunction,SMDPad,CuDef*%
%ADD24RoundRect,0.140000X0.140000X0.170000X-0.140000X0.170000X-0.140000X-0.170000X0.140000X-0.170000X0*%
%TD*%
%TA.AperFunction,SMDPad,CuDef*%
%ADD25RoundRect,0.135000X-0.185000X0.135000X-0.185000X-0.135000X0.185000X-0.135000X0.185000X0.135000X0*%
%TD*%
%TA.AperFunction,ComponentPad*%
%ADD26RoundRect,0.250000X0.575000X-0.350000X0.575000X0.350000X-0.575000X0.350000X-0.575000X-0.350000X0*%
%TD*%
%TA.AperFunction,ComponentPad*%
%ADD27O,1.650000X1.200000*%
%TD*%
%TA.AperFunction,ComponentPad*%
%ADD28C,1.000000*%
%TD*%
%TA.AperFunction,SMDPad,CuDef*%
%ADD29RoundRect,0.250000X0.475000X-0.250000X0.475000X0.250000X-0.475000X0.250000X-0.475000X-0.250000X0*%
%TD*%
%TA.AperFunction,SMDPad,CuDef*%
%ADD30RoundRect,0.135000X0.185000X-0.135000X0.185000X0.135000X-0.185000X0.135000X-0.185000X-0.135000X0*%
%TD*%
%TA.AperFunction,SMDPad,CuDef*%
%ADD31RoundRect,0.250000X-0.250000X-0.475000X0.250000X-0.475000X0.250000X0.475000X-0.250000X0.475000X0*%
%TD*%
%TA.AperFunction,SMDPad,CuDef*%
%ADD32RoundRect,0.225000X-0.225000X-0.250000X0.225000X-0.250000X0.225000X0.250000X-0.225000X0.250000X0*%
%TD*%
%TA.AperFunction,ComponentPad*%
%ADD33C,2.200000*%
%TD*%
%TA.AperFunction,SMDPad,CuDef*%
%ADD34RoundRect,0.225000X-0.250000X0.225000X-0.250000X-0.225000X0.250000X-0.225000X0.250000X0.225000X0*%
%TD*%
%TA.AperFunction,SMDPad,CuDef*%
%ADD35RoundRect,0.140000X-0.140000X-0.170000X0.140000X-0.170000X0.140000X0.170000X-0.140000X0.170000X0*%
%TD*%
%TA.AperFunction,SMDPad,CuDef*%
%ADD36RoundRect,0.135000X0.135000X0.185000X-0.135000X0.185000X-0.135000X-0.185000X0.135000X-0.185000X0*%
%TD*%
%TA.AperFunction,SMDPad,CuDef*%
%ADD37RoundRect,0.200000X0.200000X0.275000X-0.200000X0.275000X-0.200000X-0.275000X0.200000X-0.275000X0*%
%TD*%
%TA.AperFunction,SMDPad,CuDef*%
%ADD38RoundRect,0.250000X-0.375000X-1.075000X0.375000X-1.075000X0.375000X1.075000X-0.375000X1.075000X0*%
%TD*%
%TA.AperFunction,ViaPad*%
%ADD39C,0.700000*%
%TD*%
%TA.AperFunction,ViaPad*%
%ADD40C,0.600000*%
%TD*%
%TA.AperFunction,Conductor*%
%ADD41C,0.600000*%
%TD*%
%TA.AperFunction,Conductor*%
%ADD42C,0.200000*%
%TD*%
%TA.AperFunction,Conductor*%
%ADD43C,0.250000*%
%TD*%
G04 APERTURE END LIST*
D10*
%TO.P,C12,1*%
%TO.N,/5V SMPS/VO*%
X39250000Y56400000D03*
%TO.P,C12,2*%
%TO.N,VBAT-*%
X39250000Y54500000D03*
%TD*%
D11*
%TO.P,C18,1*%
%TO.N,/3.3v_LDO/BP*%
X58375000Y17570000D03*
%TO.P,C18,2*%
%TO.N,VBAT-*%
X58375000Y18530000D03*
%TD*%
D12*
%TO.P,U1,1,PSNS*%
%TO.N,VBAT-*%
X19855000Y59310000D03*
D13*
%TO.P,U1,2,NR/SS*%
%TO.N,/5V SMPS/NR{slash}SS*%
X19825000Y58650000D03*
%TO.P,U1,3,FB*%
%TO.N,/5V SMPS/FB*%
X19825000Y58150000D03*
%TO.P,U1,4,VO*%
%TO.N,/5V SMPS/VO*%
X19825000Y57650000D03*
D14*
%TO.P,U1,5,PG*%
%TO.N,unconnected-(U1-PG-Pad5)*%
X19855000Y56990000D03*
D15*
%TO.P,U1,6,S-CONF*%
%TO.N,/5V SMPS/S-CONF*%
X20545000Y56990000D03*
%TO.P,U1,7,EN\u005CSYNC*%
%TO.N,VBAT+*%
X21045000Y56990000D03*
D16*
%TO.P,U1,8,VIN*%
X21595000Y57130000D03*
D17*
%TO.P,U1,9,PGND*%
%TO.N,VBAT-*%
X22485000Y57130000D03*
D18*
%TO.P,U1,10,SW*%
%TO.N,/5V SMPS/SW*%
X22155000Y58150000D03*
D19*
%TO.P,U1,11,PGND*%
%TO.N,VBAT-*%
X22475000Y59170000D03*
D16*
%TO.P,U1,12,VIN*%
%TO.N,VBAT+*%
X21595000Y59170000D03*
D15*
%TO.P,U1,13,SW*%
%TO.N,/5V SMPS/SW*%
X21045000Y59310000D03*
%TO.P,U1,14,BOOT*%
%TO.N,/5V SMPS/BOOT*%
X20545000Y59310000D03*
%TD*%
D20*
%TO.P,L1,1,1*%
%TO.N,/5V SMPS/SW*%
X26845000Y58150000D03*
%TO.P,L1,2,2*%
%TO.N,/5V SMPS/VO*%
X30155000Y58150000D03*
%TD*%
D21*
%TO.P,U2,1,VIN*%
%TO.N,5V_OUTPUT*%
X54500000Y19450000D03*
%TO.P,U2,2,GND*%
%TO.N,VBAT-*%
X54500000Y18500000D03*
%TO.P,U2,3,ON/~{OFF}*%
%TO.N,/3.3v_LDO/ON{slash}~{OFF}*%
X54500000Y17550000D03*
%TO.P,U2,4,BP*%
%TO.N,/3.3v_LDO/BP*%
X56775000Y17550000D03*
%TO.P,U2,5,VOUT*%
%TO.N,3V3_OUTPUT*%
X56775000Y19450000D03*
%TD*%
D22*
%TO.P,MH3,1,1*%
%TO.N,VBAT-*%
X2600000Y5000000D03*
X3302944Y6697056D03*
X3302944Y3302944D03*
X5000000Y7400000D03*
D23*
X5000000Y5000000D03*
D22*
X5000000Y2600000D03*
X6697056Y6697056D03*
X6697056Y3302944D03*
X7400000Y5000000D03*
%TD*%
D24*
%TO.P,C5,1*%
%TO.N,/5V SMPS/SW*%
X20730000Y61000000D03*
%TO.P,C5,2*%
%TO.N,/5V SMPS/BOOT*%
X19770000Y61000000D03*
%TD*%
D25*
%TO.P,R3,1*%
%TO.N,5V_OUTPUT*%
X15750000Y59750000D03*
%TO.P,R3,2*%
%TO.N,/5V SMPS/FB*%
X15750000Y58730000D03*
%TD*%
D26*
%TO.P,J1,1,Pin_1*%
%TO.N,VBAT-*%
X7000000Y44000000D03*
D27*
%TO.P,J1,2,Pin_2*%
%TO.N,VBAT+*%
X9000000Y44000000D03*
%TO.P,J1,3,Pin_3*%
%TO.N,VBAT-*%
X7000000Y46000000D03*
%TO.P,J1,4,Pin_4*%
%TO.N,VBAT+*%
X9000000Y46000000D03*
%TO.P,J1,5,Pin_5*%
%TO.N,VBAT-*%
X7000000Y48000000D03*
%TO.P,J1,6,Pin_6*%
%TO.N,VBAT+*%
X9000000Y48000000D03*
%TO.P,J1,7,Pin_7*%
%TO.N,VBAT-*%
X7000000Y50000000D03*
%TO.P,J1,8,Pin_8*%
%TO.N,VBAT+*%
X9000000Y50000000D03*
%TO.P,J1,9,Pin_9*%
%TO.N,VBAT-*%
X7000000Y52000000D03*
%TO.P,J1,10,Pin_10*%
%TO.N,VBAT+*%
X9000000Y52000000D03*
%TO.P,J1,11,Pin_11*%
%TO.N,VBAT-*%
X7000000Y54000000D03*
%TO.P,J1,12,Pin_12*%
%TO.N,VBAT+*%
X9000000Y54000000D03*
%TD*%
D22*
%TO.P,MH4,1,1*%
%TO.N,VBAT-*%
X72600000Y5000000D03*
X73302944Y6697056D03*
X73302944Y3302944D03*
X75000000Y7400000D03*
D23*
X75000000Y5000000D03*
D22*
X75000000Y2600000D03*
X76697056Y6697056D03*
X76697056Y3302944D03*
X77400000Y5000000D03*
%TD*%
D28*
%TO.P,TP2,1,1*%
%TO.N,/3.3v_LDO/ON{slash}~{OFF}*%
X52575000Y13550000D03*
%TD*%
D29*
%TO.P,C15,1*%
%TO.N,5V_OUTPUT*%
X59200000Y59700000D03*
%TO.P,C15,2*%
%TO.N,VBAT-*%
X59200000Y61600000D03*
%TD*%
D30*
%TO.P,R4,1*%
%TO.N,/5V SMPS/FB*%
X17000000Y58730000D03*
%TO.P,R4,2*%
%TO.N,VBAT-*%
X17000000Y59750000D03*
%TD*%
D31*
%TO.P,C2,1*%
%TO.N,VBAT+*%
X21450000Y53500000D03*
%TO.P,C2,2*%
%TO.N,VBAT-*%
X23350000Y53500000D03*
%TD*%
D10*
%TO.P,C10,1*%
%TO.N,/5V SMPS/VO*%
X36750000Y56400000D03*
%TO.P,C10,2*%
%TO.N,VBAT-*%
X36750000Y54500000D03*
%TD*%
D29*
%TO.P,C16,1*%
%TO.N,5V_OUTPUT*%
X61700000Y59700000D03*
%TO.P,C16,2*%
%TO.N,VBAT-*%
X61700000Y61600000D03*
%TD*%
D28*
%TO.P,TP1,1,1*%
%TO.N,5V_OUTPUT*%
X52500000Y22250000D03*
%TD*%
D32*
%TO.P,C19,1*%
%TO.N,3V3_OUTPUT*%
X59000000Y19950000D03*
%TO.P,C19,2*%
%TO.N,VBAT-*%
X60550000Y19950000D03*
%TD*%
D10*
%TO.P,C8,1*%
%TO.N,/5V SMPS/VO*%
X34250000Y56400000D03*
%TO.P,C8,2*%
%TO.N,VBAT-*%
X34250000Y54500000D03*
%TD*%
D26*
%TO.P,J2,1,Pin_1*%
%TO.N,VBAT-*%
X7000000Y26000000D03*
D27*
%TO.P,J2,2,Pin_2*%
%TO.N,VBAT+*%
X9000000Y26000000D03*
%TO.P,J2,3,Pin_3*%
%TO.N,VBAT-*%
X7000000Y28000000D03*
%TO.P,J2,4,Pin_4*%
%TO.N,VBAT+*%
X9000000Y28000000D03*
%TO.P,J2,5,Pin_5*%
%TO.N,VBAT-*%
X7000000Y30000000D03*
%TO.P,J2,6,Pin_6*%
%TO.N,VBAT+*%
X9000000Y30000000D03*
%TO.P,J2,7,Pin_7*%
%TO.N,VBAT-*%
X7000000Y32000000D03*
%TO.P,J2,8,Pin_8*%
%TO.N,VBAT+*%
X9000000Y32000000D03*
%TO.P,J2,9,Pin_9*%
%TO.N,VBAT-*%
X7000000Y34000000D03*
%TO.P,J2,10,Pin_10*%
%TO.N,VBAT+*%
X9000000Y34000000D03*
%TO.P,J2,11,Pin_11*%
%TO.N,VBAT-*%
X7000000Y36000000D03*
%TO.P,J2,12,Pin_12*%
%TO.N,VBAT+*%
X9000000Y36000000D03*
%TD*%
D11*
%TO.P,C6,1*%
%TO.N,/5V SMPS/NR{slash}SS*%
X18250000Y58770000D03*
%TO.P,C6,2*%
%TO.N,VBAT-*%
X18250000Y59730000D03*
%TD*%
D22*
%TO.P,MH2,1,1*%
%TO.N,VBAT-*%
X72600000Y75000000D03*
X73302944Y76697056D03*
X73302944Y73302944D03*
X75000000Y77400000D03*
D23*
X75000000Y75000000D03*
D22*
X75000000Y72600000D03*
X76697056Y76697056D03*
X76697056Y73302944D03*
X77400000Y75000000D03*
%TD*%
D33*
%TO.P,J3,1,Pin_1*%
%TO.N,5V_OUTPUT*%
X68150000Y58250000D03*
%TO.P,J3,2,Pin_2*%
%TO.N,VBAT-*%
X68150000Y61750000D03*
%TD*%
D29*
%TO.P,C7,1*%
%TO.N,/5V SMPS/VO*%
X34250000Y59750000D03*
%TO.P,C7,2*%
%TO.N,VBAT-*%
X34250000Y61650000D03*
%TD*%
D31*
%TO.P,C1,1*%
%TO.N,VBAT+*%
X21450000Y63000000D03*
%TO.P,C1,2*%
%TO.N,VBAT-*%
X23350000Y63000000D03*
%TD*%
D34*
%TO.P,C17,1*%
%TO.N,5V_OUTPUT*%
X52575000Y19925000D03*
%TO.P,C17,2*%
%TO.N,VBAT-*%
X52575000Y18375000D03*
%TD*%
D22*
%TO.P,MH1,1,1*%
%TO.N,VBAT-*%
X2600000Y75000000D03*
X3302944Y76697056D03*
X3302944Y73302944D03*
X5000000Y77400000D03*
D23*
X5000000Y75000000D03*
D22*
X5000000Y72600000D03*
X6697056Y76697056D03*
X6697056Y73302944D03*
X7400000Y75000000D03*
%TD*%
D35*
%TO.P,C3,1*%
%TO.N,VBAT+*%
X21720000Y60600000D03*
%TO.P,C3,2*%
%TO.N,VBAT-*%
X22680000Y60600000D03*
%TD*%
D36*
%TO.P,R1,1*%
%TO.N,/5V SMPS/S-CONF*%
X16760000Y57250000D03*
%TO.P,R1,2*%
%TO.N,VBAT-*%
X15740000Y57250000D03*
%TD*%
D33*
%TO.P,J4,1,Pin_1*%
%TO.N,3V3_OUTPUT*%
X68250000Y22450000D03*
%TO.P,J4,2,Pin_2*%
%TO.N,VBAT-*%
X68250000Y25950000D03*
%TD*%
D37*
%TO.P,R5,1*%
%TO.N,/3.3v_LDO/ON{slash}~{OFF}*%
X52600000Y15550000D03*
%TO.P,R5,2*%
%TO.N,5V_OUTPUT*%
X50950000Y15550000D03*
%TD*%
D38*
%TO.P,FB1,1*%
%TO.N,/5V SMPS/VO*%
X51550000Y58100000D03*
%TO.P,FB1,2*%
%TO.N,5V_OUTPUT*%
X54350000Y58100000D03*
%TD*%
D35*
%TO.P,C4,1*%
%TO.N,VBAT+*%
X21620000Y55700000D03*
%TO.P,C4,2*%
%TO.N,VBAT-*%
X22580000Y55700000D03*
%TD*%
D29*
%TO.P,C11,1*%
%TO.N,/5V SMPS/VO*%
X39250000Y59750000D03*
%TO.P,C11,2*%
%TO.N,VBAT-*%
X39250000Y61650000D03*
%TD*%
%TO.P,C9,1*%
%TO.N,/5V SMPS/VO*%
X36750000Y59775000D03*
%TO.P,C9,2*%
%TO.N,VBAT-*%
X36750000Y61675000D03*
%TD*%
D39*
%TO.N,VBAT-*%
X37250000Y53250000D03*
X15000000Y40000000D03*
X65000000Y40000000D03*
X50000000Y55000000D03*
X50000000Y35000000D03*
X45000000Y30000000D03*
X25000000Y10000000D03*
X59550000Y62750000D03*
X5000000Y60000000D03*
X75000000Y20000000D03*
X69250000Y63250000D03*
X60000000Y45000000D03*
X15000000Y20000000D03*
X24500000Y54000000D03*
X25750000Y66250000D03*
X45000000Y70000000D03*
X20000000Y25000000D03*
X70000000Y61750000D03*
X40000000Y65000000D03*
X69250000Y27500000D03*
X66500000Y26000000D03*
X55000000Y40000000D03*
X34750000Y53250000D03*
X45000000Y40000000D03*
X15000000Y70000000D03*
X60000000Y5000000D03*
X20000000Y15000000D03*
X36500000Y53250000D03*
X30000000Y25000000D03*
X50000000Y45000000D03*
X45000000Y20000000D03*
X75000000Y60000000D03*
X10000000Y15000000D03*
X25000000Y70000000D03*
X31250000Y50000000D03*
X29750000Y52000000D03*
X45000000Y10000000D03*
X39750000Y62975000D03*
X24250000Y60500000D03*
X39750000Y53250000D03*
X20000000Y75000000D03*
X70000000Y45000000D03*
X55000000Y10000000D03*
X22955000Y59700000D03*
X58800000Y62750000D03*
X16500000Y60750000D03*
X16500000Y56000000D03*
X70000000Y15000000D03*
X66250000Y61750000D03*
X24500000Y53250000D03*
X61300000Y62750000D03*
X35000000Y20000000D03*
X60000000Y65000000D03*
X24500000Y64000000D03*
X65000000Y70000000D03*
X75000000Y70000000D03*
X5000000Y10000000D03*
X17500000Y56000000D03*
X35000000Y70000000D03*
X35000000Y40000000D03*
X30000000Y5000000D03*
X62050000Y62750000D03*
X27250000Y52000000D03*
X39000000Y62975000D03*
X70000000Y5000000D03*
X17500000Y60750000D03*
X50000000Y75000000D03*
X24250000Y56000000D03*
X25000000Y20000000D03*
X60000000Y15000000D03*
X39000000Y53250000D03*
X24500000Y52500000D03*
X37250000Y62975000D03*
X20000000Y5000000D03*
X40000000Y15000000D03*
X31500000Y66250000D03*
X35000000Y10000000D03*
X36500000Y62975000D03*
X24500000Y62500000D03*
X75000000Y40000000D03*
X75000000Y10000000D03*
X23500000Y55500000D03*
X18500000Y60750000D03*
X55000000Y30000000D03*
X40000000Y75000000D03*
X5000000Y70000000D03*
X60000000Y75000000D03*
X24500000Y63250000D03*
X40000000Y35000000D03*
X33750000Y62975000D03*
X22955000Y56600000D03*
X70000000Y35000000D03*
X40000000Y5000000D03*
X5000000Y50000000D03*
X30000000Y15000000D03*
X20000000Y35000000D03*
X15000000Y50000000D03*
X65000000Y20000000D03*
X60000000Y55000000D03*
X27500000Y64250000D03*
X25000000Y30000000D03*
X28750000Y66250000D03*
X50000000Y65000000D03*
X10000000Y75000000D03*
X24250000Y61500000D03*
X65000000Y30000000D03*
X40000000Y45000000D03*
X75000000Y50000000D03*
X30000000Y35000000D03*
X10000000Y5000000D03*
X40000000Y25000000D03*
X20000000Y45000000D03*
X70000000Y75000000D03*
X60000000Y35000000D03*
X5000000Y20000000D03*
X30000000Y45000000D03*
X67250000Y27500000D03*
X65000000Y10000000D03*
X23500000Y61000000D03*
X10000000Y65000000D03*
X35000000Y50000000D03*
X25000000Y40000000D03*
X65000000Y50000000D03*
X75000000Y30000000D03*
X70000000Y26000000D03*
X25500000Y50000000D03*
X45000000Y50000000D03*
X34500000Y62975000D03*
X28500000Y50000000D03*
X5000000Y40000000D03*
X34000000Y53250000D03*
X15000000Y30000000D03*
X55000000Y50000000D03*
X70000000Y55000000D03*
X5000000Y30000000D03*
X30000000Y75000000D03*
X67000000Y63250000D03*
X35000000Y30000000D03*
X55000000Y70000000D03*
X70000000Y65000000D03*
X15000000Y10000000D03*
X24250000Y55000000D03*
X50000000Y5000000D03*
X19250000Y60000000D03*
X30000000Y64250000D03*
%TO.N,VBAT+*%
X16875000Y53125000D03*
X20100000Y55600000D03*
%TO.N,/5V SMPS/VO*%
X32250000Y56750000D03*
X18750000Y57500000D03*
%TO.N,5V_OUTPUT*%
X14750000Y59750000D03*
D40*
X49775000Y16150000D03*
X49775000Y19750000D03*
D39*
X60500000Y58000000D03*
%TD*%
D41*
%TO.N,VBAT-*%
X52730000Y18530000D02*
X52575000Y18375000D01*
X58375000Y18530000D02*
X60055000Y18530000D01*
D42*
X15740000Y56760000D02*
X16500000Y56000000D01*
X15740000Y57250000D02*
X15740000Y56760000D01*
D41*
X58375000Y18530000D02*
X52730000Y18530000D01*
X60055000Y18530000D02*
X60550000Y19025000D01*
X60550000Y19025000D02*
X60550000Y19950000D01*
D42*
%TO.N,VBAT+*%
X20145000Y55600000D02*
X20100000Y55600000D01*
X16875000Y53125000D02*
X16750000Y53250000D01*
X21595000Y60475000D02*
X21720000Y60600000D01*
X21720000Y62530000D02*
X21450000Y62800000D01*
X21045000Y56990000D02*
X21045000Y56500000D01*
X16750000Y53250000D02*
X9750000Y53250000D01*
X21595000Y59170000D02*
X21595000Y60475000D01*
X21620000Y55700000D02*
X21620000Y57105000D01*
X21045000Y56500000D02*
X20145000Y55600000D01*
X21620000Y57105000D02*
X21595000Y57130000D01*
X9750000Y53250000D02*
X9000000Y54000000D01*
%TO.N,/3.3v_LDO/BP*%
X56775000Y17550000D02*
X58355000Y17550000D01*
X58355000Y17550000D02*
X58375000Y17570000D01*
X56855000Y17470000D02*
X56775000Y17550000D01*
%TO.N,/3.3v_LDO/ON{slash}~{OFF}*%
X52600000Y15550000D02*
X52600000Y13775000D01*
X54500000Y17550000D02*
X52600000Y15650000D01*
X52600000Y15650000D02*
X52600000Y15550000D01*
X52600000Y13775000D02*
X52575000Y13750000D01*
%TO.N,/5V SMPS/VO*%
X18900000Y57650000D02*
X19825000Y57650000D01*
X31555000Y56750000D02*
X32250000Y56750000D01*
X30155000Y58150000D02*
X31555000Y56750000D01*
X18750000Y57500000D02*
X18900000Y57650000D01*
D43*
%TO.N,/5V SMPS/SW*%
X21045000Y60685000D02*
X20730000Y61000000D01*
X21045000Y59310000D02*
X21045000Y60685000D01*
X21045000Y58260000D02*
X21155000Y58150000D01*
X21045000Y59310000D02*
X21045000Y58260000D01*
X21155000Y58150000D02*
X22155000Y58150000D01*
D42*
%TO.N,/5V SMPS/BOOT*%
X20545000Y59310000D02*
X20545000Y60225000D01*
X20545000Y60225000D02*
X19770000Y61000000D01*
%TO.N,/5V SMPS/NR{slash}SS*%
X18370000Y58650000D02*
X18250000Y58770000D01*
X19825000Y58650000D02*
X18370000Y58650000D01*
%TO.N,/5V SMPS/S-CONF*%
X20545000Y56570008D02*
X20313992Y56339000D01*
X20545000Y56990000D02*
X20545000Y56570008D01*
X18661000Y56339000D02*
X17750000Y57250000D01*
X17750000Y57250000D02*
X16760000Y57250000D01*
X20313992Y56339000D02*
X18661000Y56339000D01*
%TO.N,/5V SMPS/FB*%
X17590000Y58150000D02*
X17000000Y58740000D01*
X17000000Y58740000D02*
X15760000Y58740000D01*
X15760000Y58740000D02*
X15750000Y58730000D01*
X19825000Y58150000D02*
X17590000Y58150000D01*
D41*
%TO.N,5V_OUTPUT*%
X68150000Y58250000D02*
X68150000Y45550000D01*
D42*
X50375000Y15550000D02*
X50950000Y15550000D01*
D41*
X68150000Y45550000D02*
X50750000Y28150000D01*
X52500000Y22250000D02*
X52500000Y20000000D01*
D42*
X49775000Y16150000D02*
X50375000Y15550000D01*
X60500000Y58000000D02*
X54450000Y58000000D01*
D41*
X54025000Y19925000D02*
X54500000Y19450000D01*
X52575000Y19925000D02*
X54025000Y19925000D01*
D42*
X14750000Y59750000D02*
X15750000Y59750000D01*
D41*
X52075000Y19925000D02*
X52575000Y19925000D01*
X50750000Y21250000D02*
X52075000Y19925000D01*
D42*
X54450000Y58000000D02*
X54350000Y58100000D01*
D41*
X52500000Y20000000D02*
X52575000Y19925000D01*
X50750000Y28150000D02*
X50750000Y21250000D01*
%TD*%
%TA.AperFunction,Conductor*%
%TO.N,3V3_OUTPUT*%
G36*
X68193039Y23480315D02*
G01*
X68238794Y23427511D01*
X68250000Y23376000D01*
X68250000Y21624000D01*
X68230315Y21556961D01*
X68177511Y21511206D01*
X68126000Y21500000D01*
X60499999Y21500000D01*
X59750000Y20750001D01*
X59750000Y19276362D01*
X59741355Y19246922D01*
X59734832Y19216935D01*
X59731077Y19211920D01*
X59730315Y19209323D01*
X59713681Y19188681D01*
X59591819Y19066819D01*
X59530496Y19033334D01*
X59504138Y19030500D01*
X56270862Y19030500D01*
X56203823Y19050185D01*
X56183181Y19066819D01*
X56036319Y19213681D01*
X56002834Y19275004D01*
X56000000Y19301362D01*
X56000000Y20198638D01*
X56019685Y20265677D01*
X56036319Y20286319D01*
X59213681Y23463681D01*
X59275004Y23497166D01*
X59301362Y23500000D01*
X68126000Y23500000D01*
X68193039Y23480315D01*
G37*
%TD.AperFunction*%
%TD*%
%TA.AperFunction,Conductor*%
%TO.N,/5V SMPS/SW*%
G36*
X27610217Y60531093D02*
G01*
X27646181Y60481593D01*
X27651020Y60452035D01*
X27679147Y57751902D01*
X27698958Y55850031D01*
X27680657Y55791647D01*
X27631535Y55755169D01*
X27599963Y55750000D01*
X25585276Y55750000D01*
X25527085Y55768907D01*
X25522671Y55772309D01*
X23100002Y57749999D01*
X23100000Y57750000D01*
X23099999Y57750000D01*
X23017591Y57750000D01*
X22998282Y57751902D01*
X22945000Y57762500D01*
X22015000Y57762500D01*
X22014999Y57762500D01*
X22001878Y57759890D01*
X21961717Y57751902D01*
X21942409Y57750000D01*
X21399000Y57750000D01*
X21340809Y57768907D01*
X21304845Y57818407D01*
X21300000Y57849000D01*
X21300000Y58493610D01*
X21318907Y58551801D01*
X21368407Y58587765D01*
X21400114Y58591199D01*
X21400114Y58592500D01*
X21785021Y58592500D01*
X21785022Y58592500D01*
X21813165Y58598099D01*
X21832478Y58600000D01*
X21837398Y58600000D01*
X21895589Y58581093D01*
X21897651Y58579552D01*
X21915837Y58565598D01*
X21954728Y58549489D01*
X22015000Y58537500D01*
X22015001Y58537500D01*
X22934999Y58537500D01*
X22935000Y58537500D01*
X22995272Y58549489D01*
X23034163Y58565598D01*
X23061002Y58581093D01*
X23070778Y58586737D01*
X23120277Y58600000D01*
X23150000Y58600000D01*
X25422297Y60526514D01*
X25478910Y60549722D01*
X25486319Y60550000D01*
X27552026Y60550000D01*
X27610217Y60531093D01*
G37*
%TD.AperFunction*%
%TD*%
%TA.AperFunction,Conductor*%
%TO.N,VBAT+*%
G36*
X20985033Y64731046D02*
G01*
X21065815Y64677070D01*
X21068277Y64674573D01*
X22048985Y63665846D01*
X22101818Y63584312D01*
X22119453Y63492633D01*
X22123849Y60449360D01*
X22123813Y60449180D01*
X22123849Y60449000D01*
X22114397Y60401486D01*
X22105032Y60354044D01*
X22104930Y60353893D01*
X22104895Y60353712D01*
X22077908Y60313323D01*
X22051173Y60273185D01*
X22051021Y60273084D01*
X22050919Y60272930D01*
X22010474Y60245907D01*
X21970469Y60219092D01*
X21970289Y60219057D01*
X21970137Y60218954D01*
X21922722Y60209523D01*
X21875209Y60200000D01*
X21643946Y60200000D01*
X21548658Y60218954D01*
X21467876Y60272930D01*
X21413900Y60353712D01*
X21394946Y60449000D01*
X21394946Y61449999D01*
X21394946Y61450000D01*
X21394945Y61450000D01*
X21130433Y61450000D01*
X21035145Y61468954D01*
X21025200Y61473330D01*
X20959491Y61503971D01*
X20959489Y61503972D01*
X20934694Y61507236D01*
X20909901Y61510500D01*
X20909899Y61510500D01*
X20550104Y61510500D01*
X20500511Y61503972D01*
X20434799Y61473329D01*
X20429441Y61472019D01*
X20424856Y61468954D01*
X20382439Y61460517D01*
X20340429Y61450237D01*
X20329568Y61450000D01*
X20170433Y61450000D01*
X20075145Y61468954D01*
X20065200Y61473330D01*
X19999491Y61503971D01*
X19999489Y61503972D01*
X19974694Y61507236D01*
X19949901Y61510500D01*
X19949899Y61510500D01*
X19590104Y61510500D01*
X19540511Y61503972D01*
X19474799Y61473329D01*
X19380429Y61450237D01*
X19369568Y61450000D01*
X15775990Y61450000D01*
X15775989Y61450000D01*
X15775988Y61450000D01*
X15775987Y61449999D01*
X14564404Y60286847D01*
X14540334Y60263740D01*
X14537515Y60262984D01*
X14411985Y60190509D01*
X14309491Y60088015D01*
X14250044Y59985051D01*
X14244942Y59980152D01*
X14244437Y59978964D01*
X14240944Y59971970D01*
X14237013Y59962481D01*
X14236463Y59960424D01*
X14236462Y59960418D01*
X14199500Y59822475D01*
X14199500Y59677525D01*
X14233644Y59550100D01*
X14236461Y59539587D01*
X14244946Y59475140D01*
X14244946Y56918347D01*
X16122728Y55100000D01*
X20407445Y55100000D01*
X20407446Y55100000D01*
X21194946Y55887500D01*
X21194946Y55887502D01*
X21198586Y55896288D01*
X21252562Y55977070D01*
X21300986Y56009427D01*
X21333343Y56031046D01*
X21428632Y56050000D01*
X21695946Y56050000D01*
X21791234Y56031046D01*
X21872016Y55977070D01*
X21925992Y55896288D01*
X21944946Y55801000D01*
X21944946Y52499000D01*
X21925992Y52403712D01*
X21872016Y52322930D01*
X21791234Y52268954D01*
X21695946Y52250000D01*
X14346979Y52250000D01*
X10944946Y49237501D01*
X10944946Y25155317D01*
X10925992Y25060029D01*
X10872016Y24979247D01*
X10465699Y24572930D01*
X10384917Y24518954D01*
X10289629Y24500000D01*
X8839363Y24500000D01*
X8744075Y24518954D01*
X8663308Y24572916D01*
X8072807Y25163321D01*
X8046901Y25202085D01*
X8018831Y25244080D01*
X8018828Y25244091D01*
X8018824Y25244098D01*
X7999863Y25339360D01*
X7999843Y25457793D01*
X8013818Y25540072D01*
X8022645Y25565299D01*
X8022647Y25565306D01*
X8025499Y25595727D01*
X8025500Y25595730D01*
X8025500Y26404271D01*
X8025499Y26404274D01*
X8022647Y26434694D01*
X8022646Y26434697D01*
X8022646Y26434699D01*
X8013637Y26460443D01*
X7999666Y26542639D01*
X7999466Y27765715D01*
X7999461Y27790257D01*
X8025500Y27921158D01*
X8025500Y28078842D01*
X7999393Y28210089D01*
X7999139Y29764075D01*
X8003924Y29812691D01*
X8025500Y29921158D01*
X8025500Y30078842D01*
X8003844Y30187710D01*
X7999062Y30236225D01*
X7998808Y31786970D01*
X8025500Y31921158D01*
X8025500Y32078842D01*
X7998738Y32213382D01*
X7998485Y33760791D01*
X8003269Y33809398D01*
X8025500Y33921158D01*
X8025500Y34078842D01*
X8003189Y34191005D01*
X7998407Y34239515D01*
X7998154Y35783683D01*
X8025500Y35921158D01*
X8025500Y36078842D01*
X7998083Y36216674D01*
X7996900Y43449387D01*
X8010873Y43531658D01*
X8022646Y43565301D01*
X8025500Y43595734D01*
X8025500Y44404266D01*
X8024586Y44414004D01*
X8022647Y44434694D01*
X8022644Y44434705D01*
X8010693Y44468861D01*
X7996720Y44551055D01*
X7996519Y45775466D01*
X8025500Y45921158D01*
X8025500Y46078842D01*
X7996446Y46224904D01*
X7996197Y47749286D01*
X8000982Y47797901D01*
X8025500Y47921158D01*
X8025500Y48078842D01*
X8000897Y48202526D01*
X7996115Y48251037D01*
X7995870Y49747644D01*
X8000654Y49796251D01*
X8025500Y49921158D01*
X8025500Y50078842D01*
X8000569Y50204178D01*
X7995787Y50252679D01*
X7995543Y51746002D01*
X8000327Y51794607D01*
X8025500Y51921158D01*
X8025500Y52078842D01*
X8000242Y52205821D01*
X7995460Y52254328D01*
X7995216Y53744360D01*
X7999999Y53792962D01*
X8025500Y53921158D01*
X8025500Y54078842D01*
X7999915Y54207463D01*
X7995133Y54255978D01*
X7994987Y55150960D01*
X8013926Y55246251D01*
X8067889Y55327041D01*
X8148662Y55381031D01*
X8243947Y55400000D01*
X10057446Y55400000D01*
X10057447Y55400001D01*
X10060682Y55403252D01*
X10741672Y56087492D01*
X10716592Y61354108D01*
X10735092Y61449482D01*
X10788681Y61530518D01*
X13919868Y64676651D01*
X14000519Y64730818D01*
X14095762Y64749999D01*
X14096355Y64750000D01*
X20889745Y64750000D01*
X20985033Y64731046D01*
G37*
%TD.AperFunction*%
%TD*%
%TA.AperFunction,Conductor*%
%TO.N,5V_OUTPUT*%
G36*
X65015677Y60480315D02*
G01*
X65036319Y60463681D01*
X65500000Y60000000D01*
X68698638Y60000000D01*
X68765677Y59980315D01*
X68786319Y59963681D01*
X69713681Y59036319D01*
X69747166Y58974996D01*
X69750000Y58948638D01*
X69750000Y56812000D01*
X69730315Y56744961D01*
X69700399Y56712800D01*
X68582001Y55874000D01*
X68449734Y55774800D01*
X68384292Y55750324D01*
X68375334Y55750000D01*
X53624000Y55750000D01*
X53556961Y55769685D01*
X53511206Y55822489D01*
X53500000Y55874000D01*
X53500000Y60376000D01*
X53519685Y60443039D01*
X53572489Y60488794D01*
X53624000Y60500000D01*
X64948638Y60500000D01*
X65015677Y60480315D01*
G37*
%TD.AperFunction*%
%TD*%
%TA.AperFunction,Conductor*%
%TO.N,/5V SMPS/VO*%
G36*
X52409045Y60471836D02*
G01*
X52445099Y60422402D01*
X52450000Y60391638D01*
X52450000Y55849000D01*
X52431093Y55790809D01*
X52381593Y55754845D01*
X52351000Y55750000D01*
X50076432Y55750000D01*
X50073918Y55750500D01*
X49926082Y55750500D01*
X49923568Y55750000D01*
X30099000Y55750000D01*
X30040809Y55768907D01*
X30004845Y55818407D01*
X30000000Y55849000D01*
X30000000Y60351180D01*
X30018907Y60409371D01*
X30068407Y60445335D01*
X30098817Y60450180D01*
X52350821Y60490638D01*
X52409045Y60471836D01*
G37*
%TD.AperFunction*%
%TD*%
%TA.AperFunction,Conductor*%
%TO.N,5V_OUTPUT*%
G36*
X53440677Y21380315D02*
G01*
X53461319Y21363681D01*
X55138681Y19686319D01*
X55172166Y19624996D01*
X55175000Y19598638D01*
X55175000Y19274000D01*
X55155315Y19206961D01*
X55102511Y19161206D01*
X55051000Y19150000D01*
X49124000Y19150000D01*
X49056961Y19169685D01*
X49011206Y19222489D01*
X49000000Y19274000D01*
X49000000Y21276000D01*
X49019685Y21343039D01*
X49072489Y21388794D01*
X49124000Y21400000D01*
X53373638Y21400000D01*
X53440677Y21380315D01*
G37*
%TD.AperFunction*%
%TD*%
%TA.AperFunction,Conductor*%
%TO.N,VBAT-*%
G36*
X15146342Y59136033D02*
G01*
X15169757Y59079505D01*
X15164507Y59039040D01*
X15132259Y58946879D01*
X15132258Y58946875D01*
X15129500Y58917468D01*
X15129500Y58542543D01*
X15132258Y58513125D01*
X15132259Y58513120D01*
X15175619Y58389205D01*
X15253572Y58283582D01*
X15253581Y58283573D01*
X15359204Y58205620D01*
X15359205Y58205620D01*
X15359206Y58205619D01*
X15483121Y58162259D01*
X15512543Y58159500D01*
X15987456Y58159501D01*
X15987457Y58159501D01*
X15993340Y58160053D01*
X16016879Y58162259D01*
X16140794Y58205619D01*
X16246420Y58283575D01*
X16246421Y58283575D01*
X16246421Y58283577D01*
X16246423Y58283577D01*
X16258018Y58299288D01*
X16270476Y58308198D01*
X16279482Y58320593D01*
X16294738Y58325551D01*
X16307784Y58334880D01*
X16337673Y58339500D01*
X16412327Y58339500D01*
X16470518Y58320593D01*
X16491983Y58299287D01*
X16503578Y58283575D01*
X16609204Y58205620D01*
X16609205Y58205620D01*
X16609206Y58205619D01*
X16733121Y58162259D01*
X16762543Y58159500D01*
X16973098Y58159501D01*
X16980695Y58157033D01*
X16988585Y58158282D01*
X17009240Y58147758D01*
X17031288Y58140594D01*
X17043101Y58130505D01*
X17176240Y57997367D01*
X17204018Y57942850D01*
X17194447Y57882418D01*
X17151182Y57839154D01*
X17090750Y57829582D01*
X17073540Y57833918D01*
X17024901Y57850938D01*
X16976879Y57867741D01*
X16976877Y57867742D01*
X16976874Y57867742D01*
X16947465Y57870500D01*
X16572542Y57870500D01*
X16543124Y57867742D01*
X16543119Y57867741D01*
X16419204Y57824381D01*
X16313581Y57746428D01*
X16313572Y57746419D01*
X16235619Y57640796D01*
X16192260Y57516884D01*
X16192258Y57516875D01*
X16189500Y57487468D01*
X16189500Y57012543D01*
X16192258Y56983125D01*
X16192259Y56983120D01*
X16235619Y56859205D01*
X16313572Y56753582D01*
X16313581Y56753573D01*
X16419204Y56675620D01*
X16419205Y56675620D01*
X16419206Y56675619D01*
X16543121Y56632259D01*
X16572543Y56629500D01*
X16947456Y56629501D01*
X16947457Y56629501D01*
X16953340Y56630053D01*
X16976879Y56632259D01*
X17100794Y56675619D01*
X17206423Y56753577D01*
X17247540Y56809288D01*
X17297308Y56844881D01*
X17327195Y56849500D01*
X17543099Y56849500D01*
X17601290Y56830593D01*
X17613103Y56820504D01*
X18140088Y56293520D01*
X18340518Y56093090D01*
X18340520Y56093087D01*
X18415087Y56018520D01*
X18446299Y56000500D01*
X18506413Y55965793D01*
X18608270Y55938500D01*
X18608272Y55938499D01*
X18608273Y55938499D01*
X18719790Y55938499D01*
X18719806Y55938500D01*
X19387952Y55938500D01*
X19446143Y55919593D01*
X19482107Y55870093D01*
X19482107Y55808907D01*
X19479421Y55801629D01*
X19474499Y55789744D01*
X19474499Y55789743D01*
X19449500Y55664070D01*
X19449500Y55535928D01*
X19451910Y55523814D01*
X19444718Y55463053D01*
X19403185Y55418123D01*
X19354812Y55405500D01*
X16286480Y55405500D01*
X16228289Y55424407D01*
X16217611Y55433380D01*
X14580577Y57018599D01*
X14551926Y57072662D01*
X14550446Y57089719D01*
X14550446Y59005818D01*
X14569353Y59064009D01*
X14618853Y59099973D01*
X14668763Y59102915D01*
X14685925Y59099501D01*
X14685928Y59099501D01*
X14685931Y59099500D01*
X14685932Y59099500D01*
X14814068Y59099500D01*
X14814069Y59099500D01*
X14939744Y59124499D01*
X15033179Y59163202D01*
X15094172Y59168002D01*
X15146342Y59136033D01*
G37*
%TD.AperFunction*%
%TA.AperFunction,Conductor*%
G36*
X19148691Y61125593D02*
G01*
X19184655Y61076093D01*
X19189500Y61045500D01*
X19189500Y60776924D01*
X19192289Y60747186D01*
X19192291Y60747177D01*
X19236148Y60621842D01*
X19314997Y60515005D01*
X19315004Y60514998D01*
X19421841Y60436149D01*
X19421842Y60436149D01*
X19421843Y60436148D01*
X19547181Y60392290D01*
X19574619Y60389718D01*
X19576923Y60389501D01*
X19576928Y60389500D01*
X19576934Y60389500D01*
X19773100Y60389500D01*
X19831291Y60370593D01*
X19843103Y60360504D01*
X20115503Y60088105D01*
X20143281Y60033588D01*
X20144500Y60018101D01*
X20144500Y59257273D01*
X20170723Y59159407D01*
X20171794Y59155411D01*
X20197653Y59110622D01*
X20210375Y59050774D01*
X20185489Y58994878D01*
X20132501Y58964285D01*
X20071650Y58970681D01*
X20062417Y58975385D01*
X20052174Y58981299D01*
X19979587Y59023207D01*
X19877727Y59050500D01*
X19877725Y59050500D01*
X18907770Y59050500D01*
X18849579Y59069407D01*
X18817947Y59111935D01*
X18817317Y59111601D01*
X18815160Y59115682D01*
X18814325Y59116805D01*
X18814161Y59117273D01*
X18813852Y59118157D01*
X18813851Y59118159D01*
X18735002Y59224996D01*
X18734995Y59225003D01*
X18628158Y59303852D01*
X18502823Y59347709D01*
X18502814Y59347711D01*
X18473076Y59350500D01*
X18473066Y59350500D01*
X18026934Y59350500D01*
X18026923Y59350500D01*
X17997185Y59347711D01*
X17997176Y59347709D01*
X17871841Y59303852D01*
X17765004Y59225003D01*
X17764999Y59224998D01*
X17692441Y59126685D01*
X17642673Y59091093D01*
X17581490Y59091551D01*
X17533131Y59126685D01*
X17496423Y59176423D01*
X17496422Y59176424D01*
X17496418Y59176428D01*
X17390795Y59254381D01*
X17266883Y59297740D01*
X17266874Y59297742D01*
X17237465Y59300500D01*
X16762542Y59300500D01*
X16733124Y59297742D01*
X16733119Y59297741D01*
X16609206Y59254382D01*
X16503578Y59176424D01*
X16498331Y59171176D01*
X16496278Y59173229D01*
X16494282Y59171801D01*
X16485278Y59159407D01*
X16470019Y59154450D01*
X16456971Y59145118D01*
X16427087Y59140500D01*
X16322913Y59140500D01*
X16264722Y59159407D01*
X16243257Y59180714D01*
X16242888Y59181214D01*
X16237814Y59196443D01*
X16228758Y59208907D01*
X16228758Y59223623D01*
X16223547Y59239262D01*
X16228758Y59255717D01*
X16228758Y59270093D01*
X16236829Y59281203D01*
X16242020Y59297592D01*
X16242889Y59298788D01*
X16324380Y59409205D01*
X16324379Y59409205D01*
X16324381Y59409206D01*
X16367741Y59533121D01*
X16370500Y59562543D01*
X16370499Y59937456D01*
X16369980Y59942988D01*
X16369395Y59949226D01*
X16367741Y59966879D01*
X16324381Y60090794D01*
X16324380Y60090796D01*
X16246427Y60196419D01*
X16246418Y60196428D01*
X16140795Y60274381D01*
X16016883Y60317740D01*
X16016874Y60317742D01*
X15987465Y60320500D01*
X15512542Y60320500D01*
X15483124Y60317742D01*
X15483119Y60317741D01*
X15359204Y60274381D01*
X15304833Y60234253D01*
X15301287Y60233072D01*
X15298899Y60230198D01*
X15272564Y60223501D01*
X15246785Y60214911D01*
X15243222Y60216040D01*
X15239601Y60215118D01*
X15224418Y60221994D01*
X15188455Y60233383D01*
X15182764Y60237773D01*
X15179257Y60240688D01*
X15164669Y60255276D01*
X15149555Y60265375D01*
X15145581Y60268678D01*
X15131874Y60290388D01*
X15115981Y60310548D01*
X15115771Y60315893D01*
X15112916Y60320414D01*
X15114586Y60346034D01*
X15113579Y60371687D01*
X15116587Y60376702D01*
X15116898Y60381469D01*
X15126060Y60392493D01*
X15140300Y60416229D01*
X15870163Y61116917D01*
X15925235Y61143577D01*
X15938725Y61144500D01*
X19090500Y61144500D01*
X19148691Y61125593D01*
G37*
%TD.AperFunction*%
%TA.AperFunction,Conductor*%
G36*
X75002152Y79499407D02*
G01*
X75387853Y79482566D01*
X75396432Y79481816D01*
X75777053Y79431705D01*
X75785544Y79430208D01*
X76160338Y79347119D01*
X76168673Y79344885D01*
X76534797Y79229447D01*
X76542913Y79226493D01*
X76897587Y79079582D01*
X76905398Y79075940D01*
X77245910Y78898680D01*
X77253390Y78894362D01*
X77577167Y78688094D01*
X77584241Y78683140D01*
X77888797Y78449446D01*
X77895398Y78443907D01*
X78178459Y78184530D01*
X78184529Y78178460D01*
X78443905Y77895401D01*
X78449445Y77888798D01*
X78683139Y77584242D01*
X78688093Y77577168D01*
X78894361Y77253391D01*
X78898679Y77245911D01*
X79075935Y76905407D01*
X79079585Y76897580D01*
X79226492Y76542914D01*
X79229446Y76534798D01*
X79344884Y76168674D01*
X79347119Y76160332D01*
X79430205Y75785555D01*
X79431705Y75777049D01*
X79481813Y75396446D01*
X79482566Y75387842D01*
X79499406Y75002153D01*
X79499500Y74997835D01*
X79499500Y68248322D01*
X79480593Y68190131D01*
X79470504Y68178318D01*
X76692686Y65400500D01*
X76692685Y65400501D01*
X76599500Y65307315D01*
X76599496Y65307310D01*
X76533609Y65193191D01*
X76533608Y65193186D01*
X76499500Y65065892D01*
X76499500Y15065893D01*
X76499500Y15065892D01*
X76499500Y14934108D01*
X76527073Y14831204D01*
X76533609Y14806810D01*
X76599496Y14692691D01*
X76599498Y14692689D01*
X76599500Y14692686D01*
X79470505Y11821681D01*
X79498281Y11767166D01*
X79499500Y11751679D01*
X79499500Y5002166D01*
X79499406Y4997848D01*
X79482566Y4612159D01*
X79481813Y4603555D01*
X79431705Y4222952D01*
X79430205Y4214446D01*
X79347119Y3839669D01*
X79344884Y3831327D01*
X79229446Y3465203D01*
X79226492Y3457087D01*
X79079585Y3102421D01*
X79075935Y3094594D01*
X78898679Y2754090D01*
X78894361Y2746610D01*
X78688093Y2422833D01*
X78683139Y2415759D01*
X78449445Y2111203D01*
X78443895Y2104589D01*
X78184540Y1821553D01*
X78178447Y1815460D01*
X78162727Y1801054D01*
X77895413Y1556106D01*
X77888797Y1550555D01*
X77584241Y1316861D01*
X77577167Y1311907D01*
X77253390Y1105639D01*
X77245910Y1101321D01*
X76905406Y924065D01*
X76897579Y920415D01*
X76542913Y773508D01*
X76534797Y770554D01*
X76168673Y655116D01*
X76160331Y652881D01*
X75785554Y569795D01*
X75777048Y568295D01*
X75396445Y518187D01*
X75387841Y517434D01*
X75002153Y500594D01*
X74997835Y500500D01*
X5002165Y500500D01*
X4997847Y500594D01*
X4612158Y517434D01*
X4603554Y518187D01*
X4222951Y568295D01*
X4214445Y569795D01*
X3839668Y652881D01*
X3831326Y655116D01*
X3465202Y770554D01*
X3457086Y773508D01*
X3102420Y920415D01*
X3094593Y924065D01*
X2754089Y1101321D01*
X2746609Y1105639D01*
X2422832Y1311907D01*
X2415758Y1316861D01*
X2111202Y1550555D01*
X2104599Y1556095D01*
X1821540Y1815471D01*
X1815470Y1821541D01*
X1556093Y2104602D01*
X1550554Y2111203D01*
X1316860Y2415759D01*
X1311906Y2422833D01*
X1105638Y2746610D01*
X1101320Y2754090D01*
X924064Y3094594D01*
X920414Y3102421D01*
X773507Y3457087D01*
X770553Y3465203D01*
X655115Y3831327D01*
X652880Y3839669D01*
X569794Y4214446D01*
X568294Y4222952D01*
X555643Y4319047D01*
X518184Y4603568D01*
X517434Y4612147D01*
X500594Y4997848D01*
X500500Y5002166D01*
X500500Y11751679D01*
X519407Y11809870D01*
X529490Y11821677D01*
X2336659Y13628845D01*
X51774500Y13628845D01*
X51774500Y13471156D01*
X51805263Y13316504D01*
X51805263Y13316502D01*
X51865603Y13170826D01*
X51865609Y13170815D01*
X51918312Y13091941D01*
X51953211Y13039711D01*
X52064711Y12928211D01*
X52142876Y12875983D01*
X52195814Y12840610D01*
X52195825Y12840604D01*
X52249638Y12818315D01*
X52341503Y12780263D01*
X52496158Y12749500D01*
X52496159Y12749500D01*
X52653841Y12749500D01*
X52653842Y12749500D01*
X52808497Y12780263D01*
X52954179Y12840606D01*
X53085289Y12928211D01*
X53196789Y13039711D01*
X53284394Y13170821D01*
X53344737Y13316503D01*
X53375500Y13471158D01*
X53375500Y13628842D01*
X53344737Y13783497D01*
X53284394Y13929179D01*
X53284393Y13929181D01*
X53284390Y13929186D01*
X53249017Y13982124D01*
X53196789Y14060289D01*
X53085289Y14171789D01*
X53085287Y14171791D01*
X53044497Y14199047D01*
X53006618Y14247097D01*
X53000500Y14281361D01*
X53000500Y14750334D01*
X53019407Y14808525D01*
X53040171Y14829587D01*
X53043701Y14832231D01*
X53157546Y14917454D01*
X53243796Y15032669D01*
X53256188Y15065892D01*
X53276638Y15120723D01*
X53294091Y15167517D01*
X53300500Y15227127D01*
X53300499Y15743101D01*
X53319406Y15801291D01*
X53329489Y15813098D01*
X54436896Y16920504D01*
X54491413Y16948281D01*
X54506900Y16949500D01*
X55066773Y16949500D01*
X55066773Y16949501D01*
X55097199Y16952354D01*
X55225382Y16997207D01*
X55334650Y17077850D01*
X55415293Y17187118D01*
X55460146Y17315301D01*
X55462999Y17345727D01*
X55463000Y17345727D01*
X55463000Y17754273D01*
X55462999Y17754275D01*
X55812000Y17754275D01*
X55812000Y17345726D01*
X55814853Y17315306D01*
X55814855Y17315297D01*
X55859707Y17187117D01*
X55940345Y17077856D01*
X55940347Y17077854D01*
X55940350Y17077850D01*
X55940353Y17077848D01*
X55940355Y17077846D01*
X56049616Y16997208D01*
X56049617Y16997208D01*
X56049618Y16997207D01*
X56177801Y16952354D01*
X56208225Y16949501D01*
X56208227Y16949500D01*
X56208234Y16949500D01*
X57341773Y16949500D01*
X57341773Y16949501D01*
X57372199Y16952354D01*
X57500382Y16997207D01*
X57609650Y17077850D01*
X57632852Y17109289D01*
X57645312Y17118200D01*
X57654317Y17130593D01*
X57669572Y17135550D01*
X57682620Y17144881D01*
X57712508Y17149500D01*
X57814562Y17149500D01*
X57872753Y17130593D01*
X57883969Y17119463D01*
X57884755Y17120248D01*
X57889998Y17115005D01*
X57890001Y17115001D01*
X57890004Y17114999D01*
X57890005Y17114998D01*
X57996841Y17036149D01*
X57996842Y17036149D01*
X57996843Y17036148D01*
X58122181Y16992290D01*
X58149619Y16989718D01*
X58151923Y16989501D01*
X58151928Y16989500D01*
X58151934Y16989500D01*
X58598072Y16989500D01*
X58598075Y16989501D01*
X58627819Y16992290D01*
X58753157Y17036148D01*
X58859999Y17115001D01*
X58938852Y17221843D01*
X58982710Y17347181D01*
X58985500Y17376934D01*
X58985500Y17763066D01*
X58985500Y17763072D01*
X58985499Y17763077D01*
X58982710Y17792815D01*
X58982710Y17792819D01*
X58938852Y17918157D01*
X58911573Y17955119D01*
X58860002Y18024996D01*
X58859995Y18025003D01*
X58753158Y18103852D01*
X58627823Y18147709D01*
X58627814Y18147711D01*
X58598076Y18150500D01*
X58598066Y18150500D01*
X58151934Y18150500D01*
X58151923Y18150500D01*
X58122185Y18147711D01*
X58122176Y18147709D01*
X57996841Y18103852D01*
X57890000Y18024999D01*
X57889998Y18024997D01*
X57864695Y17990712D01*
X57852236Y17981802D01*
X57843231Y17969407D01*
X57827975Y17964451D01*
X57814928Y17955119D01*
X57785040Y17950500D01*
X57712508Y17950500D01*
X57654317Y17969407D01*
X57632852Y17990712D01*
X57609650Y18022150D01*
X57609649Y18022151D01*
X57500383Y18102793D01*
X57372203Y18147645D01*
X57372194Y18147647D01*
X57341774Y18150500D01*
X57341766Y18150500D01*
X56208234Y18150500D01*
X56208225Y18150500D01*
X56177805Y18147647D01*
X56177796Y18147645D01*
X56049616Y18102793D01*
X55940355Y18022155D01*
X55940345Y18022145D01*
X55859707Y17912884D01*
X55814855Y17784704D01*
X55814853Y17784695D01*
X55812000Y17754275D01*
X55462999Y17754275D01*
X55462174Y17763072D01*
X55460146Y17784699D01*
X55415293Y17912882D01*
X55411398Y17918159D01*
X55334654Y18022145D01*
X55334652Y18022147D01*
X55334650Y18022150D01*
X55334646Y18022153D01*
X55334644Y18022155D01*
X55225383Y18102793D01*
X55097203Y18147645D01*
X55097194Y18147647D01*
X55066774Y18150500D01*
X55066766Y18150500D01*
X53933234Y18150500D01*
X53933225Y18150500D01*
X53902805Y18147647D01*
X53902796Y18147645D01*
X53774616Y18102793D01*
X53665355Y18022155D01*
X53665345Y18022145D01*
X53584707Y17912884D01*
X53539855Y17784704D01*
X53539853Y17784695D01*
X53537000Y17754275D01*
X53537000Y17345726D01*
X53539853Y17315305D01*
X53539853Y17315303D01*
X53539854Y17315301D01*
X53560537Y17256192D01*
X53561909Y17195022D01*
X53537096Y17153491D01*
X52738101Y16354496D01*
X52683584Y16326719D01*
X52668097Y16325500D01*
X52352133Y16325500D01*
X52352129Y16325500D01*
X52352128Y16325499D01*
X52344949Y16324728D01*
X52292519Y16319092D01*
X52292514Y16319091D01*
X52157670Y16268798D01*
X52042458Y16182550D01*
X52042450Y16182542D01*
X51956202Y16067330D01*
X51905910Y15932489D01*
X51905908Y15932478D01*
X51899500Y15872871D01*
X51899500Y15227134D01*
X51899501Y15227130D01*
X51905908Y15167520D01*
X51905909Y15167515D01*
X51956202Y15032671D01*
X52029985Y14934110D01*
X52042454Y14917454D01*
X52042457Y14917452D01*
X52042458Y14917451D01*
X52159829Y14829587D01*
X52195082Y14779579D01*
X52199500Y14750334D01*
X52199500Y14314769D01*
X52180593Y14256578D01*
X52155502Y14232454D01*
X52064711Y14171789D01*
X52064707Y14171786D01*
X51953214Y14060293D01*
X51953211Y14060289D01*
X51865609Y13929186D01*
X51865603Y13929175D01*
X51805263Y13783499D01*
X51805263Y13783497D01*
X51774500Y13628845D01*
X2336659Y13628845D01*
X3400500Y14692686D01*
X3433783Y14750334D01*
X3466390Y14806810D01*
X3466390Y14806812D01*
X3466392Y14806814D01*
X3500500Y14934108D01*
X3500500Y15065893D01*
X3500500Y16229057D01*
X49174500Y16229057D01*
X49174500Y16070943D01*
X49215423Y15918216D01*
X49294480Y15781284D01*
X49406284Y15669480D01*
X49543216Y15590423D01*
X49695943Y15549500D01*
X49768099Y15549500D01*
X49826290Y15530593D01*
X49838102Y15520504D01*
X50129086Y15229521D01*
X50129091Y15229517D01*
X50226031Y15173548D01*
X50225101Y15171938D01*
X50265007Y15137865D01*
X50273361Y15120723D01*
X50306204Y15032668D01*
X50392450Y14917459D01*
X50392454Y14917454D01*
X50392457Y14917452D01*
X50392458Y14917451D01*
X50507670Y14831203D01*
X50642511Y14780911D01*
X50642512Y14780911D01*
X50642517Y14780909D01*
X50702127Y14774500D01*
X51197872Y14774501D01*
X51257483Y14780909D01*
X51387996Y14829587D01*
X51392329Y14831203D01*
X51392329Y14831204D01*
X51392331Y14831204D01*
X51507546Y14917454D01*
X51593796Y15032669D01*
X51606188Y15065892D01*
X51626638Y15120723D01*
X51644091Y15167517D01*
X51650500Y15227127D01*
X51650499Y15872872D01*
X51644091Y15932483D01*
X51644089Y15932489D01*
X51593797Y16067330D01*
X51507549Y16182542D01*
X51507548Y16182543D01*
X51507546Y16182546D01*
X51445417Y16229056D01*
X51392329Y16268798D01*
X51257488Y16319090D01*
X51257483Y16319091D01*
X51257481Y16319092D01*
X51257477Y16319092D01*
X51226249Y16322450D01*
X51197873Y16325500D01*
X51197870Y16325500D01*
X50702133Y16325500D01*
X50702129Y16325500D01*
X50702128Y16325499D01*
X50694949Y16324728D01*
X50642519Y16319092D01*
X50642514Y16319091D01*
X50507671Y16268798D01*
X50505807Y16267402D01*
X50503966Y16266775D01*
X50501456Y16265404D01*
X50501218Y16265839D01*
X50447891Y16247668D01*
X50389437Y16265744D01*
X50352772Y16314727D01*
X50350859Y16321018D01*
X50334577Y16381784D01*
X50255520Y16518716D01*
X50143716Y16630520D01*
X50006784Y16709577D01*
X49854057Y16750500D01*
X49695943Y16750500D01*
X49543216Y16709577D01*
X49406284Y16630520D01*
X49294480Y16518716D01*
X49215423Y16381784D01*
X49174500Y16229057D01*
X3500500Y16229057D01*
X3500500Y21276000D01*
X48694500Y21276000D01*
X48694500Y19274000D01*
X48698657Y19235334D01*
X48701483Y19209049D01*
X48712681Y19157575D01*
X48712685Y19157559D01*
X48712688Y19157548D01*
X48723646Y19119342D01*
X48780325Y19022429D01*
X48784461Y19017656D01*
X48826075Y18969630D01*
X48826080Y18969625D01*
X48870813Y18927447D01*
X48970889Y18876561D01*
X48970891Y18876561D01*
X48970892Y18876560D01*
X49018155Y18862682D01*
X49037928Y18856876D01*
X49124000Y18844500D01*
X49124001Y18844500D01*
X55050996Y18844500D01*
X55051000Y18844500D01*
X55115941Y18851482D01*
X55115949Y18851484D01*
X55115951Y18851484D01*
X55167425Y18862682D01*
X55167426Y18862683D01*
X55167452Y18862688D01*
X55205658Y18873646D01*
X55302571Y18930325D01*
X55355375Y18976080D01*
X55397553Y19020813D01*
X55448439Y19120889D01*
X55468124Y19187928D01*
X55480500Y19274000D01*
X55480500Y19598638D01*
X55478749Y19631297D01*
X55475915Y19657655D01*
X55475080Y19664660D01*
X55440297Y19771407D01*
X55406816Y19832723D01*
X55406815Y19832726D01*
X55354703Y19902338D01*
X55354702Y19902340D01*
X55058404Y20198638D01*
X55694500Y20198638D01*
X55694500Y19301362D01*
X55696250Y19268717D01*
X55696251Y19268702D01*
X55699088Y19242312D01*
X55699918Y19235349D01*
X55699919Y19235343D01*
X55699920Y19235340D01*
X55729140Y19145664D01*
X55734703Y19128594D01*
X55734706Y19128586D01*
X55768183Y19067278D01*
X55768184Y19067275D01*
X55768188Y19067270D01*
X55820298Y18997660D01*
X55967160Y18850798D01*
X55967169Y18850790D01*
X55967182Y18850777D01*
X55991482Y18828950D01*
X55991492Y18828942D01*
X56012134Y18812308D01*
X56017675Y18807947D01*
X56117751Y18757061D01*
X56184790Y18737376D01*
X56270862Y18725000D01*
X56270863Y18725000D01*
X59504138Y18725000D01*
X59536797Y18726751D01*
X59563155Y18729585D01*
X59570160Y18730420D01*
X59676907Y18765203D01*
X59738230Y18798688D01*
X59807840Y18850798D01*
X59929702Y18972660D01*
X59951558Y18996992D01*
X59968192Y19017634D01*
X59972590Y19023224D01*
X59972592Y19023227D01*
X59975212Y19027328D01*
X59975410Y19027201D01*
X59978726Y19032507D01*
X59978539Y19032638D01*
X59979378Y19033830D01*
X59989735Y19048546D01*
X60010544Y19097904D01*
X60023457Y19123311D01*
X60024219Y19125908D01*
X60022556Y19126396D01*
X60033351Y19151999D01*
X60036806Y19167884D01*
X60038542Y19174690D01*
X60043123Y19190287D01*
X60055500Y19276362D01*
X60055500Y20582451D01*
X60074407Y20640642D01*
X60084496Y20652455D01*
X60597545Y21165504D01*
X60652062Y21193281D01*
X60667549Y21194500D01*
X67605423Y21194500D01*
X67650364Y21183711D01*
X67712394Y21152105D01*
X67922049Y21083985D01*
X68009140Y21070191D01*
X68139775Y21049500D01*
X68139778Y21049500D01*
X68360225Y21049500D01*
X68469086Y21066743D01*
X68577951Y21083985D01*
X68787606Y21152105D01*
X68984022Y21252185D01*
X69162365Y21381758D01*
X69318242Y21537635D01*
X69447815Y21715978D01*
X69547895Y21912394D01*
X69616015Y22122049D01*
X69648768Y22328842D01*
X69650500Y22339775D01*
X69650500Y22560226D01*
X69616015Y22777949D01*
X69616015Y22777951D01*
X69547895Y22987606D01*
X69447815Y23184022D01*
X69318242Y23362365D01*
X69162365Y23518242D01*
X68984022Y23647815D01*
X68984021Y23647816D01*
X68984019Y23647817D01*
X68819162Y23731816D01*
X68787606Y23747895D01*
X68787602Y23747896D01*
X68787599Y23747898D01*
X68577948Y23816016D01*
X68360225Y23850500D01*
X68360222Y23850500D01*
X68139778Y23850500D01*
X68139775Y23850500D01*
X67922051Y23816016D01*
X67904598Y23810345D01*
X67874006Y23805500D01*
X59301362Y23805500D01*
X59268716Y23803750D01*
X59268701Y23803749D01*
X59242311Y23800912D01*
X59235348Y23800082D01*
X59235340Y23800081D01*
X59235340Y23800080D01*
X59235337Y23800080D01*
X59235333Y23800078D01*
X59128593Y23765297D01*
X59128585Y23765294D01*
X59067277Y23731817D01*
X59067274Y23731816D01*
X58997662Y23679704D01*
X58997660Y23679703D01*
X58997660Y23679702D01*
X55820298Y20502340D01*
X55820291Y20502332D01*
X55820276Y20502318D01*
X55798449Y20478018D01*
X55781804Y20457361D01*
X55777448Y20451827D01*
X55726562Y20351753D01*
X55726559Y20351746D01*
X55706877Y20284717D01*
X55706875Y20284707D01*
X55694500Y20198638D01*
X55058404Y20198638D01*
X53677340Y21579702D01*
X53677330Y21579711D01*
X53677317Y21579724D01*
X53653017Y21601551D01*
X53648220Y21605416D01*
X53632366Y21618192D01*
X53626825Y21622553D01*
X53578456Y21647147D01*
X53526752Y21673438D01*
X53526745Y21673441D01*
X53459716Y21693123D01*
X53459706Y21693125D01*
X53395400Y21702371D01*
X53373638Y21705500D01*
X53373637Y21705500D01*
X53284147Y21705500D01*
X53225956Y21724407D01*
X53189992Y21773907D01*
X53189992Y21835093D01*
X53201831Y21859501D01*
X53209391Y21870816D01*
X53209392Y21870819D01*
X53209394Y21870821D01*
X53269737Y22016503D01*
X53300500Y22171158D01*
X53300500Y22328842D01*
X53269737Y22483497D01*
X53209394Y22629179D01*
X53209393Y22629181D01*
X53209390Y22629186D01*
X53174017Y22682124D01*
X53121789Y22760289D01*
X53010289Y22871789D01*
X52958059Y22906688D01*
X52879185Y22959391D01*
X52879174Y22959397D01*
X52733497Y23019737D01*
X52578844Y23050500D01*
X52578842Y23050500D01*
X52421158Y23050500D01*
X52421155Y23050500D01*
X52266503Y23019737D01*
X52266501Y23019737D01*
X52120825Y22959397D01*
X52120814Y22959391D01*
X51989711Y22871789D01*
X51989707Y22871786D01*
X51878214Y22760293D01*
X51878211Y22760289D01*
X51790609Y22629186D01*
X51790603Y22629175D01*
X51730263Y22483499D01*
X51730263Y22483497D01*
X51699500Y22328845D01*
X51699500Y22171156D01*
X51730263Y22016504D01*
X51730263Y22016502D01*
X51790603Y21870826D01*
X51790608Y21870816D01*
X51798169Y21859501D01*
X51814777Y21800612D01*
X51793599Y21743209D01*
X51742725Y21709217D01*
X51715853Y21705500D01*
X51449500Y21705500D01*
X51391309Y21724407D01*
X51355345Y21773907D01*
X51350500Y21804500D01*
X51350500Y27860258D01*
X51369407Y27918449D01*
X51379490Y27930256D01*
X68518713Y45069479D01*
X68518716Y45069480D01*
X68630520Y45181284D01*
X68671131Y45251626D01*
X68700398Y45302316D01*
X68700408Y45302335D01*
X68700435Y45302381D01*
X68709577Y45318215D01*
X68750501Y45470943D01*
X68750501Y45629057D01*
X68750501Y45635119D01*
X68750500Y45635137D01*
X68750500Y55569001D01*
X68769407Y55627192D01*
X68790096Y55648198D01*
X69883699Y56468400D01*
X69924086Y56504727D01*
X69954002Y56536888D01*
X69972553Y56558813D01*
X70008496Y56629500D01*
X70023435Y56658881D01*
X70023435Y56658882D01*
X70023439Y56658889D01*
X70043124Y56725928D01*
X70055500Y56812000D01*
X70055500Y58948638D01*
X70053749Y58981297D01*
X70050915Y59007655D01*
X70050080Y59014660D01*
X70015297Y59121407D01*
X70012414Y59126686D01*
X69981816Y59182723D01*
X69981815Y59182726D01*
X69962216Y59208907D01*
X69929702Y59252340D01*
X69002340Y60179702D01*
X69002330Y60179711D01*
X69002317Y60179724D01*
X68978017Y60201551D01*
X68973220Y60205416D01*
X68957366Y60218192D01*
X68951825Y60222553D01*
X68887470Y60255276D01*
X68851752Y60273438D01*
X68851745Y60273441D01*
X68784716Y60293123D01*
X68784706Y60293125D01*
X68720400Y60302371D01*
X68698638Y60305500D01*
X68698637Y60305500D01*
X65667550Y60305500D01*
X65609359Y60324407D01*
X65597547Y60334496D01*
X65252351Y60679691D01*
X65252317Y60679724D01*
X65228017Y60701551D01*
X65216559Y60710784D01*
X65207366Y60718192D01*
X65201825Y60722553D01*
X65129090Y60759537D01*
X65101752Y60773438D01*
X65101745Y60773441D01*
X65034716Y60793123D01*
X65034706Y60793125D01*
X64970400Y60802371D01*
X64948638Y60805500D01*
X53624000Y60805500D01*
X53578411Y60800599D01*
X53559048Y60798517D01*
X53507574Y60787319D01*
X53507554Y60787314D01*
X53507548Y60787312D01*
X53469342Y60776354D01*
X53377349Y60722552D01*
X53372426Y60719673D01*
X53319625Y60673921D01*
X53319624Y60673920D01*
X53277446Y60629186D01*
X53226562Y60529115D01*
X53226559Y60529108D01*
X53206877Y60462079D01*
X53206875Y60462069D01*
X53194500Y60376000D01*
X53194500Y55874004D01*
X53201483Y55809049D01*
X53212681Y55757575D01*
X53212685Y55757559D01*
X53212688Y55757548D01*
X53223646Y55719342D01*
X53280325Y55622429D01*
X53326080Y55569625D01*
X53370813Y55527447D01*
X53470889Y55476561D01*
X53470891Y55476561D01*
X53470892Y55476560D01*
X53517910Y55462754D01*
X53537928Y55456876D01*
X53624000Y55444500D01*
X67450500Y55444500D01*
X67508691Y55425593D01*
X67544655Y55376093D01*
X67549500Y55345500D01*
X67549500Y45839744D01*
X67530593Y45781553D01*
X67520504Y45769740D01*
X50381284Y28630520D01*
X50381283Y28630521D01*
X50269480Y28518717D01*
X50250735Y28486249D01*
X50237012Y28462479D01*
X50222756Y28437788D01*
X50190424Y28381789D01*
X50190423Y28381785D01*
X50149499Y28229057D01*
X50149499Y28229055D01*
X50149499Y28062969D01*
X50149500Y28062956D01*
X50149500Y21804500D01*
X50130593Y21746309D01*
X50081093Y21710345D01*
X50050500Y21705500D01*
X49124000Y21705500D01*
X49078411Y21700599D01*
X49059048Y21698517D01*
X49007574Y21687319D01*
X49007554Y21687314D01*
X49007548Y21687312D01*
X48969342Y21676354D01*
X48877349Y21622552D01*
X48872426Y21619673D01*
X48819625Y21573921D01*
X48819624Y21573920D01*
X48777446Y21529186D01*
X48726562Y21429115D01*
X48726559Y21429108D01*
X48706877Y21362079D01*
X48706875Y21362069D01*
X48694500Y21276000D01*
X3500500Y21276000D01*
X3500500Y55150916D01*
X7689487Y55150916D01*
X7689632Y54255942D01*
X7689633Y54255908D01*
X7691103Y54226037D01*
X7691107Y54225988D01*
X7695885Y54177519D01*
X7695891Y54177472D01*
X7700283Y54147866D01*
X7718098Y54058312D01*
X7720000Y54038997D01*
X7720000Y53961001D01*
X7718098Y53941687D01*
X7700368Y53852558D01*
X7700364Y53852537D01*
X7695968Y53822884D01*
X7695967Y53822881D01*
X7691183Y53774269D01*
X7689716Y53744334D01*
X7689716Y53744313D01*
X7689959Y52254289D01*
X7689960Y52254271D01*
X7691433Y52224371D01*
X7691436Y52224331D01*
X7696215Y52175857D01*
X7696217Y52175836D01*
X7700609Y52146232D01*
X7700611Y52146225D01*
X7718098Y52058314D01*
X7720000Y52039000D01*
X7720000Y51961003D01*
X7718098Y51941689D01*
X7700695Y51854201D01*
X7700692Y51854186D01*
X7696298Y51824551D01*
X7696293Y51824508D01*
X7691512Y51775936D01*
X7691509Y51775893D01*
X7690043Y51745978D01*
X7690043Y51745954D01*
X7690286Y50252640D01*
X7690287Y50252620D01*
X7691760Y50222719D01*
X7691763Y50222678D01*
X7696542Y50174209D01*
X7696542Y50174207D01*
X7696543Y50174202D01*
X7700939Y50144578D01*
X7718098Y50058316D01*
X7720000Y50039002D01*
X7720000Y49961002D01*
X7718098Y49941688D01*
X7701022Y49855844D01*
X7701018Y49855823D01*
X7696626Y49826199D01*
X7696620Y49826150D01*
X7691839Y49777577D01*
X7691836Y49777533D01*
X7690370Y49747620D01*
X7690370Y49747597D01*
X7690614Y48250998D01*
X7690615Y48250980D01*
X7692090Y48221046D01*
X7696870Y48172562D01*
X7696873Y48172538D01*
X7701264Y48142936D01*
X7718098Y48058312D01*
X7720000Y48038997D01*
X7720000Y47961004D01*
X7718098Y47941690D01*
X7701349Y47857491D01*
X7696953Y47827845D01*
X7696948Y47827802D01*
X7692166Y47779220D01*
X7692163Y47779177D01*
X7690697Y47749262D01*
X7690697Y47749238D01*
X7690945Y46224855D01*
X7690945Y46224847D01*
X7696814Y46165318D01*
X7696816Y46165304D01*
X7718098Y46058315D01*
X7720000Y46039001D01*
X7720000Y45961000D01*
X7718098Y45941686D01*
X7696889Y45835062D01*
X7691020Y45775430D01*
X7691019Y45775408D01*
X7691219Y44551019D01*
X7691220Y44551007D01*
X7695542Y44499847D01*
X7709514Y44417661D01*
X7716861Y44389184D01*
X7720000Y44364452D01*
X7720000Y43635360D01*
X7716862Y43610633D01*
X7709687Y43582821D01*
X7709685Y43582809D01*
X7695713Y43500543D01*
X7691400Y43449344D01*
X7691400Y43449340D01*
X7692582Y36216625D01*
X7692582Y36216617D01*
X7698451Y36157088D01*
X7698453Y36157074D01*
X7718098Y36058314D01*
X7720000Y36039000D01*
X7720000Y35961002D01*
X7718098Y35941688D01*
X7698522Y35843276D01*
X7692654Y35783636D01*
X7692906Y34239476D01*
X7692907Y34239458D01*
X7694382Y34209525D01*
X7699163Y34161031D01*
X7703557Y34131412D01*
X7718098Y34058313D01*
X7720000Y34038999D01*
X7720000Y33961003D01*
X7718098Y33941689D01*
X7703638Y33868998D01*
X7699235Y33839301D01*
X7694454Y33790724D01*
X7694451Y33790680D01*
X7692985Y33760767D01*
X7692985Y33760744D01*
X7693237Y32213333D01*
X7693237Y32213325D01*
X7699106Y32153796D01*
X7699108Y32153782D01*
X7718098Y32058315D01*
X7720000Y32039001D01*
X7720000Y31961001D01*
X7718098Y31941687D01*
X7699176Y31846563D01*
X7693308Y31786923D01*
X7693561Y30236189D01*
X7693562Y30236155D01*
X7695032Y30206284D01*
X7695036Y30206235D01*
X7699817Y30157737D01*
X7704213Y30128119D01*
X7704215Y30128110D01*
X7718098Y30058316D01*
X7720000Y30039002D01*
X7720000Y29961004D01*
X7718098Y29941690D01*
X7704291Y29872281D01*
X7704290Y29872276D01*
X7699896Y29842640D01*
X7699890Y29842591D01*
X7695108Y29794009D01*
X7695105Y29793965D01*
X7693639Y29764051D01*
X7693639Y29764027D01*
X7693892Y28210040D01*
X7693892Y28210032D01*
X7699761Y28150503D01*
X7699762Y28150492D01*
X7699763Y28150488D01*
X7715586Y28070940D01*
X7718098Y28058315D01*
X7720000Y28039001D01*
X7720000Y27961001D01*
X7718098Y27941687D01*
X7713476Y27918449D01*
X7701901Y27860258D01*
X7699831Y27849853D01*
X7693962Y27790211D01*
X7693961Y27790185D01*
X7693966Y27765651D01*
X7693966Y27765649D01*
X7694165Y26542605D01*
X7694166Y26542592D01*
X7698487Y26491441D01*
X7698488Y26491433D01*
X7712456Y26409254D01*
X7712458Y26409247D01*
X7716861Y26392181D01*
X7720000Y26367450D01*
X7720000Y25632358D01*
X7716863Y25607634D01*
X7712633Y25591237D01*
X7712633Y25591233D01*
X7698657Y25508953D01*
X7698656Y25508945D01*
X7694343Y25457746D01*
X7694362Y25339317D01*
X7700240Y25279722D01*
X7700243Y25279703D01*
X7715120Y25204958D01*
X7715123Y25204949D01*
X7719201Y25184461D01*
X7726695Y25164419D01*
X7724093Y25163709D01*
X7724096Y25163698D01*
X7740050Y25128700D01*
X7741932Y25123666D01*
X7741942Y25123637D01*
X7753574Y25092530D01*
X7766455Y25069989D01*
X7767924Y25069026D01*
X7773036Y25062057D01*
X7792901Y25032337D01*
X7818807Y24993573D01*
X7856803Y24947282D01*
X8447304Y24356877D01*
X8470448Y24337886D01*
X8493584Y24318901D01*
X8493596Y24318892D01*
X8574363Y24264930D01*
X8580257Y24261090D01*
X8580263Y24261087D01*
X8684471Y24219325D01*
X8684473Y24219325D01*
X8684475Y24219324D01*
X8779763Y24200370D01*
X8787213Y24199637D01*
X8839356Y24194500D01*
X8839363Y24194500D01*
X10289636Y24194500D01*
X10327556Y24198236D01*
X10349229Y24200370D01*
X10444517Y24219324D01*
X10451420Y24220780D01*
X10554642Y24264939D01*
X10635390Y24318892D01*
X10635420Y24318912D01*
X10635420Y24318913D01*
X10635424Y24318915D01*
X10681720Y24356909D01*
X11088037Y24763226D01*
X11126031Y24809522D01*
X11180007Y24890304D01*
X11183858Y24896215D01*
X11222874Y24993571D01*
X11225621Y25000426D01*
X11225622Y25000429D01*
X11244576Y25095717D01*
X11247326Y25123637D01*
X11250446Y25155310D01*
X11250446Y49055393D01*
X11269353Y49113584D01*
X11283810Y49129508D01*
X14272390Y51775893D01*
X14434700Y51919618D01*
X14490801Y51944040D01*
X14500332Y51944500D01*
X21695953Y51944500D01*
X21733873Y51948236D01*
X21755546Y51950370D01*
X21850834Y51969324D01*
X21857737Y51970780D01*
X21960959Y52014939D01*
X22041741Y52068915D01*
X22047566Y52072905D01*
X22126031Y52153205D01*
X22180007Y52233987D01*
X22183858Y52239898D01*
X22225622Y52344112D01*
X22244576Y52439400D01*
X22246710Y52461073D01*
X22250446Y52498993D01*
X22250446Y52978033D01*
X22250500Y52979838D01*
X22250500Y54020152D01*
X22250446Y54021963D01*
X22250446Y55801008D01*
X22244576Y55860597D01*
X22244576Y55860600D01*
X22225622Y55955888D01*
X22224166Y55962791D01*
X22224164Y55962794D01*
X22224164Y55962797D01*
X22200325Y56018520D01*
X22180007Y56066013D01*
X22126031Y56146795D01*
X22122041Y56152620D01*
X22050310Y56222712D01*
X22021904Y56276904D01*
X22020500Y56293520D01*
X22020500Y57157726D01*
X22020500Y57157727D01*
X21993207Y57259587D01*
X21965391Y57307765D01*
X21965249Y57308434D01*
X21964747Y57308898D01*
X21958903Y57338288D01*
X21952671Y57367612D01*
X21952949Y57368238D01*
X21952816Y57368909D01*
X21965375Y57396146D01*
X21977558Y57423507D01*
X21978150Y57423849D01*
X21978437Y57424471D01*
X22004604Y57439123D01*
X22030546Y57454100D01*
X22031723Y57454343D01*
X22035534Y57455101D01*
X22054836Y57457000D01*
X22905163Y57457000D01*
X22924474Y57455099D01*
X22938684Y57452272D01*
X22964194Y57448488D01*
X23012269Y57427251D01*
X25329441Y55535681D01*
X25336203Y55530317D01*
X25339928Y55527447D01*
X25340591Y55526936D01*
X25432682Y55478359D01*
X25432690Y55478357D01*
X25432691Y55478356D01*
X25490872Y55459452D01*
X25490869Y55459452D01*
X25585273Y55444500D01*
X25585276Y55444500D01*
X27599964Y55444500D01*
X27607014Y55445074D01*
X27649323Y55448514D01*
X27680895Y55453683D01*
X27712771Y55460668D01*
X27813671Y55509901D01*
X27862793Y55546379D01*
X27919476Y55601133D01*
X27970681Y55697467D01*
X28014689Y55739975D01*
X28058099Y55750000D01*
X29271648Y55750000D01*
X29282014Y55755283D01*
X29342447Y55745716D01*
X29376392Y55717323D01*
X29422074Y55657083D01*
X29422078Y55657078D01*
X29542658Y55565639D01*
X29542659Y55565639D01*
X29542660Y55565638D01*
X29640801Y55526936D01*
X29683436Y55510123D01*
X29705988Y55507415D01*
X29761509Y55481704D01*
X29764171Y55479141D01*
X29780260Y55463053D01*
X29802465Y55440848D01*
X29915496Y55383257D01*
X29915501Y55383255D01*
X29915505Y55383253D01*
X29973696Y55364346D01*
X30023817Y55356408D01*
X30098997Y55344500D01*
X30099000Y55344500D01*
X49923566Y55344500D01*
X49923568Y55344500D01*
X49923804Y55344524D01*
X49933510Y55345000D01*
X50066490Y55345000D01*
X50076195Y55344524D01*
X50076432Y55344500D01*
X50076434Y55344500D01*
X52350994Y55344500D01*
X52351000Y55344500D01*
X52414428Y55349491D01*
X52445021Y55354336D01*
X52445042Y55354341D01*
X52445043Y55354341D01*
X52506892Y55369190D01*
X52506892Y55369191D01*
X52506900Y55369192D01*
X52619941Y55426789D01*
X52669441Y55462753D01*
X52669442Y55462754D01*
X52759151Y55552464D01*
X52816747Y55665505D01*
X52835654Y55723696D01*
X52849150Y55808907D01*
X52855500Y55848997D01*
X52855500Y60391646D01*
X52850451Y60455420D01*
X52850450Y60455434D01*
X52845549Y60486198D01*
X52830523Y60548412D01*
X52772720Y60661348D01*
X52736666Y60710782D01*
X52646799Y60800322D01*
X52533655Y60857715D01*
X52520986Y60861807D01*
X52478636Y60875483D01*
X52476842Y60876131D01*
X52475427Y60876519D01*
X52350087Y60896137D01*
X52350084Y60896137D01*
X42813510Y60878798D01*
X30098076Y60855679D01*
X30035024Y60850630D01*
X30035014Y60850629D01*
X30004607Y60845785D01*
X29943101Y60830989D01*
X29943099Y60830988D01*
X29904441Y60811290D01*
X29859496Y60800500D01*
X29771893Y60800500D01*
X29683434Y60789877D01*
X29542660Y60734363D01*
X29542656Y60734360D01*
X29422081Y60642925D01*
X29422075Y60642919D01*
X29406093Y60621843D01*
X29343407Y60539181D01*
X29293182Y60504238D01*
X29264525Y60500000D01*
X28032472Y60500000D01*
X27974281Y60518907D01*
X27943051Y60556517D01*
X27931320Y60581208D01*
X27893335Y60661162D01*
X27863991Y60701551D01*
X27857374Y60710658D01*
X27857373Y60710659D01*
X27857371Y60710662D01*
X27803203Y60767919D01*
X27803202Y60767920D01*
X27803201Y60767921D01*
X27704624Y60821640D01*
X27704622Y60821641D01*
X27646429Y60840549D01*
X27646432Y60840549D01*
X27552029Y60855500D01*
X27552026Y60855500D01*
X25486319Y60855500D01*
X25474864Y60855285D01*
X25474855Y60855285D01*
X25474819Y60855284D01*
X25467465Y60855008D01*
X25467457Y60855008D01*
X25467455Y60855007D01*
X25467452Y60855007D01*
X25467449Y60855006D01*
X25363035Y60832394D01*
X25306412Y60809181D01*
X25224734Y60759537D01*
X23035400Y58903360D01*
X23007833Y58886829D01*
X23002518Y58884725D01*
X22991710Y58881828D01*
X22918032Y58851310D01*
X22917770Y58851160D01*
X22914733Y58849956D01*
X22912558Y58849819D01*
X22878278Y58843000D01*
X22069400Y58843000D01*
X22023860Y58854096D01*
X22004505Y58864123D01*
X22001334Y58865766D01*
X21958363Y58909322D01*
X21949200Y58969817D01*
X21961137Y59003170D01*
X21968207Y59015413D01*
X21995500Y59117273D01*
X21995500Y59837593D01*
X22003548Y59862365D01*
X22009168Y59887787D01*
X22012875Y59891072D01*
X22014407Y59895784D01*
X22054965Y59928357D01*
X22088560Y59942988D01*
X22140566Y59965326D01*
X22180571Y59992141D01*
X22220639Y60018912D01*
X22227479Y60023617D01*
X22265262Y60062599D01*
X22305434Y60103828D01*
X22332169Y60143966D01*
X22332168Y60143967D01*
X22358909Y60183986D01*
X22363632Y60191276D01*
X22383629Y60241959D01*
X22404748Y60294880D01*
X22414026Y60341881D01*
X22423478Y60389395D01*
X22424831Y60396651D01*
X22424819Y60397543D01*
X22425285Y60408470D01*
X22429349Y60449801D01*
X22424953Y63493074D01*
X22419453Y63550340D01*
X22401818Y63642019D01*
X22400899Y63646609D01*
X22358198Y63750443D01*
X22305365Y63831977D01*
X22268027Y63878804D01*
X22268026Y63878805D01*
X22268022Y63878810D01*
X21287286Y64887565D01*
X21285768Y64889115D01*
X21283369Y64891548D01*
X21283357Y64891559D01*
X21235540Y64931085D01*
X21154789Y64985040D01*
X21154758Y64985061D01*
X21148847Y64988912D01*
X21148843Y64988914D01*
X21148841Y64988915D01*
X21044636Y65030676D01*
X20972671Y65044991D01*
X20949345Y65049630D01*
X20949343Y65049631D01*
X20889752Y65055500D01*
X20889745Y65055500D01*
X14095840Y65055500D01*
X14095254Y65055500D01*
X14095246Y65055499D01*
X14035447Y65049486D01*
X14035438Y65049485D01*
X13940235Y65030312D01*
X13933308Y65028833D01*
X13933294Y65028829D01*
X13830193Y64984430D01*
X13830191Y64984430D01*
X13830189Y64984428D01*
X13790715Y64957917D01*
X13749528Y64930255D01*
X13703335Y64892160D01*
X10572143Y61746021D01*
X10533862Y61699035D01*
X10480258Y61617977D01*
X10476452Y61612074D01*
X10476449Y61612070D01*
X10435182Y61507656D01*
X10416679Y61412267D01*
X10411095Y61352662D01*
X10411095Y61352654D01*
X10411095Y61352653D01*
X10417911Y59921220D01*
X10435374Y56254149D01*
X10416744Y56195869D01*
X10406545Y56183841D01*
X9959501Y55734663D01*
X9905051Y55706756D01*
X9889331Y55705500D01*
X8243947Y55705500D01*
X8243941Y55705500D01*
X8243926Y55705499D01*
X8184306Y55699622D01*
X8088948Y55680638D01*
X8082113Y55679195D01*
X8082107Y55679193D01*
X7978893Y55635017D01*
X7898100Y55581014D01*
X7892302Y55577041D01*
X7892298Y55577037D01*
X7813845Y55496725D01*
X7759887Y55415943D01*
X7756038Y55410033D01*
X7756030Y55410018D01*
X7714286Y55305804D01*
X7695348Y55210517D01*
X7689487Y55150916D01*
X3500500Y55150916D01*
X3500500Y65065892D01*
X3466392Y65193186D01*
X3466390Y65193189D01*
X3466390Y65193191D01*
X3400503Y65307310D01*
X3400499Y65307315D01*
X3307314Y65400501D01*
X3307314Y65400500D01*
X529496Y68178318D01*
X501719Y68232835D01*
X500500Y68248322D01*
X500500Y74997835D01*
X500594Y75002153D01*
X510433Y75227502D01*
X517434Y75387856D01*
X518184Y75396432D01*
X568295Y75777058D01*
X569791Y75785541D01*
X652883Y76160345D01*
X655115Y76168674D01*
X770553Y76534798D01*
X773507Y76542914D01*
X785072Y76570834D01*
X920421Y76897597D01*
X924056Y76905391D01*
X1101325Y77245921D01*
X1105632Y77253382D01*
X1311913Y77577180D01*
X1316851Y77584231D01*
X1550564Y77888811D01*
X1556083Y77895388D01*
X1815481Y78178472D01*
X1821528Y78184519D01*
X2104612Y78443917D01*
X2111189Y78449436D01*
X2415769Y78683149D01*
X2422820Y78688087D01*
X2746618Y78894368D01*
X2754079Y78898675D01*
X3094609Y79075944D01*
X3102403Y79079579D01*
X3457093Y79226496D01*
X3465194Y79229445D01*
X3831334Y79344888D01*
X3839655Y79347117D01*
X4214459Y79430209D01*
X4222942Y79431705D01*
X4603568Y79481816D01*
X4612144Y79482566D01*
X4997847Y79499407D01*
X5002165Y79499500D01*
X5065892Y79499500D01*
X74934108Y79499500D01*
X74997835Y79499500D01*
X75002152Y79499407D01*
G37*
%TD.AperFunction*%
%TD*%
M02*
